<svg width="20" height="20" viewBox="0 0 20 20" fill="none" xmlns="http://www.w3.org/2000/svg">
<path d="M9.08203 0.20207C9.66406 -0.0670313 10.3359 -0.0670313 10.918 0.20207L19.457 4.14852C19.7891 4.30086 20 4.63289 20 4.96492C20 5.36336 19.7891 5.69539 19.457 5.85164L10.918 9.79696C10.3359 10.0665 9.66406 10.0665 9.08203 9.79696L0.544141 5.85164C0.212422 5.69539 0 5.36336 0 4.96492C0 4.63289 0.212383 4.30086 0.544141 4.14852L9.08203 0.20207ZM19.457 9.14852C19.7891 9.30086 20 9.63289 20 9.96493C20 10.3634 19.7891 10.6954 19.457 10.8516L10.918 14.797C10.3359 15.0665 9.66406 15.0665 9.08203 14.797L0.544141 10.8516C0.212422 10.6954 0 10.3634 0 9.96493C0 9.63289 0.212383 9.30086 0.544141 9.14852L2.62227 8.18758L8.55859 10.9298C9.47266 11.3556 10.5273 11.3556 11.4414 10.9298L17.3789 8.18758L19.457 9.14852ZM11.4414 15.9298L17.3789 13.1876L19.457 14.1485C19.7891 14.3009 20 14.6329 20 14.9649C20 15.3634 19.7891 15.6954 19.457 15.8516L10.918 19.797C10.3359 20.0665 9.66406 20.0665 9.08203 19.797L0.544141 15.8516C0.212422 15.6954 0 15.3634 0 14.9649C0 14.6329 0.212383 14.3009 0.544141 14.1485L2.62227 13.1876L8.55859 15.9298C9.47266 16.3556 10.5273 16.3556 11.4414 15.9298Z" fill="black"/>
</svg>
