<svg width="20" height="21" viewBox="0 0 20 21" fill="none" xmlns="http://www.w3.org/2000/svg">
<path fill-rule="evenodd" clip-rule="evenodd" d="M10 20.9902C15.5228 20.9902 20 16.5131 20 10.9902C20 5.46739 15.5228 0.990234 10 0.990234C4.47715 0.990234 0 5.46739 0 10.9902C0 16.5131 4.47715 20.9902 10 20.9902ZM10.7936 10.6194H12.4218V8.68899H10.7936V8.30292C10.7936 7.77697 10.9055 7.41328 11.1293 7.21185C11.3531 7.01042 11.7504 6.9153 12.3211 6.92649V4.94578C11.0118 4.91221 10.0326 5.16399 9.38357 5.70114C8.73452 6.23828 8.41 7.07757 8.41 8.21899V8.68899H7.3525V10.6194H8.41V17.9883H10.7936V10.6194Z" fill="black"/>
</svg>
