<svg width="42" height="42" viewBox="0 0 42 42" fill="none" xmlns="http://www.w3.org/2000/svg">
<rect x="12" y="12" width="18" height="18" fill="black"/>
<path d="M30 6C30 2.68629 32.6863 0 36 0C39.3137 0 42 2.68629 42 6C42 9.31371 39.3137 12 36 12H30V6Z" fill="black"/>
<path d="M0 6C0 2.68629 2.68629 0 6 0C9.31371 0 12 2.68629 12 6V12H6C2.68629 12 0 9.31371 0 6Z" fill="black"/>
<path d="M0 36C0 32.6863 2.68629 30 6 30H12V36C12 39.3137 9.31371 42 6 42C2.68629 42 0 39.3137 0 36Z" fill="black"/>
<path d="M30 30H36C39.3137 30 42 32.6863 42 36C42 39.3137 39.3137 42 36 42C32.6863 42 30 39.3137 30 36V30Z" fill="black"/>
</svg>
