<svg width="280" height="250" viewBox="0 0 280 250" fill="none" xmlns="http://www.w3.org/2000/svg">
<g clip-path="url(#clip0_53_701)">
<path d="M274.888 99.3025C275.526 68.2735 264.673 37.6523 238.749 19.0985C192.112 -14.3328 148.135 3.17059 118.637 18.5678C92.1422 32.3895 56.0708 20.8025 33.704 44.1441C10.6709 68.1785 4.93947 106.526 15.5158 137.203C17.507 142.995 20.0698 148.579 23.1672 153.874C44.6248 190.484 70.5998 194.77 93.9548 207.463C117.31 220.156 143.844 243.017 182.97 232.402C209.77 225.139 229.799 204.619 244.751 182.367C261.714 157.165 274.255 130.08 274.888 99.3025Z" fill="#FFCF23"/>
<path opacity="0.7" d="M266.571 167.206C282.497 140.568 288.238 108.592 274.91 79.6321C250.96 27.488 204.087 20.907 170.835 19.6688C140.973 18.5502 115.379 -9.38453 84.3864 -0.188628C52.4719 9.27897 28.496 39.7512 22.4863 71.6389C21.3467 77.6567 20.8067 83.7769 20.8742 89.9109C21.3774 132.343 41.8184 148.933 55.8181 171.529C69.8178 194.125 81.542 227.129 120.788 237.291C147.666 244.258 175.23 236.355 199.243 224.432C226.463 210.943 250.775 193.628 266.571 167.206Z" fill="white"/>
<path d="M121.194 109.884C121.506 109.586 121.901 109.386 122.328 109.31C122.755 109.235 123.196 109.287 123.593 109.46C123.99 109.633 124.326 109.919 124.558 110.282C124.791 110.644 124.909 111.067 124.897 111.497C124.885 111.926 124.745 112.342 124.493 112.692C124.242 113.042 123.89 113.31 123.484 113.462C123.078 113.613 122.636 113.642 122.213 113.544C121.791 113.446 121.407 113.225 121.112 112.911C120.719 112.498 120.507 111.948 120.522 111.381C120.538 110.814 120.779 110.276 121.194 109.884Z" fill="#FFCF23"/>
<path d="M128.564 100.193C131.392 98.4298 135.728 102.612 135.394 105.349C134.984 108.491 126.092 110.356 126.092 110.356C125.693 110.384 125.295 110.277 124.965 110.051C125.031 110.047 125.094 110.021 125.143 109.977L129.568 105.923C129.622 105.859 129.651 105.777 129.649 105.693C129.646 105.609 129.613 105.529 129.555 105.468C129.497 105.407 129.419 105.368 129.335 105.36C129.25 105.352 129.166 105.374 129.097 105.423L124.672 109.477C124.629 109.521 124.599 109.574 124.583 109.633C123.395 107.545 126.263 101.633 128.564 100.193Z" fill="black"/>
<path d="M135.51 113.33C138.207 115.357 135.81 120.763 133.085 121.323C129.957 121.959 124.972 114.269 124.972 114.269C124.799 113.912 124.755 113.506 124.849 113.121C124.878 113.182 124.926 113.232 124.986 113.263L130.449 116.087C130.488 116.109 130.532 116.123 130.576 116.127C130.621 116.132 130.666 116.128 130.709 116.114C130.752 116.101 130.792 116.079 130.826 116.05C130.86 116.021 130.887 115.985 130.907 115.945C130.928 115.905 130.941 115.862 130.945 115.817C130.948 115.772 130.943 115.727 130.929 115.684C130.915 115.641 130.893 115.602 130.863 115.568C130.833 115.533 130.797 115.506 130.757 115.486L125.293 112.668C125.236 112.648 125.173 112.648 125.116 112.668C126.659 110.85 133.317 111.648 135.51 113.33Z" fill="black"/>
<path d="M125.57 124.02C124.594 127.195 118.618 126.722 117.109 124.337C115.374 121.634 120.858 114.506 120.858 114.506C121.139 114.229 121.508 114.057 121.903 114.02C121.857 114.069 121.827 114.13 121.814 114.195L121.131 120.175C121.12 120.265 121.145 120.357 121.201 120.429C121.257 120.501 121.34 120.548 121.432 120.56C121.476 120.567 121.521 120.564 121.564 120.553C121.607 120.542 121.648 120.522 121.683 120.495C121.718 120.468 121.747 120.434 121.768 120.395C121.79 120.356 121.803 120.314 121.807 120.27L122.49 114.29C122.496 114.229 122.484 114.168 122.456 114.114C124.71 114.972 126.369 121.432 125.57 124.02Z" fill="black"/>
<path d="M111.83 118.203C108.463 118.311 106.77 112.582 108.463 110.42C110.41 107.933 119.144 110.751 119.144 110.751C119.508 110.923 119.804 111.211 119.984 111.568C119.919 111.551 119.851 111.551 119.786 111.568L113.831 112.838C113.787 112.847 113.745 112.865 113.707 112.89C113.67 112.916 113.639 112.948 113.615 112.986C113.591 113.025 113.576 113.067 113.569 113.111C113.563 113.156 113.566 113.201 113.578 113.244C113.588 113.287 113.606 113.329 113.632 113.365C113.658 113.402 113.691 113.433 113.729 113.457C113.767 113.481 113.81 113.497 113.854 113.504C113.899 113.512 113.944 113.511 113.988 113.501L119.916 112.23C119.975 112.216 120.03 112.186 120.073 112.142C120.1 114.494 114.575 118.115 111.83 118.203Z" fill="black"/>
<path d="M112.372 103.533C111.048 100.431 115.869 97.0125 118.519 97.8909C121.578 98.9044 122.07 107.945 122.07 107.945C122.044 108.337 121.879 108.708 121.606 108.992C121.608 108.923 121.589 108.855 121.551 108.796L118.198 103.688C118.175 103.65 118.144 103.616 118.108 103.59C118.071 103.563 118.03 103.545 117.986 103.535C117.941 103.524 117.896 103.523 117.851 103.531C117.807 103.539 117.764 103.556 117.727 103.58C117.689 103.604 117.656 103.635 117.631 103.672C117.606 103.708 117.588 103.75 117.579 103.793C117.57 103.837 117.57 103.881 117.579 103.925C117.588 103.968 117.606 104.01 117.631 104.046L120.977 109.161C121.015 109.21 121.064 109.25 121.121 109.276C118.888 110.04 113.445 106.08 112.372 103.533Z" fill="black"/>
<path d="M99.614 104.101C99.8221 103.909 100.083 103.783 100.363 103.738C100.644 103.692 100.932 103.73 101.191 103.846C101.45 103.962 101.668 104.152 101.818 104.39C101.969 104.629 102.045 104.906 102.036 105.187C102.028 105.469 101.935 105.741 101.771 105.97C101.606 106.2 101.376 106.376 101.111 106.476C100.845 106.577 100.556 106.597 100.279 106.535C100.001 106.473 99.7486 106.332 99.5525 106.128C99.4193 105.992 99.315 105.832 99.2458 105.655C99.1766 105.479 99.1438 105.291 99.1496 105.102C99.1553 104.913 99.1994 104.727 99.2791 104.555C99.3589 104.383 99.4728 104.229 99.614 104.101Z" fill="#FFCF23"/>
<path d="M104.477 97.702C106.342 96.5331 109.21 99.2966 108.971 101.08C108.705 103.161 102.825 104.384 102.825 104.384C102.561 104.408 102.297 104.339 102.08 104.188C102.124 104.183 102.164 104.164 102.196 104.134L105.119 101.432C105.14 101.412 105.157 101.387 105.168 101.361C105.18 101.334 105.186 101.305 105.186 101.276C105.186 101.247 105.18 101.219 105.168 101.192C105.157 101.165 105.14 101.141 105.119 101.121C105.098 101.1 105.073 101.083 105.046 101.072C105.018 101.06 104.989 101.054 104.959 101.054C104.929 101.054 104.899 101.06 104.872 101.072C104.844 101.083 104.819 101.1 104.798 101.121L101.875 103.824C101.846 103.852 101.825 103.886 101.814 103.925C101.049 102.553 102.961 98.6479 104.477 97.702Z" fill="black"/>
<path d="M109.054 106.372C110.83 107.723 109.252 111.291 107.449 111.655C105.4 112.068 102.095 106.993 102.095 106.993C101.977 106.759 101.948 106.49 102.013 106.236C102.031 106.277 102.062 106.31 102.102 106.331L105.701 108.196C105.753 108.222 105.814 108.227 105.87 108.209C105.927 108.192 105.974 108.153 106.001 108.101C106.015 108.075 106.024 108.046 106.026 108.016C106.028 107.986 106.025 107.956 106.015 107.928C106.006 107.899 105.99 107.873 105.97 107.851C105.95 107.828 105.926 107.81 105.899 107.797L102.307 105.932C102.268 105.923 102.229 105.923 102.191 105.932C103.215 104.73 107.613 105.263 109.054 106.372Z" fill="black"/>
<path d="M102.502 113.43C101.853 115.524 97.9059 115.193 96.9088 113.639C95.7683 111.849 99.3878 107.146 99.3878 107.146C99.5694 106.962 99.8119 106.85 100.071 106.828C100.042 106.861 100.023 106.901 100.016 106.943L99.5517 110.889C99.5457 110.949 99.5628 111.009 99.5995 111.056C99.6363 111.104 99.69 111.136 99.7498 111.146C99.8086 111.154 99.8681 111.138 99.9154 111.103C99.9627 111.067 99.994 111.015 100.002 110.957L100.467 107.004C100.477 106.967 100.477 106.927 100.467 106.889C101.935 107.43 103.028 111.72 102.502 113.43Z" fill="black"/>
<path d="M93.4266 109.585C91.2071 109.659 90.0871 105.876 91.2003 104.45C92.4842 102.808 98.2549 104.666 98.2549 104.666C98.4983 104.776 98.6943 104.967 98.8081 105.207C98.7659 105.193 98.7205 105.193 98.6783 105.207L94.7652 106.045C94.7362 106.05 94.7088 106.061 94.6846 106.078C94.6603 106.094 94.6399 106.116 94.6245 106.141C94.609 106.165 94.599 106.193 94.595 106.222C94.591 106.251 94.5931 106.28 94.6012 106.308C94.6144 106.367 94.6504 106.418 94.7015 106.451C94.7526 106.484 94.8147 106.496 94.8744 106.484L98.7876 105.646C98.8254 105.632 98.8601 105.612 98.89 105.585C98.8832 107.139 95.2364 109.531 93.4266 109.585Z" fill="black"/>
<path d="M93.7823 99.8992C92.9081 97.8722 96.0906 95.5952 97.8798 96.1763C99.9286 96.852 100.229 102.818 100.229 102.818C100.206 103.072 100.095 103.311 99.9149 103.494C99.9166 103.449 99.9047 103.404 99.8808 103.365L97.6681 99.9871C97.6357 99.9368 97.5849 99.9009 97.5262 99.887C97.4676 99.8732 97.4058 99.8824 97.354 99.9128C97.3054 99.9469 97.2719 99.9982 97.2605 100.056C97.249 100.114 97.2605 100.174 97.2925 100.224L99.5052 103.602C99.5282 103.634 99.5586 103.659 99.594 103.676C98.0847 104.197 94.4925 101.568 93.7823 99.8992Z" fill="black"/>
<path d="M100.816 125.338C100.951 125.208 101.123 125.122 101.309 125.089C101.495 125.057 101.687 125.08 101.859 125.155C102.032 125.231 102.178 125.356 102.278 125.514C102.378 125.672 102.429 125.856 102.423 126.043C102.417 126.23 102.355 126.41 102.245 126.562C102.135 126.714 101.982 126.829 101.805 126.894C101.628 126.959 101.435 126.971 101.252 126.927C101.068 126.883 100.902 126.786 100.775 126.649C100.69 126.56 100.624 126.456 100.58 126.342C100.537 126.228 100.516 126.106 100.52 125.985C100.524 125.863 100.552 125.743 100.603 125.632C100.653 125.521 100.726 125.421 100.816 125.338Z" fill="#FFCF23"/>
<path d="M104.019 121.119C105.249 120.349 107.134 122.173 106.983 123.363C106.806 124.714 102.934 125.538 102.934 125.538C102.759 125.55 102.585 125.503 102.442 125.403C102.468 125.412 102.497 125.412 102.524 125.403L104.45 123.646C104.476 123.618 104.491 123.58 104.491 123.542C104.491 123.503 104.476 123.466 104.45 123.437C104.422 123.409 104.384 123.394 104.344 123.394C104.304 123.394 104.266 123.409 104.238 123.437L102.312 125.2C102.292 125.219 102.278 125.242 102.271 125.268C101.759 124.322 103.022 121.741 104.019 121.119Z" fill="black"/>
<path d="M107.039 126.828C108.213 127.727 107.168 130.071 105.987 130.308C104.621 130.578 102.456 127.24 102.456 127.24C102.38 127.085 102.361 126.908 102.402 126.74C102.415 126.767 102.436 126.788 102.463 126.801L104.833 128.031C104.867 128.048 104.907 128.051 104.944 128.04C104.981 128.028 105.012 128.003 105.031 127.97C105.048 127.935 105.052 127.894 105.04 127.857C105.029 127.819 105.004 127.787 104.969 127.767L102.6 126.538C102.573 126.531 102.545 126.531 102.518 126.538C103.187 125.754 106.083 126.098 107.039 126.828Z" fill="black"/>
<path d="M102.722 131.479C102.292 132.83 99.6897 132.648 99.0341 131.621C98.2829 130.438 100.666 127.344 100.666 127.344C100.786 127.219 100.95 127.144 101.124 127.134C101.104 127.155 101.09 127.181 101.083 127.209L100.782 129.81C100.78 129.829 100.781 129.849 100.786 129.869C100.791 129.888 100.799 129.906 100.811 129.921C100.824 129.937 100.839 129.95 100.856 129.96C100.873 129.97 100.892 129.976 100.912 129.979C100.951 129.983 100.99 129.971 101.02 129.948C101.051 129.924 101.071 129.889 101.076 129.85L101.383 127.249C101.387 127.225 101.387 127.199 101.383 127.175C102.346 127.546 103.063 130.357 102.722 131.479Z" fill="black"/>
<path d="M96.7594 128.95C95.2979 128.998 94.5604 126.504 95.2979 125.572C96.1447 124.491 99.9418 125.714 99.9418 125.714C100.102 125.787 100.23 125.914 100.304 126.072C100.277 126.061 100.248 126.061 100.222 126.072L97.6472 126.626C97.6083 126.634 97.5742 126.657 97.5524 126.69C97.5307 126.723 97.523 126.763 97.5311 126.802C97.5423 126.84 97.5672 126.873 97.6012 126.894C97.6352 126.915 97.6758 126.923 97.7155 126.917L100.29 126.363C100.316 126.356 100.34 126.342 100.358 126.322C100.338 127.336 97.934 128.91 96.7594 128.95Z" fill="black"/>
<path d="M96.9785 122.565C96.398 121.213 98.4946 119.734 99.6556 120.112C100.987 120.558 101.199 124.49 101.199 124.49C101.191 124.662 101.118 124.823 100.994 124.943C101.004 124.917 101.004 124.888 100.994 124.862L99.4917 122.639C99.4812 122.622 99.4674 122.607 99.4509 122.595C99.4345 122.583 99.4158 122.575 99.396 122.571C99.3762 122.566 99.3558 122.566 99.3358 122.57C99.3159 122.573 99.2969 122.581 99.28 122.592C99.2479 122.614 99.2257 122.647 99.218 122.685C99.2104 122.723 99.2179 122.762 99.239 122.795L100.7 125.017C100.714 125.04 100.736 125.057 100.762 125.065C99.8058 125.396 97.4429 123.646 96.9785 122.565Z" fill="black"/>
<path d="M50.7447 88.2302C50.3395 88.2127 49.957 88.0401 49.678 87.7489C49.399 87.4577 49.2452 87.0707 49.2491 86.6694C49.2498 86.4731 49.2906 86.279 49.369 86.0986C49.4473 85.9182 49.5617 85.7554 49.7051 85.6197C49.8486 85.4841 50.0182 85.3785 50.2039 85.3093C50.3895 85.24 50.5874 85.2085 50.7857 85.2167C51.1909 85.2342 51.5734 85.4068 51.8524 85.698C52.1314 85.9892 52.2852 86.3763 52.2813 86.7775C52.2805 86.9738 52.2398 87.168 52.1614 87.3483C52.0831 87.5287 51.9687 87.6916 51.8253 87.8272C51.6818 87.9628 51.5122 88.0684 51.3265 88.1377C51.1408 88.2069 50.943 88.2384 50.7447 88.2302Z" fill="#FFCF23"/>
<path d="M42.165 89.4304C39.8431 88.9237 39.6723 84.7615 41.2089 83.5791C42.9709 82.2277 48.4684 85.6061 48.4684 85.6061C48.6819 85.7794 48.8329 86.0165 48.8987 86.2818C48.8613 86.2533 48.816 86.2368 48.7689 86.2345L44.487 86.0858C44.4557 86.0839 44.4243 86.0885 44.3949 86.0993C44.3655 86.1101 44.3387 86.1268 44.3162 86.1485C44.2937 86.1701 44.276 86.1961 44.2642 86.2249C44.2525 86.2537 44.2469 86.2846 44.2479 86.3156C44.247 86.3466 44.2523 86.3776 44.2635 86.4066C44.2747 86.4356 44.2915 86.4622 44.3131 86.4848C44.3346 86.5074 44.3605 86.5255 44.3892 86.5382C44.4178 86.5509 44.4487 86.5579 44.4801 86.5588L48.7621 86.7142C48.8051 86.7125 48.8472 86.7009 48.885 86.6804C48.4684 88.3223 44.0567 89.8629 42.165 89.4304Z" fill="black"/>
<path d="M45.0841 79.5806C44.7153 77.2563 48.608 75.763 50.2811 76.8171C52.2002 78.0198 50.9641 84.2495 50.9641 84.2495C50.877 84.512 50.6977 84.7349 50.4587 84.8779C50.4724 84.8339 50.4724 84.7868 50.4587 84.7427L49.0519 80.6887C49.0315 80.628 48.9879 80.5778 48.9304 80.5487C48.8729 80.5196 48.8061 80.5141 48.7445 80.5333C48.685 80.5533 48.6359 80.5958 48.6077 80.6514C48.5796 80.7071 48.5748 80.7714 48.5943 80.8306L50.0011 84.8846C50.0188 84.927 50.047 84.9642 50.0831 84.9927C48.4167 85.1346 45.3845 81.4792 45.0841 79.5806Z" fill="black"/>
<path d="M55.4774 79.1345C57.5262 78.0399 60.3808 81.1615 59.9847 83.0872C59.5408 85.2628 53.2033 86.1142 53.2033 86.1142C52.9207 86.1118 52.6469 86.0168 52.4247 85.8439C52.472 85.8425 52.5175 85.8259 52.5545 85.7966L55.8735 83.1885C55.9194 83.1467 55.9476 83.0893 55.9522 83.0277C55.9569 82.9662 55.9378 82.9052 55.8987 82.8571C55.8597 82.809 55.8036 82.7774 55.7418 82.7687C55.6801 82.76 55.6173 82.7748 55.5662 82.8101L52.254 85.425C52.2176 85.4489 52.191 85.4848 52.1789 85.5264C51.4481 84.0128 53.7906 80.0196 55.4774 79.1345Z" fill="black"/>
<path d="M59.6684 88.6675C61.4576 90.2486 59.4976 93.8973 57.5581 94.1405C55.3318 94.4243 52.2245 88.7959 52.2245 88.7959C52.1296 88.5338 52.1296 88.2472 52.2245 87.9851C52.244 88.0282 52.2746 88.0655 52.3132 88.0932L55.9942 90.3432C56.0484 90.3733 56.1124 90.3814 56.1726 90.3656C56.2327 90.3498 56.2842 90.3115 56.3163 90.2587C56.3483 90.2059 56.3582 90.1429 56.344 90.083C56.3298 90.023 56.2925 89.971 56.2401 89.9378L52.5659 87.6878C52.5237 87.6748 52.4784 87.6748 52.4362 87.6878C53.5835 86.4851 58.2137 87.3837 59.6684 88.6675Z" fill="black"/>
<path d="M52.1445 95.6404C51.2976 97.8161 47.125 97.1607 46.1893 95.4377C45.1171 93.4512 49.3308 88.7485 49.3308 88.7485C49.5421 88.5689 49.8104 88.4685 50.0889 88.4647C50.0518 88.4956 50.0275 88.5389 50.0206 88.5863L49.2147 92.7282C49.2043 92.7907 49.2183 92.8547 49.2538 92.9074C49.2893 92.9601 49.3437 92.9975 49.4059 93.012C49.4369 93.019 49.4689 93.0197 49.5002 93.0143C49.5315 93.0088 49.5613 92.9973 49.588 92.9803C49.6147 92.9633 49.6377 92.9412 49.6557 92.9154C49.6737 92.8895 49.6863 92.8603 49.6928 92.8296L50.4918 88.6809C50.5022 88.6411 50.5022 88.5992 50.4918 88.5593C52.0079 89.2755 52.841 93.8769 52.1445 95.6404Z" fill="black"/>
<path d="M51.775 111.985C51.5081 111.975 51.2559 111.861 51.0722 111.67C50.8885 111.478 50.7878 111.222 50.7916 110.958C50.7924 110.828 50.8196 110.7 50.8717 110.581C50.9237 110.462 50.9995 110.354 51.0944 110.265C51.1894 110.175 51.3016 110.105 51.4244 110.06C51.5472 110.014 51.6781 109.993 51.8092 109.999C52.0767 110.011 52.3289 110.126 52.5124 110.319C52.6959 110.512 52.7964 110.768 52.7926 111.033C52.7918 111.162 52.7646 111.29 52.7125 111.409C52.6604 111.528 52.5845 111.635 52.4894 111.724C52.3943 111.813 52.282 111.882 52.1592 111.927C52.0365 111.972 51.9058 111.992 51.775 111.985Z" fill="#FFCF23"/>
<path d="M46.1148 112.783C44.5782 112.452 44.4689 109.702 45.4865 108.918C46.6475 108.026 50.267 110.269 50.267 110.269C50.4137 110.385 50.5151 110.547 50.5538 110.729C50.525 110.719 50.4939 110.719 50.465 110.729L47.6445 110.627C47.6234 110.627 47.6022 110.63 47.5823 110.637C47.5625 110.645 47.5444 110.656 47.529 110.67C47.5137 110.685 47.5015 110.702 47.4932 110.722C47.4849 110.741 47.4806 110.762 47.4806 110.783C47.4822 110.824 47.499 110.864 47.528 110.893C47.557 110.923 47.596 110.942 47.6377 110.945L50.465 111.04C50.4916 111.049 50.5205 111.049 50.547 111.04C50.2807 112.053 47.3645 113.053 46.1148 112.783Z" fill="black"/>
<path d="M48.0404 106.281C47.7945 104.741 50.3692 103.754 51.455 104.45C52.7184 105.247 51.9057 109.349 51.9057 109.349C51.8486 109.52 51.7326 109.666 51.5779 109.761C51.5878 109.732 51.5878 109.701 51.5779 109.673L50.6492 107.004C50.6356 106.965 50.6067 106.932 50.5689 106.914C50.5311 106.895 50.4875 106.893 50.4477 106.906C50.4078 106.92 50.375 106.948 50.3565 106.985C50.3379 107.023 50.3351 107.066 50.3487 107.105L51.2774 109.768C51.2918 109.793 51.3102 109.816 51.3321 109.835C50.2394 109.923 48.2726 107.531 48.0404 106.281Z" fill="black"/>
<path d="M54.9031 105.979C56.269 105.263 58.1402 107.33 57.8807 108.594C57.5871 110.026 53.4007 110.621 53.4007 110.621C53.2139 110.62 53.033 110.556 52.8885 110.438C52.9174 110.447 52.9484 110.447 52.9773 110.438L55.1627 108.716C55.187 108.687 55.2007 108.651 55.2015 108.614C55.2022 108.576 55.1898 108.54 55.1666 108.511C55.1433 108.481 55.1105 108.461 55.0737 108.453C55.0369 108.444 54.9984 108.449 54.9646 108.466L52.7724 110.134C52.7542 110.155 52.7382 110.178 52.7246 110.202C52.2466 109.202 53.79 106.567 54.9031 105.979Z" fill="black"/>
<path d="M57.6767 112.283C58.8514 113.324 57.5606 115.729 56.2767 115.892C54.8084 116.081 52.7597 112.365 52.7597 112.365C52.6953 112.192 52.6953 112.003 52.7597 111.831C52.7725 111.859 52.794 111.883 52.8211 111.898L55.2455 113.385C55.2626 113.397 55.2822 113.406 55.3028 113.41C55.3235 113.414 55.3448 113.414 55.3654 113.409C55.3861 113.405 55.4055 113.396 55.4225 113.384C55.4395 113.371 55.4536 113.356 55.464 113.338C55.4751 113.32 55.4825 113.3 55.4857 113.28C55.4889 113.259 55.488 113.238 55.4829 113.218C55.4778 113.198 55.4687 113.179 55.4561 113.162C55.4434 113.146 55.4276 113.132 55.4094 113.121L52.985 111.635C52.9585 111.626 52.9296 111.626 52.9031 111.635C53.6543 110.811 56.7138 111.432 57.6767 112.283Z" fill="black"/>
<path d="M52.7054 116.889C52.1454 118.329 49.3932 117.896 48.7717 116.754C48.0888 115.444 50.8205 112.342 50.8205 112.342C50.958 112.221 51.1352 112.154 51.319 112.153C51.297 112.173 51.2805 112.199 51.2712 112.227L50.7454 114.971C50.7373 115.011 50.7457 115.053 50.7688 115.087C50.7918 115.121 50.8276 115.145 50.8683 115.153C50.889 115.158 50.9104 115.159 50.9314 115.155C50.9523 115.152 50.9723 115.144 50.9902 115.133C51.0081 115.121 51.0235 115.106 51.0354 115.089C51.0473 115.072 51.0555 115.052 51.0595 115.031L51.5854 112.329C51.592 112.302 51.592 112.274 51.5854 112.248C52.6166 112.68 53.1629 115.721 52.7054 116.889Z" fill="black"/>
<path d="M63.4673 105.329C63.1998 105.318 62.9469 105.205 62.7621 105.014C62.5773 104.822 62.4751 104.567 62.4771 104.302C62.4788 104.173 62.5067 104.045 62.5591 103.927C62.6116 103.808 62.6875 103.702 62.7823 103.613C62.8772 103.524 62.9891 103.455 63.1115 103.41C63.2338 103.364 63.3641 103.344 63.4946 103.349C63.7621 103.36 64.015 103.473 64.1998 103.664C64.3846 103.856 64.4869 104.111 64.4849 104.376C64.4832 104.506 64.4553 104.633 64.4028 104.751C64.3504 104.87 64.2745 104.977 64.1796 105.065C64.0847 105.154 63.9728 105.223 63.8505 105.269C63.7281 105.314 63.5978 105.334 63.4673 105.329Z" fill="#FFCF23"/>
<path d="M57.8329 106.127C56.2963 105.795 56.187 103.045 57.1978 102.268C58.3656 101.377 61.9782 103.62 61.9782 103.62C62.125 103.735 62.2264 103.898 62.2651 104.079C62.2402 104.058 62.2089 104.046 62.1763 104.045L59.3558 103.944C59.3346 103.943 59.3134 103.947 59.2936 103.954C59.2737 103.961 59.2556 103.973 59.2403 103.987C59.225 104.002 59.2128 104.019 59.2045 104.038C59.1961 104.058 59.1919 104.079 59.1919 104.1C59.1919 104.141 59.2082 104.182 59.2375 104.212C59.2667 104.242 59.3067 104.26 59.349 104.262L62.1763 104.363C62.2009 104.37 62.2268 104.37 62.2514 104.363C61.9714 105.404 59.0553 106.397 57.8329 106.127Z" fill="black"/>
<path d="M59.7323 99.6272C59.4864 98.0866 62.061 97.1001 63.1469 97.7961C64.4171 98.5934 63.6045 102.695 63.6045 102.695C63.545 102.867 63.4266 103.012 63.2698 103.107C63.2803 103.079 63.2803 103.047 63.2698 103.019L62.3411 100.357C62.3349 100.337 62.3246 100.318 62.3108 100.301C62.297 100.285 62.28 100.272 62.2608 100.262C62.2416 100.253 62.2206 100.247 62.1992 100.246C62.1778 100.245 62.1563 100.248 62.1362 100.256C62.1165 100.262 62.0982 100.272 62.0826 100.285C62.0669 100.298 62.0542 100.315 62.0453 100.333C62.0363 100.351 62.0312 100.371 62.0304 100.392C62.0296 100.412 62.0331 100.432 62.0406 100.451L62.9693 103.114C62.9796 103.141 62.9988 103.165 63.024 103.181C61.9313 103.269 59.9303 100.877 59.7323 99.6272Z" fill="black"/>
<path d="M66.5953 99.3227C67.9612 98.5997 69.8324 100.674 69.5729 101.931C69.2792 103.37 65.0929 103.958 65.0929 103.958C64.9073 103.956 64.7274 103.895 64.5807 103.782C64.6076 103.789 64.6357 103.789 64.6626 103.782L66.8548 102.059C66.8837 102.029 66.8997 101.989 66.8997 101.948C66.8997 101.906 66.8837 101.866 66.8548 101.836C66.8255 101.808 66.7864 101.792 66.7456 101.792C66.7048 101.792 66.6656 101.808 66.6363 101.836L64.4441 103.559C64.422 103.58 64.4056 103.605 64.3963 103.634C63.9319 102.546 65.4753 99.9105 66.5953 99.3227Z" fill="black"/>
<path d="M69.3613 105.626C70.5428 106.667 69.2521 109.079 67.9955 109.241C66.5272 109.424 64.4784 105.708 64.4784 105.708C64.4141 105.535 64.4141 105.346 64.4784 105.174C64.4913 105.202 64.5128 105.226 64.5399 105.241L66.9643 106.728C66.9817 106.739 67.0012 106.747 67.0217 106.75C67.0422 106.754 67.0632 106.754 67.0835 106.749C67.1039 106.745 67.1231 106.737 67.1401 106.725C67.1572 106.713 67.1717 106.698 67.1828 106.681C67.1939 106.663 67.2012 106.643 67.2045 106.623C67.2077 106.602 67.2067 106.581 67.2017 106.561C67.1966 106.541 67.1874 106.522 67.1748 106.505C67.1622 106.489 67.1463 106.475 67.1282 106.464L64.7038 104.978C64.6768 104.972 64.6488 104.972 64.6218 104.978C65.3457 104.181 68.4052 104.775 69.3613 105.626Z" fill="black"/>
<path d="M64.3953 110.236C63.8285 111.668 61.0763 111.236 60.4617 110.094C59.7787 108.783 62.5104 105.682 62.5104 105.682C62.6503 105.56 62.8298 105.493 63.0158 105.492C62.9937 105.513 62.9773 105.538 62.968 105.567L62.4421 108.31C62.4372 108.33 62.4364 108.351 62.44 108.371C62.4436 108.391 62.4515 108.411 62.463 108.428C62.4746 108.445 62.4896 108.46 62.5072 108.471C62.5248 108.482 62.5445 108.489 62.5651 108.492C62.5848 108.497 62.6054 108.498 62.6255 108.495C62.6457 108.492 62.6649 108.485 62.6822 108.474C62.6994 108.463 62.7143 108.449 62.7259 108.433C62.7374 108.416 62.7455 108.397 62.7495 108.378L63.2821 105.634C63.2921 105.608 63.2921 105.579 63.2821 105.553C64.3065 106.026 64.8529 109.067 64.3953 110.236Z" fill="black"/>
<path d="M137.204 115.309C139.186 116.152 141.095 117.153 142.913 118.302C145.283 119.89 146.191 125.187 146.191 125.187C146.191 125.187 136.699 121.714 137.204 115.309Z" fill="black"/>
<path d="M143.882 128.06C143.068 130.001 142.09 131.87 140.959 133.648C139.402 135.959 134.068 136.722 134.068 136.722C134.068 136.722 137.422 127.398 143.882 128.06Z" fill="black"/>
<path d="M37.3461 73.8983C37.8946 75.957 38.2737 78.0562 38.4798 80.1753C38.671 82.9726 34.9627 86.797 34.9627 86.797C34.9627 86.797 31.8827 77.2497 37.3461 73.8983Z" fill="black"/>
<path d="M35.4745 90.0942C33.3976 90.5908 31.2822 90.914 29.1506 91.0604C26.3301 91.1753 22.4033 87.405 22.4033 87.405C22.4033 87.405 31.9916 84.5942 35.4745 90.0942Z" fill="black"/>
<path d="M89.2966 118.384C88.4614 118.943 87.5796 119.432 86.6605 119.843C85.4245 120.357 83.0615 119.296 83.0615 119.296C83.0615 119.296 86.8449 116.471 89.2966 118.384Z" fill="black"/>
<path d="M6.85245 74.2413C6.85245 74.2413 7.83587 69.0656 5.95099 67.7413C4.06611 66.417 4.16855 69.9845 4.16855 69.9845C4.16855 69.9845 0.692454 65.2548 0.0709902 67.6602C-0.550473 70.0656 3.1988 72.7278 3.1988 72.7278C3.1988 72.7278 -1.48608 71.5251 1.10221 74.6467C3.6905 77.7683 6.85245 74.2413 6.85245 74.2413Z" fill="black"/>
<path d="M85.2733 102.876C85.2733 102.876 86.2636 97.7 84.3787 96.3756C82.4938 95.0513 82.5894 98.6257 82.5894 98.6257C82.5894 98.6257 79.1202 93.8959 78.4919 96.2946C77.8636 98.6932 81.6129 101.362 81.6129 101.362C81.6129 101.362 76.928 100.159 79.5231 103.281C82.1182 106.403 85.2733 102.876 85.2733 102.876Z" fill="black"/>
<path d="M85.3017 102.856C87.1797 104.793 88.9229 106.854 90.5193 109.025C91.357 110.083 92.0975 111.214 92.7319 112.403C93.378 113.6 93.8101 114.898 94.009 116.241H93.9407C93.3801 115.039 92.7532 113.868 92.0627 112.734C91.3797 111.599 90.7446 110.444 90.0139 109.322C89.2832 108.2 88.5115 107.112 87.7124 106.045C86.9134 104.977 86.1007 103.903 85.2402 102.869L85.3017 102.856Z" fill="black"/>
<path d="M34.518 135.643C34.3797 135.864 34.1585 136.023 33.9026 136.083C33.6468 136.144 33.377 136.102 33.1522 135.967C32.9292 135.83 32.768 135.613 32.7019 135.362C32.6358 135.11 32.6699 134.843 32.7971 134.616C32.8649 134.506 32.9542 134.41 33.0597 134.334C33.1652 134.258 33.2849 134.203 33.4118 134.173C33.5388 134.143 33.6705 134.138 33.7994 134.158C33.9283 134.178 34.0518 134.224 34.1629 134.292C34.3872 134.428 34.5495 134.644 34.6157 134.896C34.682 135.148 34.6469 135.416 34.518 135.643Z" fill="#FFCF23"/>
<path d="M32.4964 140.957C31.4721 142.119 28.9862 140.781 28.7882 139.504C28.5628 138.031 32.2847 136.051 32.2847 136.051C32.4611 135.987 32.6547 135.987 32.8311 136.051C32.8019 136.063 32.7761 136.082 32.756 136.105L31.315 138.511C31.3039 138.529 31.2966 138.548 31.2933 138.569C31.2901 138.589 31.291 138.61 31.2961 138.63C31.3012 138.651 31.3104 138.669 31.323 138.686C31.3356 138.703 31.3515 138.717 31.3696 138.727C31.3871 138.738 31.4066 138.746 31.4271 138.75C31.4475 138.753 31.4686 138.753 31.4889 138.749C31.5092 138.744 31.5285 138.736 31.5455 138.724C31.5626 138.712 31.577 138.697 31.5882 138.68L33.036 136.281C33.0421 136.254 33.0421 136.227 33.036 136.2C33.8555 136.97 33.3364 140.018 32.4964 140.957Z" fill="black"/>
<path d="M27.688 135.916C26.2197 135.335 26.5816 132.592 27.688 131.997C29.006 131.322 32.2294 134.139 32.2294 134.139C32.3544 134.28 32.4267 134.459 32.4343 134.646C32.4123 134.623 32.3838 134.606 32.3524 134.599L29.5592 134.024C29.539 134.02 29.5179 134.019 29.4974 134.022C29.4768 134.026 29.4573 134.034 29.44 134.045C29.4226 134.057 29.4079 134.071 29.3966 134.089C29.3854 134.106 29.378 134.126 29.3748 134.146C29.3666 134.187 29.3748 134.23 29.3977 134.265C29.4207 134.3 29.4565 134.326 29.4977 134.335L32.2977 134.91C32.3246 134.916 32.3528 134.916 32.3797 134.91C31.9631 135.903 28.8899 136.396 27.688 135.916Z" fill="black"/>
<path d="M30.7272 129.817C30.7272 128.256 33.459 127.715 34.456 128.594C35.5829 129.594 34.0668 133.513 34.0668 133.513C33.9784 133.673 33.8357 133.797 33.6638 133.864C33.6709 133.833 33.6709 133.8 33.6638 133.769L33.2472 130.985C33.2405 130.944 33.2174 130.906 33.1829 130.881C33.1485 130.855 33.1054 130.845 33.0629 130.85C33.0424 130.853 33.0226 130.859 33.0048 130.87C32.987 130.88 32.9715 130.894 32.9593 130.91C32.9472 130.927 32.9385 130.946 32.934 130.965C32.9295 130.985 32.9292 131.006 32.9331 131.026L33.3975 133.817C33.4028 133.845 33.4171 133.871 33.4385 133.891C32.2912 133.783 30.7068 131.08 30.7272 129.817Z" fill="black"/>
<path d="M37.6126 130.68C39.1014 130.2 40.6039 132.572 40.1326 133.768C39.5863 135.119 35.3521 134.984 35.3521 134.984C35.1664 134.955 34.9971 134.861 34.8741 134.72C34.8879 134.727 34.9031 134.73 34.9185 134.73C34.9339 134.73 34.949 134.727 34.9629 134.72L37.4419 133.369C37.4784 133.348 37.5051 133.313 37.5166 133.273C37.528 133.233 37.5233 133.19 37.5034 133.153C37.4934 133.134 37.4797 133.118 37.4632 133.105C37.4467 133.092 37.4276 133.082 37.4072 133.076C37.3868 133.071 37.3654 133.069 37.3444 133.072C37.3234 133.074 37.3031 133.081 37.2848 133.092L34.8058 134.443C34.7792 134.456 34.7576 134.478 34.7443 134.504C34.4097 133.416 36.4039 131.079 37.6126 130.68Z" fill="black"/>
<path d="M39.2859 137.377C40.2829 138.607 38.6029 140.756 37.2781 140.715C35.7825 140.648 34.3825 136.661 34.3825 136.661C34.3419 136.483 34.3661 136.296 34.4508 136.134C34.4641 136.163 34.4801 136.19 34.4986 136.215L36.6634 138.094C36.6946 138.121 36.7346 138.136 36.7761 138.136C36.8176 138.136 36.8576 138.121 36.8888 138.094C36.9176 138.063 36.9337 138.024 36.9337 137.982C36.9337 137.941 36.9176 137.901 36.8888 137.871L34.7307 135.992L34.6488 135.952C35.5366 135.276 38.48 136.377 39.2859 137.377Z" fill="black"/>
<path d="M48.6886 143.188C48.5923 143.33 48.4449 143.431 48.2762 143.47C48.1076 143.509 47.9304 143.483 47.7803 143.397C47.6301 143.306 47.5213 143.161 47.4768 142.992C47.4322 142.823 47.4553 142.644 47.5413 142.492C47.6368 142.347 47.7849 142.243 47.9552 142.203C48.1255 142.163 48.305 142.189 48.4564 142.276C48.6073 142.368 48.716 142.515 48.7593 142.685C48.8026 142.855 48.7773 143.036 48.6886 143.188Z" fill="#FFCF23"/>
<path d="M47.3573 146.701C46.6743 147.465 45.0353 146.586 44.9055 145.735C44.7553 144.769 47.2138 143.458 47.2138 143.458C47.331 143.417 47.4586 143.417 47.5758 143.458C47.5569 143.468 47.5405 143.481 47.528 143.498L46.5719 145.08C46.5646 145.092 46.5599 145.106 46.558 145.12C46.5561 145.134 46.5571 145.148 46.5609 145.162C46.5647 145.176 46.5713 145.189 46.5802 145.2C46.5891 145.212 46.6002 145.221 46.6129 145.228C46.6367 145.241 46.6647 145.245 46.6912 145.239C46.7177 145.233 46.7409 145.217 46.7563 145.194L47.7124 143.607C47.7192 143.589 47.7192 143.57 47.7124 143.552C48.2724 144.066 47.9104 146.08 47.3573 146.701Z" fill="black"/>
<path d="M44.1738 143.369C43.1972 142.984 43.4431 141.173 44.1738 140.781C45.0411 140.329 47.1719 142.2 47.1719 142.2C47.256 142.291 47.3045 142.408 47.3084 142.531H47.2538L45.4099 142.153C45.3964 142.149 45.3821 142.148 45.3681 142.15C45.3542 142.152 45.3408 142.157 45.3291 142.165C45.3173 142.173 45.3074 142.183 45.3002 142.195C45.2929 142.207 45.2884 142.22 45.287 142.234C45.2828 142.261 45.2889 142.288 45.304 142.311C45.3192 142.333 45.3424 142.349 45.3689 142.356L47.2197 142.734C47.2372 142.741 47.2567 142.741 47.2743 142.734C47.0011 143.363 44.9728 143.687 44.1738 143.369Z" fill="black"/>
<path d="M46.1822 139.345C46.1822 138.311 48.0056 137.993 48.6475 138.534C49.3919 139.209 48.3948 141.784 48.3948 141.784C48.3335 141.887 48.24 141.967 48.1285 142.014C48.1353 141.994 48.1353 141.972 48.1285 141.953L47.8212 140.115C47.8195 140.101 47.815 140.087 47.8079 140.074C47.8007 140.062 47.7912 140.051 47.7797 140.042C47.7683 140.033 47.7552 140.027 47.7412 140.023C47.7272 140.019 47.7126 140.018 47.6983 140.02C47.6712 140.027 47.6473 140.042 47.631 140.065C47.6147 140.087 47.6071 140.114 47.6095 140.142L47.9236 141.987C47.9199 142.002 47.9199 142.018 47.9236 142.034C47.2202 141.966 46.1753 140.182 46.1822 139.345Z" fill="black"/>
<path d="M50.7306 139.912C51.7141 139.601 52.7043 141.162 52.397 141.939C52.035 142.845 49.2214 142.743 49.2214 142.743C49.0994 142.722 48.9885 142.66 48.9072 142.568C48.9248 142.574 48.9443 142.574 48.9619 142.568L50.6009 141.689C50.6246 141.675 50.642 141.653 50.6496 141.626C50.6572 141.6 50.6545 141.572 50.6419 141.547C50.6287 141.523 50.6065 141.504 50.5798 141.495C50.553 141.486 50.5239 141.488 50.4984 141.5L48.8594 142.385H48.8184C48.6204 141.723 49.9316 140.176 50.7306 139.912Z" fill="black"/>
<path d="M51.8375 144.338C52.5204 145.149 51.3731 146.575 50.5126 146.541C49.5224 146.5 48.6004 143.838 48.6004 143.838C48.5711 143.719 48.5882 143.594 48.6482 143.487C48.6439 143.502 48.6439 143.519 48.6482 143.534L50.0755 144.777C50.0958 144.796 50.1227 144.807 50.1507 144.807C50.1786 144.807 50.2055 144.796 50.2258 144.777C50.2361 144.768 50.2444 144.756 50.25 144.744C50.2557 144.731 50.2586 144.717 50.2586 144.703C50.2586 144.689 50.2557 144.675 50.25 144.663C50.2444 144.65 50.2361 144.638 50.2258 144.629L48.7985 143.386C48.7909 143.382 48.7828 143.381 48.7746 143.381C48.7664 143.381 48.7582 143.382 48.7507 143.386C49.3585 142.946 51.3048 143.676 51.8375 144.338Z" fill="black"/>
<path d="M48.5258 134.221C48.4334 134.375 48.283 134.486 48.1075 134.531C47.9321 134.575 47.746 134.549 47.5902 134.457C47.4411 134.365 47.3338 134.219 47.2905 134.051C47.2473 133.882 47.2714 133.703 47.358 133.552C47.4535 133.407 47.6016 133.303 47.7719 133.263C47.9422 133.223 48.1217 133.249 48.2731 133.336C48.4204 133.424 48.5283 133.565 48.5752 133.729C48.6221 133.893 48.6044 134.069 48.5258 134.221Z" fill="#FFCF23"/>
<path d="M47.1917 137.737C46.5088 138.5 44.8698 137.615 44.74 136.771C44.5898 135.798 47.0483 134.494 47.0483 134.494C47.1631 134.453 47.2886 134.453 47.4034 134.494C47.3852 134.502 47.3707 134.516 47.3625 134.534L46.4064 136.115C46.3891 136.135 46.3795 136.16 46.3795 136.186C46.3795 136.212 46.3891 136.237 46.4064 136.257C46.4182 136.266 46.4317 136.271 46.446 136.274C46.4602 136.277 46.475 136.277 46.4892 136.274C46.5034 136.271 46.5168 136.265 46.5284 136.256C46.5401 136.247 46.5497 136.236 46.5566 136.223L47.5059 134.642C47.5127 134.625 47.5127 134.606 47.5059 134.588C48.0864 135.135 47.7449 137.108 47.1917 137.737Z" fill="black"/>
<path d="M44.0104 134.405C43.0407 134.02 43.2797 132.209 44.0104 131.817C44.8778 131.364 47.0085 133.229 47.0085 133.229C47.0907 133.321 47.1388 133.438 47.1451 133.56H47.0904L45.2465 133.182C45.233 133.178 45.2188 133.177 45.2048 133.179C45.1908 133.181 45.1775 133.186 45.1657 133.194C45.1539 133.202 45.1441 133.212 45.1368 133.224C45.1295 133.236 45.125 133.249 45.1236 133.263C45.1194 133.29 45.1255 133.317 45.1407 133.34C45.1558 133.362 45.179 133.378 45.2056 133.385L47.0495 133.763C47.0694 133.77 47.091 133.77 47.1109 133.763C46.8378 134.392 44.8026 134.723 44.0104 134.405Z" fill="black"/>
<path d="M46.0172 130.403C46.0172 129.369 47.8338 129.011 48.4826 129.592C49.1314 130.173 48.2231 132.835 48.2231 132.835C48.1681 132.942 48.076 133.026 47.9636 133.072C47.9669 133.051 47.9669 133.031 47.9636 133.011L47.6562 131.166C47.6498 131.139 47.6338 131.116 47.6113 131.1C47.5887 131.084 47.5611 131.076 47.5333 131.078C47.5055 131.083 47.4807 131.099 47.4641 131.121C47.4476 131.144 47.4406 131.172 47.4445 131.2L47.7519 133.038C47.7482 133.056 47.7482 133.074 47.7519 133.092C47.0484 132.997 46.0036 131.213 46.0172 130.403Z" fill="black"/>
<path d="M50.5679 130.945C51.5513 130.627 52.5415 132.195 52.2342 132.972C51.8723 133.877 49.0586 133.776 49.0586 133.776C48.9347 133.755 48.8217 133.693 48.7376 133.6H48.7991L50.4381 132.715C50.4569 132.696 50.4674 132.671 50.4674 132.644C50.4674 132.618 50.4569 132.592 50.4381 132.573C50.4239 132.55 50.4011 132.532 50.3745 132.525C50.3479 132.517 50.3194 132.52 50.2947 132.533L48.6625 133.411C48.6472 133.423 48.6334 133.436 48.6215 133.452C48.4508 132.756 49.7689 131.202 50.5679 130.945Z" fill="black"/>
<path d="M51.6861 135.369C52.369 136.18 51.2217 137.606 50.3202 137.572C49.3368 137.524 48.408 134.869 48.408 134.869C48.3866 134.75 48.4033 134.627 48.4558 134.518C48.4525 134.536 48.4525 134.554 48.4558 134.572L49.8831 135.815C49.9041 135.833 49.9307 135.842 49.9583 135.842C49.9858 135.842 50.0124 135.833 50.0334 135.815C50.0526 135.795 50.0633 135.768 50.0633 135.741C50.0633 135.713 50.0526 135.686 50.0334 135.666L48.6061 134.423C48.5906 134.418 48.5738 134.418 48.5583 134.423C49.1934 133.977 51.1397 134.7 51.6861 135.369Z" fill="black"/>
<path d="M27.8877 144.77C29.258 145.163 30.5941 145.665 31.8828 146.27C33.5765 147.122 34.6145 150.547 34.6145 150.547C34.6145 150.547 28.1062 149.047 27.8877 144.77Z" fill="black"/>
<path d="M36.7239 151.389C36.3587 152.74 35.8814 154.06 35.2966 155.334C34.4703 156.99 31.0283 157.943 31.0283 157.943C31.0283 157.943 32.4147 151.497 36.7239 151.389Z" fill="black"/>
<path d="M158.043 131.452L109.822 116.377L110.075 116.411L70.1644 116.965L70.0005 116.972L69.8639 116.884L28.499 90.2288L28.5195 90.2424L11.0775 82.0802L11.0639 82.0734L11.0502 82.0532L4.979 73.3302L11.1663 81.9788L11.139 81.9518L28.6834 89.8775L28.6971 89.8843L28.7107 89.891L70.4239 115.999L70.1234 115.911L110.006 114.823L110.136 114.817L110.266 114.857L158.679 129.283L158.043 131.452Z" fill="black"/>
<path d="M7.58376 159.763L7.3584 159.033L34.7233 151.425L44.5233 137.29L44.5916 137.25L59.9301 127.723L63.8433 120.256L69.9282 116.128L70.3652 116.75L64.4306 120.777L60.5106 128.263L60.4286 128.317L45.0696 137.851L35.2013 152.081L35.0716 152.115L7.58376 159.763Z" fill="black"/>
<path d="M171.014 138.026C170.867 138.43 170.602 138.782 170.253 139.037C169.903 139.291 169.485 139.437 169.051 139.456C168.617 139.474 168.188 139.364 167.817 139.14C167.447 138.917 167.152 138.588 166.971 138.198C166.79 137.808 166.73 137.373 166.8 136.949C166.869 136.525 167.065 136.131 167.362 135.818C167.658 135.504 168.043 135.285 168.466 135.189C168.889 135.092 169.331 135.122 169.737 135.276C170.274 135.473 170.711 135.874 170.95 136.389C171.19 136.905 171.213 137.493 171.014 138.026Z" fill="#FFCF23"/>
<path d="M168.787 150.078C167.039 152.896 161.275 151.038 160.373 148.43C159.342 145.409 166.472 139.876 166.472 139.876C166.817 139.674 167.222 139.595 167.619 139.653C167.561 139.687 167.515 139.739 167.49 139.801L165.332 145.369C165.315 145.411 165.307 145.455 165.308 145.5C165.309 145.545 165.319 145.589 165.338 145.629C165.356 145.67 165.383 145.707 165.416 145.738C165.448 145.768 165.487 145.792 165.53 145.808C165.615 145.842 165.71 145.84 165.794 145.805C165.879 145.77 165.945 145.703 165.98 145.619L168.138 140.045C168.155 139.987 168.155 139.926 168.138 139.869C170.167 141.213 170.208 147.788 168.787 150.078Z" fill="black"/>
<path d="M156.64 141.216C153.301 140.54 153.041 134.662 155.24 132.979C157.767 131.047 165.668 135.763 165.668 135.763C165.985 136.006 166.207 136.35 166.297 136.736C166.239 136.699 166.174 136.676 166.106 136.668L159.959 136.52C159.914 136.519 159.87 136.527 159.828 136.543C159.786 136.559 159.748 136.583 159.716 136.614C159.683 136.645 159.658 136.681 159.64 136.722C159.622 136.763 159.612 136.806 159.611 136.851C159.613 136.941 159.649 137.026 159.712 137.09C159.776 137.154 159.862 137.192 159.952 137.195L166.099 137.344C166.161 137.343 166.222 137.327 166.276 137.297C165.689 139.547 159.358 141.743 156.64 141.216Z" fill="black"/>
<path d="M160.777 127.263C160.237 123.986 165.824 121.817 168.227 123.276C170.993 124.952 169.252 133.736 169.252 133.736C169.136 134.103 168.895 134.418 168.569 134.628C168.586 134.563 168.586 134.496 168.569 134.432L166.52 128.756C166.488 128.671 166.424 128.602 166.341 128.563C166.258 128.524 166.163 128.518 166.076 128.547C165.991 128.576 165.922 128.637 165.882 128.716C165.843 128.796 165.836 128.888 165.865 128.972L167.913 134.641C167.935 134.7 167.973 134.751 168.023 134.79C165.585 134.999 161.214 129.932 160.777 127.263Z" fill="black"/>
<path d="M175.705 126.471C178.676 124.904 182.753 129.302 182.2 131.985C181.565 135.059 172.468 136.35 172.468 136.35C172.065 136.361 171.671 136.232 171.355 135.985C171.422 135.982 171.487 135.958 171.539 135.917L176.286 132.194C176.321 132.166 176.35 132.131 176.372 132.092C176.393 132.052 176.407 132.009 176.411 131.964C176.416 131.92 176.411 131.874 176.398 131.832C176.384 131.789 176.363 131.749 176.334 131.714C176.275 131.645 176.191 131.602 176.101 131.593C176.01 131.584 175.92 131.611 175.849 131.667L171.102 135.397C171.053 135.431 171.017 135.481 171 135.539C169.941 133.41 173.281 127.748 175.705 126.471Z" fill="black"/>
<path d="M181.77 139.862C184.344 142.065 181.544 147.241 178.765 147.612C175.562 148.045 171.082 140.18 171.082 140.18C170.933 139.816 170.919 139.412 171.041 139.038C171.066 139.1 171.112 139.153 171.171 139.187L176.457 142.308C176.536 142.354 176.63 142.367 176.719 142.346C176.808 142.325 176.885 142.27 176.935 142.193C176.979 142.116 176.992 142.025 176.969 141.939C176.946 141.853 176.889 141.779 176.812 141.734L171.519 138.612C171.465 138.582 171.403 138.568 171.341 138.572C173.021 136.876 179.68 138.072 181.77 139.862Z" fill="black"/>
<path d="M192.962 133.783C192.865 134.051 192.69 134.285 192.458 134.454C192.226 134.623 191.948 134.72 191.661 134.732C191.373 134.744 191.088 134.671 190.842 134.522C190.597 134.374 190.402 134.156 190.282 133.897C190.162 133.637 190.123 133.349 190.17 133.068C190.217 132.787 190.348 132.526 190.545 132.318C190.743 132.111 190.998 131.967 191.279 131.904C191.56 131.841 191.854 131.862 192.122 131.965C192.298 132.03 192.459 132.128 192.597 132.255C192.734 132.381 192.845 132.533 192.923 132.702C193.001 132.871 193.045 133.053 193.051 133.238C193.058 133.424 193.028 133.609 192.962 133.783Z" fill="#FFCF23"/>
<path d="M191.507 141.795C190.353 143.654 186.549 142.431 185.955 140.701C185.272 138.728 189.991 135.059 189.991 135.059C190.219 134.924 190.487 134.872 190.749 134.91C190.712 134.932 190.683 134.965 190.667 135.005L189.24 138.687C189.218 138.743 189.22 138.805 189.244 138.859C189.269 138.914 189.314 138.956 189.37 138.978C189.426 138.999 189.489 138.998 189.544 138.974C189.599 138.95 189.642 138.905 189.664 138.85L191.091 135.167C191.104 135.13 191.104 135.089 191.091 135.052C192.423 135.951 192.423 140.282 191.507 141.795Z" fill="black"/>
<path d="M183.491 135.877C181.285 135.431 181.114 131.552 182.569 130.471C184.235 129.194 189.453 132.309 189.453 132.309C189.67 132.477 189.818 132.717 189.869 132.985C189.832 132.956 189.787 132.94 189.74 132.938L185.683 132.836C185.624 132.836 185.567 132.858 185.524 132.899C185.48 132.939 185.454 132.994 185.451 133.052C185.451 133.112 185.474 133.17 185.516 133.213C185.559 133.255 185.616 133.28 185.676 133.282L189.74 133.383C189.778 133.393 189.818 133.393 189.856 133.383C189.446 134.789 185.266 136.242 183.491 135.877Z" fill="black"/>
<path d="M186.224 126.674C185.869 124.512 189.557 123.08 191.148 124.046C192.971 125.154 191.831 130.951 191.831 130.951C191.747 131.197 191.578 131.405 191.353 131.539C191.367 131.497 191.367 131.452 191.353 131.411L189.987 127.667C189.978 127.639 189.963 127.612 189.943 127.589C189.923 127.566 189.899 127.547 189.871 127.534C189.844 127.521 189.814 127.513 189.783 127.512C189.753 127.51 189.722 127.515 189.693 127.525C189.637 127.545 189.592 127.586 189.566 127.64C189.54 127.693 189.537 127.754 189.557 127.809L190.923 131.553C190.937 131.591 190.964 131.624 190.998 131.647C189.379 131.789 186.497 128.438 186.224 126.674Z" fill="black"/>
<path d="M196.118 126.295C198.078 125.261 200.769 128.166 200.407 129.936C199.984 131.963 193.981 132.822 193.981 132.822C193.714 132.827 193.454 132.741 193.243 132.578C193.288 132.578 193.331 132.564 193.366 132.538L196.521 130.072C196.542 130.051 196.559 130.027 196.571 130.001C196.582 129.974 196.588 129.945 196.588 129.916C196.588 129.887 196.582 129.858 196.571 129.832C196.559 129.805 196.542 129.781 196.521 129.761C196.503 129.737 196.48 129.718 196.453 129.704C196.427 129.689 196.398 129.68 196.368 129.677C196.338 129.674 196.308 129.677 196.279 129.685C196.25 129.694 196.224 129.708 196.2 129.727L193.059 132.186C193.031 132.215 193.01 132.25 192.998 132.288C192.315 130.882 194.514 127.166 196.118 126.295Z" fill="black"/>
<path d="M200.12 135.145C201.821 136.598 199.977 140.016 198.133 140.26C196.023 140.544 193.066 135.327 193.066 135.327C192.971 135.086 192.971 134.818 193.066 134.577C193.072 134.598 193.083 134.616 193.097 134.633C193.111 134.649 193.128 134.662 193.148 134.672L196.644 136.699C196.669 136.715 196.696 136.726 196.725 136.731C196.754 136.737 196.784 136.736 196.813 136.73C196.841 136.723 196.868 136.712 196.892 136.695C196.916 136.678 196.936 136.656 196.952 136.631C196.968 136.606 196.979 136.578 196.984 136.549C196.988 136.519 196.987 136.489 196.98 136.46C196.973 136.431 196.961 136.404 196.943 136.38C196.925 136.356 196.902 136.336 196.877 136.321L193.38 134.294C193.342 134.283 193.302 134.283 193.264 134.294C194.343 133.165 198.741 133.956 200.12 135.145Z" fill="black"/>
<path d="M182.406 115.264C182.341 115.438 182.225 115.59 182.073 115.699C181.921 115.808 181.739 115.87 181.551 115.877C181.363 115.884 181.177 115.836 181.017 115.738C180.857 115.64 180.73 115.497 180.652 115.328C180.574 115.158 180.548 114.97 180.579 114.786C180.61 114.602 180.695 114.432 180.823 114.296C180.952 114.16 181.119 114.065 181.302 114.024C181.486 113.982 181.677 113.995 181.853 114.061C181.97 114.104 182.076 114.169 182.167 114.253C182.258 114.336 182.331 114.437 182.382 114.549C182.434 114.66 182.462 114.781 182.466 114.904C182.471 115.026 182.45 115.149 182.406 115.264Z" fill="#FFCF23"/>
<path d="M181.443 120.437C180.685 121.667 178.179 120.856 177.789 119.721C177.339 118.417 180.446 116.005 180.446 116.005C180.595 115.913 180.771 115.877 180.944 115.903C180.923 115.923 180.904 115.945 180.89 115.971L179.947 118.39C179.934 118.426 179.936 118.467 179.953 118.502C179.969 118.538 179.999 118.565 180.036 118.579C180.054 118.586 180.073 118.59 180.093 118.59C180.112 118.59 180.131 118.587 180.149 118.579C180.167 118.571 180.183 118.56 180.197 118.546C180.21 118.532 180.221 118.516 180.227 118.498L181.17 116.079C181.18 116.053 181.18 116.024 181.17 115.998C182.01 116.586 182.03 119.444 181.443 120.437Z" fill="black"/>
<path d="M176.149 116.634C174.694 116.343 174.585 113.789 175.541 113.053C176.641 112.215 180.076 114.269 180.076 114.269C180.214 114.372 180.311 114.521 180.349 114.688C180.322 114.68 180.294 114.68 180.267 114.688L177.597 114.62C177.557 114.62 177.519 114.636 177.491 114.664C177.462 114.692 177.446 114.73 177.446 114.769C177.446 114.809 177.462 114.846 177.491 114.874C177.519 114.902 177.557 114.918 177.597 114.918L180.274 114.979C180.298 114.985 180.324 114.985 180.349 114.979C180.076 115.918 177.344 116.891 176.149 116.634Z" fill="black"/>
<path d="M178.008 110.719C177.776 109.294 180.2 108.348 181.252 108.983C182.447 109.713 181.696 113.53 181.696 113.53C181.642 113.694 181.53 113.833 181.382 113.922C181.389 113.893 181.389 113.863 181.382 113.834L180.494 111.368C180.479 111.332 180.451 111.303 180.416 111.286C180.381 111.268 180.341 111.264 180.303 111.274C180.284 111.28 180.266 111.289 180.251 111.302C180.236 111.315 180.224 111.331 180.215 111.348C180.206 111.366 180.201 111.385 180.2 111.405C180.198 111.424 180.201 111.444 180.207 111.463L181.095 113.929C181.103 113.954 181.12 113.976 181.143 113.99C180.132 114.084 178.199 111.875 178.008 110.719Z" fill="black"/>
<path d="M184.496 110.374C185.794 109.699 187.563 111.604 187.324 112.773C187.051 114.124 183.09 114.672 183.09 114.672C182.914 114.673 182.743 114.616 182.605 114.51C182.631 114.52 182.66 114.52 182.687 114.51L184.735 112.888C184.761 112.86 184.776 112.824 184.776 112.787C184.776 112.749 184.761 112.713 184.735 112.685C184.707 112.658 184.669 112.642 184.63 112.642C184.59 112.642 184.552 112.658 184.524 112.685L182.475 114.307C182.455 114.325 182.441 114.348 182.434 114.374C181.997 113.395 183.445 110.949 184.496 110.374Z" fill="black"/>
<path d="M187.137 116.198C188.257 117.158 187.041 119.408 185.826 119.577C184.46 119.766 182.486 116.334 182.486 116.334C182.429 116.172 182.429 115.995 182.486 115.834C182.501 115.861 182.522 115.884 182.548 115.901L184.849 117.253C184.884 117.272 184.925 117.277 184.963 117.267C185.001 117.257 185.034 117.232 185.054 117.198C185.064 117.182 185.07 117.164 185.073 117.145C185.075 117.126 185.074 117.107 185.069 117.089C185.063 117.071 185.055 117.054 185.043 117.039C185.031 117.024 185.016 117.012 184.999 117.003L182.698 115.651C182.673 115.644 182.647 115.644 182.623 115.651C183.333 114.901 186.222 115.421 187.137 116.198Z" fill="black"/>
<path d="M243.889 126.668C244.261 126.503 244.684 126.489 245.066 126.627C245.449 126.766 245.762 127.047 245.938 127.411C246.025 127.587 246.075 127.779 246.085 127.975C246.095 128.171 246.065 128.367 245.996 128.551C245.928 128.735 245.823 128.904 245.688 129.047C245.552 129.19 245.389 129.305 245.207 129.384C244.835 129.549 244.413 129.563 244.03 129.424C243.648 129.285 243.335 129.004 243.159 128.641C243.072 128.464 243.022 128.272 243.012 128.077C243.002 127.881 243.032 127.685 243.1 127.501C243.169 127.316 243.274 127.148 243.409 127.005C243.545 126.862 243.708 126.747 243.889 126.668Z" fill="#FFCF23"/>
<path d="M251.053 121.837C253.361 121.276 255.369 124.938 254.516 126.668C253.539 128.647 247.092 128.019 247.092 128.019C246.821 127.952 246.581 127.798 246.409 127.58C246.454 127.593 246.501 127.593 246.546 127.58L250.452 125.843C250.482 125.832 250.508 125.814 250.53 125.792C250.552 125.77 250.569 125.743 250.58 125.714C250.591 125.684 250.596 125.653 250.594 125.622C250.592 125.591 250.583 125.56 250.568 125.533C250.555 125.504 250.536 125.478 250.513 125.457C250.49 125.436 250.462 125.419 250.432 125.408C250.402 125.398 250.371 125.393 250.339 125.395C250.307 125.396 250.276 125.404 250.247 125.418L246.32 127.12C246.282 127.142 246.25 127.172 246.225 127.208C245.883 125.587 249.168 122.296 251.053 121.837Z" fill="black"/>
<path d="M252.83 131.945C254.196 133.871 251.375 136.918 249.415 136.675C247.155 136.431 245.488 130.323 245.488 130.323C245.45 130.05 245.51 129.773 245.659 129.539C245.668 129.585 245.689 129.627 245.72 129.661L248.787 132.668C248.833 132.712 248.894 132.736 248.958 132.736C249.021 132.736 249.082 132.712 249.128 132.668C249.151 132.646 249.169 132.62 249.181 132.591C249.194 132.562 249.2 132.53 249.2 132.499C249.2 132.467 249.194 132.436 249.181 132.407C249.169 132.378 249.151 132.352 249.128 132.33L246.069 129.323C246.035 129.296 245.995 129.277 245.953 129.269C247.38 128.452 251.717 130.404 252.83 131.945Z" fill="black"/>
<path d="M243.704 136.898C242.338 138.776 238.391 137.195 237.892 135.323C237.325 133.175 242.632 129.641 242.632 129.641C242.883 129.516 243.17 129.48 243.444 129.54C243.403 129.563 243.369 129.598 243.349 129.641L241.539 133.425C241.525 133.454 241.517 133.485 241.515 133.517C241.514 133.549 241.518 133.581 241.529 133.611C241.54 133.641 241.556 133.668 241.578 133.692C241.6 133.716 241.626 133.735 241.655 133.749C241.684 133.763 241.716 133.771 241.748 133.772C241.78 133.774 241.812 133.769 241.843 133.759C241.873 133.748 241.901 133.732 241.925 133.71C241.949 133.689 241.969 133.663 241.983 133.634L243.792 129.844C243.806 129.802 243.806 129.757 243.792 129.715C245.138 130.756 244.824 135.364 243.704 136.898Z" fill="black"/>
<path d="M235.687 130.173C233.379 129.531 233.509 125.403 235.141 124.336C237.012 123.113 242.305 126.802 242.305 126.802C242.515 126.988 242.652 127.242 242.694 127.518C242.658 127.487 242.612 127.468 242.564 127.464L238.262 127.052C238.231 127.048 238.199 127.05 238.169 127.059C238.139 127.068 238.111 127.082 238.087 127.102C238.063 127.121 238.043 127.146 238.028 127.173C238.014 127.2 238.005 127.23 238.002 127.261C237.997 127.325 238.016 127.388 238.057 127.437C238.098 127.486 238.157 127.518 238.221 127.525L242.523 127.93C242.566 127.94 242.61 127.94 242.653 127.93C242.12 129.471 237.565 130.694 235.687 130.173Z" fill="black"/>
<path d="M239.319 120.627C239.114 118.303 243.143 117.066 244.782 118.208C246.633 119.519 244.953 125.58 244.953 125.58C244.845 125.834 244.649 126.042 244.4 126.168C244.414 126.124 244.414 126.076 244.4 126.032L243.266 121.978C243.258 121.948 243.245 121.92 243.225 121.895C243.206 121.87 243.182 121.849 243.155 121.833C243.128 121.818 243.098 121.807 243.066 121.803C243.035 121.799 243.003 121.801 242.973 121.809C242.942 121.817 242.914 121.83 242.889 121.848C242.864 121.866 242.842 121.889 242.827 121.916C242.811 121.942 242.8 121.971 242.796 122.002C242.792 122.032 242.794 122.064 242.802 122.093L243.936 126.147C243.949 126.188 243.973 126.225 244.004 126.255C242.29 126.282 239.49 122.512 239.319 120.627Z" fill="black"/>
<path d="M232.354 105.803C232.6 105.689 232.882 105.677 233.138 105.768C233.393 105.859 233.603 106.046 233.719 106.289C233.776 106.406 233.809 106.533 233.815 106.662C233.822 106.792 233.802 106.921 233.757 107.043C233.711 107.165 233.642 107.276 233.552 107.371C233.462 107.465 233.354 107.541 233.235 107.593C233.113 107.65 232.98 107.683 232.846 107.689C232.711 107.696 232.576 107.676 232.449 107.631C232.323 107.586 232.206 107.516 232.106 107.426C232.007 107.336 231.926 107.228 231.869 107.107C231.812 106.99 231.779 106.863 231.773 106.734C231.766 106.604 231.786 106.475 231.832 106.353C231.877 106.231 231.946 106.12 232.036 106.025C232.126 105.931 232.234 105.855 232.354 105.803Z" fill="#FFCF23"/>
<path d="M237.082 102.615C238.612 102.243 239.937 104.642 239.377 105.804C238.728 107.115 234.473 106.682 234.473 106.682C234.29 106.642 234.127 106.542 234.009 106.399C234.04 106.408 234.073 106.408 234.104 106.399L236.679 105.257C236.699 105.249 236.716 105.237 236.731 105.222C236.746 105.207 236.758 105.189 236.765 105.169C236.773 105.15 236.777 105.129 236.776 105.108C236.775 105.087 236.77 105.066 236.761 105.047C236.741 105.01 236.707 104.982 236.666 104.968C236.626 104.954 236.582 104.956 236.543 104.973L233.968 106.081C233.942 106.095 233.919 106.113 233.9 106.135C233.674 105.088 235.839 102.919 237.082 102.615Z" fill="black"/>
<path d="M238.255 109.289C239.163 110.559 237.299 112.566 235.994 112.43C234.499 112.268 233.399 108.234 233.399 108.234C233.374 108.053 233.415 107.868 233.515 107.714C233.516 107.73 233.52 107.745 233.527 107.759C233.534 107.773 233.544 107.785 233.556 107.795L235.605 109.782C235.636 109.81 235.676 109.826 235.718 109.826C235.76 109.826 235.8 109.81 235.831 109.782C235.845 109.768 235.857 109.751 235.865 109.733C235.873 109.714 235.878 109.694 235.878 109.674C235.878 109.653 235.873 109.633 235.865 109.615C235.857 109.596 235.845 109.579 235.831 109.566L233.782 107.579C233.761 107.559 233.735 107.545 233.707 107.539C234.656 106.978 237.524 108.248 238.255 109.289Z" fill="black"/>
<path d="M232.231 112.555C231.323 113.805 228.721 112.758 228.393 111.521C228.018 110.102 231.521 107.764 231.521 107.764C231.689 107.684 231.879 107.662 232.061 107.704C232.034 107.717 232.013 107.738 231.999 107.764L230.804 110.271C230.795 110.289 230.79 110.309 230.789 110.329C230.788 110.349 230.791 110.37 230.798 110.389C230.805 110.408 230.816 110.425 230.83 110.44C230.844 110.454 230.861 110.466 230.879 110.474C230.898 110.483 230.918 110.489 230.938 110.491C230.959 110.492 230.98 110.49 230.999 110.484C231.019 110.477 231.037 110.467 231.053 110.454C231.069 110.441 231.082 110.425 231.091 110.406L232.286 107.9C232.296 107.873 232.296 107.845 232.286 107.819C233.181 108.508 232.969 111.541 232.231 112.555Z" fill="black"/>
<path d="M226.94 108.108C225.411 107.689 225.499 104.966 226.578 104.257C227.814 103.446 231.311 105.885 231.311 105.885C231.448 106.01 231.537 106.177 231.564 106.358C231.537 106.349 231.508 106.349 231.482 106.358L228.641 106.081C228.62 106.081 228.6 106.085 228.581 106.093C228.562 106.101 228.544 106.112 228.53 106.127C228.515 106.141 228.504 106.158 228.496 106.177C228.488 106.196 228.484 106.216 228.484 106.237C228.484 106.257 228.488 106.277 228.496 106.296C228.504 106.315 228.515 106.332 228.53 106.347C228.544 106.361 228.562 106.373 228.581 106.38C228.6 106.388 228.62 106.392 228.641 106.392L231.482 106.669H231.564C231.188 107.656 228.176 108.46 226.94 108.108Z" fill="black"/>
<path d="M229.337 101.809C229.201 100.282 231.864 99.4648 232.929 100.215C234.152 101.08 233.039 105.08 233.039 105.08C232.969 105.249 232.841 105.388 232.677 105.472C232.683 105.443 232.683 105.413 232.677 105.384L231.925 102.681C231.914 102.64 231.887 102.605 231.85 102.584C231.813 102.562 231.769 102.556 231.727 102.566C231.707 102.571 231.688 102.58 231.672 102.592C231.655 102.604 231.641 102.619 231.631 102.637C231.621 102.655 231.614 102.675 231.612 102.695C231.61 102.715 231.612 102.736 231.618 102.755L232.362 105.458C232.37 105.485 232.387 105.509 232.41 105.526C231.297 105.546 229.446 103.059 229.337 101.809Z" fill="black"/>
<path d="M224.836 116.891C225.082 116.778 225.364 116.765 225.62 116.856C225.876 116.948 226.085 117.135 226.201 117.378C226.258 117.495 226.289 117.621 226.295 117.751C226.301 117.88 226.281 118.009 226.236 118.131C226.191 118.252 226.122 118.363 226.032 118.458C225.943 118.553 225.836 118.629 225.717 118.682C225.594 118.739 225.462 118.771 225.327 118.777C225.192 118.783 225.057 118.762 224.93 118.717C224.803 118.671 224.686 118.6 224.587 118.51C224.488 118.419 224.407 118.31 224.351 118.189C224.294 118.072 224.261 117.946 224.255 117.817C224.249 117.688 224.269 117.559 224.314 117.438C224.359 117.317 224.429 117.206 224.519 117.112C224.608 117.018 224.716 116.943 224.836 116.891Z" fill="#FFCF23"/>
<path d="M229.567 113.695C231.09 113.317 232.415 115.722 231.855 116.885C231.206 118.189 226.952 117.763 226.952 117.763C226.768 117.721 226.604 117.619 226.487 117.473C226.518 117.483 226.552 117.483 226.583 117.473L229.164 116.331C229.197 116.309 229.22 116.277 229.231 116.24C229.242 116.202 229.238 116.163 229.222 116.128C229.205 116.092 229.177 116.064 229.141 116.048C229.106 116.032 229.065 116.029 229.028 116.04L226.446 117.189C226.422 117.201 226.4 117.22 226.385 117.243C226.153 116.168 228.324 114 229.567 113.695Z" fill="black"/>
<path d="M230.744 120.37C231.646 121.641 229.781 123.647 228.477 123.505C226.988 123.35 225.882 119.309 225.882 119.309C225.861 119.13 225.902 118.949 225.998 118.796C226.005 118.826 226.019 118.854 226.039 118.877L228.088 120.864C228.119 120.893 228.161 120.909 228.204 120.909C228.247 120.909 228.288 120.893 228.32 120.864C228.335 120.849 228.347 120.832 228.355 120.813C228.363 120.793 228.368 120.773 228.368 120.752C228.368 120.731 228.363 120.711 228.355 120.692C228.347 120.672 228.335 120.655 228.32 120.641L226.271 118.661C226.25 118.641 226.224 118.627 226.196 118.62C227.145 118.059 230.007 119.33 230.744 120.37Z" fill="black"/>
<path d="M224.72 123.647C223.812 124.891 221.21 123.843 220.882 122.607C220.507 121.188 224.01 118.857 224.01 118.857C224.174 118.775 224.363 118.751 224.543 118.789C224.519 118.809 224.498 118.831 224.481 118.857L223.286 121.357C223.277 121.376 223.272 121.397 223.271 121.418C223.271 121.439 223.274 121.459 223.282 121.479C223.289 121.499 223.301 121.516 223.316 121.531C223.331 121.546 223.348 121.558 223.368 121.566C223.387 121.576 223.407 121.581 223.428 121.582C223.449 121.583 223.47 121.58 223.49 121.573C223.509 121.566 223.528 121.556 223.543 121.542C223.558 121.528 223.571 121.511 223.58 121.492L224.775 118.992C224.785 118.966 224.785 118.937 224.775 118.911C225.663 119.593 225.458 122.62 224.72 123.647Z" fill="black"/>
<path d="M219.42 119.195C217.897 118.776 217.979 116.046 219.058 115.343C220.294 114.532 223.791 116.972 223.791 116.972C223.928 117.096 224.019 117.263 224.05 117.445C224.024 117.424 223.994 117.41 223.961 117.404L221.12 117.134C221.079 117.134 221.039 117.15 221.009 117.179C220.98 117.208 220.963 117.248 220.963 117.289C220.963 117.33 220.98 117.37 221.009 117.399C221.039 117.428 221.079 117.445 221.12 117.445L223.961 117.715C223.988 117.725 224.017 117.725 224.043 117.715C223.668 118.728 220.663 119.539 219.42 119.195Z" fill="black"/>
<path d="M221.816 112.891C221.686 111.357 224.343 110.539 225.408 111.296C226.631 112.161 225.518 116.161 225.518 116.161C225.446 116.329 225.318 116.467 225.156 116.553C225.166 116.522 225.166 116.489 225.156 116.458L224.404 113.756C224.393 113.716 224.367 113.683 224.331 113.663C224.295 113.643 224.253 113.637 224.213 113.647C224.192 113.651 224.173 113.659 224.155 113.671C224.138 113.683 224.123 113.699 224.112 113.716C224.102 113.734 224.094 113.754 224.092 113.775C224.089 113.796 224.091 113.817 224.097 113.837L224.848 116.539C224.855 116.565 224.869 116.589 224.889 116.607C223.783 116.627 221.932 114.141 221.816 112.891Z" fill="black"/>
<path d="M154.235 140.156C152.08 140.266 149.919 140.203 147.774 139.967C144.94 139.575 141.765 135.237 141.765 135.237C141.765 135.237 151.831 134.19 154.235 140.156Z" fill="black"/>
<path d="M142.517 131.64C142.381 129.543 142.423 127.439 142.64 125.349C143.009 122.599 147.455 119.586 147.455 119.586C147.455 119.586 148.663 129.403 142.517 131.64Z" fill="black"/>
<path d="M262.296 133.668C260.887 132.064 259.612 130.348 258.485 128.539C257.057 126.107 258.676 121.06 258.676 121.06C258.676 121.06 265.71 128.276 262.296 133.668Z" fill="black"/>
<path d="M256.756 118.315C258.396 116.968 260.146 115.756 261.987 114.694C264.466 113.342 269.67 115.025 269.67 115.025C269.67 115.025 262.335 121.734 256.756 118.315Z" fill="black"/>
<path d="M195.895 116.599C196.396 115.733 196.969 114.911 197.609 114.14C198.49 113.14 201.085 113.058 201.085 113.058C201.085 113.058 198.954 117.248 195.895 116.599Z" fill="black"/>
<path d="M206.37 128.612C206.37 128.612 207.797 133.686 210.078 134.051C212.359 134.416 210.679 131.253 210.679 131.253C210.679 131.253 215.917 134.003 215.412 131.544C214.906 129.084 210.351 128.362 210.351 128.362C210.351 128.362 215.091 127.389 211.369 125.726C207.647 124.064 206.37 128.612 206.37 128.612Z" fill="black"/>
<path d="M206.41 128.786C203.863 127.865 201.381 126.777 198.98 125.529C197.753 124.939 196.58 124.243 195.477 123.448C194.363 122.656 193.395 121.68 192.615 120.563L192.67 120.516C193.71 121.35 194.795 122.129 195.921 122.847C197.027 123.57 198.126 124.32 199.281 125.009C200.435 125.698 201.609 126.36 202.811 126.948C204.013 127.536 205.208 128.165 206.438 128.719L206.41 128.786Z" fill="black"/>
<path d="M237.278 77.0249C237.289 76.8945 237.325 76.7674 237.386 76.6513C237.447 76.5352 237.531 76.4324 237.633 76.3492C237.735 76.2659 237.853 76.2038 237.98 76.1667C238.107 76.1296 238.24 76.1181 238.371 76.1331C238.64 76.1538 238.89 76.2793 239.065 76.482C239.241 76.6847 239.327 76.948 239.307 77.2141C239.295 77.3439 239.257 77.47 239.195 77.5853C239.134 77.7005 239.05 77.8025 238.948 77.8854C238.847 77.9684 238.729 78.0305 238.603 78.0684C238.477 78.1063 238.345 78.1191 238.214 78.106C237.946 78.0836 237.697 77.9576 237.522 77.7553C237.347 77.553 237.26 77.2906 237.278 77.0249Z" fill="#FFCF23"/>
<path d="M236.718 71.3836C237.121 69.8971 239.941 70.0322 240.693 71.066C241.539 72.2957 239.094 75.6741 239.094 75.6741C238.97 75.8093 238.8 75.8956 238.616 75.9174C238.624 75.8909 238.624 75.8627 238.616 75.8363L238.842 73.0525C238.844 73.0321 238.841 73.0115 238.835 72.9919C238.829 72.9723 238.819 72.9542 238.806 72.9385C238.792 72.9228 238.776 72.9098 238.758 72.9004C238.739 72.891 238.719 72.8853 238.698 72.8836C238.677 72.8807 238.656 72.8822 238.635 72.8879C238.615 72.8936 238.595 72.9034 238.579 72.9167C238.562 72.93 238.548 72.9465 238.538 72.9652C238.528 72.9839 238.522 73.0044 238.521 73.0255L238.295 75.8025C238.287 75.8289 238.287 75.8571 238.295 75.8836C237.278 75.5525 236.383 72.593 236.718 71.3836Z" fill="black"/>
<path d="M243.28 73.8021C244.865 73.6873 245.76 76.3021 245.001 77.3359C244.127 78.5251 239.968 77.3967 239.968 77.3967C239.794 77.3237 239.65 77.1953 239.559 77.0319C239.574 77.0386 239.59 77.042 239.606 77.042C239.623 77.042 239.639 77.0386 239.654 77.0319L242.42 76.3562C242.44 76.3515 242.459 76.3428 242.476 76.3306C242.492 76.3184 242.506 76.3029 242.516 76.2852C242.527 76.2674 242.533 76.2477 242.535 76.2274C242.537 76.2071 242.535 76.1865 242.529 76.167C242.518 76.126 242.491 76.091 242.454 76.0695C242.417 76.048 242.373 76.0418 242.331 76.0521L239.565 76.7278C239.539 76.7372 239.515 76.7535 239.497 76.7751C239.49 75.6737 241.99 73.8967 243.28 73.8021Z" fill="black"/>
<path d="M243.282 80.6071C243.965 82.0125 241.752 83.695 240.482 83.3098C239.02 82.9044 238.638 78.7288 238.638 78.7288C238.639 78.5457 238.71 78.3699 238.836 78.2355C238.827 78.2641 238.827 78.2947 238.836 78.3234L240.502 80.6206C240.527 80.6552 240.564 80.6788 240.606 80.6863C240.649 80.6939 240.692 80.6849 240.727 80.6612C240.745 80.6497 240.759 80.6349 240.77 80.6178C240.782 80.6007 240.789 80.5816 240.793 80.5615C240.797 80.5414 240.797 80.5208 240.793 80.5008C240.788 80.4808 240.78 80.4618 240.768 80.445L239.102 78.1409C239.084 78.1194 239.06 78.103 239.034 78.0936C240.106 77.7017 242.735 79.4585 243.282 80.6071Z" fill="black"/>
<path d="M236.718 82.8359C235.598 83.917 233.187 82.4507 233.078 81.167C232.955 79.7007 236.848 77.9778 236.848 77.9778C237.025 77.9185 237.217 77.9185 237.394 77.9778C237.365 77.9894 237.339 78.008 237.319 78.0318L235.694 80.3156C235.682 80.3325 235.674 80.3514 235.67 80.3714C235.665 80.3914 235.665 80.412 235.669 80.4321C235.673 80.4522 235.68 80.4713 235.692 80.4885C235.703 80.5056 235.718 80.5203 235.735 80.5318C235.77 80.5555 235.814 80.5645 235.856 80.557C235.898 80.5494 235.935 80.5258 235.96 80.4913L237.585 78.2142C237.595 78.1904 237.595 78.1638 237.585 78.1399C238.371 78.9845 237.626 81.9575 236.718 82.8359Z" fill="black"/>
<path d="M232.226 77.5664C230.785 76.8907 231.345 74.188 232.54 73.688C233.906 73.0934 236.965 76.0867 236.965 76.0867C237.081 76.2329 237.141 76.4146 237.136 76.6002C237.118 76.5744 237.091 76.5554 237.061 76.5461L234.281 75.8096C234.261 75.8024 234.24 75.7995 234.218 75.8012C234.197 75.8028 234.176 75.809 234.157 75.8192C234.139 75.8295 234.122 75.8435 234.109 75.8605C234.097 75.8775 234.088 75.897 234.083 75.9177C234.078 75.9377 234.077 75.9585 234.08 75.9788C234.083 75.9992 234.09 76.0188 234.101 76.0364C234.112 76.054 234.126 76.0693 234.143 76.0814C234.16 76.0935 234.179 76.1022 234.199 76.1069L236.979 76.8502C237.006 76.857 237.034 76.857 237.061 76.8502C236.535 77.8096 233.4 78.1069 232.226 77.5664Z" fill="black"/>
<path d="M221.197 76.4654C221.217 76.2933 221.304 76.1357 221.439 76.0251C221.574 75.9144 221.746 75.8592 221.921 75.8708C222.097 75.8879 222.26 75.9722 222.374 76.1059C222.489 76.2395 222.547 76.412 222.535 76.587C222.513 76.7578 222.426 76.9138 222.291 77.023C222.157 77.1323 221.985 77.1866 221.811 77.1748C221.636 77.1577 221.475 77.0743 221.36 76.9422C221.246 76.81 221.187 76.6392 221.197 76.4654Z" fill="#FFCF23"/>
<path d="M220.825 72.7288C221.091 71.7423 222.955 71.8167 223.447 72.5194C223.939 73.2221 222.416 75.5734 222.416 75.5734C222.33 75.661 222.217 75.718 222.095 75.7356C222.101 75.7181 222.101 75.699 222.095 75.6815L222.245 73.8437C222.247 73.8161 222.238 73.7888 222.221 73.7674C222.203 73.746 222.177 73.7322 222.15 73.7288C222.136 73.7269 222.121 73.7279 222.108 73.7317C222.094 73.7356 222.082 73.7421 222.071 73.751C222.06 73.7599 222.051 73.7709 222.044 73.7834C222.038 73.7958 222.034 73.8095 222.033 73.8234L221.89 75.6748C221.884 75.6923 221.884 75.7113 221.89 75.7288C221.193 75.4788 220.606 73.5261 220.825 72.7288Z" fill="black"/>
<path d="M225.149 74.3246C226.193 74.2503 226.781 75.98 226.282 76.6624C225.702 77.4462 222.956 76.6962 222.956 76.6962C222.842 76.6511 222.748 76.5673 222.69 76.4597C222.71 76.4664 222.732 76.4664 222.751 76.4597L224.575 75.9935C224.589 75.9904 224.601 75.9845 224.613 75.9763C224.624 75.968 224.634 75.9575 224.641 75.9455C224.648 75.9335 224.652 75.9201 224.654 75.9063C224.655 75.8925 224.654 75.8785 224.65 75.8651C224.642 75.8387 224.624 75.8163 224.6 75.8025C224.576 75.7887 224.547 75.7845 224.52 75.7908L222.69 76.257C222.69 76.257 222.656 76.257 222.649 76.257C222.635 75.5678 224.309 74.3922 225.149 74.3246Z" fill="black"/>
<path d="M225.15 78.815C225.594 79.7474 224.133 80.842 223.3 80.619C222.337 80.3488 222.077 77.592 222.077 77.592C222.083 77.4714 222.131 77.3565 222.214 77.2677C222.21 77.2855 222.21 77.3039 222.214 77.3217L223.313 78.842C223.334 78.861 223.36 78.8716 223.388 78.8716C223.416 78.8716 223.443 78.861 223.464 78.842C223.482 78.8231 223.493 78.7976 223.493 78.7711C223.493 78.7445 223.482 78.7191 223.464 78.7001L222.419 77.2069C222.403 77.2038 222.387 77.2038 222.371 77.2069C223.061 76.9096 224.795 78.0582 225.15 78.815Z" fill="black"/>
<path d="M220.827 80.2909C220.082 81.0071 218.498 80.0341 218.423 79.1895C218.341 78.2233 220.916 77.0814 220.916 77.0814C221.032 77.0396 221.161 77.0396 221.277 77.0814C221.26 77.0761 221.241 77.0761 221.223 77.0814L220.151 78.5814C220.14 78.5927 220.132 78.6062 220.126 78.621C220.121 78.6357 220.12 78.6514 220.121 78.6669C220.123 78.6824 220.128 78.6974 220.136 78.7108C220.144 78.7243 220.155 78.7358 220.168 78.7447C220.181 78.7536 220.195 78.7596 220.211 78.7623C220.226 78.765 220.242 78.7643 220.258 78.7604C220.273 78.7564 220.287 78.7492 220.299 78.7393C220.311 78.7294 220.321 78.7171 220.328 78.703L221.4 77.203C221.403 77.1851 221.403 77.1669 221.4 77.149C221.919 77.7503 221.428 79.73 220.827 80.2909Z" fill="black"/>
<path d="M217.854 76.808C216.905 76.362 217.274 74.5917 218.066 74.2472C218.974 73.8553 220.989 75.835 220.989 75.835C221.062 75.9302 221.1 76.0467 221.098 76.1661C221.083 76.163 221.066 76.163 221.051 76.1661L219.213 75.6728C219.186 75.6665 219.158 75.6707 219.134 75.6845C219.11 75.6983 219.092 75.7207 219.084 75.7472C219.077 75.774 219.082 75.8022 219.095 75.8261C219.109 75.85 219.132 75.8677 219.159 75.8755L220.996 76.362H221.051C220.702 76.9701 218.633 77.1661 217.854 76.808Z" fill="black"/>
<path d="M225.349 84.4577C225.369 84.2857 225.456 84.128 225.591 84.0174C225.725 83.9067 225.898 83.8515 226.073 83.8631C226.249 83.8803 226.412 83.9646 226.526 84.0982C226.641 84.2318 226.699 84.4044 226.687 84.5793C226.665 84.7501 226.578 84.9061 226.443 85.0153C226.309 85.1246 226.137 85.1789 225.963 85.1671C225.788 85.15 225.627 85.0666 225.512 84.9345C225.398 84.8023 225.339 84.6315 225.349 84.4577Z" fill="#FFCF23"/>
<path d="M224.979 80.7011C225.245 79.7146 227.109 79.7889 227.601 80.4916C228.175 81.2957 226.549 83.5457 226.549 83.5457C226.464 83.6346 226.351 83.6918 226.228 83.7079C226.235 83.6904 226.235 83.6713 226.228 83.6538L226.379 81.816C226.381 81.7884 226.372 81.761 226.354 81.7397C226.336 81.7183 226.311 81.7045 226.283 81.7011C226.269 81.6992 226.255 81.7002 226.241 81.704C226.228 81.7079 226.215 81.7144 226.204 81.7233C226.193 81.7322 226.184 81.7432 226.178 81.7557C226.171 81.7681 226.168 81.7818 226.167 81.7957L226.017 83.6335C226.01 83.651 226.01 83.6701 226.017 83.6876C225.347 83.4511 224.76 81.4984 224.979 80.7011Z" fill="black"/>
<path d="M229.316 82.2947C230.361 82.2204 230.948 83.9501 230.45 84.6325C229.951 85.315 227.124 84.6325 227.124 84.6325C227.01 84.5874 226.915 84.5036 226.858 84.396C226.878 84.4027 226.899 84.4027 226.919 84.396L228.743 83.9298C228.756 83.9267 228.769 83.9208 228.781 83.9126C228.792 83.9043 228.801 83.8938 228.808 83.8818C228.815 83.8698 228.82 83.8564 228.821 83.8426C228.823 83.8288 228.822 83.8148 228.818 83.8014C228.81 83.775 228.792 83.7526 228.768 83.7388C228.744 83.725 228.715 83.7208 228.688 83.7271L226.858 84.1933C226.858 84.1933 226.824 84.1933 226.817 84.1933C226.789 83.5379 228.463 82.3622 229.316 82.2947Z" fill="black"/>
<path d="M229.316 86.7887C229.76 87.7212 228.298 88.8158 227.465 88.5928C226.502 88.3225 226.243 85.5658 226.243 85.5658C226.248 85.4451 226.297 85.3303 226.379 85.2415C226.375 85.2593 226.375 85.2777 226.379 85.2955L227.479 86.8158C227.499 86.8348 227.526 86.8454 227.554 86.8454C227.582 86.8454 227.609 86.8348 227.629 86.8158C227.648 86.7968 227.658 86.7714 227.658 86.7448C227.658 86.7183 227.648 86.6928 227.629 86.6739L226.529 85.1536C226.514 85.1505 226.497 85.1505 226.482 85.1536C227.199 84.8833 228.947 86.032 229.316 86.7887Z" fill="black"/>
<path d="M224.979 88.2631C224.234 88.9794 222.65 88.0064 222.575 87.1618C222.493 86.1956 225.067 85.0537 225.067 85.0537C225.184 85.0119 225.312 85.0119 225.429 85.0537C225.411 85.0484 225.392 85.0484 225.375 85.0537L224.302 86.5604C224.284 86.5794 224.273 86.6049 224.273 86.6314C224.273 86.6579 224.284 86.6834 224.302 86.7023C224.323 86.7213 224.35 86.7319 224.378 86.7319C224.406 86.7319 224.432 86.7213 224.453 86.7023L225.525 85.2023C225.528 85.1844 225.528 85.1662 225.525 85.1483C226.071 85.7226 225.58 87.6821 224.979 88.2631Z" fill="black"/>
<path d="M222.006 84.7831C221.057 84.3371 221.426 82.5669 222.218 82.2223C223.099 81.8304 225.148 83.7831 225.148 83.7831C225.221 83.8782 225.259 83.9948 225.257 84.1141C225.241 84.1111 225.225 84.1111 225.209 84.1141L223.372 83.6277C223.345 83.6213 223.316 83.6255 223.292 83.6393C223.268 83.6531 223.25 83.6756 223.242 83.702C223.236 83.7288 223.24 83.7571 223.254 83.7809C223.268 83.8048 223.291 83.8225 223.317 83.8304L225.155 84.3169C225.172 84.3236 225.192 84.3236 225.209 84.3169C224.854 84.9452 222.785 85.1344 222.006 84.7831Z" fill="black"/>
<path d="M239.156 65.9526C237.745 66.2026 236.315 66.3381 234.881 66.358C232.982 66.358 230.51 63.7228 230.51 63.7228C230.51 63.7228 237.053 62.2093 239.156 65.9526Z" fill="black"/>
<path d="M228.272 63.8706C227.999 62.4962 227.842 61.1018 227.801 59.7017C227.801 57.8571 230.471 55.499 230.471 55.499C230.471 55.499 232.09 61.8909 228.272 63.8706Z" fill="black"/>
<path d="M251.627 44.4111C251.627 44.4111 255.089 45.3233 256.045 44.1679C257.001 43.0125 254.577 42.8841 254.577 42.8841C254.577 42.8841 257.889 40.8571 256.271 40.3233C254.652 39.7895 252.754 42.0868 252.754 42.0868C252.754 42.0868 253.703 39.1003 251.524 40.6206C249.346 42.1408 251.627 44.4111 251.627 44.4111Z" fill="black"/>
<path d="M128.325 134.79L178.322 127.236L178.076 127.31L213.636 109.371L213.78 109.297L213.944 109.317L262.957 115.148H262.93L282.223 114.844H282.243L282.257 114.857L291.599 120.033L282.189 114.979L282.223 114.986L262.944 115.547H262.93H262.916L213.834 110.357L214.142 110.297L178.848 128.709L178.739 128.763L178.602 128.79L128.728 136.999L128.325 134.79Z" fill="black"/>
<path d="M250.679 43.6272L251.198 44.1813L230.048 62.965L227.569 79.9313L227.535 79.9988L218.022 95.2488L217.844 103.654L214.224 110.019L213.555 109.647L217.079 103.445L217.257 95.0191L217.311 94.938L226.831 79.6677L229.324 62.5867L229.426 62.4988L250.679 43.6272Z" fill="black"/>
<path d="M142.024 188.493C181.068 188.493 212.72 157.177 212.72 118.547C212.72 79.9168 181.068 48.601 142.024 48.601C102.979 48.601 71.3271 79.9168 71.3271 118.547C71.3271 157.177 102.979 188.493 142.024 188.493Z" fill="#FFCF23" fill-opacity="0.95"/>
<path d="M108.491 117.708V119.249H104.953V125.816H103.246V110.641H109.338V112.161H104.953V117.688L108.491 117.708Z" fill="white"/>
<path d="M110.567 114.31C110.567 111.985 111.728 110.492 114.078 110.492C116.427 110.492 117.602 111.985 117.602 114.31V122.154C117.602 124.452 116.441 125.965 114.078 125.965C111.715 125.965 110.567 124.452 110.567 122.154V114.31ZM112.254 122.235C112.254 123.627 112.848 124.425 114.078 124.425C115.307 124.425 115.881 123.647 115.881 122.235V114.222C115.881 112.87 115.307 112.033 114.064 112.033C112.821 112.033 112.241 112.857 112.241 114.222L112.254 122.235Z" fill="white"/>
<path d="M130.222 92.3281C130.222 90.0037 131.383 88.5105 133.732 88.5105C136.081 88.5105 137.256 90.0037 137.256 92.3281V100.173C137.256 102.47 136.095 103.983 133.732 103.983C131.369 103.983 130.222 102.47 130.222 100.173V92.3281ZM131.909 100.254C131.909 101.646 132.503 102.443 133.732 102.443C134.961 102.443 135.535 101.666 135.535 100.254V92.2402C135.535 90.8889 134.961 90.051 133.718 90.051C132.475 90.051 131.895 90.8754 131.895 92.2402L131.909 100.254Z" fill="white"/>
<path d="M120.846 122.235C120.846 123.587 121.392 124.425 122.642 124.425C123.891 124.425 124.41 123.607 124.41 122.235V110.641H126.015V122.127C126.015 124.425 124.936 125.958 122.601 125.958C120.265 125.958 119.186 124.425 119.186 122.127V110.641H120.873L120.846 122.235Z" fill="white"/>
<path d="M140.499 100.105C140.499 101.456 141.046 102.294 142.295 102.294C143.545 102.294 144.064 101.477 144.064 100.105V88.5105H145.669V99.997C145.669 102.294 144.59 103.828 142.254 103.828C139.919 103.828 138.84 102.294 138.84 99.997V88.5105H140.527L140.499 100.105Z" fill="white"/>
<path d="M129.211 125.816H127.675V110.641H129.847L133.391 121.62V110.641H134.907V125.816H133.131L129.211 113.546V125.816Z" fill="white"/>
<path d="M140.249 110.641C142.639 110.641 143.732 112.073 143.732 114.418V122.066C143.732 124.384 142.639 125.816 140.249 125.816H136.657V110.641H140.249ZM140.249 124.276C141.478 124.276 142.066 123.519 142.066 122.127V114.33C142.066 112.938 141.478 112.181 140.228 112.181H138.385V124.276H140.249Z" fill="white"/>
<path fill-rule="evenodd" clip-rule="evenodd" d="M154.121 90.6973C154.121 89.3402 153.067 88.5111 150.759 88.5111H147.292V96.6188V97.2949V103.714H148.96V97.5105H150.74C151.946 97.5105 152.513 97.9485 152.513 98.7541V103.714H154.121V101.543V98.805C154.121 97.9604 153.713 97.3203 152.848 96.9573C153.713 96.5957 154.121 95.9592 154.121 95.1244V90.6973ZM152.513 94.9948C152.513 95.8005 151.946 96.2385 150.759 96.2385H148.96V89.7088H150.74C151.946 89.7088 152.513 90.1468 152.513 90.9524V94.9948Z" fill="white"/>
<path d="M147.034 122.756L146.446 125.816H144.869L147.805 110.641H150.277L153.214 125.816H151.507L150.913 122.756H147.034ZM147.252 121.31H150.667L148.932 112.526L147.252 121.31Z" fill="white"/>
<path d="M155.926 125.817V112.161H153.105V110.621H160.44V112.161H157.613V125.796L155.926 125.817Z" fill="white"/>
<path d="M163.31 110.641V125.816H161.637V110.641H163.31Z" fill="white"/>
<path d="M164.936 114.31C164.936 111.985 166.09 110.492 168.439 110.492C170.789 110.492 171.963 111.985 171.963 114.31V122.154C171.963 124.452 170.802 125.965 168.439 125.965C166.077 125.965 164.936 124.452 164.936 122.154V114.31ZM166.616 122.235C166.616 123.627 167.21 124.425 168.439 124.425C169.669 124.425 170.256 123.627 170.256 122.235V114.222C170.256 112.87 169.689 112.033 168.439 112.033C167.19 112.033 166.616 112.857 166.616 114.222V122.235Z" fill="white"/>
<path d="M175.098 125.816H173.561V110.641H175.733L179.277 121.62V110.641H180.793V125.816H179.018L175.098 113.546V125.816Z" fill="white"/>
<path d="M133.638 131.89C136.021 131.89 137.121 133.316 137.121 135.66V143.309C137.121 145.626 136.021 147.059 133.638 147.059H130.045V131.89H133.638ZM133.638 145.518C134.867 145.518 135.461 144.762 135.461 143.376V135.572C135.461 134.187 134.867 133.424 133.617 133.424H131.78V145.518H133.638Z" fill="white"/>
<path d="M140.425 144.005L139.83 147.059H138.253L141.19 131.89H143.662L146.598 147.059H144.891L144.304 144.005H140.425ZM140.643 142.552H144.058L142.33 133.768L140.643 142.552Z" fill="white"/>
<path d="M149.574 141.62L146.337 131.89H148.113L150.496 139.322L152.907 131.89H154.526L151.261 141.62V147.059H149.574V141.62Z" fill="white"/>
</g>
<defs>
<clipPath id="clip0_53_701">
<rect width="280" height="250" fill="white"/>
</clipPath>
</defs>
</svg>
