<svg width="26" height="25" viewBox="0 0 26 25" fill="none" xmlns="http://www.w3.org/2000/svg">
<path d="M9.83105 10.9375C9.83105 10.0723 9.13086 9.37305 8.26856 9.37305L7.53125 9.375C5.80566 9.375 4.40625 10.7744 4.40625 12.5039V14.8374C4.40625 16.5674 5.80762 17.9688 7.53125 17.9688H8.3125C9.1748 17.9688 9.875 17.2676 9.875 16.4033L9.83105 10.9375ZM13 0C6.01269 0 0.723779 5.81543 0.501016 12.5L0.5 14.4531C0.5 15.1025 1.0249 15.625 1.62793 15.625C2.23096 15.625 2.84375 15.1025 2.84375 14.4531V12.5C2.84375 6.89941 7.40137 2.35352 13 2.35352C18.6006 2.35352 23.1562 6.89941 23.1562 12.5V19.5312C23.1562 20.6099 22.2817 21.4844 21.2031 21.4844H15.7979C15.3926 20.7861 14.6455 20.3125 13.7812 20.3125H12.3066C11.1733 20.3125 10.1338 21.0786 9.92041 22.1919C9.63086 23.6914 10.7734 25 12.1748 25H13.7812C14.6465 25 15.394 24.5258 15.7998 23.8281H21.2031C23.5762 23.8281 25.5 21.9043 25.5 19.5312V12.5C25.2754 5.81543 19.9873 0 13 0ZM18.4688 17.9688C20.1943 17.9688 21.5938 16.5674 21.5938 14.8374V12.5049C21.5938 10.7764 20.1924 9.375 18.4688 9.375H17.6875C16.8252 9.375 16.125 10.0752 16.125 10.9395V16.4014C16.125 17.2705 16.8232 17.9688 17.6875 17.9688H18.4688Z" fill="black"/>
</svg>
