<svg width="20" height="21" viewBox="0 0 20 21" fill="none" xmlns="http://www.w3.org/2000/svg">
<path fill-rule="evenodd" clip-rule="evenodd" d="M10 20.9961C15.5228 20.9961 20 16.5189 20 10.9961C20 5.47325 15.5228 0.996094 10 0.996094C4.47715 0.996094 0 5.47325 0 10.9961C0 16.5189 4.47715 20.9961 10 20.9961ZM6.49983 5.39605H13.4995C14.6592 5.39605 15.5994 6.33621 15.5994 7.49595V14.4956C15.5994 15.6553 14.6592 16.5955 13.4995 16.5955H6.49983C5.34009 16.5955 4.39993 15.6553 4.39993 14.4956V7.49595C4.39993 6.33621 5.34009 5.39605 6.49983 5.39605ZM3 7.49595C3 5.56304 4.56693 3.99612 6.49983 3.99612H13.4995C15.4324 3.99612 16.9993 5.56305 16.9993 7.49595V14.4956C16.9993 16.4285 15.4324 17.9954 13.4995 17.9954H6.49983C4.56692 17.9954 3 16.4285 3 14.4956V7.49595ZM9.99862 13.7946C11.5449 13.7946 12.7985 12.541 12.7985 10.9947C12.7985 9.44839 11.5449 8.19485 9.99862 8.19485C8.4523 8.19485 7.19876 9.44839 7.19876 10.9947C7.19876 12.541 8.4523 13.7946 9.99862 13.7946ZM9.99862 15.1945C12.3181 15.1945 14.1984 13.3142 14.1984 10.9947C14.1984 8.67523 12.3181 6.79492 9.99862 6.79492C7.67914 6.79492 5.79883 8.67523 5.79883 10.9947C5.79883 13.3142 7.67914 15.1945 9.99862 15.1945ZM14.2 8.19304C14.5865 8.19304 14.8999 7.88006 14.8999 7.49398C14.8999 7.1079 14.5865 6.79492 14.2 6.79492C13.8134 6.79492 13.5 7.1079 13.5 7.49398C13.5 7.88006 13.8134 8.19304 14.2 8.19304Z" fill="black"/>
</svg>
