<svg width="150" height="70" viewBox="0 0 150 70" fill="none" xmlns="http://www.w3.org/2000/svg">
<g filter="url(#filter0_d_53_29)">
<path d="M68.8496 45.7979V52.2012H67.5347V45.7979H68.8496ZM72.8165 45.7979V52.2012H71.5016V45.7979H72.8165ZM74.7868 45.7979V46.8314H69.5621V45.7979H74.7868ZM80.0334 51.1281V49.0083C80.0334 48.8559 80.0085 48.7254 79.9587 48.6169C79.9088 48.5055 79.8311 48.419 79.7256 48.3574C79.6229 48.2959 79.4895 48.2651 79.3254 48.2651C79.1846 48.2651 79.063 48.29 78.9603 48.3398C78.8577 48.3868 78.7786 48.4557 78.7229 48.5465C78.6671 48.6345 78.6393 48.7386 78.6393 48.8588H77.3727C77.3727 48.6565 77.4196 48.4645 77.5134 48.2827C77.6073 48.1009 77.7436 47.9411 77.9224 47.8033C78.1013 47.6626 78.3139 47.5526 78.5601 47.4735C78.8093 47.3943 79.0879 47.3547 79.3957 47.3547C79.7651 47.3547 80.0935 47.4163 80.3808 47.5394C80.6682 47.6626 80.8939 47.8473 81.0581 48.0936C81.2252 48.3398 81.3088 48.6477 81.3088 49.0171V51.0533C81.3088 51.3143 81.3249 51.5283 81.3572 51.6954C81.3894 51.8596 81.4363 52.0033 81.4979 52.1264V52.2012H80.2181C80.1566 52.0722 80.1096 51.9109 80.0774 51.7174C80.0481 51.521 80.0334 51.3245 80.0334 51.1281ZM80.2005 49.303L80.2093 50.0198H79.5013C79.3342 50.0198 79.189 50.0389 79.0659 50.077C78.9427 50.1151 78.8416 50.1694 78.7624 50.2397C78.6833 50.3072 78.6246 50.3863 78.5865 50.4772C78.5513 50.5681 78.5337 50.6678 78.5337 50.7763C78.5337 50.8847 78.5587 50.983 78.6085 51.0709C78.6583 51.1559 78.7302 51.2234 78.824 51.2732C78.9178 51.3201 79.0278 51.3436 79.1538 51.3436C79.3444 51.3436 79.5101 51.3055 79.6508 51.2292C79.7915 51.153 79.9 51.0592 79.9762 50.9478C80.0554 50.8364 80.0965 50.7308 80.0994 50.6311L80.4336 51.1677C80.3867 51.2879 80.3222 51.4125 80.2401 51.5415C80.161 51.6705 80.0598 51.7922 79.9367 51.9065C79.8135 52.0179 79.6655 52.1103 79.4925 52.1836C79.3195 52.2539 79.1143 52.2891 78.8768 52.2891C78.5748 52.2891 78.3007 52.229 78.0544 52.1088C77.811 51.9857 77.6175 51.8171 77.4739 51.6031C77.3331 51.3861 77.2628 51.1398 77.2628 50.8642C77.2628 50.615 77.3097 50.3936 77.4035 50.2001C77.4973 50.0066 77.6351 49.8439 77.8169 49.712C78.0016 49.5771 78.2318 49.476 78.5074 49.4085C78.783 49.3382 79.1025 49.303 79.4661 49.303H80.2005ZM84.251 51.2996C84.4064 51.2996 84.5442 51.2703 84.6644 51.2117C84.7846 51.1501 84.8784 51.0651 84.9458 50.9566C85.0162 50.8452 85.0528 50.7147 85.0558 50.5652H86.2476C86.2447 50.8994 86.1552 51.197 85.9793 51.4579C85.8034 51.7159 85.5674 51.9197 85.2713 52.0692C84.9752 52.2158 84.6438 52.2891 84.2774 52.2891C83.9079 52.2891 83.5854 52.2276 83.3098 52.1044C83.0372 51.9813 82.8099 51.8112 82.6282 51.5943C82.4464 51.3744 82.31 51.1193 82.2192 50.829C82.1283 50.5358 82.0828 50.2221 82.0828 49.8879V49.7604C82.0828 49.4232 82.1283 49.1095 82.2192 48.8192C82.31 48.526 82.4464 48.2709 82.6282 48.054C82.8099 47.8341 83.0372 47.6626 83.3098 47.5394C83.5825 47.4163 83.9021 47.3547 84.2686 47.3547C84.6585 47.3547 85.0001 47.4295 85.2933 47.579C85.5894 47.7285 85.821 47.9426 85.9881 48.2211C86.1582 48.4967 86.2447 48.8236 86.2476 49.2018H85.0558C85.0528 49.0435 85.0191 48.8998 84.9546 48.7708C84.8931 48.6418 84.8022 48.5392 84.682 48.463C84.5647 48.3838 84.4196 48.3442 84.2466 48.3442C84.0619 48.3442 83.9109 48.3838 83.7936 48.463C83.6763 48.5392 83.5854 48.6448 83.5209 48.7796C83.4564 48.9116 83.411 49.0626 83.3846 49.2326C83.3611 49.3997 83.3494 49.5756 83.3494 49.7604V49.8879C83.3494 50.0726 83.3611 50.25 83.3846 50.42C83.408 50.5901 83.452 50.7411 83.5165 50.873C83.584 51.005 83.6763 51.109 83.7936 51.1853C83.9109 51.2615 84.0633 51.2996 84.251 51.2996ZM89.5504 51.1281V49.0083C89.5504 48.8559 89.5255 48.7254 89.4756 48.6169C89.4258 48.5055 89.3481 48.419 89.2425 48.3574C89.1399 48.2959 89.0065 48.2651 88.8423 48.2651C88.7016 48.2651 88.5799 48.29 88.4773 48.3398C88.3747 48.3868 88.2955 48.4557 88.2398 48.5465C88.1841 48.6345 88.1563 48.7386 88.1563 48.8588H86.8897C86.8897 48.6565 86.9366 48.4645 87.0304 48.2827C87.1242 48.1009 87.2606 47.9411 87.4394 47.8033C87.6183 47.6626 87.8308 47.5526 88.0771 47.4735C88.3263 47.3943 88.6049 47.3547 88.9127 47.3547C89.2821 47.3547 89.6105 47.4163 89.8978 47.5394C90.1852 47.6626 90.4109 47.8473 90.5751 48.0936C90.7422 48.3398 90.8258 48.6477 90.8258 49.0171V51.0533C90.8258 51.3143 90.8419 51.5283 90.8742 51.6954C90.9064 51.8596 90.9533 52.0033 91.0149 52.1264V52.2012H89.7351C89.6735 52.0722 89.6266 51.9109 89.5944 51.7174C89.5651 51.521 89.5504 51.3245 89.5504 51.1281ZM89.7175 49.303L89.7263 50.0198H89.0183C88.8511 50.0198 88.706 50.0389 88.5829 50.077C88.4597 50.1151 88.3586 50.1694 88.2794 50.2397C88.2003 50.3072 88.1416 50.3863 88.1035 50.4772C88.0683 50.5681 88.0507 50.6678 88.0507 50.7763C88.0507 50.8847 88.0756 50.983 88.1255 51.0709C88.1753 51.1559 88.2472 51.2234 88.341 51.2732C88.4348 51.3201 88.5448 51.3436 88.6708 51.3436C88.8614 51.3436 89.0271 51.3055 89.1678 51.2292C89.3085 51.153 89.417 51.0592 89.4932 50.9478C89.5724 50.8364 89.6134 50.7308 89.6164 50.6311L89.9506 51.1677C89.9037 51.2879 89.8392 51.4125 89.7571 51.5415C89.6779 51.6705 89.5768 51.7922 89.4536 51.9065C89.3305 52.0179 89.1824 52.1103 89.0095 52.1836C88.8365 52.2539 88.6312 52.2891 88.3938 52.2891C88.0918 52.2891 87.8176 52.229 87.5714 52.1088C87.328 51.9857 87.1345 51.8171 86.9908 51.6031C86.8501 51.3861 86.7797 51.1398 86.7797 50.8642C86.7797 50.615 86.8267 50.3936 86.9205 50.2001C87.0143 50.0066 87.1521 49.8439 87.3339 49.712C87.5186 49.5771 87.7487 49.476 88.0243 49.4085C88.2999 49.3382 88.6195 49.303 88.9831 49.303H89.7175ZM94.6123 51.1633V45.446H95.8877V52.2012H94.7399L94.6123 51.1633ZM91.6042 49.8791V49.7867C91.6042 49.4232 91.6452 49.0933 91.7273 48.7972C91.8094 48.4982 91.9296 48.2416 92.088 48.0276C92.2463 47.8136 92.4413 47.6479 92.6729 47.5306C92.9045 47.4134 93.1684 47.3547 93.4645 47.3547C93.743 47.3547 93.9864 47.4134 94.1945 47.5306C94.4056 47.6479 94.5845 47.815 94.7311 48.032C94.8806 48.246 95.0008 48.4996 95.0917 48.7928C95.1826 49.0831 95.2486 49.4012 95.2896 49.7472V49.9495C95.2486 50.2808 95.1826 50.5886 95.0917 50.873C95.0008 51.1574 94.8806 51.4066 94.7311 51.6207C94.5845 51.8318 94.4056 51.9959 94.1945 52.1132C93.9834 52.2305 93.7372 52.2891 93.4557 52.2891C93.1596 52.2891 92.8957 52.229 92.6641 52.1088C92.4354 51.9886 92.2419 51.82 92.0836 51.6031C91.9282 51.3861 91.8094 51.131 91.7273 50.8378C91.6452 50.5446 91.6042 50.2251 91.6042 49.8791ZM92.8708 49.7867V49.8791C92.8708 50.0755 92.8854 50.2588 92.9148 50.4288C92.947 50.5989 92.9983 50.7499 93.0687 50.8818C93.142 51.0108 93.2358 51.112 93.3502 51.1853C93.4674 51.2556 93.6096 51.2908 93.7767 51.2908C93.9937 51.2908 94.1726 51.2424 94.3133 51.1457C94.454 51.046 94.561 50.9097 94.6343 50.7367C94.7106 50.5637 94.7545 50.3643 94.7663 50.1386V49.5625C94.7575 49.3777 94.7311 49.2121 94.6871 49.0655C94.6461 48.916 94.5845 48.7884 94.5024 48.6829C94.4232 48.5773 94.3235 48.4952 94.2033 48.4366C94.0861 48.378 93.9468 48.3486 93.7855 48.3486C93.6214 48.3486 93.4806 48.3868 93.3633 48.463C93.2461 48.5363 93.1508 48.6374 93.0775 48.7664C93.0071 48.8954 92.9543 49.0479 92.9192 49.2238C92.8869 49.3968 92.8708 49.5844 92.8708 49.7867ZM99.0674 52.2891C98.698 52.2891 98.3667 52.2305 98.0735 52.1132C97.7803 51.993 97.5311 51.8274 97.3258 51.6163C97.1235 51.4052 96.9681 51.1603 96.8597 50.8818C96.7512 50.6003 96.6969 50.3013 96.6969 49.9846V49.8087C96.6969 49.4481 96.7482 49.1183 96.8509 48.8192C96.9535 48.5202 97.1001 48.2607 97.2906 48.0408C97.4842 47.8209 97.7187 47.6523 97.9943 47.535C98.2699 47.4148 98.5807 47.3547 98.9267 47.3547C99.2638 47.3547 99.5629 47.4104 99.8238 47.5218C100.085 47.6333 100.303 47.7916 100.479 47.9968C100.658 48.202 100.793 48.4483 100.884 48.7357C100.975 49.02 101.02 49.3367 101.02 49.6856V50.2133H97.2379V49.3689H99.7754V49.2722C99.7754 49.0963 99.7432 48.9394 99.6787 48.8016C99.6171 48.6609 99.5233 48.5495 99.3972 48.4674C99.2711 48.3853 99.1099 48.3442 98.9135 48.3442C98.7463 48.3442 98.6027 48.3809 98.4825 48.4542C98.3623 48.5275 98.264 48.6301 98.1878 48.762C98.1145 48.894 98.0588 49.0494 98.0207 49.2282C97.9855 49.4041 97.9679 49.5976 97.9679 49.8087V49.9846C97.9679 50.1752 97.9943 50.3511 98.0471 50.5124C98.1028 50.6736 98.1805 50.8129 98.2802 50.9302C98.3828 51.0475 98.5059 51.1384 98.6496 51.2029C98.7962 51.2674 98.9618 51.2996 99.1465 51.2996C99.3752 51.2996 99.5878 51.2556 99.7842 51.1677C99.9836 51.0768 100.155 50.9405 100.299 50.7587L100.914 51.4271C100.815 51.5708 100.678 51.7086 100.505 51.8405C100.335 51.9725 100.13 52.081 99.8898 52.166C99.6494 52.2481 99.3752 52.2891 99.0674 52.2891ZM103.008 48.4278V52.2012H101.737V47.4427H102.929L103.008 48.4278ZM102.832 49.6548H102.48C102.48 49.3235 102.52 49.0186 102.599 48.7401C102.681 48.4586 102.8 48.2152 102.955 48.01C103.113 47.8018 103.308 47.6406 103.54 47.5262C103.772 47.4119 104.04 47.3547 104.345 47.3547C104.556 47.3547 104.749 47.387 104.925 47.4515C105.101 47.513 105.252 47.6113 105.378 47.7461C105.507 47.8781 105.607 48.0511 105.677 48.2651C105.748 48.4762 105.783 48.7298 105.783 49.0259V52.2012H104.516V49.1666C104.516 48.9497 104.487 48.7826 104.428 48.6653C104.37 48.548 104.286 48.4659 104.178 48.419C104.072 48.3721 103.945 48.3486 103.795 48.3486C103.631 48.3486 103.487 48.3824 103.364 48.4498C103.244 48.5172 103.144 48.611 103.065 48.7313C102.986 48.8485 102.927 48.9863 102.889 49.1447C102.851 49.303 102.832 49.473 102.832 49.6548ZM105.664 49.5097L105.211 49.5668C105.211 49.2561 105.249 48.9673 105.326 48.7005C105.405 48.4337 105.521 48.1991 105.673 47.9968C105.828 47.7945 106.02 47.6377 106.249 47.5262C106.478 47.4119 106.742 47.3547 107.041 47.3547C107.269 47.3547 107.478 47.3884 107.665 47.4559C107.853 47.5204 108.013 47.6245 108.145 47.7681C108.279 47.9089 108.382 48.0936 108.452 48.3223C108.526 48.5509 108.562 48.8309 108.562 49.1622V52.2012H107.291V49.1622C107.291 48.9424 107.262 48.7752 107.203 48.6609C107.148 48.5436 107.066 48.463 106.957 48.419C106.852 48.3721 106.726 48.3486 106.579 48.3486C106.426 48.3486 106.293 48.3794 106.179 48.441C106.064 48.4996 105.969 48.5817 105.893 48.6873C105.817 48.7928 105.759 48.916 105.721 49.0567C105.683 49.1945 105.664 49.3455 105.664 49.5097ZM110.955 51.6646L112.217 47.4427H113.576L111.663 52.918C111.622 53.0382 111.566 53.1672 111.496 53.305C111.428 53.4428 111.336 53.5733 111.219 53.6964C111.104 53.8225 110.959 53.9251 110.783 54.0043C110.61 54.0835 110.398 54.123 110.146 54.123C110.025 54.123 109.927 54.1157 109.851 54.1011C109.775 54.0864 109.684 54.0659 109.578 54.0395V53.1115C109.611 53.1115 109.644 53.1115 109.679 53.1115C109.715 53.1145 109.748 53.1159 109.781 53.1159C109.948 53.1159 110.084 53.0969 110.19 53.0588C110.295 53.0206 110.38 52.962 110.445 52.8828C110.509 52.8066 110.56 52.7069 110.599 52.5838L110.955 51.6646ZM110.427 47.4427L111.461 50.8906L111.641 52.232L110.779 52.3243L109.068 47.4427H110.427Z" fill="black"/>
</g>
<g filter="url(#filter1_d_53_29)">
<path d="M19.4968 22.5941V40.9961H15.381V22.5941H19.4968ZM15.1089 17.764C15.1089 17.1404 15.313 16.6245 15.7212 16.2164C16.1407 15.7968 16.7189 15.5871 17.4559 15.5871C18.1816 15.5871 18.7542 15.7968 19.1737 16.2164C19.5932 16.6245 19.8029 17.1404 19.8029 17.764C19.8029 18.3763 19.5932 18.8865 19.1737 19.2947C18.7542 19.7029 18.1816 19.907 17.4559 19.907C16.7189 19.907 16.1407 19.7029 15.7212 19.2947C15.313 18.8865 15.1089 18.3763 15.1089 17.764Z" fill="white"/>
</g>
<g filter="url(#filter2_d_53_29)">
<path d="M34.608 35.9109C34.608 35.5594 34.506 35.2419 34.3019 34.9585C34.0978 34.675 33.718 34.4142 33.1624 34.1761C32.6182 33.9267 31.8302 33.6999 30.7984 33.4958C29.8687 33.2918 29.0013 33.0366 28.1963 32.7305C27.4026 32.413 26.711 32.0332 26.1214 31.591C25.5431 31.1488 25.0896 30.6273 24.7608 30.0263C24.432 29.4141 24.2676 28.7168 24.2676 27.9344C24.2676 27.1634 24.432 26.4378 24.7608 25.7575C25.1009 25.0772 25.5828 24.4763 26.2064 23.9547C26.8413 23.4218 27.6123 23.008 28.5194 22.7132C29.4378 22.407 30.4696 22.254 31.6147 22.254C33.2134 22.254 34.5854 22.5091 35.7305 23.0193C36.887 23.5295 37.7714 24.2325 38.3837 25.1282C39.0073 26.0126 39.3191 27.0217 39.3191 28.1555H34.421C34.421 27.6793 34.3189 27.2541 34.1148 26.88C33.9221 26.4945 33.6159 26.194 33.1964 25.9786C32.7883 25.7518 32.2554 25.6384 31.5977 25.6384C31.0535 25.6384 30.583 25.7348 30.1861 25.9276C29.7893 26.109 29.4832 26.3584 29.2677 26.6759C29.0636 26.982 28.9616 27.3222 28.9616 27.6963C28.9616 27.9798 29.0183 28.2349 29.1317 28.4617C29.2564 28.6771 29.4548 28.8755 29.7269 29.0569C29.999 29.2383 30.3505 29.4084 30.7814 29.5671C31.2236 29.7145 31.7678 29.8506 32.4141 29.9753C33.7407 30.2474 34.9255 30.6046 35.9686 31.0468C37.0118 31.4776 37.8394 32.0672 38.4517 32.8155C39.064 33.5525 39.3701 34.522 39.3701 35.7238C39.3701 36.5402 39.1887 37.2885 38.8259 37.9688C38.4631 38.6491 37.9415 39.2443 37.2612 39.7546C36.5809 40.2534 35.7645 40.6446 34.8121 40.9281C33.8711 41.2002 32.8109 41.3362 31.6318 41.3362C29.9197 41.3362 28.4684 41.0301 27.2779 40.4178C26.0987 39.8056 25.203 39.0289 24.5907 38.0878C23.9898 37.1354 23.6893 36.1603 23.6893 35.1626H28.3323C28.355 35.8315 28.5251 36.3701 28.8425 36.7783C29.1714 37.1864 29.5852 37.4812 30.0841 37.6626C30.5943 37.8441 31.1442 37.9348 31.7338 37.9348C32.3687 37.9348 32.896 37.8497 33.3155 37.6797C33.735 37.4982 34.0525 37.2601 34.2679 36.9653C34.4947 36.6592 34.608 36.3077 34.608 35.9109ZM48.0099 38.9212L52.891 22.5941H58.1462L50.748 43.7683C50.5893 44.2332 50.3739 44.732 50.1018 45.2649C49.841 45.7978 49.4838 46.3024 49.0303 46.7786C48.5881 47.2661 48.0269 47.663 47.3466 47.9691C46.6776 48.2752 45.8556 48.4283 44.8805 48.4283C44.4156 48.4283 44.0358 48.4 43.741 48.3433C43.4462 48.2866 43.0947 48.2072 42.6865 48.1052V44.5166C42.8113 44.5166 42.9417 44.5166 43.0777 44.5166C43.2138 44.528 43.3442 44.5336 43.4689 44.5336C44.1152 44.5336 44.6424 44.4599 45.0506 44.3125C45.4587 44.1651 45.7876 43.9384 46.037 43.6322C46.2864 43.3374 46.4849 42.9519 46.6323 42.4757L48.0099 38.9212ZM45.969 22.5941L49.9657 35.9279L50.663 41.1151L47.3296 41.4723L40.7137 22.5941H45.969ZM70.0514 35.9109C70.0514 35.5594 69.9494 35.2419 69.7453 34.9585C69.5412 34.675 69.1614 34.4142 68.6058 34.1761C68.0615 33.9267 67.2735 33.6999 66.2418 33.4958C65.312 33.2918 64.4446 33.0366 63.6396 32.7305C62.846 32.413 62.1543 32.0332 61.5647 31.591C60.9865 31.1488 60.533 30.6273 60.2041 30.0263C59.8753 29.4141 59.7109 28.7168 59.7109 27.9344C59.7109 27.1634 59.8753 26.4378 60.2041 25.7575C60.5443 25.0772 61.0262 24.4763 61.6498 23.9547C62.2847 23.4218 63.0557 23.008 63.9628 22.7132C64.8812 22.407 65.913 22.254 67.0581 22.254C68.6568 22.254 70.0287 22.5091 71.1739 23.0193C72.3304 23.5295 73.2148 24.2325 73.827 25.1282C74.4507 26.0126 74.7625 27.0217 74.7625 28.1555H69.8643C69.8643 27.6793 69.7623 27.2541 69.5582 26.88C69.3654 26.4945 69.0593 26.194 68.6398 25.9786C68.2316 25.7518 67.6987 25.6384 67.0411 25.6384C66.4969 25.6384 66.0263 25.7348 65.6295 25.9276C65.2327 26.109 64.9265 26.3584 64.7111 26.6759C64.507 26.982 64.405 27.3222 64.405 27.6963C64.405 27.9798 64.4617 28.2349 64.575 28.4617C64.6998 28.6771 64.8982 28.8755 65.1703 29.0569C65.4424 29.2383 65.7939 29.4084 66.2248 29.5671C66.6669 29.7145 67.2112 29.8506 67.8575 29.9753C69.184 30.2474 70.3689 30.6046 71.412 31.0468C72.4551 31.4776 73.2828 32.0672 73.8951 32.8155C74.5073 33.5525 74.8135 34.522 74.8135 35.7238C74.8135 36.5402 74.6321 37.2885 74.2692 37.9688C73.9064 38.6491 73.3849 39.2443 72.7046 39.7546C72.0243 40.2534 71.2079 40.6446 70.2555 40.9281C69.3144 41.2002 68.2543 41.3362 67.0751 41.3362C65.363 41.3362 63.9118 41.0301 62.7212 40.4178C61.5421 39.8056 60.6463 39.0289 60.0341 38.0878C59.4331 37.1354 59.1327 36.1603 59.1327 35.1626H63.7757C63.7984 35.8315 63.9684 36.3701 64.2859 36.7783C64.6147 37.1864 65.0286 37.4812 65.5275 37.6626C66.0377 37.8441 66.5876 37.9348 67.1772 37.9348C67.8121 37.9348 68.3393 37.8497 68.7589 37.6797C69.1784 37.4982 69.4958 37.2601 69.7113 36.9653C69.938 36.6592 70.0514 36.3077 70.0514 35.9109ZM87.0078 22.5941V26.0636H76.2931V22.5941H87.0078ZM78.9463 18.0531H83.8444V35.4517C83.8444 35.9846 83.9124 36.3928 84.0485 36.6762C84.1959 36.9597 84.4113 37.1581 84.6948 37.2715C84.9782 37.3735 85.3354 37.4245 85.7662 37.4245C86.0724 37.4245 86.3445 37.4132 86.5826 37.3905C86.832 37.3565 87.0418 37.3225 87.2118 37.2885L87.2289 40.894C86.8093 41.0301 86.3558 41.1378 85.8683 41.2172C85.3807 41.2966 84.8422 41.3362 84.2526 41.3362C83.1754 41.3362 82.2344 41.1605 81.4293 40.809C80.6357 40.4462 80.0234 39.8679 79.5925 39.0743C79.1617 38.2806 78.9463 37.2375 78.9463 35.9449V18.0531ZM98.2666 41.3362C96.838 41.3362 95.5568 41.1095 94.423 40.6559C93.2891 40.1911 92.3254 39.5505 91.5317 38.7341C90.7494 37.9178 90.1485 36.971 89.7289 35.8939C89.3094 34.8054 89.0997 33.6489 89.0997 32.4244V31.7441C89.0997 30.3495 89.2981 29.0739 89.6949 27.9174C90.0918 26.7609 90.6587 25.7575 91.3957 24.9071C92.144 24.0567 93.051 23.4048 94.1168 22.9513C95.1826 22.4864 96.3845 22.254 97.7224 22.254C99.0263 22.254 100.183 22.4694 101.192 22.9002C102.201 23.3311 103.046 23.9434 103.726 24.737C104.418 25.5307 104.939 26.4831 105.291 27.5943C105.642 28.6941 105.818 29.9186 105.818 31.2679V33.3088H91.1916V30.0433H101.005V29.6692C101.005 28.9889 100.88 28.3823 100.631 27.8494C100.393 27.3052 100.03 26.8743 99.5422 26.5568C99.0546 26.2394 98.431 26.0806 97.6714 26.0806C97.0251 26.0806 96.4695 26.2224 96.0047 26.5058C95.5398 26.7893 95.16 27.1861 94.8652 27.6963C94.5817 28.2065 94.3663 28.8075 94.2189 29.4991C94.0828 30.1794 94.0148 30.9277 94.0148 31.7441V32.4244C94.0148 33.1614 94.1168 33.8417 94.3209 34.4653C94.5364 35.0889 94.8368 35.6274 95.2223 36.081C95.6192 36.5345 96.0954 36.886 96.6509 37.1354C97.2179 37.3849 97.8585 37.5096 98.5728 37.5096C99.4572 37.5096 100.279 37.3395 101.039 36.9994C101.81 36.6479 102.473 36.1206 103.029 35.4177L105.41 38.0028C105.024 38.5584 104.497 39.0913 103.828 39.6015C103.17 40.1117 102.377 40.5312 101.447 40.86C100.517 41.1775 99.4572 41.3362 98.2666 41.3362ZM113.505 26.4038V40.9961H108.59V22.5941H113.199L113.505 26.4038ZM112.825 31.1488H111.464C111.464 29.8676 111.617 28.6884 111.924 27.6113C112.241 26.5228 112.7 25.5817 113.301 24.7881C113.913 23.9831 114.667 23.3594 115.563 22.9173C116.459 22.4751 117.496 22.254 118.675 22.254C119.492 22.254 120.24 22.3787 120.92 22.6281C121.601 22.8662 122.185 23.2461 122.672 23.7676C123.171 24.2778 123.557 24.9468 123.829 25.7745C124.101 26.5908 124.237 27.5716 124.237 28.7168V40.9961H119.339V29.261C119.339 28.422 119.225 27.7757 118.999 27.3222C118.772 26.8686 118.449 26.5512 118.029 26.3698C117.621 26.1883 117.128 26.0976 116.55 26.0976C115.915 26.0976 115.359 26.228 114.883 26.4888C114.418 26.7496 114.032 27.1124 113.726 27.5773C113.42 28.0308 113.193 28.5637 113.046 29.176C112.899 29.7882 112.825 30.4459 112.825 31.1488ZM123.778 30.5876L122.026 30.8087C122.026 29.6068 122.173 28.49 122.468 27.4582C122.774 26.4264 123.222 25.5194 123.812 24.737C124.413 23.9547 125.155 23.3481 126.04 22.9173C126.924 22.4751 127.945 22.254 129.101 22.254C129.985 22.254 130.79 22.3844 131.516 22.6451C132.242 22.8946 132.86 23.2971 133.37 23.8527C133.891 24.3969 134.288 25.1112 134.56 25.9956C134.844 26.88 134.986 27.9628 134.986 29.244V40.9961H130.07V29.244C130.07 28.3936 129.957 27.7473 129.73 27.3052C129.515 26.8516 129.197 26.5398 128.778 26.3698C128.37 26.1883 127.882 26.0976 127.315 26.0976C126.726 26.0976 126.21 26.2167 125.768 26.4548C125.325 26.6816 124.957 26.999 124.662 27.4072C124.367 27.8154 124.146 28.2916 123.999 28.8358C123.851 29.3687 123.778 29.9526 123.778 30.5876Z" fill="black"/>
</g>
<g filter="url(#filter3_d_53_29)">
<rect x="117.883" y="46.1562" width="16.5125" height="4.50341" fill="white"/>
</g>
<defs>
<filter id="filter0_d_53_29" x="52.5233" y="30.4347" width="76.064" height="38.6998" filterUnits="userSpaceOnUse" color-interpolation-filters="sRGB">
<feFlood flood-opacity="0" result="BackgroundImageFix"/>
<feColorMatrix in="SourceAlpha" type="matrix" values="0 0 0 0 0 0 0 0 0 0 0 0 0 0 0 0 0 0 127 0" result="hardAlpha"/>
<feOffset/>
<feGaussianBlur stdDeviation="7.50569"/>
<feComposite in2="hardAlpha" operator="out"/>
<feColorMatrix type="matrix" values="0 0 0 0 1 0 0 0 0 1 0 0 0 0 1 0 0 0 1 0"/>
<feBlend mode="normal" in2="BackgroundImageFix" result="effect1_dropShadow_53_29"/>
<feBlend mode="normal" in="SourceGraphic" in2="effect1_dropShadow_53_29" result="shape"/>
</filter>
<filter id="filter1_d_53_29" x="0.0975046" y="0.575776" width="34.7169" height="55.4317" filterUnits="userSpaceOnUse" color-interpolation-filters="sRGB">
<feFlood flood-opacity="0" result="BackgroundImageFix"/>
<feColorMatrix in="SourceAlpha" type="matrix" values="0 0 0 0 0 0 0 0 0 0 0 0 0 0 0 0 0 0 127 0" result="hardAlpha"/>
<feOffset/>
<feGaussianBlur stdDeviation="7.50569"/>
<feComposite in2="hardAlpha" operator="out"/>
<feColorMatrix type="matrix" values="0 0 0 0 0.964706 0 0 0 0 0.972549 0 0 0 0 0.537255 0 0 0 1 0"/>
<feBlend mode="normal" in2="BackgroundImageFix" result="effect1_dropShadow_53_29"/>
<feBlend mode="normal" in="SourceGraphic" in2="effect1_dropShadow_53_29" result="shape"/>
</filter>
<filter id="filter2_d_53_29" x="20.6871" y="16.2519" width="117.301" height="36.3796" filterUnits="userSpaceOnUse" color-interpolation-filters="sRGB">
<feFlood flood-opacity="0" result="BackgroundImageFix"/>
<feColorMatrix in="SourceAlpha" type="matrix" values="0 0 0 0 0 0 0 0 0 0 0 0 0 0 0 0 0 0 127 0" result="hardAlpha"/>
<feOffset dy="1.20091"/>
<feGaussianBlur stdDeviation="1.50114"/>
<feComposite in2="hardAlpha" operator="out"/>
<feColorMatrix type="matrix" values="0 0 0 0 1 0 0 0 0 0.987475 0 0 0 0 0.987475 0 0 0 0.25 0"/>
<feBlend mode="normal" in2="BackgroundImageFix" result="effect1_dropShadow_53_29"/>
<feBlend mode="normal" in="SourceGraphic" in2="effect1_dropShadow_53_29" result="shape"/>
</filter>
<filter id="filter3_d_53_29" x="102.871" y="31.1449" width="46.5353" height="34.5262" filterUnits="userSpaceOnUse" color-interpolation-filters="sRGB">
<feFlood flood-opacity="0" result="BackgroundImageFix"/>
<feColorMatrix in="SourceAlpha" type="matrix" values="0 0 0 0 0 0 0 0 0 0 0 0 0 0 0 0 0 0 127 0" result="hardAlpha"/>
<feOffset/>
<feGaussianBlur stdDeviation="7.50569"/>
<feComposite in2="hardAlpha" operator="out"/>
<feColorMatrix type="matrix" values="0 0 0 0 0.960784 0 0 0 0 0.968627 0 0 0 0 0.541176 0 0 0 1 0"/>
<feBlend mode="normal" in2="BackgroundImageFix" result="effect1_dropShadow_53_29"/>
<feBlend mode="normal" in="SourceGraphic" in2="effect1_dropShadow_53_29" result="shape"/>
</filter>
</defs>
</svg>
