<svg width="92" height="89" viewBox="0 0 92 89" fill="none" xmlns="http://www.w3.org/2000/svg">
<path d="M29.8818 72.9938L29.8819 73.0872L29.9471 73.0871C29.9234 73.0574 29.9016 73.0262 29.8818 72.9938ZM30.342 33.3917C25.7935 39.3092 23.3356 46.5634 23.3521 54.022C23.3543 55.1578 23.4112 56.2775 23.5229 57.3811C23.5401 57.5707 23.5601 57.7603 23.5859 57.9471C24.2245 63.4353 26.2056 68.6826 29.3547 73.2264C29.4767 73.4046 29.6016 73.5799 29.7267 73.7553C31.0823 75.6481 32.6294 77.3967 34.3436 78.9734C48.1437 91.6664 69.6393 90.7894 82.3554 77.0145C82.5509 76.8077 82.7378 76.598 82.9219 76.3884C88.1264 70.4924 91.1161 62.9741 91.3794 55.1203C91.6427 47.2665 89.1632 39.5655 84.3651 33.3354C84.2203 33.1459 84.0728 32.9565 83.9195 32.7699C83.5835 32.3485 83.2352 31.9357 82.8747 31.5314C82.6903 31.3221 82.5029 31.1129 82.307 30.9065C79.1249 27.4687 75.2632 24.7268 70.9658 22.8539C66.6684 20.9811 62.0287 20.0179 57.3396 20.0253C57.0136 20.0257 56.6903 20.0317 56.367 20.0405C56.1515 20.0464 55.9361 20.0551 55.7207 20.0666C50.8945 20.3004 46.1738 21.5594 41.874 23.7596C37.5741 25.9597 33.7942 29.0505 30.7865 32.8253C30.6336 33.0122 30.4865 33.202 30.342 33.3917L30.342 33.3917ZM29.9471 73.0871C29.9234 73.0574 29.9016 73.0262 29.8818 72.9938L29.8819 73.0872L29.9471 73.0871Z" fill="white"/>
<path d="M29.6393 72.6462L29.7355 72.4508L36.9388 57.9333L36.9388 57.9305L37.219 57.367L37.219 57.3642L49.1188 33.3721L49.1188 33.3693L49.3989 32.8058L49.4017 32.803L55.4281 20.647L55.7167 20.0665C55.9322 20.055 56.1477 20.0463 56.363 20.0404L56.0774 20.618L50.0341 32.8023L50.0341 32.8052L49.7539 33.3687L49.7539 33.3715L37.5428 57.9893L37.54 57.9921L30.3367 72.521L30.0537 73.0873L30.0084 73.1807L29.7227 73.7555C29.5977 73.5802 29.4728 73.4049 29.3508 73.2267L29.6393 72.6462Z" fill="#3F3D56"/>
<path d="M37.4248 57.3647L37.4254 57.9307L23.5865 57.9451C23.5607 57.7584 23.5407 57.5688 23.5234 57.3792L37.4248 57.3647Z" fill="#3F3D56"/>
<path d="M58.9361 61.7577L58.9355 61.1917L72.7745 61.1772C72.8003 61.364 72.8203 61.5536 72.8375 61.7432L58.9361 61.7577Z" fill="#3F3D56"/>
<path d="M70.5059 59.7756L71.0729 59.775L71.0874 73.5885C70.9003 73.6143 70.7104 73.6342 70.5204 73.6514L70.5059 59.7756Z" fill="#3F3D56"/>
<path d="M84.3656 33.332C84.2208 33.1425 84.0733 32.9531 83.9199 32.7664L82.8765 32.7675L82.8752 31.5279C82.6907 31.3187 82.5034 31.1095 82.3075 30.9031L82.3095 32.7681L30.7869 32.8218C30.634 33.0088 30.4869 33.1986 30.3424 33.3883L82.3101 33.3342L82.3559 77.011C82.5513 76.8042 82.7383 76.5946 82.9223 76.385L82.8771 33.3336L84.3656 33.332Z" fill="#3F3D56"/>
<path d="M82.6326 72.4627L29.8789 72.5178L29.8795 73.0849L82.6332 73.0298L82.6326 72.4627Z" fill="#3F3D56"/>
<path d="M29.8818 72.9938L29.8819 73.0872L29.9471 73.0871C29.9234 73.0574 29.9016 73.0262 29.8818 72.9938ZM30.342 33.3917C25.7935 39.3092 23.3356 46.5634 23.3521 54.022C23.3543 55.1578 23.4112 56.2775 23.5229 57.3811C23.5401 57.5707 23.5601 57.7603 23.5859 57.9471C24.2245 63.4353 26.2056 68.6826 29.3547 73.2264C29.4767 73.4046 29.6016 73.5799 29.7267 73.7553C31.0823 75.6481 32.6294 77.3967 34.3436 78.9734C48.1437 91.6664 69.6393 90.7894 82.3554 77.0145C82.5509 76.8077 82.7378 76.598 82.9219 76.3884C88.1264 70.4924 91.1161 62.9741 91.3794 55.1203C91.6427 47.2665 89.1632 39.5655 84.3651 33.3354C84.2203 33.1459 84.0728 32.9565 83.9195 32.7699C83.5835 32.3485 83.2352 31.9357 82.8747 31.5314C82.6903 31.3221 82.5029 31.1129 82.307 30.9065C79.1249 27.4687 75.2632 24.7268 70.9658 22.8539C66.6684 20.9811 62.0287 20.0179 57.3396 20.0253C57.0136 20.0257 56.6903 20.0317 56.367 20.0405C56.1515 20.0464 55.9361 20.0551 55.7207 20.0666C50.8945 20.3004 46.1738 21.5594 41.874 23.7596C37.5741 25.9597 33.7942 29.0505 30.7865 32.8253C30.6336 33.0122 30.4865 33.202 30.342 33.3917L30.342 33.3917ZM24.1557 57.9465C24.13 57.7597 24.1101 57.5701 24.0899 57.3805C23.2167 48.7856 25.7136 40.1873 31.0565 33.391C31.2065 33.2012 31.3567 33.0114 31.5124 32.8245C34.4389 29.2538 38.0757 26.3279 42.1929 24.2319C46.3101 22.1358 50.8181 20.9152 55.4321 20.6471C55.6475 20.6355 55.863 20.624 56.0813 20.6181C56.498 20.6007 56.9177 20.5918 57.3402 20.5913C62.0551 20.5836 66.7181 21.5736 71.0218 23.496C75.3255 25.4185 79.1721 28.2296 82.3079 31.7442C82.5037 31.9591 82.6939 32.174 82.8756 32.3945C82.9864 32.5189 83.0913 32.6434 83.1936 32.7706C83.3497 32.9572 83.5001 33.1467 83.6506 33.3361C88.4242 39.3727 90.9594 46.8713 90.8264 54.5607C90.6934 62.25 87.9004 69.6568 82.9209 75.5252C82.7397 75.7462 82.55 75.9614 82.3546 76.1767C80.6303 78.1145 78.6856 79.8451 76.5599 81.3335C61.4507 91.9124 40.6106 88.2622 30.0124 73.1805C29.9896 73.1494 29.9669 73.1182 29.9471 73.0871C29.9234 73.0574 29.9016 73.0262 29.8818 72.9938C29.7994 72.8779 29.7199 72.7619 29.6433 72.646C26.6604 68.2559 24.7784 63.2145 24.1557 57.9465L24.1557 57.9465ZM29.9471 73.0871C29.9234 73.0574 29.9016 73.0262 29.8818 72.9938L29.8819 73.0872L29.9471 73.0871Z" fill="#CCCCCC"/>
<path d="M10.9384 4.89611C16.2485 1.15503 22.83 -0.327208 29.235 0.775456C35.6399 1.87812 41.3438 5.47537 45.0917 10.7758C52.8963 21.8135 60.7464 50.7702 55.2441 67.5555C38.7613 50.2131 13.465 48.4357 5.04809 38.9873C-3.94566 28.8914 -0.11933 12.6865 10.9384 4.89611Z" fill="black"/>
<path d="M25.4076 29.8944C29.8217 29.8898 33.3962 26.3144 33.3916 21.9085C33.387 17.5025 29.8049 13.9346 25.3908 13.9392C20.9768 13.9438 17.4022 17.5192 17.4068 21.9251C17.4114 26.3311 20.9935 29.899 25.4076 29.8944Z" fill="white"/>
<path d="M62.0056 76.2404C64.8967 76.2374 67.238 73.8955 67.2349 71.0096C67.2319 68.1237 64.8857 65.7867 61.9946 65.7897C59.1035 65.7927 56.7622 68.1346 56.7653 71.0205C56.7683 73.9064 59.1145 76.2434 62.0056 76.2404Z" fill="#FFCF23"/>
<path opacity="0.2" d="M16.8444 20.0832C16.3161 20.9885 15.9717 21.9887 15.8307 23.0269C15.6897 24.065 15.755 25.1207 16.0227 26.1337C16.2905 27.1467 16.7555 28.0971 17.3912 28.9307C18.0269 29.7643 18.8209 30.4647 19.7279 30.992C20.6348 31.5193 21.6369 31.8631 22.6769 32.0039C23.717 32.1446 24.7746 32.0795 25.7894 31.8122C26.8043 31.5449 27.7564 31.0808 28.5915 30.4462C29.4266 29.8116 30.1284 29.0191 30.6566 28.1138C29.2313 29.3646 27.4066 30.0681 25.5091 30.0987C23.6116 30.1292 21.7652 29.4847 20.3002 28.2805C18.8353 27.0762 17.8475 25.3909 17.5137 23.5262C17.1799 21.6614 17.5218 19.739 18.4782 18.1029C17.8302 18.6707 17.2784 19.3394 16.8444 20.0832Z" fill="#231F20"/>
<path opacity="0.5" d="M5.03484 39.0265C13.4517 48.4749 38.7481 50.2524 55.2308 67.5948C55.743 66.0067 56.1369 64.3829 56.4091 62.7367C39.9362 46.9724 16.0479 45.0029 7.91561 35.8741C0.637112 27.7035 1.75601 15.5326 8.30813 7.058C-0.681459 15.3934 -3.20706 29.7745 5.03484 39.0265Z" fill="white"/>
</svg>
