<svg width="150" height="134" viewBox="0 0 150 134" fill="none" xmlns="http://www.w3.org/2000/svg">
<g clip-path="url(#clip0_53_911)">
<path d="M106.25 31.2496C106.25 45.4683 87.2135 70.8069 78.8542 81.0152C76.849 83.7496 73.151 83.7496 71.1458 81.0152C62.7865 70.8069 43.75 45.4683 43.75 31.2496C43.75 13.9918 57.7344 -0.000427246 75 -0.000427246C92.2656 -0.000427246 106.25 13.9918 106.25 31.2496ZM75 39.5829C80.7552 39.5829 85.4167 34.9215 85.4167 29.1662C85.4167 23.4136 80.7552 18.7496 75 18.7496C69.2448 18.7496 64.5833 23.4136 64.5833 29.1662C64.5833 34.9215 69.2448 39.5829 75 39.5829ZM110.833 46.8225C110.964 46.51 111.094 46.1975 111.224 45.859L141.432 33.7756C145.547 32.135 150 35.1558 150 39.5829V110.104C150 112.656 148.438 114.948 146.068 115.911L108.333 130.989V52.1871C109.245 50.3902 110.078 48.6194 110.833 46.8225ZM39.1667 46.8225C39.9219 48.6194 40.7552 50.3902 41.6667 52.1871V117.656L8.57031 130.911C4.46615 132.317 0 129.531 0 125.104V54.5829C0 52.0308 1.55599 49.5048 3.92969 48.7756L35.8333 36.0152C36.4583 39.7131 37.7344 43.385 39.1667 46.8225ZM85.3646 86.2235C88.9844 81.9267 94.6615 74.5569 100 66.4058V131.328L50 117.031V66.4058C55.3385 74.5569 61.0156 81.9267 64.6354 86.2235C69.974 93.1246 80.026 93.1246 85.3646 86.2235Z" fill="#FFCF23"/>
</g>
<defs>
<clipPath id="clip0_53_911">
<rect width="150" height="133.333" fill="white"/>
</clipPath>
</defs>
</svg>
