<svg width="25" height="20" viewBox="0 0 25 20" fill="none" xmlns="http://www.w3.org/2000/svg">
<path d="M12.4961 12.5C14.7387 12.5 16.5234 10.6812 16.5234 8.4375C16.5234 6.19375 14.7055 4.375 12.4961 4.375C10.2535 4.375 8.46875 6.19375 8.46875 8.4375C8.43359 10.6797 10.2539 12.5 12.4961 12.5ZM14.4492 13.75H10.5508C7.48438 13.75 5 16.082 5 18.957C5 19.5352 5.49609 20 6.10938 20H18.8906C19.5039 20 20 19.5352 20 18.957C20 16.082 17.5156 13.75 14.4492 13.75ZM20 6.25C21.7258 6.25 23.125 4.85078 23.125 3.125C23.125 1.39922 21.7266 0 20 0C18.2742 0 16.875 1.39922 16.875 3.125C16.875 4.85078 18.2734 6.25 20 6.25ZM7.18359 8.4375C7.18359 8.22465 7.22197 8.02227 7.24645 7.81602C6.82031 7.58203 6.35156 7.5 5.85547 7.5H3.44063C1.54063 7.5 0 9.13281 0 11.1445C0 11.5469 0.308086 11.875 0.688281 11.875H8.48125C7.68359 10.9453 7.18359 9.75391 7.18359 8.4375ZM5 6.25C6.72578 6.25 8.125 4.85078 8.125 3.125C8.125 1.39922 6.72656 0 5 0C3.27422 0 1.875 1.39922 1.875 3.125C1.875 4.85078 3.27422 6.25 5 6.25ZM21.5586 7.5H19.143C18.643 7.5 18.1711 7.61863 17.7422 7.82188C17.7656 8.02734 17.8047 8.22656 17.8047 8.4375C17.8047 9.7543 17.3055 10.9457 16.5094 11.875H24.3102C24.6914 11.875 25 11.5469 25 11.1445C25 9.13281 23.4609 7.5 21.5586 7.5Z" fill="black"/>
</svg>
