<svg width="63" height="44" viewBox="0 0 63 44" fill="none" xmlns="http://www.w3.org/2000/svg">
<path d="M60.8496 10.3691L33.2422 0.486328C31.9014 0.00683591 30.4395 0.00683591 29.0986 0.486328L1.56738 10.3691C0.628711 10.7109 0 11.6094 0 12.625C0 13.6406 0.628711 14.5439 1.56738 14.8799L7.42871 16.9805C6.26758 18.5234 5.4502 20.3164 5.03125 22.249C3.91113 22.7227 3.125 23.8359 3.125 25.125C3.125 26.097 3.59512 26.9307 4.29102 27.5039L1.86621 42.0547C1.70703 43.0059 2.44141 43.875 3.40723 43.875H9.09277C10.0583 43.875 10.793 43.0079 10.6338 42.0557L8.20898 27.5049C8.90527 26.9317 9.375 26.0137 9.375 25.125C9.375 24.1201 8.86973 23.2666 8.13281 22.6943C8.54805 20.96 9.39062 19.3916 10.5684 18.1016L29.1816 24.7647C30.5225 25.2441 31.9844 25.2441 33.3252 24.7647L60.9326 14.8818C61.875 14.5391 62.5 13.6406 62.5 12.625C62.5 11.6094 61.875 10.7109 60.8496 10.3691ZM34.2871 27.7031C33.3691 28.0645 32.3145 28.25 31.25 28.25C30.1836 28.25 29.1318 28.0677 28.125 27.7075L13.9453 22.6348L12.5 36.5801C12.5 40.6133 20.8105 43.875 31.25 43.875C41.5137 43.875 50 40.6133 50 36.583L48.5566 22.6279L34.2871 27.7031Z" fill="#FFCF23"/>
</svg>
