<svg width="180" height="180" viewBox="0 0 180 180" fill="none" xmlns="http://www.w3.org/2000/svg">
<path d="M155.064 67.1405C154.112 64.044 152.868 61.045 151.349 58.1837C143.515 43.6253 129.778 32.6417 114.751 26.1437C102.821 20.9921 88.0682 18.2993 75.4106 22.9397C69.0098 25.2869 62.9834 29.7797 59.5526 35.7737C55.0814 43.6001 55.5026 53.2805 51.953 61.5065C49.073 68.1629 41.9162 72.1625 36.3074 76.2665C27.5558 82.6457 18.9338 90.1877 15.899 100.977C11.8526 115.359 13.0514 132.48 21.2414 145.271C27.3614 154.815 37.8374 157.68 48.6482 157.871C58.8506 158.055 71.3282 155.477 80.8502 160.132C97.0718 168.052 118.477 176.944 136.629 170.676C155.349 164.214 164.518 151.629 167.229 135.303C169.939 118.977 162.469 105.376 160.086 92.4629C158.603 84.2945 157.62 75.2765 155.064 67.1405Z" fill="#FFCF23"/>
<path opacity="0.8" d="M155.064 67.1405C154.112 64.044 152.868 61.045 151.349 58.1837C143.515 43.6253 129.778 32.6417 114.751 26.1437C102.821 20.9921 88.0682 18.2993 75.4106 22.9397C69.0098 25.2869 62.9834 29.7797 59.5526 35.7737C55.0814 43.6001 55.5026 53.2805 51.953 61.5065C49.073 68.1629 41.9162 72.1625 36.3074 76.2665C27.5558 82.6457 18.9338 90.1877 15.899 100.977C11.8526 115.359 13.0514 132.48 21.2414 145.271C27.3614 154.815 37.8374 157.68 48.6482 157.871C58.8506 158.055 71.3282 155.477 80.8502 160.132C97.0718 168.052 118.477 176.944 136.629 170.676C155.349 164.214 164.518 151.629 167.229 135.303C169.939 118.977 162.469 105.376 160.086 92.4629C158.603 84.2945 157.62 75.2765 155.064 67.1405Z" fill="white"/>
<path d="M18.58 116.157C18.4864 115.117 18.4648 114.159 18.454 113.309C18.454 112.827 18.454 112.391 18.454 111.985C18.814 111.679 20.3152 110.437 20.7292 109.598C21.1432 108.759 21.424 107.618 20.9848 106.739C20.8902 106.53 20.7529 106.343 20.5816 106.189C20.4103 106.036 20.2089 105.92 19.9903 105.849C19.7716 105.778 19.5406 105.754 19.312 105.778C19.0833 105.802 18.8622 105.873 18.6628 105.987C17.5 106.707 17.4028 109.195 17.716 110.393C17.7412 110.498 18.3496 112.067 18.3676 112.053L18.3928 112.035C18.3748 112.427 18.3568 112.849 18.3496 113.306C18.3496 114.155 18.3496 115.106 18.4144 116.164C18.4144 116.337 18.4396 116.524 18.454 116.701C18.5836 116.895 18.6556 117.021 18.6556 117.021C18.6412 116.729 18.6052 116.434 18.58 116.157Z" fill="#BABABA"/>
<path d="M14.8395 113.518C13.2771 113.774 13.0755 115.239 14.5335 116.175C15.7683 116.967 17.8779 117.021 18.4935 117.021C18.4935 116.913 18.4935 116.805 18.4683 116.701C17.8779 115.797 16.1211 113.306 14.8395 113.518Z" fill="#BABABA"/>
<path d="M45.9259 106.642C44.5471 106.599 43.0927 108.593 42.6859 109.753C42.6499 109.853 42.2971 111.488 42.3259 111.484H42.3547C42.1207 111.797 41.8759 112.136 41.6347 112.514C41.1595 113.212 40.6303 114.004 40.1155 114.904L39.9355 115.217C39.9103 115.469 39.8887 115.621 39.8887 115.621L39.7663 115.52C39.3315 116.293 38.9361 117.087 38.5819 117.899C38.0706 119.049 37.6633 120.241 37.3651 121.463C37.3651 121.463 37.3651 121.492 37.3651 121.507C37.3363 121.103 37.2139 119.977 37.1959 119.894C36.9259 118.684 35.7019 116.499 34.3159 116.351C34.0886 116.332 33.8598 116.362 33.6447 116.438C33.4297 116.514 33.2334 116.635 33.0688 116.794C32.9043 116.952 32.7754 117.143 32.6906 117.355C32.6058 117.567 32.5671 117.794 32.5771 118.022C32.5771 118.997 33.3763 119.915 34.1143 120.473C34.9495 121.107 37.1491 121.615 37.3219 121.654C37.0512 122.909 36.8636 124.18 36.7603 125.459C36.6955 126.205 36.6559 126.957 36.6235 127.717C36.5839 127.357 36.5515 127.054 36.5407 126.997C36.2707 125.791 35.0467 123.605 33.6607 123.458C33.4335 123.439 33.2049 123.468 32.99 123.544C32.7751 123.621 32.579 123.742 32.4148 123.9C32.2505 124.058 32.1219 124.25 32.0375 124.461C31.9532 124.673 31.915 124.901 31.9255 125.128C31.9255 126.104 32.7247 127.018 33.4627 127.58C34.2007 128.141 36.0799 128.62 36.5767 128.735C36.5767 129.027 36.5551 129.315 36.5479 129.607C36.5083 131 36.4723 132.389 36.4003 133.754C36.3751 134.233 36.3319 134.704 36.2887 135.176C36.2563 134.866 36.2275 134.607 36.2167 134.567C35.9503 133.361 34.7227 131.176 33.3367 131.029C33.1094 131.009 32.8805 131.038 32.6654 131.114C32.4502 131.19 32.2539 131.311 32.0895 131.47C31.9251 131.628 31.7965 131.819 31.7123 132.031C31.6282 132.244 31.5904 132.471 31.6015 132.699C31.6015 133.675 32.3971 134.589 33.1351 135.151C33.8731 135.712 35.5723 136.141 36.1591 136.285C36.1195 136.616 36.0799 136.947 36.0331 137.271C36.2419 137.332 36.4543 137.383 36.6739 137.426C36.7531 136.799 36.8143 136.162 36.8647 135.518C37.3759 135.662 39.2047 136.148 40.1047 136.015C41.0047 135.881 42.1279 135.46 42.5851 134.603C42.6979 134.404 42.7679 134.182 42.7904 133.954C42.813 133.726 42.7878 133.495 42.7163 133.277C42.6449 133.059 42.5288 132.858 42.3754 132.687C42.222 132.516 42.0347 132.379 41.8255 132.285C40.5439 131.745 38.4631 133.073 37.6711 134.006C37.6243 134.063 37.1311 134.798 36.8683 135.205C36.9007 134.733 36.9331 134.265 36.9475 133.79C36.9943 132.411 36.9979 131.014 37.0051 129.625C37.0051 129.196 37.0051 128.771 37.0051 128.347C37.1887 128.401 39.3487 129.023 40.3711 128.872C41.2819 128.739 42.3943 128.318 42.8515 127.465C42.9648 127.265 43.035 127.043 43.0576 126.815C43.0802 126.586 43.0548 126.355 42.9829 126.137C42.9111 125.918 42.7944 125.717 42.6403 125.547C42.4862 125.376 42.2982 125.24 42.0883 125.146C40.8103 124.606 38.7295 125.931 37.9375 126.863C37.8799 126.935 37.1743 127.99 37.0087 128.267C37.0087 127.331 37.0447 126.399 37.1023 125.481C37.1764 124.241 37.3304 123.008 37.5631 121.787C37.6495 121.813 39.9031 122.471 40.9471 122.32C41.8579 122.187 42.9739 121.762 43.4275 120.909C43.5403 120.709 43.6103 120.488 43.6328 120.26C43.6554 120.031 43.6302 119.801 43.5587 119.582C43.4873 119.364 43.3712 119.164 43.2178 118.993C43.0644 118.822 42.8771 118.685 42.6679 118.591C41.3899 118.051 39.3055 119.379 38.5135 120.311C38.4523 120.383 37.6963 121.521 37.5703 121.751C37.5703 121.679 37.5919 121.604 37.6063 121.535C37.875 120.322 38.2521 119.135 38.7331 117.989C38.9887 117.352 39.2695 116.762 39.5575 116.189C39.9643 116.355 41.8363 117.093 42.7975 117.061C43.7587 117.028 44.8747 116.733 45.4219 115.934C45.5567 115.748 45.651 115.536 45.6988 115.312C45.7465 115.087 45.7466 114.855 45.6992 114.63C45.6517 114.406 45.5576 114.194 45.423 114.008C45.2885 113.822 45.1164 113.666 44.9179 113.551C43.7047 112.874 41.4835 113.961 40.5979 114.8C40.5511 114.843 40.1119 115.365 39.7951 115.747C39.9283 115.491 40.0615 115.225 40.1947 114.983C40.6915 114.073 41.2027 113.27 41.6599 112.564C41.9227 112.165 42.1711 111.808 42.4051 111.484C42.8839 111.441 44.8243 111.236 45.6451 110.764C46.4659 110.293 47.3191 109.515 47.4451 108.55C47.4795 108.324 47.4667 108.093 47.4076 107.872C47.3486 107.651 47.2445 107.444 47.1019 107.265C46.9593 107.086 46.7812 106.938 46.5788 106.831C46.3765 106.724 46.1542 106.66 45.9259 106.642Z" fill="#BABABA"/>
<path d="M27.0005 136.364C27.0941 136.547 27.1841 136.724 27.2741 136.918L27.8897 136.717C27.6557 136.252 27.4145 135.788 27.1697 135.331C27.6701 135.169 29.4485 134.567 30.1253 133.952C30.8021 133.336 31.4897 132.364 31.3961 131.396C31.3807 131.166 31.3179 130.942 31.2117 130.738C31.1054 130.534 30.958 130.354 30.7788 130.209C30.5995 130.065 30.3923 129.959 30.1702 129.899C29.948 129.839 29.7158 129.825 29.4881 129.859C28.1345 130.111 27.1481 132.379 27.0113 133.599C27.0113 133.678 27.0113 134.567 27.0113 135.039C26.7737 134.629 26.5433 134.215 26.2913 133.804C25.5713 132.616 24.8009 131.439 24.0377 130.262L23.3465 129.182C23.5265 129.128 25.6541 128.462 26.4137 127.767C27.0905 127.155 27.7781 126.183 27.6845 125.215C27.6697 124.985 27.6072 124.76 27.5011 124.556C27.395 124.352 27.2476 124.171 27.0683 124.027C26.8889 123.882 26.6814 123.777 26.4591 123.716C26.2367 123.656 26.0043 123.643 25.7765 123.677C24.4229 123.929 23.4365 126.197 23.2997 127.418C23.2997 127.511 23.2997 128.789 23.2997 129.117C22.7921 128.318 22.2953 127.519 21.8381 126.712C21.2157 125.626 20.6626 124.502 20.1821 123.346C20.2649 123.321 22.4897 122.626 23.2673 121.924C23.9441 121.312 24.6317 120.34 24.5381 119.368C24.5228 119.139 24.46 118.915 24.3537 118.711C24.2474 118.507 24.0999 118.327 23.9206 118.183C23.7413 118.039 23.534 117.933 23.3119 117.873C23.0898 117.813 22.8576 117.8 22.6301 117.835C21.2765 118.087 20.2901 120.355 20.1533 121.575C20.1533 121.672 20.1533 123.047 20.1533 123.299C20.1281 123.231 20.0921 123.163 20.0669 123.098C19.6196 121.93 19.2751 120.726 19.0373 119.498C18.8969 118.821 18.8033 118.166 18.7241 117.525C19.1525 117.442 21.1037 117.028 21.8777 116.474C22.6517 115.919 23.4077 115.034 23.4221 114.076C23.4318 113.846 23.3936 113.616 23.31 113.402C23.2265 113.187 23.0993 112.992 22.9366 112.829C22.7739 112.666 22.5792 112.539 22.3647 112.455C22.1502 112.371 21.9207 112.332 21.6905 112.341C20.3153 112.442 19.0841 114.584 18.8105 115.783C18.8105 115.847 18.7169 116.528 18.6665 117.025H18.4901C18.5585 117.824 18.6557 118.666 18.8141 119.545C19.0242 120.797 19.3458 122.029 19.7753 123.224C19.7791 123.238 19.7852 123.251 19.7933 123.263C19.5449 122.939 18.8249 122.057 18.7637 121.996C17.8745 121.129 15.6605 119.962 14.4437 120.596C14.2448 120.708 14.0719 120.862 13.9364 121.046C13.8009 121.23 13.7059 121.44 13.6577 121.664C13.6094 121.887 13.6089 122.118 13.6563 122.342C13.7037 122.565 13.7978 122.776 13.9325 122.961C14.4797 123.778 15.6353 124.117 16.5533 124.178C17.5901 124.253 19.6853 123.458 19.8509 123.404C20.317 124.611 20.863 125.786 21.4853 126.921C21.8453 127.587 22.2233 128.246 22.6157 128.901C22.3925 128.627 22.1909 128.383 22.1585 128.354C21.2729 127.483 19.0553 126.316 17.8385 126.95C17.639 127.062 17.4657 127.216 17.3298 127.4C17.194 127.584 17.0988 127.795 17.0505 128.019C17.0022 128.243 17.0019 128.475 17.0496 128.699C17.0973 128.923 17.192 129.134 17.3273 129.319C17.8709 130.136 19.0301 130.471 19.9481 130.535C20.8661 130.6 22.6805 129.959 23.1593 129.779C23.3141 130.028 23.4617 130.28 23.6165 130.528C24.3365 131.723 25.0925 132.915 25.7765 134.103C26.0177 134.524 26.2445 134.945 26.4677 135.367C26.2697 135.122 26.1077 134.92 26.0753 134.891C25.1861 134.024 22.9685 132.857 21.7553 133.491C21.5561 133.603 21.3829 133.756 21.247 133.94C21.1112 134.124 21.0158 134.335 20.9672 134.558C20.9186 134.782 20.9178 135.013 20.9649 135.236C21.012 135.46 21.1059 135.671 21.2405 135.856C21.7841 136.673 22.9433 137.012 23.8613 137.077C24.7793 137.141 26.4281 136.565 27.0005 136.364Z" fill="#BABABA"/>
<path d="M39.1183 110.48C37.7467 109.692 36.6631 110.703 37.2031 112.348C37.6639 113.756 39.2947 115.149 39.7555 115.516L39.9247 115.214C40.0399 114.12 40.2379 111.121 39.1183 110.48Z" fill="#BABABA"/>
<path d="M122.152 167.601C120.633 167.641 119.161 169.941 118.797 171.252C118.779 171.32 118.66 172.036 118.581 172.58C119.301 172.645 120.021 172.695 120.741 172.731C121.233 172.613 121.705 172.426 122.145 172.177C122.991 171.626 123.909 170.686 123.974 169.61C123.998 169.356 123.97 169.099 123.889 168.857C123.809 168.615 123.679 168.392 123.507 168.203C123.336 168.014 123.127 167.862 122.893 167.759C122.66 167.655 122.408 167.602 122.152 167.601Z" fill="#BABABA"/>
<path d="M109.041 147.239C107.292 147.239 106.816 148.809 108.246 150.083C109.452 151.163 111.745 151.592 112.414 151.7L112.447 151.34C111.961 150.242 110.478 147.218 109.041 147.239Z" fill="#BABABA"/>
<path d="M137.214 167.342C137.373 167.143 137.488 166.914 137.553 166.668C137.617 166.423 137.63 166.167 137.59 165.916C137.55 165.665 137.458 165.426 137.32 165.212C137.183 164.999 137.002 164.817 136.79 164.678C135.49 163.868 132.984 164.951 131.962 165.83C131.883 165.894 130.932 166.928 130.702 167.201C130.878 166.179 131.062 165.167 131.292 164.174C131.587 162.83 131.969 161.507 132.437 160.214C132.527 160.257 134.867 161.369 136.037 161.387C137.052 161.387 138.341 161.132 138.986 160.282C139.144 160.084 139.259 159.854 139.324 159.609C139.389 159.363 139.401 159.107 139.361 158.856C139.321 158.606 139.23 158.366 139.092 158.153C138.954 157.94 138.773 157.757 138.561 157.618C137.261 156.808 134.756 157.892 133.733 158.77C133.65 158.838 132.628 159.947 132.455 160.163C132.484 160.088 132.502 160.008 132.531 159.933C133.036 158.656 133.654 157.427 134.378 156.261C134.766 155.613 135.177 155.015 135.591 154.461C136.005 154.713 137.92 155.843 138.971 155.973C140.022 156.102 141.293 155.973 142.028 155.202C142.207 155.023 142.346 154.808 142.437 154.571C142.528 154.335 142.569 154.082 142.557 153.828C142.544 153.575 142.479 153.327 142.365 153.101C142.251 152.874 142.09 152.674 141.894 152.513C140.688 151.563 138.078 152.366 136.962 153.122C136.901 153.165 136.332 153.654 135.922 154.014C136.109 153.759 136.304 153.492 136.487 153.251C137.189 152.344 137.884 151.559 138.507 150.868C138.867 150.479 139.194 150.148 139.508 149.813C140.04 149.849 142.193 149.964 143.162 149.601C144.13 149.237 145.206 148.521 145.498 147.495C145.574 147.252 145.6 146.997 145.572 146.744C145.545 146.491 145.465 146.247 145.338 146.026C145.211 145.806 145.04 145.615 144.835 145.464C144.63 145.313 144.396 145.207 144.148 145.151C142.654 144.86 140.721 146.786 140.084 147.981C140.03 148.085 139.364 149.802 139.385 149.806H139.418C139.112 150.105 138.784 150.432 138.435 150.796C137.798 151.476 137.081 152.236 136.358 153.143L136.109 153.453C136.037 153.723 135.99 153.881 135.99 153.881C135.99 153.881 135.944 153.834 135.872 153.752C135.299 154.472 134.716 155.271 134.165 156.138C133.407 157.304 132.755 158.535 132.218 159.818C132.218 159.818 132.218 159.85 132.218 159.864C132.257 159.418 132.322 158.169 132.315 158.064C132.236 156.7 131.278 154.104 129.795 153.701C129.55 153.641 129.295 153.634 129.048 153.68C128.8 153.727 128.565 153.825 128.358 153.969C128.152 154.113 127.978 154.3 127.849 154.516C127.72 154.732 127.638 154.974 127.61 155.224C127.451 156.304 128.15 157.424 128.859 158.165C129.658 159 131.969 159.936 132.153 160.012C131.636 161.333 131.209 162.687 130.875 164.066C130.677 164.865 130.515 165.682 130.331 166.499C130.353 166.114 130.367 165.779 130.364 165.722C130.281 164.357 129.327 161.762 127.844 161.358C127.599 161.297 127.344 161.289 127.096 161.335C126.848 161.38 126.613 161.478 126.406 161.622C126.199 161.766 126.025 161.952 125.896 162.169C125.767 162.385 125.686 162.627 125.658 162.878C125.5 163.958 126.198 165.081 126.908 165.822C127.617 166.564 129.582 167.41 130.101 167.622L129.917 168.566C129.672 169.858 129.431 171.147 129.165 172.418L129.813 172.328C130.036 171.114 130.241 169.89 130.443 168.666C130.518 168.202 130.601 167.741 130.684 167.277C130.871 167.367 133.121 168.422 134.262 168.44C135.281 168.458 136.57 168.191 137.214 167.342Z" fill="#BABABA"/>
<path d="M136.055 148.143C134.694 147.045 133.341 147.959 133.639 149.846C133.899 151.466 135.439 153.266 135.871 153.748L136.109 153.449C136.44 152.279 137.16 149.039 136.055 148.143Z" fill="#BABABA"/>
<path d="M112.68 150.753C112.759 149.605 112.903 148.553 113.04 147.628C113.119 147.103 113.202 146.627 113.285 146.188C113.746 145.922 115.585 144.824 116.183 143.981C116.781 143.139 117.285 141.944 116.961 140.911C116.894 140.666 116.776 140.438 116.616 140.241C116.456 140.044 116.257 139.882 116.031 139.767C115.805 139.651 115.557 139.584 115.304 139.57C115.051 139.555 114.797 139.594 114.559 139.683C113.163 140.27 112.626 142.963 112.759 144.323C112.759 144.442 113.159 146.26 113.184 146.249L113.213 146.231C113.123 146.656 113.033 147.113 112.947 147.614C112.788 148.539 112.623 149.587 112.518 150.742C112.5 150.933 112.482 151.135 112.468 151.333C112.572 151.57 112.633 151.718 112.633 151.718C112.626 151.394 112.641 151.063 112.68 150.753Z" fill="#BABABA"/>
<path d="M113.113 170.218C112.81 170.32 112.543 170.506 112.342 170.754C112.141 171.002 112.015 171.302 111.979 171.619C113.84 171.979 115.701 172.278 117.559 172.476C116.731 171.36 114.538 169.743 113.113 170.218Z" fill="#BABABA"/>
<path d="M126.188 169.559C125.944 169.498 125.689 169.49 125.441 169.536C125.193 169.581 124.958 169.679 124.751 169.823C124.544 169.967 124.37 170.153 124.241 170.37C124.112 170.586 124.031 170.828 124.003 171.079C123.943 171.67 124.069 172.265 124.363 172.781C125.724 172.753 127.075 172.663 128.417 172.511C128.017 171.244 127.236 169.851 126.188 169.559Z" fill="#BABABA"/>
<path d="M117.976 171.359C117.396 169.941 116.763 168.519 116.14 167.101C115.949 166.669 115.762 166.233 115.575 165.797C115.78 165.769 118.217 165.412 119.175 164.789C120.021 164.239 120.939 163.299 121.004 162.223C121.027 161.971 120.999 161.716 120.92 161.476C120.84 161.235 120.712 161.014 120.543 160.826C120.374 160.637 120.167 160.486 119.937 160.381C119.706 160.277 119.457 160.221 119.204 160.217C117.684 160.253 116.212 162.557 115.848 163.864C115.82 163.965 115.596 165.362 115.56 165.718C115.146 164.761 114.743 163.803 114.387 162.838C113.895 161.546 113.487 160.223 113.166 158.878C113.26 158.878 115.805 158.518 116.766 157.87C117.609 157.319 118.53 156.376 118.595 155.303C118.619 155.051 118.59 154.797 118.511 154.556C118.432 154.316 118.304 154.094 118.135 153.905C117.966 153.717 117.759 153.565 117.529 153.46C117.298 153.355 117.048 153.299 116.795 153.295C115.276 153.334 113.804 155.635 113.44 156.945C113.411 157.046 113.174 158.551 113.152 158.824C113.134 158.749 113.105 158.669 113.087 158.59C112.804 157.234 112.64 155.856 112.598 154.472C112.562 153.709 112.572 152.978 112.598 152.269C113.076 152.251 115.276 152.139 116.219 151.667C117.162 151.196 118.138 150.382 118.318 149.324C118.369 149.075 118.368 148.818 118.314 148.569C118.261 148.321 118.157 148.086 118.008 147.88C117.859 147.674 117.669 147.501 117.449 147.372C117.23 147.243 116.987 147.161 116.734 147.131C115.218 146.998 113.494 149.122 112.994 150.371C112.968 150.44 112.767 151.171 112.634 151.703L112.436 151.675C112.371 152.557 112.331 153.475 112.353 154.468C112.365 155.871 112.501 157.269 112.76 158.648V158.695C112.547 158.299 111.914 157.211 111.856 157.132C111.039 156.031 108.825 154.371 107.388 154.85C107.152 154.939 106.938 155.077 106.759 155.255C106.58 155.433 106.44 155.646 106.349 155.882C106.257 156.117 106.216 156.369 106.229 156.621C106.241 156.873 106.306 157.119 106.42 157.345C106.87 158.327 108.076 158.9 109.066 159.145C110.182 159.404 112.605 158.911 112.799 158.871C113.097 160.269 113.487 161.646 113.966 162.993C114.243 163.781 114.545 164.566 114.855 165.347C114.66 165.013 114.495 164.71 114.455 164.674C113.638 163.569 111.424 161.913 109.988 162.392C109.752 162.481 109.538 162.619 109.359 162.797C109.18 162.974 109.041 163.187 108.95 163.422C108.858 163.657 108.817 163.908 108.829 164.16C108.841 164.412 108.906 164.658 109.019 164.883C109.469 165.869 110.672 166.438 111.665 166.683C112.659 166.928 114.743 166.539 115.29 166.431C115.413 166.73 115.532 167.029 115.65 167.327C116.244 168.767 116.846 170.189 117.389 171.608C117.504 171.91 117.612 172.213 117.72 172.511L118.44 172.583C118.293 172.166 118.142 171.763 117.976 171.359Z" fill="#BABABA"/>
<path d="M120.69 48.6461C120.995 48.8146 121.276 49.0228 121.525 49.2653M117.05 58.1825L117.288 59.6045L118.872 59.7449L119.347 58.3985C119.867 58.3518 120.378 58.2406 120.87 58.0673L121.871 59.0825L123.246 58.2869L122.868 56.9189C123.266 56.5802 123.62 56.1932 123.923 55.7669L125.32 56.0261L125.993 54.5861L124.895 53.6825C125.025 53.1768 125.092 52.6567 125.093 52.1345L126.396 51.5441L126.119 49.9781L124.679 49.8665C124.496 49.3848 124.254 48.9277 123.959 48.5057L124.7 47.2529L123.577 46.1297L122.317 46.8785C121.591 46.3881 120.771 46.0535 119.909 45.8957L119.549 44.4557H117.958L117.598 45.8957C117.101 45.9875 116.617 46.1399 116.158 46.3493L115.024 45.3665L113.72 46.2773L114.257 47.6813C113.907 48.038 113.601 48.4357 113.346 48.8657L111.848 48.7109L111.305 50.2049L112.543 51.0437C112.485 51.3923 112.456 51.7451 112.457 52.0985C112.457 52.2497 112.457 52.3973 112.457 52.5449L111.157 53.2649L111.568 54.7985L113.04 54.7805C113.259 55.2391 113.531 55.6704 113.85 56.0657L113.213 57.3905L114.43 58.4093L115.632 57.5993L117.05 58.1825ZM122.234 50.1761C122.661 50.9342 122.825 51.8114 122.703 52.6724C122.581 53.5334 122.179 54.3303 121.559 54.94C120.939 55.5497 120.135 55.9384 119.273 56.046C118.41 56.1537 117.535 55.9743 116.784 55.5355C116.034 55.0968 115.448 54.423 115.118 53.6184C114.788 52.8138 114.733 51.9229 114.96 51.0834C115.186 50.2439 115.683 49.5025 116.373 48.9735C117.064 48.4445 117.909 48.1574 118.778 48.1565C118.969 48.1561 119.159 48.1706 119.347 48.1997L122.234 50.1761Z" stroke="black" stroke-width="0.366" stroke-miterlimit="10"/>
<path d="M124.456 129.717C124.76 129.886 125.041 130.094 125.291 130.337M120.802 139.268L121.039 140.69L122.623 140.831L123.098 139.484C123.618 139.438 124.129 139.326 124.621 139.153L125.622 140.168L126.997 139.373L126.637 138.005C127.035 137.666 127.39 137.279 127.692 136.853L129.089 137.112L129.762 135.672L128.682 134.768C128.812 134.262 128.879 133.742 128.88 133.22L130.183 132.63L129.906 131.064L128.466 130.952C128.285 130.47 128.043 130.013 127.746 129.591L128.488 128.339L127.364 127.215L126.104 127.964C125.378 127.474 124.558 127.139 123.696 126.981L123.336 125.541H121.745L121.385 126.981C120.888 127.073 120.404 127.226 119.945 127.435L118.8 126.463L117.497 127.374L118.033 128.778C117.683 129.134 117.377 129.532 117.122 129.962L115.625 129.807L115.081 131.301L116.32 132.14C116.261 132.489 116.233 132.842 116.233 133.195C116.233 133.346 116.233 133.494 116.233 133.641L114.934 134.361L115.344 135.895L116.816 135.877C117.035 136.336 117.307 136.767 117.626 137.162L117 138.494L118.217 139.513L119.398 138.671L120.802 139.268ZM126 131.247C126.426 132.005 126.591 132.883 126.469 133.744C126.347 134.605 125.945 135.402 125.325 136.011C124.705 136.621 123.901 137.01 123.038 137.117C122.175 137.225 121.301 137.046 120.55 136.607C119.799 136.168 119.214 135.494 118.884 134.69C118.554 133.885 118.498 132.994 118.725 132.155C118.952 131.315 119.449 130.574 120.139 130.045C120.829 129.516 121.674 129.229 122.544 129.228C122.734 129.227 122.925 129.242 123.113 129.271L126 131.247Z" stroke="black" stroke-width="0.366" stroke-miterlimit="10"/>
<path d="M136.576 48.2173C136.064 49.0212 135.28 49.6136 134.367 49.8859C133.454 50.1582 132.473 50.0922 131.605 49.6999C130.736 49.3076 130.039 48.6154 129.639 47.7502C129.24 46.885 129.166 45.9049 129.431 44.9897C129.696 44.0744 130.283 43.2854 131.082 42.7674C131.882 42.2494 132.842 42.0371 133.785 42.1695C134.729 42.3019 135.593 42.7701 136.219 43.4881C136.846 44.2062 137.192 45.1261 137.195 46.0789C137.195 46.1749 137.195 46.2721 137.195 46.3705M128.519 41.1253L128.728 41.6725C128.623 41.7769 128.523 41.8885 128.425 42.0001L128.519 41.1253ZM127.896 42.7201C127.867 42.7633 127.842 42.8065 127.817 42.8497L126.319 42.6985L125.776 44.1889L127.014 45.0277C126.955 45.3762 126.925 45.729 126.924 46.0825C126.924 46.2337 126.924 46.3813 126.924 46.5289L125.621 47.2489L126.035 48.7825H127.507C127.724 49.2434 127.996 49.6762 128.317 50.0713L127.68 51.3925L128.897 52.4149L130.078 51.5689C130.524 51.8262 131.001 52.0281 131.496 52.1701L131.734 53.5921L133.314 53.7289L133.793 52.3825C134.312 52.337 134.824 52.227 135.316 52.0549L136.313 53.0665L137.688 52.2745L137.328 50.9065C137.726 50.5669 138.08 50.1801 138.383 49.7545L139.78 50.0101L140.453 48.5701L139.355 47.6629C139.484 47.158 139.55 46.6394 139.553 46.1185L140.856 45.5245L140.579 43.9621L139.139 43.8505C138.956 43.3681 138.714 42.9099 138.419 42.4861L139.161 41.2369L138.037 40.1137L136.777 40.8625C136.053 40.3691 135.232 40.0342 134.369 39.8797L134.009 38.4397H132.421L132.061 39.8797C131.565 39.9732 131.082 40.1255 130.621 40.3333L129.484 39.3505L128.184 40.2613L128.35 40.6933L127.896 42.7201ZM137.116 46.8997C137.062 47.1606 136.981 47.4152 136.875 47.6593L137.116 46.8997Z" stroke="black" stroke-width="0.366" stroke-miterlimit="10"/>
<path d="M43.0306 75.2788C44.8441 75.3625 46.5638 76.1095 47.8628 77.3778C49.1617 78.6462 49.9495 80.3475 50.0764 82.1586C50.2033 83.9697 49.6604 85.7642 48.551 87.2013C47.4416 88.6384 45.8429 89.6179 44.0587 89.9536C42.2745 90.2894 40.4291 89.958 38.8733 89.0224C37.3174 88.0869 36.1594 86.6123 35.6193 84.879C35.0792 83.1457 35.1947 81.2744 35.9438 79.6206C36.6929 77.9669 38.0235 76.646 39.6826 75.9088M33.5626 90.1036L32.371 92.5768L34.6462 94.4848L36.8494 92.9044C37.685 93.3875 38.5774 93.7648 39.5062 94.0276L39.9454 96.6844L42.9046 96.9436L43.7938 94.4236C44.7651 94.337 45.7218 94.129 46.6414 93.8044L48.5062 95.7016L51.0766 94.2184L50.3566 91.6624C51.1016 91.0263 51.7654 90.3008 52.333 89.5024L54.943 89.9812L56.1994 87.292L54.151 85.6C54.3898 84.6586 54.5107 83.6912 54.511 82.72L56.9446 81.6112L56.4298 78.688L53.7442 78.4792C53.4009 77.5797 52.95 76.7251 52.4014 75.934L53.7838 73.594L51.685 71.4952L49.327 72.8956C47.9726 71.9742 46.4393 71.3486 44.827 71.0596L44.1466 68.3668H41.1766L40.4926 71.074C39.5727 71.25 38.6772 71.5352 37.825 71.9236L35.701 70.0876L33.271 71.7904L34.2718 74.4148C33.6189 75.0818 33.0473 75.8238 32.569 76.6252L29.7718 76.3372L28.7566 79.1272L31.0714 80.6968C30.9614 81.3487 30.906 82.0086 30.9058 82.6696C30.9058 82.9504 30.9166 83.2276 30.9382 83.5012L28.501 84.862L29.2714 87.742L32.0254 87.7096C32.3298 88.3583 32.6912 88.9788 33.1054 89.5636L33.5626 90.1036ZM40.2118 75.6964C40.5352 75.5829 40.866 75.4915 41.2018 75.4228L40.2118 75.6964Z" stroke="black" stroke-width="0.366" stroke-miterlimit="10"/>
<path d="M71.5962 82.1132L68.6514 80.2124" stroke="#263238" stroke-width="1.098" stroke-linecap="round" stroke-linejoin="round"/>
<path d="M76.7114 76.396L75.9482 75.7588" stroke="#263238" stroke-width="1.098" stroke-linecap="round" stroke-linejoin="round"/>
<path d="M68.1153 93.1575L62.0205 91.6311" stroke="#263238" stroke-width="1.098" stroke-linecap="round" stroke-linejoin="round"/>
<path d="M101.055 130.619C101.01 130.619 100.965 130.613 100.922 130.601C100.781 130.565 100.661 130.474 100.587 130.349C100.4 130.022 100.299 129.845 101.818 128.103C98.5421 130.108 98.1929 130.025 98.0021 129.979C97.8527 129.935 97.7247 129.837 97.6421 129.705C97.3397 129.183 97.2821 129.079 103.345 124.118C102.373 124.748 101.361 125.425 100.465 126.022C95.1293 129.583 93.4697 130.594 92.7353 130.425C92.6464 130.405 92.5624 130.367 92.4888 130.313C92.4151 130.259 92.3532 130.19 92.3069 130.112C91.9829 129.55 91.9829 129.55 99.1469 124.373L100.565 123.351C99.7373 123.902 98.9129 124.463 98.1569 124.978C92.5193 128.812 89.9525 130.468 88.9913 130.252C88.891 130.23 88.7967 130.186 88.7147 130.124C88.6328 130.062 88.565 129.983 88.5161 129.892C88.1561 129.284 88.0841 129.147 98.5025 122.069L84.8009 129.989C84.6789 130.057 84.5351 130.075 84.4004 130.038C84.2658 130.001 84.151 129.912 84.0809 129.791C83.8397 129.374 84.0269 128.863 85.0169 127.991C83.4401 128.899 82.5257 129.262 82.0757 129.158C81.9821 129.136 81.8937 129.096 81.8158 129.04C81.7379 128.984 81.6721 128.912 81.6221 128.83C81.3233 128.312 81.4385 127.833 85.2509 125.27C81.3197 127.729 79.8689 128.452 79.3037 128.319C79.2197 128.299 79.1406 128.263 79.0713 128.211C79.002 128.16 78.9438 128.095 78.9005 128.02C78.6377 127.57 78.8825 127.408 79.7861 126.811L81.7769 125.511L84.8225 123.542C81.4673 125.284 80.9633 125.165 80.6825 125.097C80.5879 125.075 80.4987 125.035 80.4201 124.978C80.3416 124.921 80.2753 124.849 80.2253 124.766C80.1589 124.644 80.1421 124.501 80.1783 124.367C80.2145 124.233 80.301 124.118 80.4197 124.046C90.9857 117.782 107.297 107.734 111.229 104.411C107.308 106.193 95.5865 113.473 88.9085 117.631C80.3081 122.977 80.2685 122.966 79.9085 122.872C79.8341 122.856 79.7639 122.824 79.702 122.779C79.6402 122.735 79.588 122.678 79.5485 122.613C79.2569 122.109 79.2713 121.785 82.7129 119.654C81.1289 120.399 80.0849 120.734 79.6241 120.626C79.5233 120.602 79.4284 120.558 79.3454 120.496C79.2624 120.434 79.193 120.356 79.1417 120.266C79.0728 120.146 79.0527 120.005 79.0855 119.87C79.1184 119.736 79.2017 119.62 79.3181 119.546C89.9813 112.753 104.983 103.133 111.103 99.069C109.4 99.9366 107.114 101.229 104.572 102.752C102.517 104.073 100.079 105.61 97.1957 107.403C93.3869 109.775 89.5349 112.126 86.3273 114.07C78.5801 118.959 78.4865 118.937 78.1085 118.844C78.0342 118.826 77.964 118.794 77.9023 118.748C77.8405 118.703 77.7882 118.646 77.7485 118.581C77.6821 118.459 77.6653 118.316 77.7015 118.182C77.7377 118.048 77.8242 117.933 77.9429 117.861C80.2757 116.475 82.8497 114.931 85.5209 113.311L86.9249 112.425C81.3305 115.625 78.2381 117.026 77.3273 116.803C77.222 116.782 77.1223 116.739 77.0348 116.677C76.9473 116.615 76.874 116.535 76.8197 116.443C76.4849 115.867 76.9601 115.132 80.9057 112.555C78.3605 114.106 77.3525 114.567 76.9241 114.463C76.8424 114.444 76.7654 114.409 76.6979 114.36C76.6304 114.31 76.5738 114.247 76.5317 114.175C76.3049 113.782 76.1213 113.455 78.7565 111.543C77.3381 112.263 76.4417 112.555 76.0133 112.45C75.9162 112.429 75.8245 112.388 75.7439 112.33C75.6634 112.272 75.5958 112.197 75.5453 112.112C75.5091 112.05 75.4857 111.981 75.4764 111.91C75.4671 111.839 75.4722 111.767 75.4913 111.698C75.5293 111.56 75.6197 111.442 75.7433 111.37C87.4253 104.728 105.116 94.209 110.501 89.9646C104.594 93.2262 88.3073 102.788 76.9421 109.527C76.8807 109.563 76.8128 109.587 76.7422 109.597C76.6716 109.607 76.5998 109.602 76.5308 109.584C76.4619 109.566 76.3972 109.535 76.3405 109.491C76.2838 109.448 76.2363 109.394 76.2005 109.333C76.1453 109.234 76.1108 109.125 76.099 109.012C76.0872 108.899 76.0985 108.786 76.1321 108.677C76.3326 108.221 76.6356 107.817 77.0177 107.497C76.1789 107.839 75.6173 107.965 75.2969 107.885C75.1973 107.861 75.1037 107.817 75.022 107.755C74.9402 107.693 74.8721 107.615 74.8217 107.525C74.4977 106.967 75.1169 106.535 76.0529 105.884C76.7729 105.398 77.7917 104.725 79.2173 103.832C81.8777 102.169 85.5281 99.9654 89.3945 97.6362C93.7397 95.0154 98.9021 91.9014 103.003 89.3238C94.2293 94.3638 80.4125 102.435 73.7777 106.316C73.652 106.387 73.5035 106.406 73.3637 106.37C73.2951 106.352 73.2308 106.32 73.1745 106.277C73.1182 106.234 73.0712 106.18 73.0361 106.118C72.7589 105.635 72.6761 105.495 77.4461 102.493C75.5777 103.519 74.3969 103.961 73.7957 103.821C73.6822 103.797 73.5749 103.75 73.4806 103.683C73.3864 103.615 73.3073 103.529 73.2485 103.429C72.8885 102.809 72.8885 102.809 81.5501 97.7802C85.5569 95.4546 90.3377 92.6754 94.7369 90.0042C98.4305 87.549 101.321 85.6842 103.514 84.3882C104.664 83.6233 105.755 82.7737 106.779 81.8466C102.283 83.8662 84.5273 94.6014 73.2989 101.585C73.1777 101.662 73.031 101.687 72.8913 101.655C72.7515 101.623 72.6301 101.537 72.5537 101.416C72.4773 101.295 72.4523 101.148 72.484 101.009C72.5157 100.869 72.6017 100.747 72.7229 100.671L76.2077 98.4534C73.3277 99.933 72.2477 100.181 71.8049 100.07C71.7045 100.046 71.61 100.002 71.5276 99.9403C71.4451 99.8783 71.3765 99.7998 71.3261 99.7098C71.2563 99.5904 71.2357 99.4485 71.2686 99.3141C71.3015 99.1797 71.3854 99.0634 71.5025 98.9898L79.1741 94.0722C72.9029 97.6146 72.3953 97.4886 72.0857 97.4094C72.0034 97.3902 71.9258 97.3545 71.8577 97.3044C71.7896 97.2542 71.7325 97.1908 71.6897 97.1178C71.6224 96.9971 71.6039 96.8552 71.638 96.7212C71.6722 96.5873 71.7564 96.4715 71.8733 96.3978C79.9589 91.3974 91.4465 84.1578 98.1533 79.6182C92.7353 82.7394 84.8333 87.3762 79.2749 90.645L73.0793 94.245C71.7041 95.0478 71.0381 95.4402 70.6817 95.6202L70.5881 95.6778C70.3397 95.7966 70.2785 95.7786 70.1741 95.7498C70.0725 95.7227 69.9811 95.6665 69.911 95.5881C69.8408 95.5097 69.7951 95.4126 69.7795 95.3086C69.7638 95.2046 69.7788 95.0983 69.8227 95.0027C69.8666 94.9072 69.9374 94.8265 70.0265 94.7706C78.6017 89.4678 91.2665 81.4758 96.9401 77.5446C93.9197 79.2942 89.4089 82.1706 85.7801 84.4926C75.6065 90.9726 72.5141 92.8374 71.6177 92.6142C71.5325 92.594 71.4522 92.5568 71.3817 92.5048C71.3112 92.4529 71.2519 92.3872 71.2073 92.3118C70.9841 91.9194 70.8221 91.6422 74.2025 89.205C73.2809 89.6118 72.6581 89.7666 72.2945 89.6802C72.1917 89.6568 72.0947 89.6129 72.0093 89.551C71.9239 89.4892 71.852 89.4106 71.7977 89.3202C71.7309 89.1997 71.7123 89.0584 71.7457 88.9247C71.7792 88.7911 71.8621 88.6751 71.9777 88.6002C78.6197 84.4206 88.7141 77.8686 92.1845 75.1578C89.1461 76.6446 82.5149 80.9178 78.6125 83.4162C72.2369 87.4806 71.9993 87.5814 71.5925 87.4806C71.5179 87.4633 71.4476 87.4311 71.3857 87.3859C71.3239 87.3408 71.2718 87.2836 71.2325 87.2178C70.9445 86.7246 70.6925 86.2854 76.9349 81.9942C76.1645 82.4838 75.3761 82.9914 74.5697 83.5098C74.5031 83.5638 74.425 83.6019 74.3414 83.6212C74.2578 83.6406 74.1709 83.6406 74.0873 83.6214C74.0164 83.6044 73.9496 83.573 73.8914 83.529C73.8332 83.485 73.7847 83.4295 73.7489 83.3658C73.3637 82.6998 73.9181 82.1274 78.2993 78.7686C78.219 78.7516 78.1431 78.7178 78.0767 78.6694C78.0104 78.621 77.9549 78.5591 77.9141 78.4878C77.8474 78.3637 77.8314 78.2184 77.8697 78.0827C77.908 77.9471 77.9975 77.8316 78.1193 77.7606C78.2204 77.7052 78.3358 77.6814 78.4505 77.6922C79.02 77.3616 79.5716 77.0011 80.1029 76.6122C81.8597 75.3774 82.3565 75.0822 82.7849 75.1722C82.8686 75.1905 82.9475 75.2258 83.0169 75.276C83.0863 75.3262 83.1446 75.3901 83.1881 75.4638C83.4977 76.0038 83.2565 76.3278 80.3081 78.6102C81.1289 78.1026 81.9749 77.577 82.8281 77.0586C91.1513 71.9682 91.7957 72.1194 92.1881 72.213C92.2745 72.2316 92.356 72.2681 92.4273 72.3202C92.4986 72.3723 92.5582 72.4388 92.6021 72.5154C92.6698 72.6357 92.6889 72.7773 92.6554 72.9112C92.6219 73.0451 92.5385 73.1611 92.4221 73.2354C88.3613 75.7554 84.1421 78.4842 80.6033 80.8422C88.8185 75.597 92.7677 73.2822 93.8801 73.563C93.9766 73.5845 94.0677 73.6257 94.1476 73.6839C94.2274 73.7421 94.2945 73.8161 94.3445 73.9014C94.6865 74.4954 94.9349 74.9274 83.5697 82.4082L81.9353 83.4882C84.2249 82.0482 86.5433 80.5362 88.4153 79.3122C95.7053 74.5818 96.8861 73.887 97.4369 74.0166C97.5124 74.0364 97.5832 74.0711 97.645 74.1187C97.7069 74.1663 97.7585 74.2259 97.7969 74.2938C97.8659 74.4135 97.886 74.5551 97.8531 74.6892C97.8203 74.8233 97.737 74.9396 97.6205 75.0138C90.5717 79.5066 80.2757 86.2134 75.1853 89.817C77.9213 88.2042 81.7985 85.731 85.1753 83.5782C95.8781 76.7382 99.3701 74.6682 100.357 74.9058C100.445 74.9269 100.528 74.9655 100.601 75.0193C100.674 75.0731 100.735 75.141 100.781 75.219C101.044 75.6762 101.235 76.0002 94.9745 80.1798C103.748 75.0894 103.917 75.1398 104.194 75.2046C104.265 75.2227 104.331 75.2547 104.389 75.2985C104.447 75.3424 104.496 75.3974 104.533 75.4602C104.893 76.083 105.148 76.5402 88.5953 87.117C87.3929 87.8874 86.1869 88.6542 84.9953 89.403C91.5473 85.5294 99.3557 80.763 105.271 77.0694C105.332 77.0317 105.401 77.0065 105.473 76.9954C105.545 76.9843 105.618 76.9874 105.688 77.0046C105.83 77.0407 105.951 77.1313 106.027 77.2566C106.282 77.703 105.904 77.9766 105.505 78.2502C105.26 78.4194 104.9 78.6642 104.425 78.9702C103.553 79.5498 102.265 80.4102 100.601 81.4902C97.8005 83.3154 93.8873 85.8462 88.9697 89.0142C84.2321 92.0634 79.4585 95.1342 76.1861 97.2258C80.5097 94.9398 88.9193 90.0006 105.119 79.6506C107.452 78.1638 107.452 78.1638 107.69 78.2106C107.761 78.2281 107.828 78.2598 107.887 78.3037C107.945 78.3476 107.995 78.4029 108.032 78.4662C108.165 78.6966 108.241 78.8262 107.809 79.2114C107.233 79.7154 105.8 80.6514 102.531 82.7754C107.161 80.2374 107.593 80.3418 107.873 80.4138C107.955 80.4322 108.032 80.4673 108.1 80.5169C108.167 80.5664 108.224 80.6294 108.266 80.7018C108.46 81.0402 108.507 81.447 107.787 82.2534C108.071 82.1648 108.371 82.1426 108.665 82.1886C108.783 82.2131 108.894 82.2619 108.991 82.332C109.088 82.4021 109.17 82.4918 109.231 82.5954C109.591 83.2146 109.771 83.5314 99.0749 90.2778C110.401 83.7186 110.512 83.7474 110.782 83.8194C110.851 83.837 110.916 83.8684 110.973 83.9117C111.03 83.955 111.078 84.0093 111.113 84.0714C111.473 84.669 110.825 85.2702 109.277 86.4006C108.28 87.1206 106.873 88.071 104.986 89.2806C111.275 85.353 112.852 84.5394 113.414 84.6762C113.493 84.6955 113.568 84.7307 113.633 84.7796C113.699 84.8284 113.754 84.89 113.795 84.9606C113.831 85.0219 113.855 85.0898 113.864 85.1603C113.873 85.2308 113.868 85.3025 113.849 85.371C113.831 85.4405 113.799 85.5057 113.755 85.5626C113.711 85.6195 113.656 85.6669 113.594 85.7022C109.922 87.783 106.189 89.9358 102.581 92.0598L98.8445 94.4214C91.4969 99.0726 86.1365 102.417 82.3745 104.606C81.1829 105.423 80.1641 106.15 79.3469 106.766C82.6949 104.786 88.3973 101.42 94.1069 98.0898C112.107 87.5562 112.381 87.6318 112.723 87.7218C112.793 87.7399 112.859 87.7719 112.917 87.8157C112.975 87.8596 113.024 87.9146 113.061 87.9774C113.113 88.0695 113.146 88.1713 113.158 88.2764C113.169 88.3816 113.16 88.4881 113.129 88.5894C113.023 88.938 112.82 89.2491 112.543 89.4858C113.777 88.8702 114.551 88.6182 114.933 88.7082C115.026 88.7295 115.113 88.7695 115.19 88.8259C115.267 88.8822 115.331 88.9537 115.379 89.0358C115.667 89.5326 115.264 89.8026 114.375 90.393C113.839 90.753 113.047 91.2534 111.949 91.9374L111.736 92.0706C113.414 91.2678 114.591 90.8898 115.181 91.0338C115.302 91.0587 115.416 91.1083 115.516 91.1796C115.617 91.2509 115.701 91.3422 115.765 91.4478C116.261 92.3082 115.765 92.8554 98.2001 103.245C90.8237 107.641 81.0785 113.401 78.4217 115.561C79.8869 115.046 83.5373 113.282 92.6093 107.792C100.004 103.317 108.147 98.0934 112.049 95.5842C114.76 93.8454 114.757 93.849 114.998 93.9066C115.141 93.9431 115.264 94.035 115.34 94.1622C115.559 94.5438 115.783 94.929 112.82 97.1358C113.238 96.9467 113.698 96.8674 114.155 96.9054C114.256 96.9292 114.351 96.9734 114.434 97.0353C114.517 97.0973 114.586 97.1756 114.638 97.2654C114.955 97.8162 114.955 97.8162 109.13 101.632C106.25 103.511 102.254 106.107 97.2137 109.347C92.3537 112.472 87.4541 115.607 84.0989 117.749C90.8957 114.106 103.633 106.028 109.299 102.435C114.339 99.249 114.339 99.249 114.613 99.3174C114.683 99.3355 114.749 99.3675 114.807 99.4113C114.865 99.4552 114.914 99.5102 114.951 99.573C115.336 100.243 114.724 101.193 112.355 102.953C112.425 102.944 112.495 102.944 112.564 102.953C112.652 102.975 112.735 103.013 112.808 103.067C112.881 103.121 112.943 103.189 112.989 103.267C113.367 103.922 113.795 104.663 97.8185 114.668C102.412 111.838 107.179 108.829 111.027 106.334C111.088 106.294 111.158 106.267 111.23 106.254C111.302 106.242 111.377 106.244 111.448 106.261C111.52 106.278 111.587 106.31 111.646 106.354C111.704 106.398 111.754 106.454 111.79 106.517C112.053 106.978 111.689 107.237 111.07 107.669C110.71 107.925 110.167 108.299 109.454 108.775C108.741 109.25 107.855 109.855 106.786 110.546C108.277 109.79 109.198 109.484 109.666 109.599C109.768 109.622 109.863 109.666 109.947 109.728C110.031 109.79 110.101 109.869 110.152 109.959C110.455 110.481 110.386 110.679 106.743 113.033C107.51 112.706 108.053 112.587 108.403 112.673C108.511 112.697 108.613 112.742 108.703 112.807C108.793 112.873 108.869 112.956 108.925 113.051C109.349 113.771 109.029 114.11 99.2729 120.017C96.4793 121.709 92.9621 123.837 90.1145 125.673L109.27 114.617C109.331 114.581 109.399 114.558 109.47 114.548C109.54 114.539 109.612 114.544 109.681 114.563C109.818 114.6 109.936 114.689 110.008 114.812C110.275 115.276 109.897 115.553 109.27 116.014C108.892 116.291 108.338 116.684 107.575 117.209C106.153 118.196 104.176 119.531 102.085 120.95C99.6473 122.599 96.5801 124.676 94.0673 126.422C95.2229 125.659 96.4253 124.841 97.4945 124.114C103.064 120.327 105.415 118.811 106.333 119.013C106.429 119.034 106.52 119.075 106.599 119.132C106.679 119.19 106.747 119.263 106.797 119.348C107.11 119.895 107.125 119.92 100.738 124.546C105.371 121.465 106.887 120.586 107.578 120.741C107.667 120.761 107.751 120.8 107.825 120.853C107.898 120.907 107.96 120.976 108.007 121.054C108.259 121.493 108.259 121.493 105.037 124.125C104.065 124.917 102.715 126.019 101.498 127.037C102.484 126.429 103.571 125.738 104.605 125.068C104.666 125.028 104.735 125.001 104.808 124.988C104.88 124.976 104.954 124.978 105.026 124.996C105.097 125.013 105.164 125.044 105.223 125.088C105.282 125.132 105.331 125.188 105.368 125.252C105.569 125.612 105.494 125.684 104.756 126.476C104.155 127.12 103.64 127.685 103.204 128.168C106.473 126.22 106.592 126.253 106.822 126.31C106.892 126.328 106.958 126.36 107.015 126.404C107.073 126.448 107.121 126.503 107.157 126.566C107.193 126.627 107.216 126.695 107.226 126.765C107.235 126.836 107.231 126.908 107.212 126.976C107.194 127.045 107.162 127.109 107.119 127.165C107.075 127.222 107.021 127.269 106.959 127.304C106.907 127.335 106.85 127.357 106.79 127.369C106.311 127.585 103.651 129.151 101.307 130.569C101.228 130.605 101.142 130.622 101.055 130.619ZM106.25 127.081C106.307 127.177 106.392 127.254 106.495 127.3C106.393 127.253 106.308 127.176 106.25 127.081ZM92.9585 121.583C89.8481 123.524 86.7881 125.468 84.7937 126.854C86.9645 125.561 90.1181 123.481 92.9585 121.583ZM106.347 111.997C102.815 113.955 97.1021 117.634 92.7605 120.439C94.3589 119.441 96.1805 118.315 98.2505 117.04C101.102 115.287 104.173 113.401 106.347 111.997ZM106.117 114.517C104.198 115.539 101.285 117.397 98.4449 119.251L98.7437 119.071C101.397 117.458 104.277 115.712 106.117 114.509V114.517ZM88.4153 106.431C86.0393 107.918 83.8793 109.318 82.0793 110.521C83.9441 109.329 86.1545 107.9 88.4153 106.431ZM114.044 92.2722C113 92.6322 110.786 93.6402 106.102 96.4518C101.419 99.2634 95.7593 102.961 90.7193 106.237C88.5197 107.677 86.6693 108.865 85.1069 109.865C88.1381 108.001 92.2097 105.563 97.6493 102.345C104.27 98.4174 111.671 94.0398 114.044 92.2722ZM110.663 102.835L109.9 103.321C107.38 104.921 104.993 106.427 102.74 107.839C105.746 106.031 108.586 104.264 110.663 102.835ZM86.7881 100.441C83.4869 102.435 80.2793 104.401 78.1481 105.743C79.2281 105.193 80.5277 104.455 81.9965 103.583C83.4401 102.601 85.0565 101.539 86.7881 100.441ZM95.2409 90.9294C93.8585 91.851 92.4977 92.7654 91.2233 93.6186C88.7033 95.3178 86.4641 96.801 84.5237 98.0754L86.5073 96.8514C93.7973 92.3586 104.324 85.8642 107.42 83.5098C106.275 84.0216 105.165 84.6085 104.097 85.2666C102.866 86.127 101.3 87.1602 99.3161 88.413C98.0237 89.223 96.6521 90.0654 95.2409 90.9222V90.9294Z" fill="#FFCF23"/>
<g opacity="0.4">
<path opacity="0.4" d="M101.055 130.62C101.01 130.619 100.965 130.613 100.922 130.602C100.781 130.565 100.661 130.475 100.587 130.35C100.4 130.022 100.299 129.846 101.818 128.104C98.5421 130.109 98.1929 130.026 98.0021 129.979C97.8527 129.935 97.7247 129.838 97.6421 129.706C97.3397 129.184 97.2821 129.079 103.345 124.118C102.373 124.748 101.361 125.425 100.465 126.023C95.1293 129.583 93.4697 130.595 92.7353 130.426C92.6464 130.405 92.5624 130.367 92.4888 130.313C92.4151 130.259 92.3532 130.191 92.3069 130.112C91.9829 129.551 91.9829 129.551 99.1469 124.374L100.565 123.352C99.7373 123.902 98.9129 124.464 98.1569 124.979C92.5193 128.813 89.9525 130.469 88.9913 130.253C88.891 130.23 88.7967 130.186 88.7147 130.124C88.6328 130.062 88.565 129.983 88.5161 129.893C88.1561 129.284 88.0841 129.147 98.5025 122.07L84.8009 129.99C84.6789 130.058 84.5351 130.075 84.4004 130.038C84.2658 130.001 84.151 129.913 84.0809 129.792C83.8397 129.374 84.0269 128.863 85.0169 127.992C83.4401 128.899 82.5257 129.263 82.0757 129.158C81.9821 129.137 81.8937 129.097 81.8158 129.04C81.7379 128.984 81.6721 128.913 81.6221 128.831C81.3233 128.312 81.4385 127.834 85.2509 125.27C81.3197 127.729 79.8689 128.453 79.3037 128.32C79.2197 128.3 79.1406 128.263 79.0713 128.212C79.002 128.16 78.9438 128.095 78.9005 128.021C78.6377 127.571 78.8825 127.409 79.7861 126.811L81.7769 125.512L84.8225 123.542C81.4673 125.285 80.9633 125.166 80.6825 125.097C80.5879 125.076 80.4987 125.035 80.4201 124.979C80.3416 124.922 80.2753 124.849 80.2253 124.766C80.1589 124.644 80.1421 124.501 80.1783 124.367C80.2145 124.233 80.301 124.118 80.4197 124.046C90.9857 117.782 107.297 107.735 111.229 104.412C107.308 106.194 95.5865 113.473 88.9085 117.631C80.3081 122.977 80.2685 122.966 79.9085 122.873C79.8341 122.856 79.7639 122.824 79.702 122.78C79.6402 122.735 79.588 122.679 79.5485 122.614C79.2569 122.11 79.2713 121.785 82.7129 119.654C81.1289 120.4 80.0849 120.734 79.6241 120.626C79.5233 120.603 79.4284 120.559 79.3454 120.497C79.2624 120.435 79.193 120.356 79.1417 120.266C79.0728 120.147 79.0527 120.005 79.0855 119.871C79.1184 119.737 79.2017 119.621 79.3181 119.546C89.9813 112.753 104.983 103.134 111.103 99.0695C109.4 99.9371 107.114 101.23 104.572 102.752C102.517 104.074 100.079 105.611 97.1957 107.403C93.3869 109.776 89.5349 112.127 86.3273 114.071C78.5801 118.959 78.4865 118.938 78.1085 118.844C78.0342 118.826 77.964 118.794 77.9023 118.749C77.8405 118.704 77.7882 118.647 77.7485 118.582C77.6821 118.46 77.6653 118.317 77.7015 118.183C77.7377 118.048 77.8242 117.933 77.9429 117.862C80.2757 116.476 82.8497 114.931 85.5209 113.311L86.9249 112.426C81.3305 115.626 78.2381 117.026 77.3273 116.803C77.222 116.783 77.1223 116.74 77.0348 116.678C76.9473 116.616 76.874 116.536 76.8197 116.443C76.4849 115.867 76.9601 115.133 80.9057 112.555C78.3605 114.107 77.3525 114.568 76.9241 114.463C76.8424 114.445 76.7654 114.41 76.6979 114.36C76.6304 114.31 76.5738 114.248 76.5317 114.175C76.3049 113.783 76.1213 113.455 78.7565 111.543C77.3381 112.263 76.4417 112.555 76.0133 112.451C75.9162 112.43 75.8245 112.389 75.7439 112.33C75.6634 112.272 75.5958 112.198 75.5453 112.112C75.5091 112.05 75.4857 111.982 75.4764 111.911C75.4671 111.84 75.4722 111.767 75.4913 111.698C75.5293 111.56 75.6197 111.443 75.7433 111.371C87.4253 104.729 105.116 94.2095 110.501 89.9651C104.594 93.2267 88.3073 102.788 76.9421 109.527C76.8807 109.564 76.8128 109.587 76.7422 109.597C76.6716 109.607 76.5998 109.603 76.5308 109.585C76.4619 109.567 76.3972 109.535 76.3405 109.492C76.2838 109.449 76.2363 109.395 76.2005 109.333C76.1453 109.234 76.1108 109.125 76.099 109.013C76.0872 108.9 76.0985 108.786 76.1321 108.678C76.3326 108.221 76.6356 107.817 77.0177 107.497C76.1789 107.839 75.6173 107.965 75.2969 107.886C75.1973 107.862 75.1037 107.817 75.022 107.755C74.9402 107.693 74.8721 107.615 74.8217 107.526C74.4977 106.968 75.1169 106.536 76.0529 105.884C76.7729 105.398 77.7917 104.725 79.2173 103.832C81.8777 102.169 85.5281 99.9659 89.3945 97.6367C93.7397 95.0159 98.9021 91.9019 103.003 89.3243C94.2293 94.3643 80.4125 102.436 73.7777 106.316C73.652 106.388 73.5035 106.407 73.3637 106.37C73.2951 106.352 73.2308 106.321 73.1745 106.277C73.1182 106.234 73.0712 106.18 73.0361 106.118C72.7589 105.636 72.6761 105.496 77.4461 102.493C75.5777 103.519 74.3969 103.962 73.7957 103.822C73.6822 103.798 73.5749 103.751 73.4806 103.683C73.3864 103.616 73.3073 103.529 73.2485 103.429C72.8885 102.81 72.8885 102.81 81.5501 97.7807C85.5569 95.4551 90.3377 92.6759 94.7369 90.0047C98.4305 87.5495 101.321 85.6847 103.514 84.3887C104.664 83.6237 105.755 82.7742 106.779 81.8471C102.283 83.8667 84.5273 94.6019 73.2989 101.586C73.1777 101.662 73.031 101.687 72.8913 101.656C72.7515 101.624 72.6301 101.538 72.5537 101.417C72.4773 101.295 72.4523 101.149 72.484 101.009C72.5157 100.869 72.6017 100.748 72.7229 100.672L76.2077 98.4539C73.3277 99.9335 72.2477 100.182 71.8049 100.07C71.7045 100.047 71.61 100.003 71.5276 99.9408C71.4451 99.8788 71.3765 99.8003 71.3261 99.7103C71.2563 99.5909 71.2357 99.449 71.2686 99.3146C71.3015 99.1802 71.3854 99.0639 71.5025 98.9903L79.1741 94.0727C72.9029 97.6151 72.3953 97.4891 72.0857 97.4099C72.0034 97.3907 71.9258 97.355 71.8577 97.3048C71.7896 97.2547 71.7325 97.1912 71.6897 97.1183C71.6224 96.9976 71.6039 96.8556 71.638 96.7217C71.6722 96.5878 71.7564 96.472 71.8733 96.3983C79.9589 91.3979 91.4465 84.1583 98.1533 79.6187C92.7353 82.7399 84.8333 87.3767 79.2749 90.6455L73.0793 94.2455C71.7041 95.0483 71.0381 95.4407 70.6817 95.6207L70.5881 95.6783C70.3397 95.7971 70.2785 95.7791 70.1741 95.7503C70.0725 95.7232 69.9811 95.667 69.911 95.5886C69.8408 95.5102 69.7951 95.4131 69.7795 95.3091C69.7638 95.2051 69.7788 95.0988 69.8227 95.0032C69.8666 94.9076 69.9374 94.827 70.0265 94.7711C78.6017 89.4683 91.2665 81.4763 96.9401 77.5451C93.9197 79.2947 89.4089 82.1711 85.7801 84.4931C75.6065 90.9731 72.5141 92.8379 71.6177 92.6147C71.5325 92.5945 71.4522 92.5573 71.3817 92.5053C71.3112 92.4533 71.2519 92.3877 71.2073 92.3123C70.9841 91.9199 70.8221 91.6427 74.2025 89.2055C73.2809 89.6123 72.6581 89.7671 72.2945 89.6807C72.1917 89.6573 72.0947 89.6134 72.0093 89.5515C71.9239 89.4896 71.852 89.4111 71.7977 89.3207C71.7309 89.2002 71.7123 89.0589 71.7457 88.9252C71.7792 88.7915 71.8621 88.6756 71.9777 88.6007C78.6197 84.4211 88.7141 77.8691 92.1845 75.1583C89.1461 76.6451 82.5149 80.9183 78.6125 83.4167C72.2369 87.4811 71.9993 87.5819 71.5925 87.4811C71.5179 87.4638 71.4476 87.4316 71.3857 87.3864C71.3239 87.3413 71.2718 87.2841 71.2325 87.2183C70.9445 86.7251 70.6925 86.2859 76.9349 81.9947C76.1645 82.4843 75.3761 82.9919 74.5697 83.5103C74.5031 83.5643 74.425 83.6024 74.3414 83.6217C74.2578 83.6411 74.1709 83.6411 74.0873 83.6219C74.0164 83.6049 73.9496 83.5735 73.8914 83.5295C73.8332 83.4855 73.7847 83.4299 73.7489 83.3663C73.3637 82.7003 73.9181 82.1279 78.2993 78.7691C78.219 78.7521 78.1431 78.7182 78.0767 78.6698C78.0104 78.6215 77.9549 78.5596 77.9141 78.4883C77.8474 78.3641 77.8314 78.2189 77.8697 78.0832C77.908 77.9475 77.9975 77.832 78.1193 77.7611C78.2204 77.7057 78.3358 77.6818 78.4505 77.6927C79.02 77.3621 79.5716 77.0016 80.1029 76.6127C81.8597 75.3779 82.3565 75.0827 82.7849 75.1727C82.8686 75.191 82.9475 75.2263 83.0169 75.2765C83.0863 75.3267 83.1446 75.3906 83.1881 75.4643C83.4977 76.0043 83.2565 76.3283 80.3081 78.6107C81.1289 78.1031 81.9749 77.5775 82.8281 77.0591C91.1513 71.9687 91.7957 72.1199 92.1881 72.2135C92.2745 72.2321 92.356 72.2686 92.4273 72.3207C92.4986 72.3728 92.5582 72.4393 92.6021 72.5159C92.6698 72.6362 92.6889 72.7778 92.6554 72.9117C92.6219 73.0456 92.5385 73.1616 92.4221 73.2359C88.3613 75.7559 84.1421 78.4847 80.6033 80.8427C88.8185 75.5975 92.7677 73.2827 93.8801 73.5635C93.9766 73.585 94.0677 73.6261 94.1476 73.6844C94.2274 73.7426 94.2945 73.8166 94.3445 73.9019C94.6865 74.4959 94.9349 74.9279 83.5697 82.4087L81.9353 83.4887C84.2249 82.0487 86.5433 80.5367 88.4153 79.3127C95.7053 74.5823 96.8861 73.8875 97.4369 74.0171C97.5124 74.0369 97.5832 74.0716 97.645 74.1192C97.7069 74.1668 97.7585 74.2264 97.7969 74.2943C97.8659 74.4139 97.886 74.5556 97.8531 74.6897C97.8203 74.8238 97.737 74.9401 97.6205 75.0143C90.5717 79.5071 80.2757 86.2139 75.1853 89.8175C77.9213 88.2047 81.7985 85.7315 85.1753 83.5787C95.8781 76.7387 99.3701 74.6687 100.357 74.9063C100.445 74.9274 100.528 74.966 100.601 75.0198C100.674 75.0736 100.735 75.1415 100.781 75.2195C101.044 75.6767 101.235 76.0007 94.9745 80.1803C103.748 75.0899 103.917 75.1403 104.194 75.2051C104.265 75.2232 104.331 75.2552 104.389 75.299C104.447 75.3429 104.496 75.3978 104.533 75.4607C104.893 76.0835 105.148 76.5407 88.5953 87.1175C87.3929 87.8879 86.1869 88.6547 84.9953 89.4035C91.5473 85.5299 99.3557 80.7635 105.271 77.0699C105.332 77.0321 105.401 77.007 105.473 76.9959C105.545 76.9847 105.618 76.9879 105.688 77.0051C105.83 77.0412 105.951 77.1318 106.027 77.2571C106.282 77.7035 105.904 77.9771 105.505 78.2507C105.26 78.4199 104.9 78.6647 104.425 78.9707C103.553 79.5503 102.265 80.4107 100.601 81.4907C97.8005 83.3159 93.8873 85.8467 88.9697 89.0147C84.2321 92.0639 79.4585 95.1347 76.1861 97.2263C80.5097 94.9403 88.9193 90.0011 105.119 79.6511C107.452 78.1643 107.452 78.1643 107.69 78.2111C107.761 78.2286 107.828 78.2603 107.887 78.3042C107.945 78.3481 107.995 78.4034 108.032 78.4667C108.165 78.6971 108.241 78.8267 107.809 79.2119C107.233 79.7159 105.8 80.6519 102.531 82.7759C107.161 80.2379 107.593 80.3423 107.873 80.4143C107.955 80.4327 108.032 80.4678 108.1 80.5173C108.167 80.5669 108.224 80.6299 108.266 80.7023C108.46 81.0407 108.507 81.4475 107.787 82.2539C108.071 82.1653 108.371 82.1431 108.665 82.1891C108.783 82.2136 108.894 82.2624 108.991 82.3325C109.088 82.4026 109.17 82.4923 109.231 82.5959C109.591 83.2151 109.771 83.5319 99.0749 90.2783C110.401 83.7191 110.512 83.7479 110.782 83.8199C110.851 83.8375 110.916 83.8689 110.973 83.9122C111.03 83.9555 111.078 84.0098 111.113 84.0719C111.473 84.6695 110.825 85.2707 109.277 86.4011C108.28 87.1211 106.873 88.0715 104.986 89.2811C111.275 85.3535 112.852 84.5399 113.414 84.6767C113.493 84.696 113.568 84.7312 113.633 84.78C113.699 84.8289 113.754 84.8905 113.795 84.9611C113.831 85.0224 113.855 85.0903 113.864 85.1608C113.873 85.2313 113.868 85.303 113.849 85.3715C113.831 85.441 113.799 85.5062 113.755 85.563C113.711 85.6199 113.656 85.6674 113.594 85.7027C109.922 87.7835 106.189 89.9363 102.581 92.0603L98.8445 94.4219C91.4969 99.0731 86.1365 102.418 82.3745 104.606C81.1829 105.424 80.1641 106.151 79.3469 106.766C82.6949 104.786 88.3973 101.42 94.1069 98.0903C112.107 87.5567 112.381 87.6323 112.723 87.7223C112.793 87.7404 112.859 87.7724 112.917 87.8162C112.975 87.8601 113.024 87.915 113.061 87.9779C113.113 88.07 113.146 88.1717 113.158 88.2769C113.169 88.3821 113.16 88.4885 113.129 88.5899C113.023 88.9385 112.82 89.2495 112.543 89.4863C113.777 88.8707 114.551 88.6187 114.933 88.7087C115.026 88.73 115.113 88.77 115.19 88.8264C115.267 88.8827 115.331 88.9541 115.379 89.0363C115.667 89.5331 115.264 89.8031 114.375 90.3935C113.839 90.7535 113.047 91.2539 111.949 91.9379L111.736 92.0711C113.414 91.2683 114.591 90.8903 115.181 91.0343C115.302 91.0592 115.416 91.1088 115.516 91.1801C115.617 91.2513 115.701 91.3427 115.765 91.4483C116.261 92.3087 115.765 92.8559 98.2001 103.246C90.8237 107.641 81.0785 113.401 78.4217 115.561C79.8869 115.046 83.5373 113.282 92.6093 107.792C100.004 103.318 108.147 98.0939 112.049 95.5847C114.76 93.8459 114.757 93.8495 114.998 93.9071C115.141 93.9436 115.264 94.0355 115.34 94.1627C115.559 94.5443 115.783 94.9295 112.82 97.1363C113.238 96.9472 113.698 96.8679 114.155 96.9059C114.256 96.9297 114.351 96.9739 114.434 97.0358C114.517 97.0977 114.586 97.1761 114.638 97.2659C114.955 97.8167 114.955 97.8167 109.13 101.633C106.25 103.512 102.254 106.107 97.2137 109.347C92.3537 112.472 87.4541 115.608 84.0989 117.75C90.8957 114.107 103.633 106.028 109.299 102.436C114.339 99.2495 114.339 99.2495 114.613 99.3179C114.683 99.336 114.749 99.368 114.807 99.4118C114.865 99.4557 114.914 99.5106 114.951 99.5735C115.336 100.243 114.724 101.194 112.355 102.954C112.425 102.944 112.495 102.944 112.564 102.954C112.652 102.975 112.735 103.014 112.808 103.067C112.881 103.121 112.943 103.189 112.989 103.267C113.367 103.922 113.795 104.664 97.8185 114.668C102.412 111.839 107.179 108.829 111.027 106.334C111.088 106.294 111.158 106.267 111.23 106.255C111.302 106.242 111.377 106.244 111.448 106.262C111.52 106.279 111.587 106.31 111.646 106.355C111.704 106.399 111.754 106.454 111.79 106.518C112.053 106.979 111.689 107.238 111.07 107.67C110.71 107.925 110.167 108.3 109.454 108.775C108.741 109.25 107.855 109.855 106.786 110.546C108.277 109.79 109.198 109.484 109.666 109.599C109.768 109.622 109.863 109.666 109.947 109.728C110.031 109.79 110.101 109.869 110.152 109.959C110.455 110.481 110.386 110.68 106.743 113.034C107.51 112.706 108.053 112.588 108.403 112.674C108.511 112.697 108.613 112.743 108.703 112.808C108.793 112.873 108.869 112.956 108.925 113.052C109.349 113.772 109.029 114.11 99.2729 120.018C96.4793 121.71 92.9621 123.838 90.1145 125.674L109.27 114.618C109.331 114.582 109.399 114.558 109.47 114.549C109.54 114.54 109.612 114.545 109.681 114.564C109.818 114.601 109.936 114.69 110.008 114.812C110.275 115.277 109.897 115.554 109.27 116.015C108.892 116.292 108.338 116.684 107.575 117.21C106.153 118.196 104.176 119.532 102.085 120.95C99.6473 122.599 96.5801 124.676 94.0673 126.422C95.2229 125.659 96.4253 124.842 97.4945 124.115C103.064 120.328 105.415 118.812 106.333 119.014C106.429 119.035 106.52 119.075 106.599 119.133C106.679 119.19 106.747 119.264 106.797 119.348C107.11 119.896 107.125 119.921 100.738 124.547C105.371 121.465 106.887 120.587 107.578 120.742C107.667 120.762 107.751 120.8 107.825 120.854C107.898 120.908 107.96 120.976 108.007 121.055C108.259 121.494 108.259 121.494 105.037 124.126C104.065 124.918 102.715 126.019 101.498 127.038C102.484 126.43 103.571 125.738 104.605 125.069C104.666 125.029 104.735 125.001 104.808 124.989C104.88 124.976 104.954 124.979 105.026 124.996C105.097 125.013 105.164 125.045 105.223 125.089C105.282 125.133 105.331 125.189 105.368 125.252C105.569 125.612 105.494 125.684 104.756 126.476C104.155 127.121 103.64 127.686 103.204 128.168C106.473 126.221 106.592 126.253 106.822 126.311C106.892 126.329 106.958 126.361 107.015 126.405C107.073 126.449 107.121 126.504 107.157 126.566C107.193 126.628 107.216 126.695 107.226 126.766C107.235 126.836 107.231 126.908 107.212 126.977C107.194 127.045 107.162 127.11 107.119 127.166C107.075 127.222 107.021 127.269 106.959 127.304C106.907 127.336 106.85 127.358 106.79 127.369C106.311 127.585 103.651 129.151 101.307 130.57C101.228 130.606 101.142 130.623 101.055 130.62ZM106.25 127.081C106.307 127.178 106.392 127.254 106.495 127.301C106.393 127.253 106.308 127.177 106.25 127.081ZM92.9585 121.584C89.8481 123.524 86.7881 125.468 84.7937 126.854C86.9645 125.562 90.1181 123.481 92.9585 121.584ZM106.347 111.997C102.815 113.956 97.1021 117.635 92.7605 120.439C94.3589 119.442 96.1805 118.315 98.2505 117.041C101.102 115.287 104.173 113.401 106.347 111.997ZM106.117 114.517C104.198 115.54 101.285 117.397 98.4449 119.251L98.7437 119.071C101.397 117.458 104.277 115.712 106.117 114.51V114.517ZM88.4153 106.432C86.0393 107.918 83.8793 109.319 82.0793 110.521C83.9441 109.329 86.1545 107.9 88.4153 106.432ZM114.044 92.2727C113 92.6327 110.786 93.6407 106.102 96.4523C101.419 99.2639 95.7593 102.961 90.7193 106.237C88.5197 107.677 86.6693 108.865 85.1069 109.866C88.1381 108.001 92.2097 105.564 97.6493 102.346C104.27 98.4179 111.671 94.0403 114.044 92.2727ZM110.663 102.835L109.9 103.321C107.38 104.922 104.993 106.428 102.74 107.839C105.746 106.032 108.586 104.264 110.663 102.835ZM86.7881 100.441C83.4869 102.435 80.2793 104.401 78.1481 105.744C79.2281 105.193 80.5277 104.455 81.9965 103.584C83.4401 102.601 85.0565 101.539 86.7881 100.441ZM95.2409 90.9299C93.8585 91.8515 92.4977 92.7659 91.2233 93.6191C88.7033 95.3183 86.4641 96.8015 84.5237 98.0759L86.5073 96.8519C93.7973 92.3591 104.324 85.8647 107.42 83.5103C106.275 84.0221 105.165 84.609 104.097 85.2671C102.866 86.1275 101.3 87.1607 99.3161 88.4135C98.0237 89.2235 96.6521 90.0659 95.2409 90.9227V90.9299Z" fill="white"/>
</g>
<path d="M93.409 72.9181H93.1678C80.1142 73.1593 70.2754 83.1457 70.2754 95.4325C70.2696 99.1017 71.1646 102.716 72.8818 105.959C73.6018 107.669 75.3442 111.856 77.0686 117.27C78.667 122.267 79.5022 127.296 79.5022 128.07C79.5022 128.142 79.5022 128.218 79.5022 128.301C79.495 128.526 79.5332 128.751 79.6146 128.962C79.696 129.173 79.8189 129.366 79.976 129.528C80.1331 129.691 80.3213 129.82 80.5293 129.908C80.7373 129.997 80.961 130.043 81.187 130.043H104.565C104.791 130.043 105.015 129.997 105.223 129.908C105.431 129.82 105.619 129.691 105.776 129.528C105.934 129.366 106.056 129.173 106.138 128.962C106.219 128.751 106.257 128.526 106.25 128.301C106.25 128.218 106.25 128.142 106.25 128.07C106.25 127.31 107.085 122.281 108.68 117.27C110.408 111.87 112.133 107.669 112.867 105.959C114.662 102.562 115.559 98.7625 115.471 94.9214C115.384 91.0803 114.315 87.3254 112.367 84.014C110.418 80.7026 107.655 77.9446 104.34 76.0025C101.025 74.0603 97.2683 72.9985 93.427 72.9181H93.409Z" stroke="#263238" stroke-width="0.732" stroke-linecap="round" stroke-linejoin="round"/>
<path d="M101.297 76.5325C100.645 76.2397 99.9763 75.9849 99.2949 75.7693" stroke="#263238" stroke-width="1.098" stroke-linecap="round" stroke-linejoin="round"/>
<path d="M108.799 82.2496C108.799 82.2496 106.963 79.3336 102.928 77.35" stroke="#263238" stroke-width="1.098" stroke-linecap="round" stroke-linejoin="round"/>
<path d="M91.3825 119.833V108.27C91.3825 108.27 92.2717 102.64 89.3449 102.64C86.4181 102.64 86.6413 105.57 90.0181 108.72C93.3949 111.87 98.5789 108.947 99.2557 106.47C99.9325 103.993 98.1289 102.87 97.0021 104.893C95.8753 106.917 97.0021 129.895 97.0021 129.895" stroke="#263238" stroke-width="1.098" stroke-linecap="round" stroke-linejoin="round"/>
<path d="M85.1221 67.0681L86.3677 70.9885" stroke="#263238" stroke-width="1.098" stroke-linecap="round" stroke-linejoin="round"/>
<path d="M115.642 75.6182L111.542 78.8258" stroke="#263238" stroke-width="1.098" stroke-linecap="round" stroke-linejoin="round"/>
<path d="M100.44 64.2064L98.8955 70.9888" stroke="#263238" stroke-width="1.098" stroke-linecap="round" stroke-linejoin="round"/>
<path d="M105.217 131.728H80.5245C80.2084 131.728 79.9521 131.985 79.9521 132.301V132.585C79.9521 132.901 80.2084 133.157 80.5245 133.157H105.217C105.533 133.157 105.789 132.901 105.789 132.585V132.301C105.789 131.985 105.533 131.728 105.217 131.728Z" fill="#263238" stroke="#263238" stroke-width="0.366" stroke-linecap="round" stroke-linejoin="round"/>
<path d="M105.217 134.946H80.5245C80.2084 134.946 79.9521 135.203 79.9521 135.519V135.803C79.9521 136.119 80.2084 136.376 80.5245 136.376H105.217C105.533 136.376 105.789 136.119 105.789 135.803V135.519C105.789 135.203 105.533 134.946 105.217 134.946Z" fill="#263238" stroke="#263238" stroke-width="0.366" stroke-linecap="round" stroke-linejoin="round"/>
<path d="M105.217 138.165H80.5245C80.2084 138.165 79.9521 138.421 79.9521 138.737V139.021C79.9521 139.338 80.2084 139.594 80.5245 139.594H105.217C105.533 139.594 105.789 139.338 105.789 139.021V138.737C105.789 138.421 105.533 138.165 105.217 138.165Z" fill="#263238" stroke="#263238" stroke-width="0.366" stroke-linecap="round" stroke-linejoin="round"/>
<path d="M93.6284 141.308H80.9492L84.5996 146.348C84.9125 146.78 85.3237 147.133 85.7994 147.376C86.275 147.618 86.8016 147.745 87.3356 147.744H98.4956C99.0308 147.744 99.5582 147.616 100.035 147.372C100.511 147.128 100.922 146.775 101.235 146.34L104.857 141.326L93.6284 141.308Z" fill="#263238" stroke="#263238" stroke-width="0.366" stroke-linecap="round" stroke-linejoin="round"/>
<path d="M120.848 87.4801C120.848 87.4801 118.544 90.0001 116.658 91.2529C114.771 92.5057 113.457 94.1725 115.189 95.0257C116.229 95.5369 117.709 94.8169 117.709 94.8169C117.709 94.8169 115.401 95.4433 114.984 97.5421C114.566 99.6409 119.16 98.7913 119.16 98.7913C119.16 98.7913 115.808 101.095 116.856 101.934C117.903 102.773 119.999 102.143 121.046 102.143C122.094 102.143 127.335 98.7913 128.606 98.7913C129.877 98.7913 132.379 101.516 132.379 103.612C132.379 105.707 135.72 105.498 136.148 99.0001C136.577 92.5021 134.892 87.0553 132.167 85.3777C129.441 83.7001 120.848 87.4801 120.848 87.4801Z" fill="white" stroke="#263238" stroke-width="0.366" stroke-miterlimit="10" stroke-linecap="round"/>
<path d="M119.593 94.5971L127.956 91.4723C127.956 91.4723 131.628 90.6767 134.263 95.0183" stroke="#263238" stroke-width="0.366" stroke-miterlimit="10" stroke-linecap="round"/>
<path d="M121.057 97.1135L128.617 95.8571C128.617 95.8571 131.972 95.6483 134.067 99.6299" stroke="#263238" stroke-width="0.366" stroke-miterlimit="10" stroke-linecap="round"/>
<path d="M130.28 102.143L124.621 103.403L127.972 116.813C127.972 116.813 130.91 122.681 131.745 125.197C132.58 127.713 141.177 136.08 141.177 136.08L151.236 126.439C151.236 126.439 146.628 120.992 146.419 119.732C146.21 118.472 145.368 103.806 145.368 101.711C145.368 99.6154 141.177 94.5826 141.177 94.5826C141.177 94.5826 139.456 92.1166 138.618 87.9262C137.779 83.7358 133.938 82.0114 131.835 82.2202C129.733 82.429 123.991 83.059 121.687 84.7402C119.383 86.4214 117.284 88.513 119.383 89.143C122.864 90.187 128.559 85.543 131.306 88.7542C132.566 90.2194 134.053 96.6742 134.262 97.5274C134.262 97.5274 133.214 101.509 130.28 102.135" fill="white"/>
<path d="M130.28 102.143L124.621 103.403L127.972 116.813C127.972 116.813 130.91 122.681 131.745 125.197C132.58 127.713 141.177 136.08 141.177 136.08L151.236 126.439C151.236 126.439 146.628 120.992 146.419 119.732C146.21 118.472 145.368 103.806 145.368 101.711C145.368 99.6154 141.177 94.5826 141.177 94.5826C141.177 94.5826 139.456 92.1166 138.618 87.9262C137.779 83.7358 133.938 82.0114 131.835 82.2202C129.733 82.429 123.991 83.059 121.687 84.7402C119.383 86.4214 117.284 88.513 119.383 89.143C122.864 90.187 128.559 85.543 131.306 88.7542C132.566 90.2194 134.053 96.6742 134.262 97.5274C134.262 97.5274 133.214 101.509 130.28 102.135" stroke="#263238" stroke-width="0.366" stroke-miterlimit="10" stroke-linecap="round"/>
<path d="M109.177 82.6627C109.241 82.5955 109.328 82.5534 109.42 82.5442C109.512 82.5349 109.605 82.5591 109.681 82.6123L110.538 83.2063C110.623 83.2658 110.68 83.3563 110.699 83.4581C110.717 83.5599 110.694 83.6648 110.635 83.7499C110.576 83.8342 110.487 83.8918 110.385 83.91C110.284 83.9282 110.18 83.9056 110.095 83.8471L109.239 83.2495C109.154 83.1906 109.097 83.1008 109.078 82.9996C109.06 82.8984 109.083 82.7941 109.141 82.7095C109.151 82.6924 109.163 82.6767 109.177 82.6627Z" fill="#263238" stroke="#263238" stroke-width="0.366" stroke-miterlimit="10" stroke-linecap="round"/>
<path d="M110.16 83.3542C110.306 83.1987 110.502 83.1011 110.714 83.0792C110.926 83.0574 111.138 83.1129 111.312 83.2354L113.998 84.6178L140.364 101.963C140.589 102.119 140.781 102.318 140.929 102.548C141.077 102.779 141.178 103.036 141.226 103.305C141.275 103.575 141.27 103.851 141.211 104.119C141.153 104.386 141.043 104.639 140.886 104.864C140.73 105.089 140.531 105.281 140.301 105.429C140.07 105.577 139.813 105.678 139.544 105.726C139.274 105.775 138.998 105.77 138.73 105.711C138.463 105.653 138.209 105.542 137.985 105.386L112.396 86.5078L110.304 84.7078C110.208 84.6412 110.126 84.5563 110.063 84.458C110 84.3597 109.957 84.2499 109.936 84.1349C109.915 84.0199 109.917 83.9019 109.942 83.7877C109.967 83.6735 110.014 83.5653 110.081 83.4694C110.104 83.4285 110.13 83.3899 110.16 83.3542Z" fill="#FFCF23" stroke="#263238" stroke-width="0.366" stroke-miterlimit="10" stroke-linecap="round"/>
<path d="M140.367 101.963L132.757 96.9585C132.17 97.1287 131.652 97.4814 131.278 97.9656C130.905 98.4497 130.695 99.0401 130.68 99.6513C130.68 99.7719 130.69 99.8922 130.708 100.011L137.988 105.383C138.442 105.698 139.002 105.82 139.547 105.722C140.091 105.625 140.574 105.314 140.889 104.86C141.205 104.406 141.327 103.846 141.229 103.302C141.131 102.757 140.821 102.274 140.367 101.959V101.963Z" fill="#263238" stroke="#263238" stroke-width="0.366" stroke-miterlimit="10" stroke-linecap="round"/>
<path d="M131.76 125.197C129.456 121.845 126.522 113.252 125.28 111.574C124.038 109.897 120.651 106.174 119.394 102.416C118.138 98.6577 117.313 95.6481 117.313 92.5017C117.313 89.3553 120.017 88.8153 122.112 92.1705C124.207 95.5257 126.72 100.677 126.72 100.677C126.72 100.677 128.398 102.772 131.76 102.142" fill="white"/>
<path d="M131.76 125.197C129.456 121.845 126.522 113.252 125.28 111.574C124.038 109.897 120.651 106.174 119.394 102.416C118.138 98.6577 117.313 95.6481 117.313 92.5017C117.313 89.3553 120.017 88.8153 122.112 92.1705C124.207 95.5257 126.72 100.677 126.72 100.677C126.72 100.677 128.398 102.772 131.76 102.142" stroke="#263238" stroke-width="0.366" stroke-miterlimit="10" stroke-linecap="round"/>
<path d="M119.913 91.1913L120.633 92.5917C120.633 92.5917 120.474 92.5917 119.355 93.2289C118.686 93.6098 118.125 94.1535 117.724 94.8093C117.724 94.8093 116.644 91.7925 117.598 90.8493C117.829 90.6045 118.136 90.4437 118.469 90.3921C118.762 90.3614 119.058 90.4215 119.317 90.5645C119.575 90.7074 119.783 90.9262 119.913 91.1913Z" fill="white" stroke="#263238" stroke-width="0.366" stroke-miterlimit="10" stroke-linecap="round"/>
<path d="M149.04 122.17C149.04 122.17 143.493 123.811 140.613 126.691C138.705 128.635 136.92 130.694 135.267 132.858L140.407 138.82C140.407 138.82 144.727 133.884 147.607 131.62C149.569 130.113 151.629 128.74 153.774 127.508L149.04 122.17Z" fill="white" stroke="#263238" stroke-width="0.366" stroke-miterlimit="10" stroke-linecap="round"/>
<path d="M154.192 165.542L137.952 139.435C137.952 139.435 142.063 133.268 145.559 130.187C149.055 127.105 153.576 126.281 153.576 126.281L173.88 145.768" fill="#263238"/>
<path d="M154.192 165.542L137.952 139.435C137.952 139.435 142.063 133.268 145.559 130.187C149.055 127.105 153.576 126.281 153.576 126.281L173.88 145.768" stroke="#263238" stroke-width="0.366" stroke-miterlimit="10" stroke-linecap="round"/>
<path d="M122.904 98.8163L123.264 98.7803" stroke="#263238" stroke-width="0.366" stroke-miterlimit="10" stroke-linecap="round"/>
<path d="M119.769 100.559C119.769 100.559 119.959 99.4103 122.267 98.9279" stroke="#263238" stroke-width="0.366" stroke-miterlimit="10" stroke-linecap="round"/>
<path d="M122.274 99.7484C122.274 99.7484 122.112 100.234 120.496 100.882" stroke="#263238" stroke-width="0.366" stroke-miterlimit="10" stroke-linecap="round"/>
<path d="M122.209 98.2114C121.4 98.3384 120.632 98.6501 119.963 99.1222" stroke="#263238" stroke-width="0.366" stroke-miterlimit="10" stroke-linecap="round"/>
<path d="M71.5538 62.406C71.5538 62.406 74.9522 62.6832 77.105 63.3996C79.2578 64.116 81.3746 64.1196 80.9822 62.2404C80.7482 61.1064 79.2722 60.3828 79.2722 60.3828C79.2722 60.3828 81.1838 61.8228 83.0954 60.8616C85.007 59.9004 81.515 56.7828 81.515 56.7828C81.515 56.7828 85.3958 58.014 85.4138 56.6712C85.4318 55.3284 83.6498 54.0612 83.0054 53.2332C82.361 52.4052 76.5002 50.328 75.7262 49.338C74.9522 48.348 75.5606 44.6868 77.2166 43.398C78.8726 42.1092 76.6478 39.6 71.2802 43.2504C65.9126 46.9008 62.6402 51.5772 62.9678 54.7704C63.2954 57.9636 71.5538 62.406 71.5538 62.406Z" fill="white" stroke="#263238" stroke-width="0.366" stroke-miterlimit="10" stroke-linecap="round"/>
<path d="M77.9508 59.0401L70.3476 54.3601C70.3476 54.3601 67.4676 51.9517 69.2676 47.2069" stroke="#263238" stroke-width="0.366" stroke-miterlimit="10" stroke-linecap="round"/>
<path d="M79.0346 56.3218L73.4114 51.1378C73.4114 51.1378 71.1866 48.6178 73.0514 44.521" stroke="#263238" stroke-width="0.366" stroke-miterlimit="10" stroke-linecap="round"/>
<path d="M77.3463 45.9539L81.8103 49.6511L90.3603 38.7683C90.3603 38.7683 95.8683 36.2951 97.3191 34.0883C98.7699 31.8815 100.005 19.9295 100.005 19.9295L86.1843 17.9999C86.1843 17.9999 84.7767 24.9983 83.9199 25.9451C83.0631 26.8919 69.4047 33.0119 67.7523 34.3007C66.0999 35.5895 64.6995 41.9831 64.6995 41.9831C63.9627 44.5825 62.999 47.1122 61.8195 49.5431C58.6695 55.9223 59.2311 55.4327 60.6819 56.9591C62.1327 58.4855 65.6643 61.5887 68.4039 62.3807C71.1435 63.1727 74.5491 66.0023 73.7859 62.5427C73.0011 58.9967 65.3115 57.5027 66.1575 53.3699C66.5427 51.4763 70.7367 46.3319 71.2695 45.6515C71.2695 45.6515 75.0531 44.0351 77.3535 45.9647" fill="white"/>
<path d="M77.3463 45.9539L81.8103 49.6511L90.3603 38.7683C90.3603 38.7683 95.8683 36.2951 97.3191 34.0883C98.7699 31.8815 100.005 19.9295 100.005 19.9295L86.1843 17.9999C86.1843 17.9999 84.7767 24.9983 83.9199 25.9451C83.0631 26.8919 69.4047 33.0119 67.7523 34.3007C66.0999 35.5895 64.6995 41.9831 64.6995 41.9831C63.9627 44.5825 62.999 47.1122 61.8195 49.5431C58.6695 55.9223 59.2311 55.4327 60.6819 56.9591C62.1327 58.4855 65.6643 61.5887 68.4039 62.3807C71.1435 63.1727 74.5491 66.0023 73.7859 62.5427C73.0011 58.9967 65.3115 57.5027 66.1575 53.3699C66.5427 51.4763 70.7367 46.3319 71.2695 45.6515C71.2695 45.6515 75.0531 44.0351 77.3535 45.9647" stroke="#263238" stroke-width="0.366" stroke-miterlimit="10" stroke-linecap="round"/>
<path d="M74.9234 74.5739C74.8301 74.5672 74.7424 74.5271 74.6762 74.461C74.6101 74.3949 74.57 74.3071 74.5634 74.2139L74.5094 73.1699C74.5022 73.1167 74.5061 73.0627 74.5208 73.0111C74.5355 72.9595 74.5607 72.9116 74.5949 72.8702C74.629 72.8289 74.6714 72.795 74.7192 72.7708C74.7671 72.7466 74.8194 72.7326 74.873 72.7296C74.9265 72.7266 74.9801 72.7347 75.0304 72.7535C75.0806 72.7722 75.1265 72.8011 75.165 72.8384C75.2036 72.8757 75.234 72.9205 75.2543 72.9701C75.2747 73.0198 75.2846 73.073 75.2834 73.1267L75.341 74.1707C75.3469 74.2726 75.3125 74.3729 75.2451 74.4497C75.1777 74.5265 75.0829 74.5737 74.981 74.5811L74.9234 74.5739Z" fill="#263238" stroke="#263238" stroke-width="0.366" stroke-miterlimit="10" stroke-linecap="round"/>
<path d="M74.8804 73.3677C74.6683 73.3488 74.4702 73.2539 74.3226 73.1004C74.1751 72.9469 74.088 72.7452 74.0776 72.5325L73.5232 69.5625L71.0284 38.1021C70.9988 37.5498 71.1898 37.0083 71.5594 36.5968C71.9291 36.1853 72.447 35.9375 72.9994 35.9079C73.5517 35.8783 74.0932 36.0693 74.5047 36.439C74.9162 36.8086 75.164 37.3266 75.1936 37.8789L76 69.6705L75.8488 72.4389C75.8551 72.5552 75.8384 72.6717 75.7996 72.7815C75.7609 72.8914 75.7008 72.9925 75.6229 73.0792C75.545 73.1658 75.4507 73.2362 75.3455 73.2863C75.2404 73.3364 75.1263 73.3653 75.01 73.3713C74.9668 73.3737 74.9234 73.3725 74.8804 73.3677Z" fill="#FFCF23" stroke="#263238" stroke-width="0.366" stroke-miterlimit="10" stroke-linecap="round"/>
<path d="M71.0108 38.1025L71.7308 47.1817C72.2244 47.5429 72.8201 47.7377 73.4318 47.7377C74.0435 47.7377 74.6392 47.5429 75.1328 47.1817C75.2286 47.1067 75.3188 47.0249 75.4028 46.9369L75.176 37.8937C75.1464 37.3413 74.8986 36.8234 74.4871 36.4537C74.0756 36.0841 73.5341 35.8931 72.9818 35.9227C72.4295 35.9523 71.9115 36.2001 71.5419 36.6116C71.1722 37.0231 70.9812 37.5645 71.0108 38.1169V38.1025Z" fill="#263238" stroke="#263238" stroke-width="0.366" stroke-miterlimit="10" stroke-linecap="round"/>
<path d="M97.3009 34.074C96.1201 37.9656 90.9073 43.3152 90.0001 45.2016C87.9659 49.4757 85.612 53.5901 82.9585 57.51C82.0621 58.8528 81.0937 59.0436 80.5033 59.526C79.6393 60.246 79.1965 60.984 77.7205 62.1288C75.2401 64.0584 73.1521 62.262 74.5129 58.5504C75.8737 54.8388 78.3721 49.68 78.3721 49.68C78.3721 49.68 78.9985 47.07 76.4461 44.8092" fill="white"/>
<path d="M97.3009 34.074C96.1201 37.9656 90.9073 43.3152 90.0001 45.2016C87.9659 49.4757 85.612 53.5901 82.9585 57.51C82.0621 58.8528 81.0937 59.0436 80.5033 59.526C79.6393 60.246 79.1965 60.984 77.7205 62.1288C75.2401 64.0584 73.1521 62.262 74.5129 58.5504C75.8737 54.8388 78.3721 49.68 78.3721 49.68C78.3721 49.68 78.9985 47.07 76.4461 44.8092" stroke="#263238" stroke-width="0.366" stroke-miterlimit="10" stroke-linecap="round"/>
<path d="M75.0605 60.8616L75.7373 59.4504C75.7373 59.4504 75.8345 59.5764 77.0261 60.066C77.7362 60.3594 78.509 60.4684 79.2725 60.3828C79.2725 60.3828 77.5553 63.09 76.2125 62.9208C75.8777 62.8891 75.5633 62.7458 75.3197 62.514C75.1098 62.2999 74.9721 62.0255 74.9256 61.7293C74.8791 61.4331 74.9263 61.1298 75.0605 60.8616Z" fill="white" stroke="#263238" stroke-width="0.366" stroke-miterlimit="10" stroke-linecap="round"/>
<path d="M85.0173 6.72119L82.1553 25.308C82.1553 25.308 85.6077 28.3428 90.1941 29.16C94.7805 29.9772 103.154 31.2156 103.154 31.2156L110.484 6.71399" fill="#263238"/>
<path d="M85.0173 6.72119L82.1553 25.308C82.1553 25.308 85.6077 28.3428 90.1941 29.16C94.7805 29.9772 103.154 31.2156 103.154 31.2156L110.484 6.71399" stroke="#263238" stroke-width="0.366" stroke-miterlimit="10" stroke-linecap="round"/>
<path d="M101.679 27.0612C101.679 27.341 101.596 27.6145 101.441 27.8472C101.285 28.0798 101.064 28.2612 100.806 28.3683C100.547 28.4754 100.263 28.5034 99.9884 28.4488C99.714 28.3942 99.4619 28.2594 99.264 28.0616C99.0661 27.8637 98.9314 27.6116 98.8768 27.3372C98.8222 27.0627 98.8502 26.7783 98.9573 26.5197C99.0644 26.2612 99.2457 26.0403 99.4784 25.8848C99.7111 25.7293 99.9846 25.6464 100.264 25.6464C100.64 25.6464 101 25.7954 101.265 26.0607C101.53 26.3261 101.679 26.6859 101.679 27.0612Z" fill="white" stroke="#263238" stroke-width="0.732" stroke-linecap="round" stroke-linejoin="round"/>
<path d="M78.1953 56.2718L77.9541 56.027" stroke="#263238" stroke-width="0.366" stroke-miterlimit="10" stroke-linecap="round"/>
<path d="M81.4936 57.6795C81.4936 57.6795 80.4712 58.2339 78.6748 56.7111" stroke="#263238" stroke-width="0.366" stroke-miterlimit="10" stroke-linecap="round"/>
<path d="M79.3154 56.196C79.3154 56.196 79.7978 56.0268 81.3026 56.916" stroke="#263238" stroke-width="0.366" stroke-miterlimit="10" stroke-linecap="round"/>
<path d="M78.1455 57.197C78.7421 57.7552 79.4589 58.1691 80.2407 58.4066" stroke="#263238" stroke-width="0.366" stroke-miterlimit="10" stroke-linecap="round"/>
<path d="M79.179 117.782C79.179 117.782 79.5066 121.177 80.259 123.319C81.0114 125.461 81.0546 127.578 79.1574 127.214C78.0198 126.994 77.2746 125.533 77.2746 125.533C77.2746 125.533 78.7398 127.423 77.811 129.345C76.8822 131.268 73.707 127.826 73.707 127.826C73.707 127.826 74.9958 131.685 73.6566 131.725C72.3174 131.764 71.0178 130 70.1826 129.37C69.3474 128.74 67.1802 122.89 66.1758 122.149C65.1714 121.407 61.5246 122.052 60.2646 123.726C59.0046 125.4 56.4486 123.214 60.027 117.775C63.6054 112.335 68.2242 108.991 71.4066 109.293C74.589 109.596 79.179 117.782 79.179 117.782Z" fill="white" stroke="#263238" stroke-width="0.366" stroke-miterlimit="10" stroke-linecap="round"/>
<path d="M75.8932 124.229L71.098 116.695C71.098 116.695 68.6464 113.847 63.9268 115.73" stroke="#263238" stroke-width="0.366" stroke-miterlimit="10" stroke-linecap="round"/>
<path d="M73.2075 125.352L67.9407 119.805C67.9407 119.805 65.3883 117.62 61.3203 119.538" stroke="#263238" stroke-width="0.366" stroke-miterlimit="10" stroke-linecap="round"/>
<path d="M62.8177 123.815L66.5761 128.229L55.8229 136.919C55.8229 136.919 49.9477 139.835 47.7661 141.34C45.5845 142.845 33.6721 144.36 33.6721 144.36L31.4473 130.608C31.4473 130.608 38.4097 129.035 39.3313 128.157C40.2529 127.278 49.7713 116.072 51.0205 114.398C52.2697 112.724 58.6597 111.23 58.6597 111.23C58.6597 111.23 61.5181 110.297 64.7113 107.457C67.9045 104.616 72.0121 105.556 73.5601 106.985C75.1081 108.414 79.3201 112.385 80.1517 115.1C80.9833 117.814 81.3937 120.762 79.3417 120.003C75.9325 118.739 74.1793 111.608 70.0537 112.511C68.1673 112.925 63.0841 117.191 62.4145 117.738C62.4145 117.738 60.8521 121.547 62.8177 123.815Z" fill="white"/>
<path d="M62.8177 123.815L66.5761 128.229L55.8229 136.919C55.8229 136.919 49.9477 139.835 47.7661 141.34C45.5845 142.845 33.6721 144.36 33.6721 144.36L31.4473 130.608C31.4473 130.608 38.4097 129.035 39.3313 128.157C40.2529 127.278 49.7713 116.072 51.0205 114.398C52.2697 112.724 58.6597 111.23 58.6597 111.23C58.6597 111.23 61.5181 110.297 64.7113 107.457C67.9045 104.616 72.0121 105.556 73.5601 106.985C75.1081 108.414 79.3201 112.385 80.1517 115.1C80.9833 117.814 81.3937 120.762 79.3417 120.003C75.9325 118.739 74.1793 111.608 70.0537 112.511C68.1673 112.925 63.0841 117.191 62.4145 117.738C62.4145 117.738 60.8521 121.547 62.8177 123.815" stroke="#263238" stroke-width="0.366" stroke-miterlimit="10" stroke-linecap="round"/>
<path d="M91.3944 120.961C91.3877 120.868 91.3476 120.78 91.2815 120.714C91.2154 120.648 91.1276 120.607 91.0344 120.601L89.9904 120.561C89.9393 120.559 89.8884 120.567 89.8405 120.585C89.7926 120.603 89.7487 120.63 89.7112 120.665C89.6738 120.7 89.6436 120.741 89.6223 120.788C89.601 120.834 89.5891 120.885 89.5872 120.936C89.5853 120.987 89.5935 121.038 89.6113 121.085C89.6291 121.133 89.6561 121.177 89.6909 121.215C89.7256 121.252 89.7674 121.282 89.8139 121.304C89.8603 121.325 89.9105 121.337 89.9616 121.339L91.0056 121.378C91.1061 121.381 91.204 121.346 91.2791 121.279C91.3541 121.212 91.4005 121.119 91.4088 121.018C91.4061 120.999 91.4013 120.979 91.3944 120.961Z" fill="#263238" stroke="#263238" stroke-width="0.366" stroke-miterlimit="10" stroke-linecap="round"/>
<path d="M90.1917 120.928C90.1685 120.716 90.07 120.519 89.914 120.374C89.7581 120.229 89.5551 120.144 89.3421 120.136L86.3649 119.625L54.8721 117.598C54.5983 117.587 54.3252 117.631 54.0682 117.726C53.8113 117.821 53.5755 117.965 53.3744 118.151C53.1734 118.337 53.0109 118.561 52.8963 118.81C52.7817 119.059 52.7173 119.328 52.7067 119.601C52.696 119.875 52.7394 120.148 52.8343 120.405C52.9292 120.662 53.0739 120.898 53.2599 121.099C53.4459 121.3 53.6697 121.463 53.9186 121.577C54.1674 121.692 54.4363 121.756 54.7101 121.767L86.5089 122.098L89.2737 121.911C89.5089 121.92 89.7381 121.835 89.9108 121.675C90.0836 121.515 90.1859 121.293 90.1953 121.058C90.1976 121.014 90.1964 120.971 90.1917 120.928Z" fill="#FFCF23" stroke="#263238" stroke-width="0.366" stroke-miterlimit="10" stroke-linecap="round"/>
<path d="M54.872 117.598L63.9584 118.185C64.3254 118.674 64.5271 119.268 64.5342 119.879C64.5414 120.491 64.3535 121.089 63.998 121.587C63.9223 121.682 63.8418 121.773 63.7568 121.86L54.7208 121.767C54.4471 121.756 54.1781 121.692 53.9293 121.577C53.6805 121.463 53.4567 121.3 53.2706 121.099C53.0846 120.898 52.94 120.662 52.8451 120.405C52.7501 120.148 52.7068 119.875 52.7174 119.601C52.728 119.328 52.7925 119.059 52.9071 118.81C53.0216 118.561 53.1841 118.337 53.3852 118.151C53.5863 117.965 53.822 117.821 54.079 117.726C54.3359 117.631 54.6091 117.587 54.8828 117.598H54.872Z" fill="#263238" stroke="#263238" stroke-width="0.366" stroke-miterlimit="10" stroke-linecap="round"/>
<path d="M47.7656 141.34C51.6248 140.051 59.1416 134.957 61.154 134.374C63.1664 133.791 68.0912 132.862 71.3672 130.608C74.6432 128.355 77.102 126.454 78.9956 123.941C80.8892 121.428 79.0604 119.373 75.3668 120.788C71.6732 122.202 66.5432 124.791 66.5432 124.791C66.5432 124.791 63.944 125.453 61.6436 122.933" fill="white"/>
<path d="M47.7656 141.34C51.6248 140.051 59.1416 134.957 61.154 134.374C63.1664 133.791 68.0912 132.862 71.3672 130.608C74.6432 128.355 77.102 126.454 78.9956 123.941C80.8892 121.428 79.0604 119.373 75.3668 120.788C71.6732 122.202 66.5432 124.791 66.5432 124.791C66.5432 124.791 63.944 125.453 61.6436 122.933" stroke="#263238" stroke-width="0.366" stroke-miterlimit="10" stroke-linecap="round"/>
<path d="M77.6892 121.321L76.2852 122.016C76.2852 122.016 76.4148 122.113 76.9224 123.294C77.2302 124 77.354 124.773 77.2824 125.54C77.2824 125.54 79.9644 123.783 79.7736 122.44C79.7367 122.106 79.5898 121.793 79.356 121.551C79.1374 121.343 78.8588 121.208 78.5597 121.167C78.2606 121.126 77.9561 121.18 77.6892 121.321Z" fill="white" stroke="#263238" stroke-width="0.366" stroke-miterlimit="10" stroke-linecap="round"/>
<path d="M38.5857 127.646C38.5857 127.646 42.0273 132.3 42.5925 136.332C42.9452 139.031 43.1304 141.75 43.1469 144.472L32.6385 146.992C32.6385 146.992 32.1633 140.454 31.2273 136.912C30.5682 134.528 29.7504 132.191 28.7793 129.917L38.5857 127.646Z" fill="white" stroke="#263238" stroke-width="0.366" stroke-miterlimit="10" stroke-linecap="round"/>
<path d="M39.0646 135.767C38.1286 131.202 35.0146 127.822 35.0146 127.822L10.1494 131.782V159.862L39.5686 147.726C39.5686 147.726 39.997 140.332 39.0646 135.767Z" fill="#263238" stroke="#263238" stroke-width="0.366" stroke-miterlimit="10" stroke-linecap="round"/>
<path d="M32.4012 147.96C32.4055 148.18 32.344 148.396 32.2246 148.58C32.1052 148.765 31.9334 148.909 31.7313 148.995C31.5291 149.082 31.3059 149.105 31.0902 149.063C30.8745 149.021 30.6762 148.916 30.5209 148.761C30.3655 148.605 30.2602 148.407 30.2184 148.192C30.1766 147.976 30.2002 147.753 30.2862 147.55C30.3723 147.348 30.5168 147.176 30.7012 147.057C30.8857 146.938 31.1016 146.876 31.3212 146.88C31.6059 146.886 31.8774 147.002 32.0788 147.203C32.2801 147.404 32.3957 147.676 32.4012 147.96Z" fill="white"/>
<path d="M35.4893 146.65C35.4886 146.868 35.4234 147.081 35.3019 147.261C35.1804 147.442 35.0082 147.583 34.8068 147.665C34.6054 147.748 34.3841 147.77 34.1706 147.727C33.9572 147.684 33.7612 147.579 33.6075 147.424C33.4538 147.27 33.3493 147.074 33.307 146.86C33.2648 146.647 33.2868 146.425 33.3703 146.224C33.4538 146.023 33.595 145.851 33.7761 145.73C33.9572 145.61 34.17 145.545 34.3877 145.545C34.5327 145.545 34.6762 145.574 34.8101 145.629C34.944 145.685 35.0656 145.766 35.168 145.869C35.2703 145.972 35.3514 146.093 35.4065 146.228C35.4617 146.362 35.4898 146.505 35.4893 146.65Z" fill="white"/>
<path d="M70.7048 125.601L70.46 125.363" stroke="#263238" stroke-width="0.366" stroke-miterlimit="10" stroke-linecap="round"/>
<path d="M72.163 128.881C72.163 128.881 72.703 127.847 71.1514 126.073" stroke="#263238" stroke-width="0.366" stroke-miterlimit="10" stroke-linecap="round"/>
<path d="M70.6516 126.72C70.6516 126.72 70.486 127.206 71.3896 128.697" stroke="#263238" stroke-width="0.366" stroke-miterlimit="10" stroke-linecap="round"/>
<path d="M71.6416 125.536C72.2103 126.125 72.6354 126.837 72.8836 127.617" stroke="#263238" stroke-width="0.366" stroke-miterlimit="10" stroke-linecap="round"/>
</svg>
