<svg width="180" height="180" viewBox="0 0 180 180" fill="none" xmlns="http://www.w3.org/2000/svg">
<path d="M47.4919 43.5209C47.4919 43.5209 30.1147 59.9873 33.4303 82.8329C36.7459 105.679 57.0787 123.322 73.0807 138.003C89.0827 152.684 111.799 154.7 128.186 143.464C144.573 132.229 135.721 118.019 144.98 97.7621C154.239 77.5049 160.276 73.2137 155.308 52.2509C150.34 31.2882 120.601 18.0438 90.9979 23.5842C61.3951 29.1246 47.4919 43.5209 47.4919 43.5209Z" fill="#FFCF23"/>
<path opacity="0.7" d="M47.4919 43.5209C47.4919 43.5209 30.1147 59.9873 33.4303 82.8329C36.7459 105.679 57.0787 123.322 73.0807 138.003C89.0827 152.684 111.799 154.7 128.186 143.464C144.573 132.229 135.721 118.019 144.98 97.7621C154.239 77.5049 160.276 73.2137 155.308 52.2509C150.34 31.2882 120.601 18.0438 90.9979 23.5842C61.3951 29.1246 47.4919 43.5209 47.4919 43.5209Z" fill="white"/>
<path d="M122.367 39.9994H96.3682L96.631 36.2086H122.63L122.367 39.9994Z" fill="#CCCCCC"/>
<path d="M122.367 45.3094H96.3682L96.631 41.5186H122.63L122.367 45.3094Z" fill="#CCCCCC"/>
<path d="M122.367 50.623H96.3682L96.631 46.8286H122.63L122.367 50.623Z" fill="#CCCCCC"/>
<path d="M122.367 55.9331H96.3682L96.631 52.1387H122.63L122.367 55.9331Z" fill="#CCCCCC"/>
<path d="M122.367 61.243H96.3682L96.631 57.4486H122.63L122.367 61.243Z" fill="#CCCCCC"/>
<path d="M122.367 66.5529H96.3682L96.631 62.7621H122.63L122.367 66.5529Z" fill="#CCCCCC"/>
<path d="M122.367 71.8629H96.3682L96.631 68.0721H122.63L122.367 71.8629Z" fill="#CCCCCC"/>
<path d="M122.367 77.1765H96.3682L96.631 73.3821H122.63L122.367 77.1765Z" fill="#CCCCCC"/>
<path d="M122.367 82.4865H96.3682L96.631 78.6921H122.63L122.367 82.4865Z" fill="#CCCCCC"/>
<path d="M122.367 87.7966H96.3682L96.631 84.0022H122.63L122.367 87.7966Z" fill="#CCCCCC"/>
<path d="M122.367 93.1065H96.3682L96.631 89.3121H122.63L122.367 93.1065Z" fill="#CCCCCC"/>
<path d="M149.86 39.9994H123.857L124.12 36.2086H150.123L149.86 39.9994Z" fill="#CCCCCC"/>
<path d="M149.86 45.3094H123.857L124.12 41.5186H150.123L149.86 45.3094Z" fill="#CCCCCC"/>
<path d="M149.86 50.623H123.857L124.12 46.8286H150.123L149.86 50.623Z" fill="#CCCCCC"/>
<path d="M149.86 55.9331H123.857L124.12 52.1387H150.123L149.86 55.9331Z" fill="#CCCCCC"/>
<path d="M149.86 61.243H123.857L124.12 57.4486H150.123L149.86 61.243Z" fill="#CCCCCC"/>
<path d="M149.86 66.5529H123.857L124.12 62.7621H150.123L149.86 66.5529Z" fill="#CCCCCC"/>
<path d="M149.86 71.8629H123.857L124.12 68.0721H150.123L149.86 71.8629Z" fill="#CCCCCC"/>
<path d="M149.86 77.1765H123.857L124.12 73.3821H150.123L149.86 77.1765Z" fill="#CCCCCC"/>
<path d="M149.86 82.4865H123.857L124.12 78.6921H150.123L149.86 82.4865Z" fill="#CCCCCC"/>
<path d="M149.86 87.7966H123.857L124.12 84.0022H150.123L149.86 87.7966Z" fill="#CCCCCC"/>
<path d="M149.86 93.1065H123.857L124.12 89.3121H150.123L149.86 93.1065Z" fill="#CCCCCC"/>
<path d="M92.7211 36.0004H39.002V82.0876H92.7211V36.0004Z" fill="#FFCF23"/>
<path d="M90.0319 38.3046H41.6875V79.7838H90.0319V38.3046Z" fill="white"/>
<path d="M90.0329 50.8784C81.3389 57.0632 68.8865 61.1672 54.4397 67.6148C49.8874 69.6138 45.6037 72.1753 41.6885 75.2396V79.7864H90.0329V50.8784Z" fill="#FFCF23"/>
<path d="M90.0326 38.3037H70.6322C68.4722 40.1505 65.9198 42.2133 62.903 44.4237C51.8618 52.5201 56.6462 60.6237 69.8978 54.7269C76.6982 51.7065 84.269 44.7117 90.0326 38.6169V38.3037Z" fill="#FFCF23"/>
<path d="M50.041 42.9549C50.041 39.5745 45.8326 42.2349 41.707 45.6333V54.1689C45.721 50.2305 50.041 45.9789 50.041 42.9549Z" fill="#FFCF23"/>
<path d="M54.0726 56.3901C54.0726 57.1548 53.8459 57.9023 53.421 58.5381C52.9962 59.174 52.3923 59.6695 51.6859 59.9622C50.9794 60.2548 50.202 60.3314 49.452 60.1822C48.7019 60.033 48.013 59.6648 47.4723 59.124C46.9316 58.5833 46.5633 57.8944 46.4141 57.1444C46.265 56.3944 46.3415 55.617 46.6342 54.9105C46.9268 54.204 47.4224 53.6001 48.0582 53.1753C48.694 52.7504 49.4415 52.5237 50.2062 52.5237C51.2317 52.5237 52.2151 52.931 52.9402 53.6561C53.6653 54.3812 54.0726 55.3647 54.0726 56.3901Z" fill="#FFCF23"/>
<path opacity="0.75" d="M90.0329 50.8784C81.3389 57.0632 68.8865 61.1672 54.4397 67.6148C49.8874 69.6138 45.6037 72.1753 41.6885 75.2396V79.7864H90.0329V50.8784Z" fill="white"/>
<path opacity="0.75" d="M90.0326 38.3037H70.6322C68.4722 40.1505 65.9198 42.2133 62.903 44.4237C51.8618 52.5201 56.6462 60.6237 69.8978 54.7269C76.6982 51.7065 84.269 44.7117 90.0326 38.6169V38.3037Z" fill="white"/>
<g opacity="0.75">
<path opacity="0.75" d="M50.0401 42.9543C50.0401 39.5739 45.8317 42.2343 41.7061 45.6327V54.1683C45.7201 50.2299 50.0401 45.9783 50.0401 42.9543Z" fill="white"/>
</g>
<path opacity="0.75" d="M54.0726 56.3901C54.0726 57.1548 53.8459 57.9023 53.421 58.5381C52.9962 59.174 52.3923 59.6695 51.6859 59.9622C50.9794 60.2548 50.202 60.3314 49.452 60.1822C48.7019 60.033 48.013 59.6648 47.4723 59.124C46.9316 58.5833 46.5633 57.8944 46.4141 57.1444C46.265 56.3944 46.3415 55.617 46.6342 54.9105C46.9268 54.204 47.4224 53.6001 48.0582 53.1753C48.694 52.7504 49.4415 52.5237 50.2062 52.5237C51.2317 52.5237 52.2151 52.931 52.9402 53.6561C53.6653 54.3812 54.0726 55.3647 54.0726 56.3901Z" fill="white"/>
<path d="M81.6766 68.7209C81.6766 69.7406 81.3742 70.7375 80.8075 71.5853C80.2409 72.4332 79.4356 73.0939 78.4934 73.484C77.5512 73.8741 76.5145 73.976 75.5144 73.7768C74.5142 73.5775 73.5957 73.0862 72.8749 72.3649C72.154 71.6435 71.6633 70.7246 71.4648 69.7244C71.2663 68.7241 71.3689 67.6875 71.7597 66.7456C72.1504 65.8036 72.8117 64.9988 73.66 64.4327C74.5082 63.8667 75.5053 63.565 76.525 63.5657C77.2018 63.5657 77.872 63.699 78.4973 63.9582C79.1225 64.2173 79.6906 64.5971 80.169 65.0758C80.6474 65.5546 81.0268 66.1229 81.2855 66.7483C81.5442 67.3738 81.6771 68.0441 81.6766 68.7209Z" fill="white"/>
<path d="M147.071 81.4438L136.476 81.5338C136.476 81.5338 135.756 81.4438 135.601 81.9694C135.601 81.9694 133.762 86.6134 133.675 88.2766C133.589 89.9398 134.035 89.677 133.315 91.8766C132.595 94.0762 130.601 99.2314 129.463 103.436C127.933 109.085 127.534 115.082 127.436 120.914C127.436 121.85 126.86 129.914 128.318 129.914C129.528 129.914 140.677 131.394 140.81 129.245C141.347 120.677 139.799 112.307 142.772 103.976C143.928 100.736 145.253 97.3234 146.236 93.9394C147.218 90.5554 147.388 87.0346 148.036 83.5714C148.471 81.181 147.071 81.4438 147.071 81.4438Z" fill="#263238"/>
<path d="M148.111 82.4949C148.007 81.2709 147.071 81.4437 147.071 81.4437L136.476 81.5337C136.476 81.5337 135.756 81.4437 135.601 81.9693C135.601 81.9693 133.762 86.6133 133.675 88.2765C133.649 88.7159 133.661 89.1567 133.711 89.5941L133.935 89.9541C133.935 89.9541 134.295 93.0177 138.489 93.1941C142.683 93.3705 145.059 91.4409 145.933 89.5941C146.808 87.7473 147.161 84.7773 147.859 83.0241C147.934 82.8436 148.019 82.6669 148.111 82.4949Z" fill="#FFCF23"/>
<path d="M145.653 85.9152C144.933 88.4748 145.368 89.184 144.659 93.5904C143.95 97.9968 141.39 102.95 140.393 107.519C139.396 112.087 139.828 128.125 139.968 128.838C140.024 129.216 140.044 129.598 140.029 129.979C140.508 129.799 140.796 129.554 140.818 129.22C141.354 120.652 139.806 112.282 142.78 103.951C143.935 100.711 145.26 97.2984 146.243 93.9144C147.226 90.5304 147.395 87.0096 148.043 83.5464C148.313 82.1064 147.888 81.6348 147.517 81.4944C146.712 82.8836 146.086 84.369 145.653 85.9152Z" fill="#FFCF23"/>
<path d="M125.187 150.582L125.115 150.525V140.632H126.537V134.379H121.281V140.632H122.699V150.694L110.121 154.704V155.698C110.121 155.999 110.241 156.289 110.454 156.502C110.668 156.715 110.957 156.835 111.259 156.835C111.56 156.835 111.85 156.715 112.063 156.502C112.276 156.289 112.396 155.999 112.396 155.698V155.557L122.915 154.333V155.842C122.915 156.105 123.02 156.358 123.207 156.544C123.393 156.731 123.646 156.835 123.909 156.835C124.173 156.835 124.425 156.731 124.612 156.544C124.798 156.358 124.903 156.105 124.903 155.842V154.283L135.847 155.557V155.698C135.847 155.999 135.967 156.289 136.18 156.502C136.393 156.715 136.683 156.835 136.984 156.835C137.286 156.835 137.575 156.715 137.789 156.502C138.002 156.289 138.122 155.999 138.122 155.698V154.704L125.187 150.582Z" fill="#263238"/>
<path d="M140.184 128.28H108.947C108.152 128.28 107.507 128.924 107.507 129.72V134.094C107.507 134.889 108.152 135.534 108.947 135.534H140.184C140.979 135.534 141.624 134.889 141.624 134.094V129.72C141.624 128.924 140.979 128.28 140.184 128.28Z" fill="#263238"/>
<path d="M17.2233 81.4438L27.8181 81.5338C27.8181 81.5338 28.5381 81.4438 28.6965 81.9694C28.6965 81.9694 30.5361 86.6134 30.6225 88.2766C30.7089 89.9398 30.2625 89.677 30.9825 91.8766C31.7025 94.0762 33.6969 99.2314 34.8345 103.436C36.3681 109.085 36.7641 115.082 36.8613 120.914C36.8613 121.85 37.4373 129.914 35.9793 129.914C34.7733 129.914 23.6241 131.394 23.4873 129.245C22.9545 120.677 24.4989 112.307 21.5253 103.976C20.3697 100.736 19.0449 97.3234 18.0657 93.9394C17.0865 90.5554 16.9137 87.0346 16.2657 83.5714C15.8409 81.181 17.2233 81.4438 17.2233 81.4438Z" fill="#263238"/>
<path d="M16.2002 82.4949C16.3046 81.2709 17.237 81.4437 17.237 81.4437L27.8318 81.5337C27.8318 81.5337 28.5518 81.4437 28.7102 81.9693C28.7102 81.9693 30.5498 86.6133 30.6362 88.2765C30.6596 88.716 30.6464 89.1567 30.5966 89.5941L30.3734 89.9541C30.3734 89.9541 30.0134 93.0177 25.8194 93.1941C21.6254 93.3705 19.2386 91.4409 18.3602 89.5905C17.4818 87.7401 17.1362 84.7737 16.4342 83.0205C16.3665 82.8409 16.2883 82.6654 16.2002 82.4949Z" fill="#FFCF23"/>
<path d="M18.6411 85.9152C19.3611 88.4748 18.9255 89.184 19.6347 93.5904C20.3439 97.9968 22.9071 102.95 23.9007 107.519C24.8943 112.087 24.4803 128.125 24.3255 128.838C24.2716 129.216 24.2511 129.598 24.2643 129.979C23.7891 129.799 23.4975 129.554 23.4759 129.22C22.9431 120.652 24.4875 112.282 21.5139 103.951C20.3583 100.711 19.0335 97.2984 18.0543 93.9144C17.0751 90.5304 16.9023 87.0096 16.2543 83.5464C15.9879 82.1064 16.4127 81.6348 16.7799 81.4944C17.5856 82.883 18.211 84.3685 18.6411 85.9152Z" fill="#FFCF23"/>
<path d="M39.1072 150.582L39.1792 150.525V140.632H37.7392V134.379H42.9988V140.632H41.5768V150.694L54.1552 154.704V155.698C54.1552 155.999 54.0353 156.289 53.822 156.502C53.6087 156.715 53.3193 156.835 53.0176 156.835C52.7159 156.835 52.4265 156.715 52.2132 156.502C51.9998 156.289 51.88 155.999 51.88 155.698V155.557L41.4004 154.333V155.842C41.3851 156.095 41.2736 156.334 41.0886 156.508C40.9036 156.682 40.6591 156.779 40.405 156.779C40.1509 156.779 39.9064 156.682 39.7214 156.508C39.5364 156.334 39.4249 156.095 39.4096 155.842V154.283L28.4404 155.557V155.698C28.4491 155.852 28.4262 156.007 28.373 156.152C28.3199 156.298 28.2376 156.431 28.1313 156.543C28.025 156.656 27.8968 156.745 27.7547 156.806C27.6125 156.868 27.4594 156.899 27.3046 156.899C27.1498 156.899 26.9967 156.868 26.8545 156.806C26.7124 156.745 26.5842 156.656 26.4779 156.543C26.3716 156.431 26.2893 156.298 26.2362 156.152C26.183 156.007 26.1601 155.852 26.1688 155.698V154.704L39.1072 150.582Z" fill="#263238"/>
<path d="M24.1099 135.53H55.3471C56.1424 135.53 56.7871 134.886 56.7871 134.09V129.716C56.7871 128.921 56.1424 128.276 55.3471 128.276H24.1099C23.3146 128.276 22.6699 128.921 22.6699 129.716V134.09C22.6699 134.886 23.3146 135.53 24.1099 135.53Z" fill="#263238"/>
<path d="M133.921 107.907H48.3848V157.069H133.921V107.907Z" fill="#CCCCCC"/>
<path d="M133.856 109.089H48.4277V110.449H133.856V109.089Z" fill="#263238"/>
<path d="M134.553 107.101H46.4795V109.25H134.553V107.101Z" fill="#CCCCCC"/>
<path d="M71.1577 102.83C71.1577 102.83 72.1657 107.334 72.1081 108.59C72.0505 109.846 69.6781 113.212 69.6169 112.442C69.6371 111.789 69.7787 111.146 70.0345 110.545C70.0345 110.545 69.2029 111.672 68.9077 111.625C68.6125 111.578 69.1453 110.023 69.1453 110.023C69.1453 110.023 68.2561 110.912 67.9573 110.743C67.6585 110.574 68.6089 109.26 68.6089 109.26C68.6089 109.26 67.5289 110.386 67.4857 110.03C67.4425 109.674 68.4325 108.194 68.4325 108.194C68.4325 108.194 67.4245 106.059 67.3525 105.17C67.359 104.549 67.5661 103.947 67.9429 103.453L71.1577 102.83Z" fill="white"/>
<path d="M71.1577 102.831C71.1577 102.831 72.1657 107.334 72.1081 108.591C72.0505 109.847 69.6781 113.213 69.6169 112.443C69.6371 111.79 69.7787 111.147 70.0345 110.546C70.0345 110.546 69.2029 111.672 68.9077 111.626C68.6125 111.579 69.1453 110.024 69.1453 110.024C69.1453 110.024 68.2561 110.913 67.9573 110.744C67.6585 110.574 68.6089 109.26 68.6089 109.26C68.6089 109.26 67.5289 110.387 67.4857 110.031C67.4425 109.674 68.4325 108.195 68.4325 108.195C68.4325 108.195 67.4245 106.06 67.3525 105.171C67.359 104.55 67.5661 103.947 67.9429 103.454L71.1577 102.831Z" fill="#D9D9D9"/>
<path d="M71.1577 102.83C71.1577 102.83 72.1657 107.334 72.1081 108.59C72.0505 109.846 69.6781 113.212 69.6169 112.442C69.6371 111.789 69.7787 111.146 70.0345 110.545C70.0345 110.545 69.2029 111.672 68.9077 111.625C68.6125 111.578 69.1453 110.023 69.1453 110.023C69.1453 110.023 68.2561 110.912 67.9573 110.743C67.6585 110.574 68.6089 109.26 68.6089 109.26C68.6089 109.26 67.5289 110.386 67.4857 110.03C67.4425 109.674 68.4325 108.194 68.4325 108.194C68.4325 108.194 67.4245 106.059 67.3525 105.17C67.359 104.549 67.5661 103.947 67.9429 103.453L71.1577 102.83Z" stroke="#263238" stroke-width="0.366" stroke-linecap="round" stroke-linejoin="round"/>
<path d="M70.9192 102.83C70.9192 102.83 71.6392 105.973 71.5744 106.862C71.5096 107.751 70.624 110.358 69.9724 109.882C69.3208 109.407 70.3864 107.632 70.3864 107.632C70.3864 107.632 68.5576 106.347 68.1364 105.141C67.7152 103.935 67.9564 103.424 67.9564 103.424L70.9192 102.83Z" fill="white"/>
<path d="M70.9192 102.831C70.9192 102.831 71.6392 105.974 71.5744 106.863C71.5096 107.752 70.624 110.358 69.9724 109.883C69.3208 109.408 70.3864 107.633 70.3864 107.633C70.3864 107.633 68.5576 106.348 68.1364 105.142C67.7152 103.936 67.9564 103.425 67.9564 103.425L70.9192 102.831Z" fill="#D9D9D9"/>
<path d="M70.9192 102.83C70.9192 102.83 71.6392 105.973 71.5744 106.862C71.5096 107.751 70.624 110.358 69.9724 109.882C69.3208 109.407 70.3864 107.632 70.3864 107.632C70.3864 107.632 68.5576 106.347 68.1364 105.141C67.7152 103.935 67.9564 103.424 67.9564 103.424L70.9192 102.83Z" stroke="#263238" stroke-width="0.366" stroke-linecap="round" stroke-linejoin="round"/>
<path d="M68.7492 88.1024L71.2728 103.132L67.716 103.935L64.1592 92.3468L68.7492 88.1024Z" fill="#263238" stroke="#263238" stroke-width="0.366" stroke-linecap="round" stroke-linejoin="round"/>
<path d="M67.7163 95.4469C67.7163 95.4469 67.9467 113.346 68.2887 118.167C68.6307 122.987 67.3707 129.413 66.2259 131.249C65.0811 133.085 60.0267 144.569 60.2571 145.249C60.4875 145.93 61.5207 148.003 61.5207 148.576V150.984C61.5207 150.984 67.2555 154.771 67.7163 154.771C68.1771 154.771 68.7495 155.689 67.6011 156.381C66.4527 157.072 53.6007 157.068 53.0283 156.607C52.6508 156.268 52.3731 155.833 52.2255 155.347C52.2255 155.347 50.3895 156.035 50.5047 154.314C50.6199 152.593 52.6827 145.249 52.6827 145.249C52.6827 145.249 51.4227 137.214 51.8799 132.052C52.3371 126.889 53.9463 120.69 53.9463 119.43C53.9463 118.17 52.3407 109.789 52.1103 108.414C51.8799 107.039 48.5535 103.133 50.0439 100.037C51.5343 96.9409 52.6827 92.0017 53.1435 91.6597C53.6043 91.3177 59.7999 91.0837 62.3235 91.6597C64.8471 92.2357 67.6011 92.2321 67.7163 95.4469Z" fill="#263238" stroke="#263238" stroke-width="0.366" stroke-linecap="round" stroke-linejoin="round"/>
<path d="M56.3399 59.3671C56.3399 59.3671 54.3779 61.1239 54.0395 61.7323C53.7011 62.3407 49.5827 68.2123 49.5143 72.4099C49.4459 76.6075 52.5599 89.3011 52.5599 89.3011L47.8799 101.206L49.2335 101.746L50.5835 100.26V102.492C50.5835 102.492 52.1387 103.91 56.1923 105.26C60.2459 106.61 65.4515 105.058 65.4515 105.058L67.0031 95.1799V104.925L68.8283 103.708L68.9759 87.4795C68.9759 87.4795 70.4627 78.7639 70.4627 76.3195C70.4627 73.8751 66.3407 66.2395 64.5155 64.0219C62.6903 61.8043 59.6483 59.9683 58.7555 59.2915C57.8627 58.6147 56.3399 59.3671 56.3399 59.3671Z" fill="#263238"/>
<path opacity="0.17" d="M56.3399 59.3675C56.3399 59.3675 54.3779 61.1243 54.0395 61.7327C53.7011 62.3411 49.5827 68.2127 49.5143 72.4103C49.4459 76.6079 52.5599 89.3015 52.5599 89.3015L47.8799 101.207L49.2335 101.747L50.5835 100.26V102.492C50.5835 102.492 52.1387 103.91 56.1923 105.26C60.2459 106.61 65.4515 105.059 65.4515 105.059L67.0031 95.1803V104.925L68.8283 103.709L68.9759 87.4799C68.9759 87.4799 70.4627 78.7643 70.4627 76.3199C70.4627 73.8755 66.3407 66.2399 64.5155 64.0223C62.6903 61.8047 59.6483 59.9687 58.7555 59.2919C57.8627 58.6151 56.3399 59.3675 56.3399 59.3675Z" fill="white"/>
<path d="M50.5654 73.7568C50.5654 73.7568 53.0206 75.4956 54.655 76.1076" stroke="#263238" stroke-width="0.366" stroke-linecap="round" stroke-linejoin="round"/>
<path d="M51.2812 75.5997C51.2812 75.5997 54.0424 76.3197 55.4716 76.3197" stroke="#263238" stroke-width="0.366" stroke-linecap="round" stroke-linejoin="round"/>
<path d="M55.2705 91.9509L63.0393 92.8725L62.5281 94.5069L55.3713 93.6897" stroke="#263238" stroke-width="0.366" stroke-linecap="round" stroke-linejoin="round"/>
<path d="M56.3399 59.3671C56.3399 59.3671 54.3779 61.1239 54.0395 61.7323C53.7011 62.3407 49.5827 68.2123 49.5143 72.4099C49.4459 76.6075 52.5599 89.3011 52.5599 89.3011L47.8799 101.206L49.2335 101.746L50.5835 100.26V102.492C50.5835 102.492 52.1387 103.91 56.1923 105.26C60.2459 106.61 65.4515 105.058 65.4515 105.058L67.0031 95.1799V104.925L68.8283 103.708L68.9759 87.4795C68.9759 87.4795 70.4627 78.7639 70.4627 76.3195C70.4627 73.8751 66.3407 66.2395 64.5155 64.0219C62.6903 61.8043 59.6483 59.9683 58.7555 59.2915C57.8627 58.6147 56.3399 59.3671 56.3399 59.3671Z" stroke="#263238" stroke-width="0.366" stroke-linecap="round" stroke-linejoin="round"/>
<path d="M55.9326 59.7601L63.435 67.8709L67.827 76.2517C67.827 76.2517 66.8802 70.0345 66.0702 68.3317C65.2602 66.6289 61.6098 62.4097 61.1994 61.4629C60.789 60.5161 55.9326 59.7601 55.9326 59.7601Z" fill="white" stroke="#263238" stroke-width="0.366" stroke-linecap="round" stroke-linejoin="round"/>
<path d="M65.7504 72.2985L67.8276 76.2585C67.8276 76.2585 67.1832 72.0213 66.4992 69.5913L66.0708 68.3493C65.4957 67.3404 64.8433 66.3775 64.1196 65.4693L62.9424 65.2354L63.4356 67.885L64.9548 69.1269L65.7504 72.2985Z" fill="#263238" stroke="#263238" stroke-width="0.366" stroke-linecap="round" stroke-linejoin="round"/>
<path d="M63.7484 62.8167L64.1372 63.2667L65.3576 64.7067L66.0776 68.3642L62.9492 65.243C62.9492 65.243 63.3596 63.3603 63.7484 62.8167Z" fill="white" stroke="#263238" stroke-width="0.366" stroke-linecap="round" stroke-linejoin="round"/>
<path d="M67.2875 47.743C67.2875 47.743 68.9291 49.003 69.1343 50.2198C69.3395 51.4366 68.7275 52.7902 68.7959 53.2618C68.8643 53.7334 70.0775 54.817 70.0127 55.357C69.9479 55.897 68.9327 56.0986 68.9327 56.0986C68.9327 56.0986 67.8311 60.109 67.5611 60.7786C67.2911 61.4482 65.9375 61.2502 64.9259 61.117L63.1007 66.517L57.0815 59.4358L58.0283 56.5954C58.0283 56.5954 55.4615 53.4886 55.2563 50.1766C55.0511 46.8646 57.6899 44.5678 61.4735 44.0962C65.2571 43.6246 68.4359 45.4462 68.8391 46.1914C69.2423 46.9366 67.2875 47.743 67.2875 47.743Z" fill="white"/>
<path d="M67.2875 47.7438C67.2875 47.7438 68.9291 49.0038 69.1343 50.2206C69.3395 51.4374 68.7275 52.791 68.7959 53.2626C68.8643 53.7342 70.0775 54.8178 70.0127 55.3578C69.9479 55.8978 68.9327 56.0994 68.9327 56.0994C68.9327 56.0994 67.8311 60.1098 67.5611 60.7794C67.2911 61.449 65.9375 61.251 64.9259 61.1178L63.1007 66.5178L57.0815 59.4366L58.0283 56.5962C58.0283 56.5962 55.4615 53.4894 55.2563 50.1774C55.0511 46.8654 57.6899 44.5686 61.4735 44.097C65.2571 43.6254 68.4359 45.447 68.8391 46.1922C69.2423 46.9374 67.2875 47.7438 67.2875 47.7438Z" fill="#D9D9D9"/>
<path d="M60.2746 63.2024C61.2898 62.9972 62.9926 62.6444 64.5262 62.2988L64.9222 61.1252C65.7646 61.2368 66.8446 61.3952 67.3342 61.0532C66.1822 60.578 63.331 59.7464 62.7478 58.6772C62.0278 57.3488 64.5478 53.4824 64.5478 51.5492C64.5478 49.616 62.1322 47.4416 62.1322 47.4416C60.9694 46.3364 58.849 46.0016 56.9662 46.0016C56.3735 46.5191 55.9095 47.1675 55.6108 47.8955C55.3121 48.6234 55.187 49.4109 55.2454 50.1956C55.4506 53.5076 58.0174 56.6144 58.0174 56.6144L57.0706 59.4548L60.2746 63.2024Z" fill="#B8B8B8"/>
<path d="M67.2875 47.743C67.2875 47.743 68.9291 49.003 69.1343 50.2198C69.3395 51.4366 68.7275 52.7902 68.7959 53.2618C68.8643 53.7334 70.0775 54.817 70.0127 55.357C69.9479 55.897 68.9327 56.0986 68.9327 56.0986C68.9327 56.0986 67.8311 60.109 67.5611 60.7786C67.2911 61.4482 65.9375 61.2502 64.9259 61.117L63.1007 66.517L57.0815 59.4358L58.0283 56.5954C58.0283 56.5954 55.4615 53.4886 55.2563 50.1766C55.0511 46.8646 57.6899 44.5678 61.4735 44.0962C65.2571 43.6246 68.4359 45.4462 68.8391 46.1914C69.2423 46.9366 67.2875 47.743 67.2875 47.743Z" stroke="#263238" stroke-width="0.366" stroke-linecap="round" stroke-linejoin="round"/>
<path d="M67.2871 47.7431C67.2871 47.7431 69.2455 46.9331 68.8387 46.1915C68.4319 45.4499 65.2567 43.6211 61.4731 44.0963C57.6895 44.5715 55.0543 46.8647 55.2559 50.1767C55.4575 53.4887 58.0279 56.5955 58.0279 56.5955L57.8839 57.0275C59.2843 57.7115 60.7315 56.5955 60.7315 56.5955C60.4673 56.7287 60.1675 56.7744 59.8756 56.7259C59.5837 56.6773 59.3148 56.5371 59.1079 56.3255C58.2979 55.5839 58.2295 53.2187 59.2447 53.0135C60.2599 52.8083 60.9331 53.2187 60.9331 53.9603C60.9331 54.7019 61.1347 54.2303 61.6783 54.1619C62.2219 54.0935 61.7431 52.4735 62.0815 52.2035C62.6286 51.8649 63.1092 51.4294 63.4999 50.9183C64.1083 50.1083 62.3515 49.4351 62.1499 48.6899C61.9483 47.9447 67.2871 47.7431 67.2871 47.7431Z" fill="#263238" stroke="#263238" stroke-width="0.366" stroke-linecap="round" stroke-linejoin="round"/>
<path d="M67.7694 53.0206L66.5166 53.4382H67.6506" stroke="#263238" stroke-width="0.366" stroke-linecap="round" stroke-linejoin="round"/>
<path d="M68.2482 51.7679C68.2482 51.7679 67.7118 50.9939 67.1142 51.3503C66.5166 51.7067 66.459 51.9479 66.459 51.9479" stroke="#263238" stroke-width="0.366" stroke-linecap="round" stroke-linejoin="round"/>
<path d="M66.96 57.1965C67.3263 57.447 67.7738 57.5499 68.2128 57.4845" stroke="#263238" stroke-width="0.366" stroke-linecap="round" stroke-linejoin="round"/>
<path d="M56.8115 58.1506L64.3787 65.5846L63.7055 68.7598L55.6631 60.109L56.8115 58.1506Z" fill="white" stroke="#263238" stroke-width="0.366" stroke-linecap="round" stroke-linejoin="round"/>
<path d="M85.8814 86.5725C85.8814 86.5725 83.2174 84.9885 82.7854 85.1325C82.3534 85.2765 78.1774 88.3005 78.4654 89.0205C78.7534 89.7405 80.9854 90.6765 82.2814 91.1805C83.5774 91.6845 86.2414 90.6045 86.2414 90.6045L85.8814 86.5725Z" fill="white" stroke="#263238" stroke-width="0.366" stroke-linecap="round" stroke-linejoin="round"/>
<path d="M78.1203 85.9967C78.1203 85.9967 80.4243 84.7007 80.7843 84.7007C81.1443 84.7007 83.2323 86.5727 83.2323 86.5727L82.3683 87.8687C82.3683 87.8687 85.1043 89.2367 84.8163 89.7407C84.5283 90.2447 83.4483 91.0367 82.2963 91.1807C81.1443 91.3247 77.9043 89.2367 77.9043 89.2367L78.1203 85.9967Z" fill="white"/>
<path d="M78.1193 85.9975C78.1193 85.9975 80.4233 84.7015 80.7833 84.7015C81.1433 84.7015 83.2313 86.5735 83.2313 86.5735L82.3673 87.8695C82.3673 87.8695 85.1033 89.2375 84.8153 89.7415C84.5273 90.2455 83.4473 91.0375 82.2953 91.1815C81.1433 91.3255 77.9033 89.2375 77.9033 89.2375L78.1193 85.9975Z" fill="#D9D9D9"/>
<path d="M78.1203 85.9967C78.1203 85.9967 80.4243 84.7007 80.7843 84.7007C81.1443 84.7007 83.2323 86.5727 83.2323 86.5727L82.3683 87.8687C82.3683 87.8687 85.1043 89.2367 84.8163 89.7407C84.5283 90.2447 83.4483 91.0367 82.2963 91.1807C81.1443 91.3247 77.9043 89.2367 77.9043 89.2367L78.1203 85.9967Z" stroke="#263238" stroke-width="0.366" stroke-linecap="round" stroke-linejoin="round"/>
<path d="M76.5221 85.4207L78.5381 85.7807L77.8901 89.2367L76.1621 88.6607L76.5221 85.4207Z" fill="white" stroke="#263238" stroke-width="0.366" stroke-linecap="round" stroke-linejoin="round"/>
<path d="M53.1253 65.3324C53.1253 65.3324 51.1813 69.0764 50.9653 70.9484C50.7493 72.8204 58.6693 87.7244 59.2453 88.2284C59.8213 88.7324 76.6657 89.2364 76.6657 89.2364L77.3857 85.5644L62.9857 81.4604L58.0897 66.4124" fill="#263238"/>
<path opacity="0.17" d="M53.1253 65.3317C53.1253 65.3317 51.1813 69.0757 50.9653 70.9477C50.7493 72.8197 58.6693 87.7237 59.2453 88.2277C59.8213 88.7317 76.6657 89.2357 76.6657 89.2357L77.3857 85.5637L62.9857 81.4597L58.0897 66.4117" fill="white"/>
<path d="M53.1253 65.3324C53.1253 65.3324 51.1813 69.0764 50.9653 70.9484C50.7493 72.8204 58.6693 87.7244 59.2453 88.2284C59.8213 88.7324 76.6657 89.2364 76.6657 89.2364L77.3857 85.5644L62.9857 81.4604L58.0897 66.4124" stroke="#263238" stroke-width="0.366" stroke-linecap="round" stroke-linejoin="round"/>
<path d="M83.3616 85.4925C83.3616 85.4925 82.3536 84.6285 81.9936 85.6365C81.6336 86.6445 79.4016 89.0925 80.4096 89.1645C81.4176 89.2365 83.2896 87.1485 83.2896 87.1485" fill="white"/>
<path d="M83.3616 85.4925C83.3616 85.4925 82.3536 84.6285 81.9936 85.6365C81.6336 86.6445 79.4016 89.0925 80.4096 89.1645C81.4176 89.2365 83.2896 87.1485 83.2896 87.1485" stroke="#263238" stroke-width="0.366" stroke-linecap="round" stroke-linejoin="round"/>
<path d="M78.8976 89.5247C78.8976 89.5247 78.6384 90.7379 79.2576 91.2527C79.6932 91.6127 79.938 90.6047 79.8336 89.8847C79.7292 89.1647 79.1136 88.9487 78.8976 89.5247Z" fill="white" stroke="#263238" stroke-width="0.366" stroke-linecap="round" stroke-linejoin="round"/>
<path d="M79.92 89.8129C79.92 89.8129 79.6608 91.0261 80.28 91.5409C80.7156 91.9009 80.9604 90.8929 80.856 90.1729C80.7516 89.4529 80.1216 89.2369 79.92 89.8129Z" fill="white" stroke="#263238" stroke-width="0.366" stroke-linecap="round" stroke-linejoin="round"/>
<path d="M80.9142 90.2447C80.9142 90.2447 80.655 91.4579 81.2742 91.9727C81.7098 92.3327 81.9546 91.3247 81.8502 90.6047C81.7458 89.8847 81.1302 89.6687 80.9142 90.2447Z" fill="white" stroke="#263238" stroke-width="0.366" stroke-linecap="round" stroke-linejoin="round"/>
<path d="M81.9106 90.8314C81.9106 90.8314 81.673 91.6486 82.2418 91.9942C82.6413 92.239 82.8681 91.5586 82.7709 91.0726C82.6737 90.5866 82.1086 90.4426 81.9106 90.8314Z" fill="white" stroke="#263238" stroke-width="0.366" stroke-linecap="round" stroke-linejoin="round"/>
<path d="M85.8818 86.5726L86.0978 91.1806L87.6818 90.7486L87.3218 86.5006L85.8818 86.5726Z" stroke="#263238" stroke-width="0.366" stroke-linecap="round" stroke-linejoin="round"/>
<path d="M86.9619 86.141L87.6819 91.613L99.7059 90.317L99.9939 83.189L86.9619 86.141Z" fill="#263238" stroke="#263238" stroke-width="0.366" stroke-linecap="round" stroke-linejoin="round"/>
<path d="M65.88 107.953C65.88 107.953 63.6984 122.526 63.6984 127.461C63.6984 132.397 60.372 140.659 60.2568 145.249" stroke="white" stroke-width="0.366" stroke-linecap="round" stroke-linejoin="round"/>
<path d="M53.0284 156.6C53.6008 157.061 66.4528 157.061 67.6012 156.373C68.7496 155.685 68.1736 154.764 67.7164 154.764C67.2592 154.764 61.5208 150.977 61.5208 150.977C61.5208 150.977 58.4212 153.389 56.7004 153.961C54.9796 154.533 52.2256 154.649 52.2256 154.649V155.34C52.3732 155.825 52.6508 156.261 53.0284 156.6Z" fill="white" stroke="#263238" stroke-width="0.366" stroke-linecap="round" stroke-linejoin="round"/>
<path d="M67.601 156.38C68.2058 156.02 68.321 155.588 68.249 155.268C66.5612 155.601 64.8465 155.781 63.1262 155.804C59.6594 155.898 54.2054 155.685 52.3262 155.606C52.4818 155.993 52.7289 156.336 53.0462 156.607C53.6006 157.068 66.4526 157.068 67.601 156.38Z" fill="white" stroke="#263238" stroke-width="0.366" stroke-linecap="round" stroke-linejoin="round"/>
<path d="M51.8905 155.437L52.2253 154.656L52.6825 145.249C52.6825 145.249 50.6161 152.593 50.5045 154.314C50.4181 155.566 51.3685 155.541 51.8905 155.437Z" fill="#263238" stroke="#263238" stroke-width="0.366" stroke-linecap="round" stroke-linejoin="round"/>
<path d="M101.451 105.083C101.451 105.083 100.306 122.183 101.451 129.067C102.596 135.95 105.48 147.888 105.926 149.378C106.207 150.268 106.329 151.2 106.286 152.132L112.712 153.05C112.712 153.05 110.761 130.445 110.761 127.807C110.761 125.168 112.942 105.429 112.942 105.429L101.451 105.083Z" fill="#263238" stroke="#263238" stroke-width="0.366" stroke-linecap="round" stroke-linejoin="round"/>
<path d="M106.272 152.132C106.272 152.132 99.2733 155.116 98.4669 155.689C97.6605 156.261 100.191 157.068 103.287 157.068C106.383 157.068 109.486 156.708 109.486 156.708L110.746 156.02L110.862 156.823H114.188C114.188 156.823 114.764 154.069 114.548 153.381C114.384 152.911 114.193 152.45 113.976 152.002L106.272 152.132Z" fill="#263238" stroke="#263238" stroke-width="0.366" stroke-linecap="round" stroke-linejoin="round"/>
<path d="M100.418 103.709C100.418 103.709 100.994 120.117 102.369 125.971C103.744 131.825 106.156 146.052 106.156 147.542C106.165 148.394 106.05 149.243 105.814 150.062L105.354 151.56C105.432 151.917 105.553 152.264 105.714 152.593C105.714 152.593 108.694 153.281 110.646 153.281C111.865 153.27 113.077 153.087 114.246 152.737C114.246 152.737 114.307 149.137 114.422 147.427C114.537 145.717 113.965 134.69 113.965 132.051C113.965 129.413 113.274 127.919 113.274 124.707C113.274 121.496 112.701 112.889 112.816 111.51C112.932 110.131 114.537 108.63 114.883 106.92C115.228 105.21 115.57 103.363 115.57 103.363L100.418 103.709Z" fill="#263238" stroke="#263238" stroke-width="0.366" stroke-linecap="round" stroke-linejoin="round"/>
<path d="M101.793 120.96C101.793 120.96 105.001 143.212 105.803 144.616C106.282 145.512 106.411 146.554 106.163 147.539" stroke="white" stroke-width="0.366" stroke-linecap="round" stroke-linejoin="round"/>
<path d="M97.6647 90.7413C97.6647 90.7413 97.2363 95.1297 97.2363 98.4849C97.2363 100.357 97.2183 102.805 97.2003 104.576C97.1952 105.305 97.4438 106.013 97.9036 106.578C98.3634 107.144 99.0057 107.532 99.7203 107.676C100.474 107.841 101.242 107.934 102.013 107.953L99.3171 91.2561C99.3171 91.2561 98.0967 89.1933 97.6647 90.7413Z" fill="#263238" stroke="#263238" stroke-width="0.366" stroke-linecap="round" stroke-linejoin="round"/>
<path d="M110.405 60.8402C111.062 61.1862 111.662 61.6319 112.183 62.1614C112.643 62.7653 113.05 63.4072 113.4 64.0802C113.4 64.0802 118.278 69.7034 118.393 70.2758C118.508 70.8482 115.639 88.9238 115.639 88.9238L118.908 106.02C118.908 106.02 113.631 108.947 109.613 109.12C106.787 109.242 102.535 108.339 100.253 107.791C99.7988 107.684 99.39 107.436 99.0844 107.083C98.7788 106.731 98.5919 106.291 98.5501 105.826C98.3269 103.421 97.9093 98.6258 97.6645 94.0862C97.3837 88.8122 98.1829 78.365 98.7445 74.693C99.3061 71.021 101.099 66.0314 102.474 63.965C103.849 61.8986 107.64 59.7602 110.405 60.8402Z" fill="#263238" stroke="#263238" stroke-width="0.366" stroke-linecap="round" stroke-linejoin="round"/>
<path d="M113.4 64.0798C113.053 63.4161 112.65 62.7826 112.197 62.1862C111.676 61.6567 111.076 61.211 110.419 60.865C108.129 59.9614 105.134 61.2718 103.395 62.9278C103.165 63.439 101.35 67.579 100.49 70.963C99.5721 74.563 99.6873 79.1134 99.6873 79.1134C99.6873 79.1134 102.729 75.211 106.858 70.621C108.92 68.3268 111.172 66.2108 113.59 64.2958L113.4 64.0798Z" fill="#263238"/>
<path opacity="0.17" d="M113.4 64.0793C113.053 63.4156 112.65 62.7821 112.197 62.1857C111.676 61.6562 111.076 61.2106 110.419 60.8645C108.129 59.9609 105.134 61.2713 103.395 62.9273C103.165 63.4385 101.35 67.5785 100.49 70.9625C99.5721 74.5625 99.6873 79.1129 99.6873 79.1129C99.6873 79.1129 102.729 75.2105 106.858 70.6205C108.92 68.3263 111.172 66.2103 113.59 64.2953L113.4 64.0793Z" fill="white"/>
<path d="M113.4 64.0798C113.053 63.4161 112.65 62.7826 112.197 62.1862C111.676 61.6567 111.076 61.211 110.419 60.865C108.129 59.9614 105.134 61.2718 103.395 62.9278C103.165 63.439 101.35 67.579 100.49 70.963C99.5721 74.563 99.6873 79.1134 99.6873 79.1134C99.6873 79.1134 102.729 75.211 106.858 70.621C108.92 68.3268 111.172 66.2108 113.59 64.2958L113.4 64.0798Z" stroke="#263238" stroke-width="0.366" stroke-linecap="round" stroke-linejoin="round"/>
<path d="M103.004 65.567C103.004 65.567 101.452 70.4306 100.98 71.8058C100.509 73.181 100.462 75.3374 100.462 75.3374C100.462 75.3374 106.272 66.6434 107.691 65.1818C109.109 63.7202 110.963 61.4378 110.963 61.4378L109.714 61.0778L103.004 65.567Z" fill="white" stroke="#263238" stroke-width="0.366" stroke-linecap="round" stroke-linejoin="round"/>
<path d="M103.432 63.8024C103.432 63.8024 102.744 65.8256 102.744 65.9624C102.744 66.0992 102.571 68.0288 102.571 68.0288L105.023 64.7132L103.432 63.8024Z" fill="white" stroke="#263238" stroke-width="0.366" stroke-linecap="round" stroke-linejoin="round"/>
<path d="M109.67 59.7601L102.96 65.2249L103.993 68.2345L110.876 61.2217L109.67 59.7601Z" fill="white" stroke="#263238" stroke-width="0.366" stroke-linecap="round" stroke-linejoin="round"/>
<path d="M108.803 103.104C108.803 103.104 107.849 105.476 107.564 106.254C107.28 107.031 107.424 110.077 107.46 110.397C107.496 110.718 108.061 110.786 108.061 110.786C108.061 110.786 108.238 113.227 108.45 113.306C108.671 113.361 108.896 113.396 109.123 113.41C109.123 113.41 109.512 114.652 110.009 114.544C110.158 114.499 110.291 114.411 110.391 114.291C110.491 114.172 110.555 114.026 110.574 113.871C110.737 113.886 110.902 113.859 111.051 113.79C111.2 113.722 111.328 113.616 111.424 113.482C111.626 113.185 111.793 112.865 111.92 112.528C111.92 112.528 112.77 112.104 112.838 111.783C112.907 111.463 113.123 110.343 113.123 110.343C113.123 110.343 113.371 110.271 113.371 109.53C113.371 108.788 112.806 104.22 112.806 104.22L108.803 103.104Z" fill="white" stroke="#263238" stroke-width="0.366" stroke-linecap="round" stroke-linejoin="round"/>
<path d="M108.062 110.786L108.166 108.634" stroke="#263238" stroke-width="0.366" stroke-linecap="round" stroke-linejoin="round"/>
<path d="M109.123 113.404L109.353 110.218" stroke="#263238" stroke-width="0.366" stroke-linecap="round" stroke-linejoin="round"/>
<path d="M110.574 113.864L110.74 110.415" stroke="#263238" stroke-width="0.366" stroke-linecap="round" stroke-linejoin="round"/>
<path d="M111.921 112.521L112.126 110.12" stroke="#263238" stroke-width="0.366" stroke-linecap="round" stroke-linejoin="round"/>
<path d="M115.797 68.7095L118.378 70.2575L117.518 88.1027L112.928 104.969L108.568 103.824L109.944 90.5039L109.256 77.0795C109.256 77.0795 110.232 73.9511 112.467 72.2303" fill="#263238"/>
<path d="M115.797 68.7095L118.378 70.2575L117.518 88.1027L112.928 104.969L108.568 103.824L109.944 90.5039L109.256 77.0795C109.256 77.0795 110.232 73.9511 112.467 72.2303" stroke="#263238" stroke-width="0.366" stroke-linecap="round" stroke-linejoin="round"/>
<path d="M110.488 71.7224C110.488 71.7224 109.314 74.7032 109.257 77.0864" stroke="white" stroke-width="0.366" stroke-linecap="round" stroke-linejoin="round"/>
<path d="M111.466 73.1412C111.466 73.1412 109.457 76.4208 109.457 77.904C109.457 79.3872 109.987 91.764 109.987 91.764L108.611 102.449" stroke="white" stroke-width="0.366" stroke-linecap="round" stroke-linejoin="round"/>
<path d="M98.9991 48.8267C98.9991 48.8267 97.6203 52.7435 97.7499 53.3051C97.8795 53.8667 98.0091 54.7235 98.0091 54.7235C98.0091 54.7235 95.8491 57.3911 96.1155 57.6935C96.3819 57.9959 97.5771 58.3379 97.5771 58.3379C97.5771 58.3379 98.5671 62.4707 98.9559 62.8559C99.3447 63.2411 101.753 62.3843 101.753 62.3843L104.334 65.6531L109.626 60.5771L108.982 57.9095C108.982 57.9095 111.779 53.0027 111.736 50.6771C111.693 48.3515 106.919 45.2555 103.517 45.2987C100.115 45.3419 96.9327 46.5911 97.5771 47.4947C97.9567 48.0298 98.4403 48.4829 98.9991 48.8267Z" fill="white"/>
<path d="M110.067 47.9879C109.411 48.0837 108.771 48.2652 108.162 48.5279L103.09 50.5835C103.09 50.5835 100.674 52.6355 100.93 54.2051C101.186 55.7747 103.346 57.9491 102.863 59.5187C102.381 61.0883 99.3604 62.7803 99.3604 62.7803L100.307 62.8163C101.027 62.6471 101.769 62.3843 101.769 62.3843L102.165 62.8847L107.054 63.0611L109.642 60.5771L108.998 57.9095C108.998 57.9095 111.795 53.0027 111.752 50.6771C111.723 49.8203 111.06 48.8591 110.067 47.9879Z" fill="#B8B8B8"/>
<path d="M98.9991 48.8267C98.9991 48.8267 97.6203 52.7435 97.7499 53.3051C97.8795 53.8667 98.0091 54.7235 98.0091 54.7235C98.0091 54.7235 95.8491 57.3911 96.1155 57.6935C96.3819 57.9959 97.5771 58.3379 97.5771 58.3379C97.5771 58.3379 98.5671 62.4707 98.9559 62.8559C99.3447 63.2411 101.753 62.3843 101.753 62.3843L104.334 65.6531L109.626 60.5771L108.982 57.9095C108.982 57.9095 111.779 53.0027 111.736 50.6771C111.693 48.3515 106.919 45.2555 103.517 45.2987C100.115 45.3419 96.9327 46.5911 97.5771 47.4947C97.9567 48.0298 98.4403 48.4829 98.9991 48.8267Z" stroke="#263238" stroke-width="0.366" stroke-linecap="round" stroke-linejoin="round"/>
<path d="M108.983 57.9095C108.983 57.9095 111.78 53.0027 111.737 50.6771C111.693 48.3515 106.92 45.2555 103.518 45.2987C100.116 45.3419 96.9334 46.5911 97.5778 47.4947C97.9573 48.0298 98.441 48.4829 98.9998 48.8267C98.9998 48.8267 101.109 49.8167 101.109 50.0759C101.109 50.3351 99.8602 51.7103 100.292 52.3151C100.724 52.9199 102.787 53.6471 102.787 53.6471C102.787 53.6471 102.427 54.8099 102.96 54.9395C103.493 55.0691 103.734 54.5507 104.076 54.2195C104.418 53.8883 105.627 53.3987 105.8 54.8639C105.902 55.9148 105.626 56.9676 105.023 57.8339C104.853 57.9599 107.219 59.5547 108.263 59.0795C108.533 58.9571 108.849 58.7951 109.166 58.6259L108.983 57.9095Z" fill="#263238" stroke="#263238" stroke-width="0.366" stroke-linecap="round" stroke-linejoin="round"/>
<path d="M98.654 55.7997C98.821 55.7997 98.9564 55.2791 98.9564 54.6369C98.9564 53.9947 98.821 53.4741 98.654 53.4741C98.4869 53.4741 98.3516 53.9947 98.3516 54.6369C98.3516 55.2791 98.4869 55.7997 98.654 55.7997Z" stroke="#263238" stroke-width="0.366" stroke-linecap="round" stroke-linejoin="round"/>
<path d="M99 54.1654L104.076 54.2086" stroke="#263238" stroke-width="0.366" stroke-linecap="round" stroke-linejoin="round"/>
<path d="M98.165 52.7651C98.165 52.7651 98.6474 51.9947 99.1298 52.9559" stroke="#263238" stroke-width="0.366" stroke-linecap="round" stroke-linejoin="round"/>
<path d="M98.0674 59.0401C98.5895 58.8274 99.0753 58.5347 99.5074 58.1725" stroke="#263238" stroke-width="0.366" stroke-linecap="round" stroke-linejoin="round"/>
<path d="M19.1777 157.069H160.863" stroke="#263238" stroke-width="0.732" stroke-miterlimit="10"/>
</svg>
