<svg width="180" height="180" viewBox="0 0 180 180" fill="none" xmlns="http://www.w3.org/2000/svg">
<path d="M155.599 118.851C158.447 93.7443 144.662 60.3795 130.37 46.6023C104.573 21.7263 83.1384 26.5359 66.4704 35.4423C49.8024 44.3487 47.4192 74.0991 35.9064 87.5559C24.3936 101.013 17.8488 119.113 35.3124 137.135C52.776 155.157 66.8664 145.998 85.1256 144.853C103.385 143.709 127.606 152.709 140.692 144.886C149.839 139.428 154.343 129.96 155.599 118.851Z" fill="#FFCF23"/>
<path opacity="0.7" d="M155.599 118.851C158.447 93.7443 144.662 60.3795 130.37 46.6023C104.573 21.7263 83.1384 26.5359 66.4704 35.4423C49.8024 44.3487 47.4192 74.0991 35.9064 87.5559C24.3936 101.013 17.8488 119.113 35.3124 137.135C52.776 155.157 66.8664 145.998 85.1256 144.853C103.385 143.709 127.606 152.709 140.692 144.886C149.839 139.428 154.343 129.96 155.599 118.851Z" fill="white"/>
<path d="M90.2293 69.3903C87.9361 68.1375 86.8921 69.1815 86.0569 68.1375C85.2217 67.0935 88.3537 64.3827 82.0969 61.6575C82.0969 61.6575 81.6793 55.8147 73.1257 55.6059C64.5721 55.3971 66.8689 61.4487 64.5721 62.9067C62.2753 64.3647 61.6525 62.0751 59.3557 63.5331C57.0589 64.9911 58.1065 67.9143 56.2273 68.3319C54.3481 68.7495 51.8461 66.4563 49.5529 67.9143C47.2597 69.3723 47.2561 70.6287 46.2157 70.6287C45.1753 70.6287 43.0837 69.7935 41.8345 70.6287C40.5853 71.4639 39.1201 72.5043 39.1201 72.5043H91.8997C91.8997 72.5043 92.5189 70.6431 90.2293 69.3903Z" fill="#FFCF23"/>
<path d="M124.237 52.7336C123.308 52.2224 122.883 52.6472 122.545 52.2224C122.206 51.7976 123.477 50.6996 120.935 49.598C120.935 49.598 120.766 47.2292 117.296 47.1428C113.825 47.0564 114.754 49.5152 113.825 50.1056C112.897 50.696 112.637 49.7672 111.709 50.3612C110.78 50.9552 111.201 52.1396 110.438 52.3088C109.675 52.478 108.659 51.5456 107.727 52.1396C106.795 52.7336 106.798 53.2412 106.373 53.2412C105.949 53.2412 105.103 52.9028 104.595 53.2412C104.087 53.5796 103.497 54.0008 103.497 54.0008H124.921C124.921 54.0008 125.169 53.2412 124.237 52.7336Z" fill="#FFCF23"/>
<path d="M94.1221 96.6834C93.1897 96.1758 92.7685 96.6006 92.4301 96.1758C92.0917 95.751 93.3589 94.653 90.8209 93.5514C90.8209 93.5514 90.6517 91.179 87.1813 91.0962C83.7109 91.0134 84.6397 93.4686 83.7073 94.059C82.7749 94.6494 82.5229 93.7206 81.5905 94.3146C80.6581 94.9086 81.0829 96.093 80.3233 96.2622C79.5637 96.4314 78.5449 95.499 77.6125 96.093C76.6801 96.687 76.6801 97.1982 76.2589 97.1982C75.8377 97.1982 74.9881 96.8598 74.4805 97.1982C73.9729 97.5366 73.3789 97.9614 73.3789 97.9614H94.7989C94.7989 97.9614 95.0401 97.1982 94.1221 96.6834Z" fill="#FFCF23"/>
<g opacity="0.4">
<path opacity="0.4" d="M90.2298 69.3904C87.9366 68.1376 86.8926 69.1816 86.0574 68.1376C85.2222 67.0936 88.3542 64.3828 82.0974 61.6576C82.0974 61.6576 81.6798 55.8148 73.1262 55.606C64.5726 55.3972 66.8694 61.4488 64.5726 62.9068C62.2758 64.3648 61.653 62.0752 59.3562 63.5332C57.0594 64.9912 58.107 67.9144 56.2278 68.332C54.3486 68.7496 51.8466 66.4564 49.5534 67.9144C47.2602 69.3724 47.2566 70.6288 46.2162 70.6288C45.1758 70.6288 43.0842 69.7936 41.835 70.6288C40.5858 71.464 39.1206 72.5044 39.1206 72.5044H91.9002C91.9002 72.5044 92.5194 70.6432 90.2298 69.3904Z" fill="white"/>
</g>
<g opacity="0.4">
<path opacity="0.4" d="M124.238 52.7343C123.309 52.2231 122.885 52.6479 122.546 52.2231C122.208 51.7983 123.479 50.7003 120.937 49.5987C120.937 49.5987 120.768 47.2299 117.297 47.1435C113.827 47.0571 114.756 49.5159 113.827 50.1063C112.898 50.6967 112.639 49.7679 111.71 50.3619C110.781 50.9559 111.203 52.1403 110.439 52.3095C109.676 52.4787 108.661 51.5463 107.729 52.1403C106.796 52.7343 106.8 53.2419 106.375 53.2419C105.95 53.2419 105.104 52.9035 104.597 53.2419C104.089 53.5803 103.499 54.0015 103.499 54.0015H124.922C124.922 54.0015 125.171 53.2419 124.238 52.7343Z" fill="white"/>
</g>
<g opacity="0.4">
<path opacity="0.4" d="M94.1231 96.6834C93.1907 96.1758 92.7695 96.6006 92.4311 96.1758C92.0927 95.751 93.3599 94.653 90.8219 93.5514C90.8219 93.5514 90.6527 91.179 87.1823 91.0962C83.7119 91.0134 84.6407 93.4686 83.7083 94.059C82.7759 94.6494 82.5239 93.7206 81.5915 94.3146C80.6591 94.9086 81.0839 96.093 80.3243 96.2622C79.5647 96.4314 78.5459 95.499 77.6135 96.093C76.6811 96.687 76.6811 97.1982 76.2599 97.1982C75.8387 97.1982 74.9891 96.8598 74.4815 97.1982C73.9739 97.5366 73.3799 97.9613 73.3799 97.9613H94.7999C94.7999 97.9613 95.0411 97.1982 94.1231 96.6834Z" fill="white"/>
</g>
<path d="M159 102.01H25.0796V103.23H159V102.01Z" fill="#263238"/>
<path d="M127.797 102.733V44.4128" stroke="#263238" stroke-width="0.398" stroke-linecap="round" stroke-linejoin="round"/>
<path d="M67.3184 102.731V35.5298" stroke="#263238" stroke-width="0.398" stroke-linecap="round" stroke-linejoin="round"/>
<path d="M28.7095 69.5353H154.166" stroke="#263238" stroke-width="0.398" stroke-linecap="round" stroke-linejoin="round"/>
<path d="M90.7207 37.6474H94.3207C94.6376 37.6474 94.9416 37.7733 95.1658 37.9975C95.3899 38.2216 95.5159 38.5256 95.5159 38.8426V42.4786H89.5146V38.8426C89.5146 38.6847 89.5459 38.5284 89.6067 38.3827C89.6674 38.237 89.7564 38.1047 89.8685 37.9936C89.9807 37.8825 90.1137 37.7947 90.26 37.7352C90.4062 37.6758 90.5628 37.646 90.7207 37.6474Z" fill="#263238"/>
<path d="M92.4316 49.7516C93.9725 49.7516 95.2216 48.5025 95.2216 46.9616C95.2216 45.4208 93.9725 44.1716 92.4316 44.1716C90.8907 44.1716 89.6416 45.4208 89.6416 46.9616C89.6416 48.5025 90.8907 49.7516 92.4316 49.7516Z" fill="#FFCF23"/>
<path opacity="0.4" d="M92.4316 49.7516C93.9725 49.7516 95.2216 48.5025 95.2216 46.9616C95.2216 45.4208 93.9725 44.1716 92.4316 44.1716C90.8907 44.1716 89.6416 45.4208 89.6416 46.9616C89.6416 48.5025 90.8907 49.7516 92.4316 49.7516Z" fill="white"/>
<path d="M104.372 47.0939H80.644L89.5432 42.2483H95.4509L104.372 47.0939Z" fill="#263238"/>
<path d="M93.0107 28.615H92.0063V38.3134H93.0107V28.615Z" fill="#263238"/>
<path d="M64.7921 88.7118L61.8869 97.2762L59.0573 116.623L48.5669 142.723H51.8645L67.1213 117.803L71.8229 102.413L78.4109 118.498L79.5737 142.917H83.0549L85.1933 116.95L80.9273 96.8586L80.0201 92.5926L64.7921 88.7118Z" fill="#263238" stroke="#263238" stroke-width="0.398" stroke-linecap="round" stroke-linejoin="round"/>
<path d="M83.8199 65.9389C83.8199 65.9389 78.5135 65.0533 73.6895 66.0973C68.8655 67.1413 62.4467 69.1933 57.7415 72.5269C56.7901 73.2343 55.9001 74.0207 55.0811 74.8777L58.5983 77.5165C58.5983 77.5165 64.2899 75.9685 66.1583 75.9541C67.2431 75.9222 68.3251 75.8249 69.3983 75.6625L64.8011 88.7089C64.8011 88.7089 64.5563 91.8445 67.9367 93.2125C71.3171 94.5805 77.5919 95.3365 80.1119 93.3961C81.4403 92.3773 87.7727 75.9901 87.7727 75.9901C87.7727 75.9901 89.6267 85.6237 90.1883 87.0709C90.602 88.0426 91.1738 88.9391 91.8803 89.7241L95.4155 87.0709C95.4155 87.0709 93.4787 77.5957 92.7551 74.4709C92.0315 71.3461 89.2811 66.4213 83.8199 65.9389Z" fill="#FFCF23" stroke="#263238" stroke-width="0.398" stroke-linecap="round" stroke-linejoin="round"/>
<path d="M74.9773 74.9436L69.4297 75.6672L73.7713 76.794" stroke="#263238" stroke-width="0.398" stroke-linecap="round" stroke-linejoin="round"/>
<path d="M74.8135 66.9823C74.8135 66.9823 76.7467 70.2007 74.9755 73.4947" stroke="#263238" stroke-width="0.398" stroke-linecap="round" stroke-linejoin="round"/>
<path d="M87.7642 75.9912L91.4613 75.426" stroke="#263238" stroke-width="0.398" stroke-linecap="round" stroke-linejoin="round"/>
<path d="M87.9233 76.311L92.8301 77.0346" stroke="#263238" stroke-width="0.398" stroke-linecap="round" stroke-linejoin="round"/>
<path d="M83.4191 64.9752C83.4191 64.9752 80.8487 65.778 80.2043 66.5808C79.5599 67.3836 79.5635 75.0264 79.5635 75.0264L82.8611 74.3064L85.6763 76.4664C85.6763 76.4664 85.5143 71.8836 85.0319 68.7444C84.5495 65.6052 83.4191 64.9752 83.4191 64.9752Z" fill="#FFCF23" stroke="#263238" stroke-width="0.398" stroke-linecap="round" stroke-linejoin="round"/>
<path d="M84.6227 62.9635C84.6227 62.9635 82.5347 65.9407 82.0523 66.5635C81.5699 67.1863 81.8903 70.6675 82.1315 71.8735C82.3074 72.6953 82.5481 73.5018 82.8515 74.2855L86.1491 70.8259C86.1491 70.8259 84.8603 69.2995 85.1015 67.3699C85.3427 65.4403 86.4011 63.3595 86.3147 62.8051C86.2283 62.2507 84.6227 62.9635 84.6227 62.9635Z" fill="white" stroke="#263238" stroke-width="0.398" stroke-linecap="round" stroke-linejoin="round"/>
<path d="M84.5449 64.3301C84.5449 64.3301 83.1049 67.8689 83.4181 69.1541C83.7313 70.4393 87.1189 73.4165 88.7281 72.9341C90.3373 72.4517 90.5749 69.4745 90.5749 69.4745C90.5749 69.4745 91.2949 69.7985 91.5397 69.6365C91.7845 69.4745 91.8637 67.4765 91.8637 67.4765C92.2346 67.0672 92.5831 66.6381 92.9077 66.1913C93.1223 65.8575 93.3101 65.5072 93.4693 65.1437C93.4693 65.1437 96.1261 65.0645 95.8849 62.6525C95.6437 60.2405 91.1401 56.7809 87.9217 56.7809C84.7033 56.7809 83.5009 60.4781 83.5009 61.5977C83.5009 62.7173 84.5449 64.3301 84.5449 64.3301Z" fill="white" stroke="#263238" stroke-width="0.398" stroke-linecap="round" stroke-linejoin="round"/>
<path d="M90.5292 66.8966C90.0313 66.3574 89.3431 66.0333 88.6104 65.993L90.5292 66.8966Z" fill="white"/>
<path d="M90.5292 66.8966C90.0313 66.3574 89.3431 66.0333 88.6104 65.993" stroke="#263238" stroke-width="0.398" stroke-linecap="round" stroke-linejoin="round"/>
<path d="M89.8327 67.3196L89.5447 67.8056C89.5447 67.8056 88.8679 67.982 88.6123 67.568" fill="white"/>
<path d="M89.8327 67.3196L89.5447 67.8056C89.5447 67.8056 88.8679 67.982 88.6123 67.568" stroke="#263238" stroke-width="0.398" stroke-linecap="round" stroke-linejoin="round"/>
<path d="M95.8849 62.6382C95.6437 60.2262 91.1401 56.7666 87.9217 56.7666C84.7033 56.7666 83.5009 60.4782 83.5009 61.5978C83.5009 62.7174 84.5449 64.3302 84.5449 64.3302C84.5449 64.3302 83.1049 67.869 83.4181 69.1542C83.7313 70.4394 87.1189 73.4166 88.7281 72.9342C89.9953 72.5526 90.4129 70.6266 90.5281 69.8274C89.3833 68.5926 87.6733 69.903 86.7121 70.1874C85.6681 70.5078 84.6205 69.0606 84.6205 68.2542C84.6205 67.4478 85.6681 65.2806 85.9093 64.8774C86.1505 64.4742 87.4357 64.7982 88.1593 64.719C88.8829 64.6398 87.8389 63.4302 88.0009 62.7066C88.1629 61.983 90.5713 64.4778 91.5361 65.0394C91.8295 65.2014 92.1567 65.2929 92.4916 65.3067C92.8265 65.3204 93.16 65.256 93.4657 65.1186C93.4657 65.1186 96.1225 65.0538 95.8849 62.6382ZM88.8865 70.5222C90.0925 70.3602 90.0925 70.8426 90.0925 70.8426C89.6569 71.8614 89.4517 71.649 89.0485 71.487C88.6453 71.325 87.6805 70.6842 88.8865 70.5222Z" fill="#263238" stroke="#263238" stroke-width="0.398" stroke-linecap="round" stroke-linejoin="round"/>
<path d="M84.8656 65.0528C84.8656 65.0528 85.1068 63.4436 84.1456 63.2852C83.1844 63.1268 83.1016 64.4912 83.1016 65.3732C83.1016 66.2552 84.1456 66.2588 84.628 66.0932" fill="white"/>
<path d="M84.8656 65.0528C84.8656 65.0528 85.1068 63.4436 84.1456 63.2852C83.1844 63.1268 83.1016 64.4912 83.1016 65.3732C83.1016 66.2552 84.1456 66.2588 84.628 66.0932" stroke="#263238" stroke-width="0.398" stroke-linecap="round" stroke-linejoin="round"/>
<path d="M84.2613 60.5541C84.067 60.6768 83.8993 60.8371 83.7681 61.0257" stroke="white" stroke-width="0.199" stroke-linecap="round" stroke-linejoin="round"/>
<path d="M90.722 63.593C89.5331 63.084 88.4783 62.3065 87.6404 61.3214C86.7836 60.3314 85.7972 60.0974 85.0088 60.2414" stroke="white" stroke-width="0.199" stroke-linecap="round" stroke-linejoin="round"/>
<path d="M87.4331 64.0327C87.4331 64.0327 86.7131 61.5415 83.6963 62.3479" stroke="white" stroke-width="0.199" stroke-linecap="round" stroke-linejoin="round"/>
<path d="M54.4112 78.9048C54.4112 78.9048 55.4912 77.1984 56.8448 77.6808C57.8214 78.0835 58.7196 78.655 59.498 79.3692L60.704 77.4396C60.704 77.4396 60.9452 75.4308 58.7744 74.3868C56.6036 73.3428 55.3976 74.2248 55.3976 74.2248C54.5696 74.3796 53.5292 78.4404 54.4112 78.9048Z" fill="#FFCF23" stroke="#263238" stroke-width="0.398" stroke-linecap="round" stroke-linejoin="round"/>
<path d="M95.7301 85.4619C94.4754 85.8148 93.282 86.3575 92.1913 87.0711C91.3541 87.6432 90.7539 88.5007 90.5029 89.4831C90.5029 89.4831 92.3533 91.4919 92.7529 91.4919C93.1525 91.4919 96.2125 88.1151 96.5329 87.7947C96.8533 87.4743 95.7301 85.4619 95.7301 85.4619Z" fill="#FFCF23" stroke="#263238" stroke-width="0.398" stroke-linecap="round" stroke-linejoin="round"/>
<path d="M109.882 94.5493C109.882 94.5493 109.803 95.6761 109.479 95.9173C109.155 96.1585 107.711 95.9173 107.711 95.9173C107.711 95.9173 106.746 94.5493 107.146 93.9877C107.545 93.4261 108.273 93.5845 108.755 93.7465C109.175 93.9459 109.556 94.2177 109.882 94.5493Z" fill="white" stroke="#263238" stroke-width="0.398" stroke-linecap="round" stroke-linejoin="round"/>
<path d="M96.5327 87.7941L105.122 92.2149L108.258 92.6181C108.258 92.6181 112.117 94.5477 112.117 94.8681C112.117 95.1885 111.717 95.3541 111.397 95.2713C111.077 95.1885 108.744 94.2273 108.261 94.2273C107.779 94.2273 107.376 94.3857 107.459 94.7889C107.541 95.1921 108.665 96.8805 108.02 96.8805C107.376 96.8805 106.735 95.2713 106.411 95.1093C105.895 94.6936 105.414 94.2373 104.971 93.7449C104.971 93.7449 97.573 92.2149 95.8846 91.9737C94.9377 91.8608 94.0297 91.5306 93.2314 91.0089L96.5327 87.7941Z" fill="white" stroke="#263238" stroke-width="0.398" stroke-linecap="round" stroke-linejoin="round"/>
<path d="M51.8605 142.721L52.8937 144.2C53.3268 144.816 53.9023 145.319 54.5713 145.665L56.5729 146.699C56.6393 146.733 56.6952 146.784 56.7345 146.848C56.7739 146.911 56.7952 146.984 56.7961 147.059C56.7962 147.115 56.7848 147.17 56.7627 147.222C56.7405 147.274 56.7081 147.32 56.6673 147.359C56.6266 147.398 56.5783 147.428 56.5256 147.447C56.4728 147.467 56.4167 147.475 56.3605 147.473C54.4813 147.375 47.1193 147.001 46.8637 147.001C46.6081 147.001 46.4713 146.609 46.5685 145.428C46.6657 144.247 48.5665 142.713 48.5665 142.713L51.8605 142.721Z" fill="white" stroke="#263238" stroke-width="0.398" stroke-linecap="round" stroke-linejoin="round"/>
<path d="M83.0368 142.721L84.07 144.2C84.5031 144.816 85.0786 145.319 85.7476 145.665L87.7456 146.699C87.8129 146.732 87.8698 146.783 87.9098 146.847C87.9498 146.91 87.9715 146.983 87.9724 147.059C87.9724 147.115 87.9611 147.17 87.9389 147.222C87.9168 147.274 87.8843 147.32 87.8436 147.359C87.8028 147.398 87.7546 147.428 87.7018 147.447C87.6491 147.467 87.5929 147.475 87.5368 147.473C85.6576 147.375 78.2956 147.001 78.04 147.001C77.7844 147.001 77.644 146.609 77.7448 145.428C77.8456 144.247 79.7428 142.713 79.7428 142.713L83.0368 142.721Z" fill="white" stroke="#263238" stroke-width="0.398" stroke-linecap="round" stroke-linejoin="round"/>
<path d="M56.1045 92.0141C56.1045 92.0141 55.0245 93.7385 55.3233 95.1569C55.6221 96.5753 58.2609 102.753 60.2193 108.426C62.1777 114.1 61.7853 120.278 61.7853 122.106C61.7853 123.935 61.6881 125.246 63.0597 125.955C64.4313 126.664 66.5841 126.261 67.1709 124.943C67.7577 123.626 68.1501 115.223 67.0737 110.151C65.9973 105.078 62.1777 96.1721 61.1985 94.1453C60.2193 92.1185 59.7297 89.2781 56.1045 92.0141Z" fill="white"/>
<path opacity="0.25" d="M56.1069 92.0118C56.1069 92.0118 55.0269 93.7361 55.3257 95.1545C55.6245 96.5729 58.2633 102.751 60.2217 108.424C62.1801 114.098 61.7877 120.275 61.7877 122.104C61.7877 123.933 61.6905 125.243 63.0621 125.953C64.4337 126.662 66.5865 126.259 67.1733 124.941C67.7601 123.623 68.1525 115.221 67.0761 110.149C65.9997 105.076 62.1801 96.1697 61.2009 94.1429C60.2217 92.1161 59.7321 89.2758 56.1069 92.0118Z" fill="black"/>
<path opacity="0.25" d="M54.666 93.0931C54.666 93.0931 53.586 94.8174 53.8848 96.2358C54.1836 97.6542 56.8224 103.832 58.7808 109.505C60.7392 115.179 60.3468 121.357 60.3468 123.185C60.3468 125.014 60.2496 126.325 61.6212 127.034C62.9928 127.743 65.1456 127.34 65.7324 126.022C66.3192 124.705 66.7116 116.302 65.6352 111.23C64.5588 106.157 60.7392 97.251 59.76 95.2242C58.7808 93.1974 58.2912 90.3571 54.666 93.0931Z" fill="black"/>
<path d="M56.1045 92.0141C56.1045 92.0141 55.0245 93.7385 55.3233 95.1569C55.6221 96.5753 58.2609 102.753 60.2193 108.426C62.1777 114.1 61.7853 120.278 61.7853 122.106C61.7853 123.935 61.6881 125.246 63.0597 125.955C64.4313 126.664 66.5841 126.261 67.1709 124.943C67.7577 123.626 68.1501 115.223 67.0737 110.151C65.9973 105.078 62.1777 96.1721 61.1985 94.1453C60.2193 92.1185 59.7297 89.2781 56.1045 92.0141Z" stroke="#263238" stroke-width="0.398" stroke-linecap="round" stroke-linejoin="round"/>
<path d="M54.5922 77.7581C54.4674 79.6438 54.7384 81.5347 55.3878 83.3093C56.0178 85.0301 59.3766 90.459 59.3766 90.459C59.3766 90.459 56.5614 91.5066 55.7586 92.2302C54.9558 92.9538 53.9874 95.283 54.4698 95.3658C54.9522 95.4486 56.7234 93.4362 57.1266 93.2742C57.5298 93.1122 59.859 92.9537 59.859 92.9537C59.859 92.9537 59.3766 93.6126 59.0022 94.221C58.8061 94.4939 58.661 94.8 58.5738 95.1245C58.5738 95.5242 59.1354 95.445 59.4558 94.8006C59.7762 94.1562 60.7446 94.239 61.065 92.7918C61.237 91.7735 61.1816 90.7298 60.903 89.7354L59.4954 79.3638C59.4954 79.3638 58.0374 76.4513 54.5922 77.7581Z" fill="white" stroke="#263238" stroke-width="0.398" stroke-linecap="round" stroke-linejoin="round"/>
<path d="M54.4717 95.3681C54.4717 95.3681 55.5877 92.9669 56.8153 92.5565" stroke="#263238" stroke-width="0.398" stroke-linecap="round" stroke-linejoin="round"/>
<path d="M54.77 93.9895C55.2824 93.2531 55.9026 92.5978 56.6096 92.0455" stroke="#263238" stroke-width="0.398" stroke-linecap="round" stroke-linejoin="round"/>
<path d="M76.8614 124.769H75.5474V137.431H76.8614V124.769Z" fill="white" stroke="#263238" stroke-width="0.398" stroke-linecap="round" stroke-linejoin="round"/>
<path d="M77.8709 137.95V135.815H74.5337V137.968L61.1885 143.094V145.621H62.0993V143.699L76.2509 140.711L90.0281 143.699V145.621H90.9137V143.094L77.8709 137.95Z" fill="white" stroke="#263238" stroke-width="0.398" stroke-linecap="round" stroke-linejoin="round"/>
<path d="M79.4885 124.769H72.9185V128.812H79.4885V124.769Z" fill="white" stroke="#263238" stroke-width="0.398" stroke-linecap="round" stroke-linejoin="round"/>
<path d="M59.7742 147.137C60.5555 147.137 61.189 146.504 61.189 145.723C61.189 144.941 60.5555 144.308 59.7742 144.308C58.9928 144.308 58.3594 144.941 58.3594 145.723C58.3594 146.504 58.9928 147.137 59.7742 147.137Z" fill="#263238" stroke="#263238" stroke-width="0.398" stroke-linecap="round" stroke-linejoin="round"/>
<path d="M60.3814 145.724C60.3814 145.603 60.3457 145.486 60.2788 145.386C60.212 145.285 60.117 145.207 60.0058 145.161C59.8946 145.115 59.7723 145.103 59.6543 145.127C59.5362 145.15 59.4278 145.208 59.3427 145.293C59.2577 145.378 59.1997 145.487 59.1762 145.605C59.1528 145.723 59.1648 145.845 59.2109 145.956C59.2569 146.068 59.3349 146.163 59.4349 146.229C59.535 146.296 59.6526 146.332 59.773 146.332C59.9343 146.332 60.0891 146.268 60.2032 146.154C60.3173 146.04 60.3814 145.885 60.3814 145.724Z" fill="white" stroke="#263238" stroke-width="0.398" stroke-linecap="round" stroke-linejoin="round"/>
<path d="M92.4309 147.137C93.2123 147.137 93.8457 146.504 93.8457 145.723C93.8457 144.941 93.2123 144.308 92.4309 144.308C91.6495 144.308 91.0161 144.941 91.0161 145.723C91.0161 146.504 91.6495 147.137 92.4309 147.137Z" fill="#263238" stroke="#263238" stroke-width="0.398" stroke-linecap="round" stroke-linejoin="round"/>
<path d="M92.4277 146.332C92.7637 146.332 93.0361 146.06 93.0361 145.724C93.0361 145.388 92.7637 145.115 92.4277 145.115C92.0917 145.115 91.8193 145.388 91.8193 145.724C91.8193 146.06 92.0917 146.332 92.4277 146.332Z" fill="white" stroke="#263238" stroke-width="0.398" stroke-linecap="round" stroke-linejoin="round"/>
<path d="M76.8094 145.925H75.697L75.1426 138.343H77.3674L76.8094 145.925Z" fill="white" stroke="#263238" stroke-width="0.398" stroke-linecap="round" stroke-linejoin="round"/>
<path d="M76.7574 144.308H75.645V147.443H76.7574V144.308Z" fill="#263238" stroke="#263238" stroke-width="0.398" stroke-linecap="round" stroke-linejoin="round"/>
<path d="M80.3905 103.134C80.3905 103.134 89.2717 101.737 90.1105 101.597C90.9493 101.456 92.5585 102.576 93.3253 103.134C94.0921 103.692 97.5913 105.791 97.1737 105.931C96.7561 106.072 95.3557 105.514 94.4449 105.164C93.5341 104.815 92.8357 104.534 92.8357 104.534C93.1742 105.005 93.5485 105.449 93.9553 105.863C94.3153 106.144 94.1677 106.352 93.1885 105.931C92.3407 105.585 91.6098 105.002 91.0825 104.254C90.7225 103.696 90.1717 102.716 90.1717 102.716C90.1717 102.716 82.4821 105.596 81.2221 106.003C79.9621 106.41 78.0037 106.421 78.0757 105.092C78.1477 103.764 80.3905 103.134 80.3905 103.134Z" fill="white" stroke="#263238" stroke-width="0.398" stroke-linecap="round" stroke-linejoin="round"/>
<path d="M93.3256 103.134C92.5588 102.576 90.9496 101.456 90.1108 101.597C89.6644 101.672 86.9644 102.097 84.52 102.482L84.8332 104.696C87.3532 103.775 90.1792 102.716 90.1792 102.716C90.1792 102.716 90.7408 103.696 91.09 104.254C91.6155 105.001 92.3436 105.583 93.1888 105.931C94.168 106.352 94.3048 106.144 93.9556 105.863C93.5488 105.449 93.1745 105.005 92.836 104.534C92.836 104.534 93.538 104.815 94.4452 105.164C95.3524 105.514 96.7528 106.072 97.174 105.931C97.5952 105.791 94.096 103.696 93.3256 103.134Z" fill="white" stroke="#263238" stroke-width="0.398" stroke-linecap="round" stroke-linejoin="round"/>
<path d="M93.814 103.905L97.1728 105.931" stroke="#263238" stroke-width="0.398" stroke-linecap="round" stroke-linejoin="round"/>
<path d="M87.3282 81.1027C87.3282 81.1027 89.2866 79.8427 88.9374 78.4459C88.5882 77.0491 82.785 74.9467 79.9878 75.5659C77.1906 76.1851 76.2798 79.0615 75.5094 81.1603C74.739 83.2591 71.5962 92.2807 71.5962 92.2807C71.5962 92.2807 73.9038 94.8655 76.8414 93.5371C79.779 92.2087 82.4358 85.0087 83.7642 83.5399C85.0926 82.0711 87.3282 81.1027 87.3282 81.1027Z" fill="#263238" stroke="#263238" stroke-width="0.398" stroke-linecap="round" stroke-linejoin="round"/>
<path d="M85.3232 76.5665C85.3232 76.5665 86.5688 77.4449 86.936 78.2513C87.3032 79.0577 86.8604 79.4969 86.8604 79.4969" stroke="white" stroke-width="0.199" stroke-linecap="round" stroke-linejoin="round"/>
<path d="M86.264 77.3739C84.7752 78.9312 83.0101 80.1983 81.0584 81.1107C78.0524 82.4319 76.0004 83.5299 75.0464 84.6315" stroke="white" stroke-width="0.199" stroke-linecap="round" stroke-linejoin="round"/>
<path d="M74.0608 86.4818C73.9048 86.8342 73.7678 87.1947 73.6504 87.5618" stroke="white" stroke-width="0.199" stroke-linecap="round" stroke-linejoin="round"/>
<path d="M82.6168 77.6866C81.967 78.3139 81.2741 78.895 80.5432 79.4254C78.5056 80.923 75.9784 82.9102 74.4844 85.6283" stroke="white" stroke-width="0.199" stroke-linecap="round" stroke-linejoin="round"/>
<path d="M83.7673 76.3478C83.6438 76.5398 83.5067 76.7227 83.3569 76.895" stroke="white" stroke-width="0.199" stroke-linecap="round" stroke-linejoin="round"/>
<path d="M76.5588 88.4442C76.5588 88.4442 71.5188 90.6042 70.0536 91.3818C68.5884 92.1594 68.3076 93.6894 68.3076 95.0178C68.3076 96.3462 70.2012 106.347 70.2012 106.347H78.4452C78.4452 106.347 79.914 103.409 80.9652 102.43C82.0164 101.451 82.8516 99.4962 82.434 98.1642C82.0164 96.8322 81.5916 96.1374 81.5916 94.809C81.5916 93.4806 81.3144 91.803 80.2632 90.7518C79.212 89.7006 78.6576 88.0266 76.5588 88.4442Z" fill="white" stroke="#263238" stroke-width="0.398" stroke-linecap="round" stroke-linejoin="round"/>
<path d="M93.9364 126.497C94.1164 127.412 94.8472 128.546 95.2072 129.413C95.9272 131.174 97.252 133.964 98.0512 135.695C99.1852 138.165 100.035 141.362 99.88 141.578C99.6052 142.125 99.4263 142.716 99.3508 143.324C99.3508 143.759 99.6532 147.464 99.6532 147.464H100.186L100.564 145.282C100.564 145.282 101.774 145.358 102.152 145.718C102.53 146.078 102.983 146.881 103.664 147.244C104.344 147.608 107.444 147.752 107.444 147.752C107.444 147.752 107.973 147.464 107.292 146.881C106.612 146.297 105.554 145.502 104.949 144.631C104.344 143.759 102.605 141.653 102.605 141.653C102.605 141.653 98.6704 120.086 98.368 119.157C98.0656 118.228 97.0828 116.18 96.1756 115.964C95.2684 115.748 92.1652 115.435 92.1652 115.435L92.0176 119.157C92.0176 119.157 92.7376 119.013 93.562 120.683C94.0732 121.677 93.4144 123.808 93.9364 126.497Z" fill="white" stroke="#263238" stroke-width="0.398" stroke-linecap="round" stroke-linejoin="round"/>
<path d="M105.952 145.737C104.152 146.334 102.29 144.549 101.47 143.613C100.946 143.043 100.296 142.605 99.5723 142.331C99.4561 142.652 99.3811 142.985 99.3491 143.325C99.3491 143.76 99.6515 147.465 99.6515 147.465H100.184L100.562 145.283C100.562 145.283 101.772 145.359 102.15 145.719C102.528 146.079 102.982 146.882 103.662 147.245C104.342 147.609 107.442 147.753 107.442 147.753C107.442 147.753 107.971 147.465 107.291 146.882C106.924 146.561 106.42 146.158 105.952 145.737Z" fill="#263238" stroke="#263238" stroke-width="0.398" stroke-linecap="round" stroke-linejoin="round"/>
<path d="M96.1982 114.529C96.1982 114.529 99.4923 115.451 99.2871 116.16C99.0819 116.869 94.1354 131.676 92.2814 135.15C90.4274 138.624 89.7398 141.389 89.945 142.238C90.1502 143.088 91.871 145.856 92.4182 146.281C92.9654 146.706 94.3407 147.415 94.1355 147.487C92.6722 147.595 91.2031 147.595 89.7398 147.487C89.4014 147.448 87.4754 145.147 87.1298 145.003L86.7698 144.863V147.415H86.0426L85.769 143.516C85.9834 142.795 86.3328 142.12 86.7986 141.529C87.4862 140.752 88.1702 139.898 88.7894 137.774C89.4086 135.65 91.6694 124.739 92.0294 122.539C92.2625 121.127 92.67 119.75 93.2426 118.439L96.1982 114.529Z" fill="white" stroke="#263238" stroke-width="0.398" stroke-linecap="round" stroke-linejoin="round"/>
<path d="M92.4196 146.282C92.2358 146.115 92.0715 145.928 91.93 145.724C91.3928 145.755 90.856 145.657 90.364 145.439C89.4712 144.943 88.6468 143.809 87.8908 142.955C87.483 142.541 87.0022 142.205 86.4724 141.965C86.1655 142.451 85.9234 142.975 85.7524 143.524L86.026 147.423H86.782V144.863L87.142 145.004C87.502 145.148 89.4136 147.448 89.752 147.488C91.2153 147.595 92.6844 147.595 94.1476 147.488C94.342 147.416 92.9704 146.707 92.4196 146.282Z" fill="#263238" stroke="#263238" stroke-width="0.398" stroke-linecap="round" stroke-linejoin="round"/>
<path d="M70.2009 106.345C70.2009 106.345 69.5637 114.118 69.4809 116.638C69.3981 119.158 71.5077 121.602 74.3769 121.883C77.2461 122.164 94.3209 119.842 94.3209 119.842L97.1181 114.737C97.1181 114.737 88.8669 112.638 86.0697 111.857C83.2725 111.076 80.6157 110.597 80.6157 110.597L78.4557 106.331L70.2009 106.345Z" fill="#263238" stroke="#263238" stroke-width="0.398" stroke-linecap="round" stroke-linejoin="round"/>
<path d="M79.7745 92.5676L81.1749 95.0156C81.1749 95.0156 80.6853 92.4308 80.4045 91.52C80.1237 90.6092 79.3569 90.89 79.3569 91.3796C79.401 91.8685 79.4975 92.3513 79.6449 92.8196" fill="#FFCF23"/>
<path d="M79.7745 92.5676L81.1749 95.0156C81.1749 95.0156 80.6853 92.4308 80.4045 91.52C80.1237 90.6092 79.3569 90.89 79.3569 91.3796C79.401 91.8685 79.4975 92.3513 79.6449 92.8196" stroke="#263238" stroke-width="0.398" stroke-linecap="round" stroke-linejoin="round"/>
<path d="M79.9662 84.0454L77.5542 87.9046L79.6458 92.8078C79.6458 92.8078 80.931 89.8342 81.5754 89.1106C82.2198 88.387 83.343 87.3394 83.343 87.3394C83.343 87.3394 81.3342 84.9274 81.183 84.2866C81.0318 83.6458 80.1282 83.401 79.9662 84.0454Z" fill="white" stroke="#263238" stroke-width="0.398" stroke-linecap="round" stroke-linejoin="round"/>
<path d="M77.1163 87.187L75.8599 88.4434L78.0955 94.8802L79.773 92.569L77.1163 87.187Z" fill="#FFCF23" stroke="#263238" stroke-width="0.398" stroke-linecap="round" stroke-linejoin="round"/>
<path d="M69.356 97.4648C69.356 97.4648 72.992 105.648 73.7624 107.325C74.5328 109.003 76.2104 109.352 77.7476 109.352C79.2848 109.352 88.922 109.078 88.922 109.078C88.922 109.078 94.2356 109.287 95.1464 109.078C96.0572 108.87 97.5224 107.61 97.8032 107.61C98.084 107.61 99.6212 109.006 99.9632 109.006C100.305 109.006 100.525 108.798 100.244 108.308C99.9632 107.818 98.8436 105.651 98.084 105.583C97.3244 105.514 94.0268 107.678 94.0268 107.678C94.0268 107.678 88.5728 106.911 85.7072 106.141C82.8416 105.37 78.3632 103.621 78.3632 103.621C78.3632 103.621 76.5452 100.262 75.7748 98.2208C75.0044 96.1796 74.8676 93.4652 73.4672 92.3456C72.0668 91.226 70.3208 92.486 70.3208 92.486" fill="white"/>
<path d="M69.356 97.4648C69.356 97.4648 72.992 105.648 73.7624 107.325C74.5328 109.003 76.2104 109.352 77.7476 109.352C79.2848 109.352 88.922 109.078 88.922 109.078C88.922 109.078 94.2356 109.287 95.1464 109.078C96.0572 108.87 97.5224 107.61 97.8032 107.61C98.084 107.61 99.6212 109.006 99.9632 109.006C100.305 109.006 100.525 108.798 100.244 108.308C99.9632 107.818 98.8436 105.651 98.084 105.583C97.3244 105.514 94.0268 107.678 94.0268 107.678C94.0268 107.678 88.5728 106.911 85.7072 106.141C82.8416 105.37 78.3632 103.621 78.3632 103.621C78.3632 103.621 76.5452 100.262 75.7748 98.2208C75.0044 96.1796 74.8676 93.4652 73.4672 92.3456C72.0668 91.226 70.3208 92.486 70.3208 92.486" stroke="#263238" stroke-width="0.398" stroke-linecap="round" stroke-linejoin="round"/>
<path d="M98.099 105.58C97.3286 105.508 94.0418 107.676 94.0418 107.676C94.0418 107.676 91.3094 107.29 88.6958 106.794L88.7642 109.08H88.9226C88.9226 109.08 94.2362 109.288 95.147 109.08C96.0578 108.871 97.523 107.611 97.8038 107.611C98.0846 107.611 99.6218 109.008 99.9638 109.008C100.306 109.008 100.525 108.799 100.245 108.309C99.9638 107.82 98.8658 105.649 98.099 105.58Z" fill="white" stroke="#263238" stroke-width="0.398" stroke-linecap="round" stroke-linejoin="round"/>
<path d="M97.9595 106.836C97.9595 106.836 99.8459 108.164 100.267 108.794" stroke="#263238" stroke-width="0.398" stroke-linecap="round" stroke-linejoin="round"/>
<path d="M98.1699 106.206L99.8475 107.606" stroke="#263238" stroke-width="0.398" stroke-linecap="round" stroke-linejoin="round"/>
<path d="M87.124 79.4587C87.3438 80.2334 87.5217 81.0193 87.6568 81.8131C87.736 82.5331 87.1744 82.9399 87.4156 83.3395C87.6568 83.7391 88.276 85.0027 87.9556 85.1611C87.6728 85.2689 87.3726 85.3238 87.07 85.3231C87.07 85.3231 85.5976 88.0627 85.27 88.5631C84.9424 89.0635 82.696 87.9223 81.6484 87.4399C80.6008 86.9575 80.5252 84.6247 80.5252 84.6247L80.4424 83.0155C80.4424 83.0155 85.5184 81.1471 87.124 79.4587Z" fill="white" stroke="#263238" stroke-width="0.398" stroke-linecap="round" stroke-linejoin="round"/>
<path d="M85.9409 82.1109C86.9849 80.8438 86.9705 82.2441 86.9705 82.2441L85.9409 82.1109Z" fill="white"/>
<path d="M85.9409 82.1109C86.9849 80.8438 86.9705 82.2441 86.9705 82.2441" stroke="#263238" stroke-width="0.398" stroke-linecap="round" stroke-linejoin="round"/>
<path d="M86.4422 83.6116C86.3486 83.9068 86.1794 84.1156 86.0606 84.0796C85.9418 84.0436 85.9238 83.7736 86.0138 83.4784C86.1038 83.1832 86.2766 82.9744 86.3954 83.014C86.5142 83.0536 86.5322 83.32 86.4422 83.6116Z" fill="#263238"/>
<path d="M81.0021 83.6395C81.0021 83.6395 80.4369 81.6271 79.7961 82.0303C79.1553 82.4335 78.8313 83.9599 79.4721 84.7663C80.1129 85.5727 81.1605 85.0867 81.1605 85.0867" fill="white"/>
<path d="M81.0021 83.6395C81.0021 83.6395 80.4369 81.6271 79.7961 82.0303C79.1553 82.4335 78.8313 83.9599 79.4721 84.7663C80.1129 85.5727 81.1605 85.0867 81.1605 85.0867" stroke="#263238" stroke-width="0.398" stroke-linecap="round" stroke-linejoin="round"/>
<path d="M85.4652 120.591L67.2852 121.136C66.4422 121.162 65.7793 121.866 65.8046 122.709L65.8829 125.319C65.9082 126.162 66.6121 126.825 67.4551 126.799L85.6351 126.254C86.4781 126.229 87.141 125.525 87.1157 124.682L87.0374 122.072C87.0121 121.229 86.3082 120.566 85.4652 120.591Z" fill="white"/>
<path opacity="0.25" d="M85.4652 120.588L67.2852 121.134C66.4422 121.159 65.7793 121.863 65.8046 122.706L65.8829 125.316C65.9082 126.159 66.6121 126.822 67.4551 126.797L85.6351 126.251C86.4781 126.226 87.141 125.522 87.1157 124.679L87.0374 122.069C87.0121 121.226 86.3082 120.563 85.4652 120.588Z" fill="black"/>
<path opacity="0.25" d="M85.615 121.896L67.4441 122.47C66.6015 122.497 65.94 123.202 65.9667 124.044L66.0491 126.653C66.0757 127.495 66.7804 128.157 67.623 128.13L85.7939 127.556C86.6365 127.529 87.2979 126.825 87.2713 125.982L87.1889 123.374C87.1623 122.531 86.4576 121.869 85.615 121.896Z" fill="black"/>
<path d="M85.4652 120.591L67.2852 121.136C66.4422 121.162 65.7793 121.866 65.8046 122.709L65.8829 125.319C65.9082 126.162 66.6121 126.825 67.4551 126.799L85.6351 126.254C86.4781 126.229 87.141 125.525 87.1157 124.682L87.0374 122.072C87.0121 121.229 86.3082 120.566 85.4652 120.591Z" stroke="#263238" stroke-width="0.398179" stroke-linecap="round" stroke-linejoin="round"/>
<path d="M80.0957 123.986C79.9991 123.986 79.9037 123.966 79.8149 123.928C79.7249 123.893 79.643 123.84 79.574 123.772C79.5051 123.704 79.4505 123.623 79.4135 123.534C79.3766 123.444 79.358 123.348 79.3589 123.252C79.3598 123.155 79.3802 123.059 79.4189 122.971C80.5997 120.127 81.9389 115.051 80.5673 113.539C80.2433 113.316 78.2921 112.84 67.7729 113.805L67.0097 113.874C66.2897 113.931 65.6453 114.867 65.4833 115.191C65.3959 115.365 65.2431 115.497 65.0584 115.558C64.8738 115.619 64.6724 115.604 64.4987 115.517C64.3249 115.43 64.193 115.277 64.1319 115.092C64.0708 114.907 64.0855 114.706 64.1729 114.532C64.2737 114.331 65.2169 112.541 66.8945 112.412L67.6397 112.347C78.8465 111.317 80.9957 111.836 81.6473 112.545C84.1169 115.242 81.1217 122.694 80.7725 123.536C80.7181 123.67 80.6244 123.785 80.5036 123.866C80.3829 123.946 80.2407 123.988 80.0957 123.986Z" fill="white" stroke="#263238" stroke-width="0.398" stroke-linecap="round" stroke-linejoin="round"/>
<path d="M144.261 109.815H86.5527V113.858H144.261V109.815Z" fill="#FFCF23" stroke="#263238" stroke-width="0.398" stroke-linecap="round" stroke-linejoin="round"/>
<path d="M110.015 108.182H97.4512V110.918H110.015V108.182Z" fill="white" stroke="#263238" stroke-width="0.398" stroke-linecap="round" stroke-linejoin="round"/>
<path d="M134.385 105.599H121.821V107.626H134.385V105.599Z" fill="white" stroke="#263238" stroke-width="0.398" stroke-linecap="round" stroke-linejoin="round"/>
<path d="M134.892 103.571H122.328V105.598H134.892V103.571Z" fill="white" stroke="#263238" stroke-width="0.398" stroke-linecap="round" stroke-linejoin="round"/>
<path d="M135.144 107.575H122.58V110.92H135.144V107.575Z" fill="white" stroke="#263238" stroke-width="0.398" stroke-linecap="round" stroke-linejoin="round"/>
<path d="M144.261 109.905H86.5527V111.831H144.261V109.905Z" fill="#263238" stroke="#263238" stroke-width="0.398" stroke-linecap="round" stroke-linejoin="round"/>
<path d="M86.873 147.482C86.7667 147.482 86.6647 147.44 86.5892 147.365C86.5137 147.291 86.4708 147.189 86.4698 147.083L86.207 109.905H87.5354L87.2726 147.083C87.2726 147.189 87.2305 147.29 87.1556 147.365C87.0806 147.44 86.979 147.482 86.873 147.482Z" fill="#FFCF23" stroke="#263238" stroke-width="0.398" stroke-linecap="round" stroke-linejoin="round"/>
<path d="M143.912 147.482C143.806 147.482 143.705 147.44 143.63 147.365C143.555 147.29 143.513 147.189 143.513 147.083L143.25 109.905H144.578L144.316 147.083C144.314 147.189 144.271 147.29 144.195 147.364C144.12 147.439 144.018 147.481 143.912 147.482Z" fill="#FFCF23" stroke="#263238" stroke-width="0.398" stroke-linecap="round" stroke-linejoin="round"/>
<path d="M117.755 109.241H111.534C111.415 109.241 111.301 109.193 111.216 109.109C111.132 109.024 111.084 108.91 111.084 108.791C111.084 108.671 111.132 108.557 111.216 108.472C111.301 108.388 111.415 108.341 111.534 108.341H117.755C117.904 108.338 118.051 108.305 118.187 108.243C118.323 108.181 118.444 108.092 118.544 107.981C118.663 107.847 118.748 107.685 118.789 107.51C118.831 107.336 118.828 107.153 118.781 106.98L116.574 99.0598C116.559 99.0029 116.554 98.9433 116.561 98.8846C116.568 98.8259 116.587 98.7692 116.616 98.7177C116.645 98.6662 116.684 98.621 116.731 98.5846C116.777 98.5481 116.831 98.5212 116.888 98.5054C117.003 98.4744 117.125 98.4898 117.229 98.5484C117.333 98.607 117.409 98.7041 117.442 98.8186L119.649 106.739C119.73 107.031 119.742 107.337 119.685 107.635C119.628 107.932 119.503 108.213 119.32 108.454C119.136 108.695 118.9 108.89 118.628 109.025C118.357 109.16 118.058 109.23 117.755 109.23V109.241Z" fill="white" stroke="#263238" stroke-width="0.398" stroke-linecap="round" stroke-linejoin="round"/>
<path d="M116.979 88.6903L115.571 88.5214L113.387 106.729L114.795 106.898L116.979 88.6903Z" fill="white" stroke="#263238" stroke-width="0.398" stroke-linecap="round" stroke-linejoin="round"/>
<path d="M117 88.6808C118.379 94.8215 117.608 101.25 114.814 106.89L117 88.6808Z" fill="#263238" stroke="#263238" stroke-width="0.398" stroke-linecap="round" stroke-linejoin="round"/>
<path d="M105.094 108.191C104.833 108.185 104.576 108.117 104.346 107.993C104.003 107.822 103.717 107.554 103.525 107.223C103.333 106.891 103.243 106.51 103.266 106.128C103.275 105.946 103.324 105.768 103.41 105.608C103.496 105.447 103.616 105.308 103.762 105.199C104.385 104.753 105.328 104.969 105.436 104.998C105.529 105.021 105.609 105.08 105.657 105.162C105.706 105.244 105.721 105.342 105.697 105.435C105.674 105.528 105.615 105.607 105.533 105.656C105.451 105.705 105.353 105.719 105.26 105.696C104.901 105.599 104.519 105.629 104.18 105.782C104.118 105.83 104.069 105.891 104.035 105.961C104.001 106.031 103.984 106.108 103.986 106.186C103.973 106.427 104.031 106.666 104.154 106.874C104.276 107.082 104.457 107.249 104.673 107.356C104.767 107.421 104.877 107.459 104.991 107.467C105.105 107.474 105.219 107.451 105.321 107.399C105.395 107.338 105.489 107.308 105.585 107.317C105.632 107.321 105.678 107.335 105.72 107.357C105.761 107.379 105.799 107.409 105.829 107.446C105.859 107.482 105.882 107.524 105.896 107.569C105.91 107.614 105.915 107.662 105.911 107.709C105.906 107.756 105.893 107.802 105.871 107.844C105.848 107.886 105.818 107.923 105.782 107.953C105.587 108.11 105.344 108.194 105.094 108.191Z" fill="white" stroke="#263238" stroke-width="0.398" stroke-linecap="round" stroke-linejoin="round"/>
<path d="M108.395 108.805C107.927 109.194 106.429 109.194 105.961 108.805C105.126 108.111 105.151 104.536 105.151 104.536H109.205C109.205 104.536 109.23 108.111 108.395 108.805Z" fill="white" stroke="#263238" stroke-width="0.398" stroke-linecap="round" stroke-linejoin="round"/>
<path d="M145.681 109.02H85.1362V110.698H145.681V109.02Z" fill="#FFCF23" stroke="#263238" stroke-width="0.398" stroke-linecap="round" stroke-linejoin="round"/>
<path d="M157.571 147.2H24.5439V149.609H157.571V147.2Z" fill="#263238"/>
</svg>
