<svg width="350" height="350" viewBox="0 0 350 350" fill="none" xmlns="http://www.w3.org/2000/svg">
<path d="M47.5503 117.963C47.5503 117.963 28.0343 168.363 55.4603 219.113C82.8863 269.863 139.376 296.673 184.589 319.598C229.802 342.523 276.751 331.358 299.06 293.81C321.369 256.262 290.772 229.459 290.73 175.916C290.688 122.373 298.745 108.198 269.73 62.9639C240.715 17.7299 169.588 7.7129 115.8 41.2639C62.0123 74.8149 47.5503 117.963 47.5503 117.963Z" fill="white"/>
<path d="M88.8994 311.863C105.419 329.3 145.977 322.916 163.54 311.863C220.562 275.981 320.515 216.264 325.037 129.744C326.962 92.9659 294.538 73.6599 280.986 67.9899C248.499 54.3889 212.799 50.3009 177.533 48.7259C140.734 47.0809 101.233 48.3619 68.1164 66.3169C55.5654 73.0999 43.7214 81.8429 35.6154 93.7499C27.3764 105.846 22.6374 120.245 21.3844 134.784C19.3544 158.234 25.6614 181.747 35.2024 203.265C44.7434 224.783 57.4694 244.712 69.1454 265.145C76.7614 278.48 74.9974 297.163 88.8994 311.863Z" fill="#FFCF23"/>
<path opacity="0.7" d="M88.8994 311.863C105.419 329.3 145.977 322.916 163.54 311.863C220.562 275.981 320.515 216.264 325.037 129.744C326.962 92.9659 294.538 73.6599 280.986 67.9899C248.499 54.3889 212.799 50.3009 177.533 48.7259C140.734 47.0809 101.233 48.3619 68.1164 66.3169C55.5654 73.0999 43.7214 81.8429 35.6154 93.7499C27.3764 105.846 22.6374 120.245 21.3844 134.784C19.3544 158.234 25.6614 181.747 35.2024 203.265C44.7434 224.783 57.4694 244.712 69.1454 265.145C76.7614 278.48 74.9974 297.163 88.8994 311.863Z" fill="white"/>
<path d="M232.904 269.052C233.1 208.6 233.1 141.4 232.904 81.354" stroke="#263238" stroke-linecap="round" stroke-linejoin="round"/>
<path d="M244.139 62.664C244.3 129.5 244.3 188.3 244.139 255.115" stroke="#263238" stroke-linecap="round" stroke-linejoin="round"/>
<path d="M232.904 67.018V42.518C234.679 41.7917 236.587 41.4505 238.504 41.517C242.466 41.517 244.104 42.518 244.104 42.518V49.336" stroke="#263238" stroke-linecap="round" stroke-linejoin="round"/>
<path d="M303.401 41.51L305.711 42.448L290.892 55.048L244.139 62.664L241.927 62.006" stroke="#263238" stroke-linecap="round" stroke-linejoin="round"/>
<path d="M241.927 49.819L287.154 39.851L303.401 41.51L289.443 54.005L241.927 62.006V49.819Z" stroke="#263238" stroke-linecap="round" stroke-linejoin="round"/>
<path d="M196.42 59.031L194.523 60.165L206.017 73.878L232.897 81.354L235.767 80.633" stroke="#263238" stroke-linecap="round" stroke-linejoin="round"/>
<path d="M235.767 68.117L207.865 57.365L196.42 59.031L208.236 73.129L235.767 80.633V68.117Z" stroke="#263238" stroke-linecap="round" stroke-linejoin="round"/>
<path d="M145.782 75.943V314.608" stroke="#263238" stroke-linecap="round" stroke-linejoin="round"/>
<path d="M80.2407 57.799C102.2 63 123.9 70.7 145.782 75.943" stroke="#263238" stroke-linecap="round" stroke-linejoin="round"/>
<path d="M54.7471 71.232C84.7001 78.4 115.5 86.1 145.782 93.8" stroke="#263238" stroke-linecap="round" stroke-linejoin="round"/>
<path d="M35.1538 87.451C71.3998 95.9 108.5 103.6 145.782 111.601" stroke="#263238" stroke-linecap="round" stroke-linejoin="round"/>
<path d="M23.9541 106.4C64.4001 114.1 105 121.774 145.754 129.423" stroke="#263238" stroke-linecap="round" stroke-linejoin="round"/>
<path d="M15.3999 126.427L145.782 147.252" stroke="#263238" stroke-linecap="round" stroke-linejoin="round"/>
<path d="M15.3999 148.078L145.782 165.081" stroke="#263238" stroke-linecap="round" stroke-linejoin="round"/>
<path d="M18.438 170.03C60.9 173.6 102.9 179.2 145.782 182.91" stroke="#263238" stroke-linecap="round" stroke-linejoin="round"/>
<path d="M24.458 192.017C57.4 194.6 90.3 196 123.9 199.5C130.9 199.5 138.6 199.5 145.782 200.732" stroke="#263238" stroke-linecap="round" stroke-linejoin="round"/>
<path d="M32.6128 213.745C70.6998 215.6 107.8 217.7 145.782 218.561" stroke="#263238" stroke-linecap="round" stroke-linejoin="round"/>
<path d="M42.8047 235.018C76.9997 235.2 111.3 235.9 145.782 236.39" stroke="#263238" stroke-linecap="round" stroke-linejoin="round"/>
<path d="M54.6909 255.675C84.6999 255.5 115.5 254.8 145.782 254.219" stroke="#263238" stroke-linecap="round" stroke-linejoin="round"/>
<path d="M65.1001 275.695C91.7001 274.4 119 273 145.803 272.041" stroke="#263238" stroke-linecap="round" stroke-linejoin="round"/>
<path d="M137.543 84.847V292.481" stroke="#263238" stroke-linecap="round" stroke-linejoin="round"/>
<path d="M98.3569 66.871V195.874" stroke="#263238" stroke-linecap="round" stroke-linejoin="round"/>
<path d="M53.7671 84.28V226.842" stroke="#263238" stroke-linecap="round" stroke-linejoin="round"/>
<path d="M322.434 89.432L253.953 97.342V257.873" stroke="#263238" stroke-linecap="round" stroke-linejoin="round"/>
<path d="M327.299 110.047L263.053 115.374V243.635" stroke="#263238" stroke-linecap="round" stroke-linejoin="round"/>
<path d="M327.299 141.33L264.908 145.782" stroke="#263238" stroke-linecap="round" stroke-linejoin="round"/>
<path d="M318.066 168.525L266.749 171.864" stroke="#263238" stroke-linecap="round" stroke-linejoin="round"/>
<path d="M288.197 118.097V216.559" stroke="#263238" stroke-linecap="round" stroke-linejoin="round"/>
<path d="M81.0181 299.222C83.0077 303.498 85.6687 307.428 88.9001 310.863C105.42 328.3 146.685 321.916 164.248 310.863C170.023 307.23 175.532 303.345 182.042 299.222" stroke="#263238" stroke-linecap="round" stroke-linejoin="round"/>
<path d="M245.63 180.712L239.204 205.8L250.404 271.019H250.32L250.047 271.075C245.28 272.118 193.928 283.29 191.415 283.08C188.783 282.863 147.525 276.514 147.525 276.514L111.006 280.784L81.7252 267.869L54.6702 272.643L46.9702 177.1C46.9702 177.1 52.6892 130.382 50.0572 117.803C50.0572 117.803 95.1162 124.271 99.2812 124.719C103.446 125.167 151.9 109.9 151.9 109.9L192.787 123.445L227.038 119.112L277.718 142.842C277.718 142.842 244.811 175.602 245.63 180.712Z" fill="white" stroke="#263238" stroke-linecap="round" stroke-linejoin="round"/>
<path d="M55.3002 121.912L99.2812 128.1L151.2 115.318L192.745 126.945L225.344 123.445L270.508 142.8C270.508 142.8 244.804 174.65 243.817 176.687C242.83 178.724 234.591 205.8 234.591 205.8L245.469 267.89L192.766 279.489L148.435 272.398L113.302 275.492L83.4332 262.675L58.6252 267.89L50.5752 178.542C50.5752 178.542 57.9672 142.198 55.3002 121.912Z" fill="#FFCF23" stroke="#263238" stroke-linecap="round" stroke-linejoin="round"/>
<path d="M208.481 155.267L215.6 153.545L250.18 168.322C251.874 166.159 253.785 163.744 255.745 161.28L218.26 145.439L210.364 147.651L215.313 124.502L208.768 125.202L202.762 149.8L183.358 155.232L146.02 158.487L131.103 165.9L131.803 144.053L150.045 135.457L171.297 139.559L174.916 121.989L168.462 120.183L166.418 132.944L150.045 129.444L132.027 137.571L132.608 119.917L123.9 122.031V169.435L101.773 180.425V127.484L99.2533 128.1L93.7373 127.323L94.6823 145.439H79.7163L55.7553 126.7C55.9093 129.402 55.9303 132.3 55.8603 135.247L77.1473 153.062H95.0953L95.7953 166.572L95.1373 172.172L51.0093 183.4L51.2403 185.955L94.8083 174.972L93.8003 183.687L51.9683 194.012L52.7383 202.594L74.9003 196.735L76.9583 223.139L56.5393 244.741L57.3373 253.575L64.5333 245.959L66.1293 266.294L68.1873 265.86L66.7873 243.579L81.6903 227.815L88.9003 225.974L117.439 216.769L116.809 220.913L100.961 270.2L107.058 272.818L115.388 245.931L127.68 243.656L152.376 254.338L163.835 255.073L161.889 274.554L164.941 275.037L166.271 255.22L195.02 257.061L215.789 254.072L218.435 273.84L223.783 272.664L221.2 253.274L242.347 250.229L241.29 244.181L196.28 250.152L178.08 248.556L180.67 224.056L196.483 215.418H201.383L236.831 219.009L235.585 211.834L202.384 208.691H194.719L198.611 185.29L208.481 155.267ZM90.8813 217.637L78.8413 221.207L77.2453 196.098L95.7953 191.198L123.459 176.918L118.902 207.2L90.8813 217.637ZM129.927 236.768L117.446 239.246L122.626 222.6L130.459 173.327L146.23 165.186L152.355 190.022L150.066 210.7L143.192 242.088L129.927 236.768ZM187.11 214.018L176.246 219.163L172.249 248.045L154.049 246.449L147.784 243.936L154.784 212.765L157.5 191.184H170.037L190.96 187.684L187.11 214.018ZM191.975 182.651L170.975 186.97H154.091L149.009 164.745L181.958 161.7L200.564 157.178L191.975 182.651Z" fill="white" stroke="#263238" stroke-linecap="round" stroke-linejoin="round"/>
<path opacity="0.5" d="M200.564 202.65L202.461 187.663L226.681 192.983L224.707 205.779L200.564 202.65Z" fill="white"/>
<path opacity="0.5" d="M215.572 186.97L220.507 173.208L238.749 180.089L234.563 194.32L215.572 186.97Z" fill="white"/>
<path opacity="0.5" d="M211.61 157.192H213.626L221.249 160.643L213.626 183.764L206.479 181.622L204.19 181.118L211.61 157.192Z" fill="white"/>
<path opacity="0.5" d="M226.681 163.324L244.475 170.478L241.514 175.602L224.707 170.478L226.681 163.324Z" fill="white"/>
<path opacity="0.5" d="M215.572 142.814L219.023 126.945L224.707 126.042L233.107 129.416L227.157 145.775L219.135 142.814H215.572Z" fill="white"/>
<path opacity="0.5" d="M230.881 147.49L234.591 138.362L259.553 149.73L254.611 157.192L230.881 147.49Z" fill="white"/>
<path opacity="0.5" d="M177.688 126.042L190.946 129.878L186.921 150.969H184.996H173.299L177.688 126.042Z" fill="white"/>
<path opacity="0.5" d="M194.306 130.459L204.19 128.779L200.564 147.49L190.946 149.982L194.306 130.459Z" fill="white"/>
<path opacity="0.5" d="M170.583 142.814L169.386 151.956L147.833 152.943L134.876 159.621V147.49L150.563 139.384L170.583 142.814Z" fill="white"/>
<path opacity="0.5" d="M135.814 121.912L151.382 117.817L150.178 126.945L134.904 132.916L135.814 121.912Z" fill="white"/>
<path opacity="0.5" d="M153.363 126.945L164.647 129.416L166.446 121.065L154.763 119.084L153.363 126.945Z" fill="white"/>
<path opacity="0.5" d="M104.594 129.416V142.814L120.904 138.362V126.042L104.594 129.416Z" fill="white"/>
<path opacity="0.5" d="M105.714 147.777V174.258L114.723 170.478L113.302 154.182L120.904 151.956V142.814L105.714 147.777Z" fill="white"/>
<path opacity="0.5" d="M78.3931 156.156L79.6321 173.208L91.4901 170.478L93.3941 165.158V156.156H78.3931Z" fill="white"/>
<path opacity="0.5" d="M59.1221 142.8L74.7671 154.91V163.31L57.1411 164.668C57.1411 164.668 59.3671 149.982 59.1221 142.8Z" fill="white"/>
<path opacity="0.5" d="M57.1411 168.021L73.2621 166.537V174.671L54.3062 179.844L57.1411 168.021Z" fill="white"/>
<path opacity="0.5" d="M78.3931 128.779V140.343L91.4901 141.33L90.9511 129.416L78.3931 128.779Z" fill="white"/>
<path opacity="0.5" d="M133.203 175.602L144.452 170.359L147.833 189.532L130.956 192.5L133.203 175.602Z" fill="white"/>
<path opacity="0.5" d="M135.814 195.419L134.904 208.551L146.608 207.319V192.5L135.814 195.419Z" fill="white"/>
<path opacity="0.5" d="M169.386 166.537L167.86 183.764H174.223L188.377 181.426L196.532 160.643L180.992 165.158L169.386 166.537Z" fill="white"/>
<path opacity="0.5" d="M153.363 167.524V172.2L165.144 171.864V166.537L153.363 167.524Z" fill="white"/>
<path opacity="0.5" d="M170.583 197.449L169.386 211.274L184.919 208.551L186.921 192.5L170.583 197.449Z" fill="white"/>
<path opacity="0.5" d="M156.989 215.439L167.86 216.216L165.144 243.957L154.714 243.635L150.808 242.228L156.989 215.439Z" fill="white"/>
<path opacity="0.5" d="M160.538 195.419L167.86 196.476L166.446 205.779H159.25L160.538 195.419Z" fill="white"/>
<path opacity="0.5" d="M219.023 221.207L233.107 222.572L236.32 239.54L219.023 239.897V221.207Z" fill="white"/>
<path opacity="0.5" d="M186.921 226.842L200.564 225.743L202.461 245.623H184.667L186.921 226.842Z" fill="white"/>
<path opacity="0.5" d="M224.707 257.033L226.681 266.119L236.32 264.551L234.591 255.101L224.707 257.033Z" fill="white"/>
<path opacity="0.5" d="M193.564 260.61L212.716 258.279L213.626 268.856L192.766 274.029L180.964 272.643L185.08 259.63L193.564 260.61Z" fill="white"/>
<path opacity="0.5" d="M94.458 229.698L110.033 226.842L108.983 237.594L104.594 248.08L93.394 251.062L94.458 229.698Z" fill="white"/>
<path opacity="0.5" d="M80.8711 199.052V207.564L92.8621 205.779L99.2811 203.308L98.9521 192.5L94.5841 195.419L80.8711 199.052Z" fill="white"/>
<path opacity="0.5" d="M55.9023 205.779L71.7223 201.887L73.2623 218.232L58.1283 221.207L55.9023 205.779Z" fill="white"/>
<path opacity="0.5" d="M57.0083 234.836L66.0383 226.842L68.3833 229.012L59.0453 237.979L57.0083 234.836Z" fill="white"/>
<path opacity="0.5" d="M59.3672 257.033L63.7842 255.99L64.5822 264.901L60.2072 265.538L59.3672 257.033Z" fill="white"/>
<path opacity="0.5" d="M70.9803 262.437L70.1333 246.862L80.8713 245.623V261.016L70.9803 262.437Z" fill="white"/>
<path opacity="0.5" d="M138.628 226.842C141.965 226.842 144.669 224.137 144.669 220.801C144.669 217.465 141.965 214.76 138.628 214.76C135.292 214.76 132.587 217.465 132.587 220.801C132.587 224.137 135.292 226.842 138.628 226.842Z" fill="white"/>
<path opacity="0.1" d="M245.63 180.712L239.204 205.8L250.404 271.019H250.32L250.047 271.075L191.422 283.08L206.661 180.376L227.017 119.084L277.697 142.814C277.697 142.814 244.811 175.602 245.63 180.712Z" fill="black" fill-opacity="0.7"/>
<path opacity="0.1" d="M192.766 123.417L177.254 178.402L163.744 202.286L147.532 276.514L111.013 280.784L137.907 218.239L144.305 171.479L152.411 110.047L192.766 123.417Z" fill="black" fill-opacity="0.7"/>
<path opacity="0.1" d="M98.9521 124.698L97.8391 175.798L82.5091 268.24L81.7321 267.897L54.6701 272.643L47.6001 184.604L89.9571 168.224L96.9571 124.439L98.9521 124.698Z" fill="black" fill-opacity="0.7"/>
<path d="M204.862 152.376C204.748 152.257 204.604 152.171 204.445 152.127C204.286 152.083 204.119 152.082 203.959 152.124L182.7 157.605L146.531 160.335C146.407 160.343 146.285 160.376 146.174 160.433L98.7004 184.8L99.4004 169.4V148.589C99.4004 148.466 99.3761 148.344 99.329 148.23C99.2819 148.116 99.2128 148.013 99.1257 147.926C99.0386 147.839 98.9352 147.77 98.8214 147.722C98.7075 147.675 98.5856 147.651 98.4624 147.651H88.9004C88.6516 147.651 88.413 147.75 88.2371 147.926C88.0612 148.102 87.9624 148.34 87.9624 148.589C87.9624 148.838 88.0612 149.076 88.2371 149.252C88.413 149.428 88.6516 149.527 88.9004 149.527H97.4824V169.33L96.7264 186.319C96.7169 186.483 96.7515 186.647 96.8266 186.794C96.9017 186.94 97.0145 187.064 97.1534 187.152C97.2911 187.24 97.4493 187.291 97.6124 187.299C97.7756 187.308 97.9382 187.274 98.0844 187.201L146.853 162.19L182.917 159.467C182.971 159.474 183.025 159.474 183.078 159.467L202.832 154.371L194.327 184.471C194.325 184.504 194.325 184.536 194.327 184.569L192.927 192.885H192.129C192.086 192.885 192.044 192.895 192.005 192.913C191.966 192.932 191.932 192.959 191.905 192.993C191.878 193.026 191.859 193.066 191.85 193.107C191.84 193.149 191.84 193.193 191.849 193.235L193.032 196.518C193.047 196.579 193.078 196.634 193.122 196.678C193.166 196.721 193.222 196.752 193.283 196.765C193.344 196.778 193.407 196.774 193.466 196.752C193.524 196.731 193.575 196.693 193.613 196.644L195.825 193.445C195.965 193.249 195.825 193.011 195.524 192.997H194.824L196.147 184.975L205.1 153.3C205.149 153.139 205.152 152.968 205.11 152.805C205.068 152.642 204.982 152.494 204.862 152.376Z" fill="#FFCF23"/>
<path opacity="0.6" d="M204.862 152.376C204.748 152.257 204.604 152.171 204.445 152.127C204.286 152.083 204.119 152.082 203.959 152.124L182.7 157.605L146.531 160.335C146.407 160.343 146.285 160.376 146.174 160.433L98.7004 184.8L99.4004 169.4V148.589C99.4004 148.466 99.3761 148.344 99.329 148.23C99.2819 148.116 99.2128 148.013 99.1257 147.926C99.0386 147.839 98.9352 147.77 98.8214 147.722C98.7075 147.675 98.5856 147.651 98.4624 147.651H88.9004C88.6516 147.651 88.413 147.75 88.2371 147.926C88.0612 148.102 87.9624 148.34 87.9624 148.589C87.9624 148.838 88.0612 149.076 88.2371 149.252C88.413 149.428 88.6516 149.527 88.9004 149.527H97.4824V169.33L96.7264 186.319C96.7169 186.483 96.7515 186.647 96.8266 186.794C96.9017 186.94 97.0145 187.064 97.1534 187.152C97.2911 187.24 97.4493 187.291 97.6124 187.299C97.7756 187.308 97.9382 187.274 98.0844 187.201L146.853 162.19L182.917 159.467C182.971 159.474 183.025 159.474 183.078 159.467L202.832 154.371L194.327 184.471C194.325 184.504 194.325 184.536 194.327 184.569L192.927 192.885H192.129C192.086 192.885 192.044 192.895 192.005 192.913C191.966 192.932 191.932 192.959 191.905 192.993C191.878 193.026 191.859 193.066 191.85 193.107C191.84 193.149 191.84 193.193 191.849 193.235L193.032 196.518C193.047 196.579 193.078 196.634 193.122 196.678C193.166 196.721 193.222 196.752 193.283 196.765C193.344 196.778 193.407 196.774 193.466 196.752C193.524 196.731 193.575 196.693 193.613 196.644L195.825 193.445C195.965 193.249 195.825 193.011 195.524 192.997H194.824L196.147 184.975L205.1 153.3C205.149 153.139 205.152 152.968 205.11 152.805C205.068 152.642 204.982 152.494 204.862 152.376Z" fill="black" fill-opacity="0.7"/>
<path d="M93.1002 114.898C92.1504 113.947 91.0227 113.193 89.7813 112.679C88.54 112.164 87.2094 111.9 85.8657 111.9C84.522 111.9 83.1914 112.164 81.9501 112.679C80.7088 113.193 79.581 113.947 78.6312 114.898C76.7149 116.818 75.6387 119.42 75.6387 122.133C75.6387 124.845 76.7149 127.447 78.6312 129.367L85.8692 136.598L93.1002 129.367C94.0508 128.417 94.8048 127.289 95.3193 126.048C95.8338 124.807 96.0986 123.476 96.0986 122.133C96.0986 120.789 95.8338 119.458 95.3193 118.217C94.8048 116.976 94.0508 115.848 93.1002 114.898ZM88.9002 125.111C88.3119 125.696 87.5635 126.094 86.7494 126.254C85.9354 126.414 85.0921 126.329 84.3261 126.01C83.5601 125.692 82.9056 125.153 82.4452 124.463C81.9848 123.773 81.739 122.962 81.739 122.133C81.739 121.303 81.9848 120.492 82.4452 119.802C82.9056 119.111 83.5601 118.573 84.3261 118.255C85.0921 117.936 85.9354 117.851 86.7494 118.011C87.5635 118.171 88.3119 118.569 88.9002 119.154C89.2928 119.544 89.6044 120.008 89.817 120.52C90.0296 121.031 90.1391 121.579 90.1391 122.133C90.1391 122.686 90.0296 123.234 89.817 123.745C89.6044 124.257 89.2928 124.721 88.9002 125.111Z" fill="#263238"/>
<path d="M78.6382 126.616C79.4434 128.257 80.5916 129.706 82.0052 130.865" stroke="white" stroke-linecap="round" stroke-linejoin="round"/>
<path d="M81.1234 114.8C77.6234 116.9 76.7134 120.953 77.8614 124.684" stroke="white" stroke-linecap="round" stroke-linejoin="round"/>
<path d="M85.8971 113.442C85.0125 113.446 84.133 113.578 83.2861 113.834" stroke="white" stroke-linecap="round" stroke-linejoin="round"/>
<path d="M185.388 179.9C184.438 178.949 183.311 178.195 182.069 177.681C180.828 177.166 179.497 176.902 178.154 176.902C176.81 176.902 175.479 177.166 174.238 177.681C172.997 178.195 171.869 178.949 170.919 179.9C169.969 180.85 169.215 181.978 168.7 183.219C168.186 184.46 167.921 185.791 167.921 187.135C167.921 188.478 168.186 189.809 168.7 191.05C169.215 192.291 169.969 193.419 170.919 194.369L178.15 201.6L185.388 194.369C186.339 193.419 187.093 192.291 187.607 191.05C188.122 189.809 188.387 188.478 188.387 187.135C188.387 185.791 188.122 184.46 187.607 183.219C187.093 181.978 186.339 180.85 185.388 179.9ZM181.132 190.113C180.544 190.698 179.795 191.096 178.981 191.256C178.167 191.416 177.324 191.331 176.558 191.012C175.792 190.694 175.138 190.156 174.677 189.465C174.217 188.775 173.971 187.964 173.971 187.135C173.971 186.305 174.217 185.494 174.677 184.804C175.138 184.114 175.792 183.575 176.558 183.257C177.324 182.938 178.167 182.853 178.981 183.013C179.795 183.174 180.544 183.571 181.132 184.156C181.525 184.546 181.836 185.01 182.049 185.522C182.262 186.033 182.371 186.581 182.371 187.135C182.371 187.688 182.262 188.236 182.049 188.747C181.836 189.259 181.525 189.723 181.132 190.113Z" fill="#263238"/>
<path d="M170.898 191.618C171.703 193.261 172.851 194.713 174.265 195.874" stroke="white" stroke-linecap="round" stroke-linejoin="round"/>
<path d="M173.383 179.795C169.883 181.895 168.973 185.941 170.121 189.679" stroke="white" stroke-linecap="round" stroke-linejoin="round"/>
<path d="M178.15 178.444C177.268 178.451 176.392 178.583 175.546 178.836" stroke="white" stroke-linecap="round" stroke-linejoin="round"/>
<path d="M245.63 180.705C244.804 181.041 237.888 181.86 237.888 181.86C238.049 180.215 241.514 177.247 241.514 175.602C241.54 175.408 241.518 175.211 241.45 175.028C241.382 174.844 241.269 174.681 241.122 174.552C240.975 174.423 240.798 174.332 240.608 174.288C240.417 174.244 240.218 174.248 240.03 174.3C239.701 176.442 234.262 180.39 233.107 180.887C231.952 181.384 228.823 191.926 227.129 193.578C213.829 206.836 201.229 214.501 196.532 223.678C193.522 229.355 189.094 234.156 183.68 237.615C183.68 237.615 180.964 272.573 191.338 257.04C201.712 241.507 205.429 242.417 210.616 235.501C215.803 228.585 225.939 212.8 233.849 199.5C237.888 196.07 241.017 197.659 243.488 195.188C244.013 194.663 243.656 192.549 244.475 191.163C245.294 189.777 246.617 187.278 246.456 185.794C246.295 184.31 247.611 183.491 247.772 182.665C247.933 181.839 246.456 180.376 245.63 180.705Z" fill="#BFBFBF" stroke="#263238" stroke-miterlimit="10"/>
<path d="M86.0999 229.306C83.4119 219.345 72.6599 209.244 62.3979 193.522C61.0889 191.555 60.1999 180.6 59.1849 179.9C58.1699 179.2 53.6549 174.188 53.7739 172.025C53.599 171.935 53.4044 171.89 53.2077 171.894C53.0111 171.898 52.8185 171.951 52.6476 172.049C52.4766 172.146 52.3326 172.284 52.2286 172.451C52.1246 172.618 52.0639 172.809 52.0519 173.005C51.7089 174.615 54.4809 178.234 54.3059 179.879C54.3059 179.879 47.7049 177.646 46.9629 177.149C46.2209 176.652 44.4709 177.8 44.4639 178.64C44.4569 179.48 45.5699 180.558 45.1009 181.979C44.6319 183.4 45.4089 186.116 45.9269 187.642C46.4449 189.168 45.6609 191.142 46.0599 191.779C47.9709 194.712 51.3589 193.802 54.5999 197.995C59.5979 212.583 66.2409 230.146 69.8879 237.993C73.5349 245.84 77.3499 245.693 84.2939 263.06C91.2379 280.427 95.8089 245.637 95.8089 245.637C91.2155 241.124 87.8704 235.497 86.0999 229.306Z" fill="#BFBFBF" stroke="#263238" stroke-miterlimit="10"/>
<path d="M90.4678 234.045C90.4678 234.045 92.2598 229.789 88.9138 228.445C85.5678 227.101 81.3608 229.53 81.3608 229.53C81.3608 229.53 75.1798 231.077 74.9348 237.615C74.9348 237.615 73.5348 259.553 78.6868 259.637C83.8388 259.721 90.4678 234.045 90.4678 234.045Z" fill="#999999" stroke="#263238" stroke-linecap="round" stroke-linejoin="round"/>
<path d="M186.9 234.808C186.9 234.808 186.627 231.364 190.827 231.819C195.027 232.274 198.485 238.259 198.24 246.638C198.24 246.638 200.165 257.327 194.999 257.033C189.833 256.739 186.9 234.808 186.9 234.808Z" fill="#999999" stroke="#263238" stroke-linecap="round" stroke-linejoin="round"/>
<path d="M105.833 253.743C105.833 253.743 91.5181 237.062 88.9001 231.294C88.9001 231.294 79.0441 230.972 77.7001 239.617C76.9366 245.397 76.9366 251.253 77.7001 257.033C77.7001 257.033 87.416 283.549 91.455 293.587L105.833 253.743Z" fill="#757575"/>
<g opacity="0.3">
<path opacity="0.3" d="M100.8 247.702C98.4745 248.011 96.2307 248.767 94.1921 249.928C93.6531 250.222 93.1071 250.551 92.5611 250.922C92.0524 251.264 91.5829 251.66 91.1611 252.105C89.0611 254.205 87.6611 257.376 86.7861 261.107C86.332 263.035 85.9954 264.99 85.7781 266.959C85.3957 270.405 85.2367 273.873 85.3021 277.34C84.1121 274.183 82.9361 271.04 81.8721 268.163C82.0609 266.014 82.3741 263.878 82.8101 261.765C83.1536 260.069 83.6215 258.401 84.2101 256.774C85.1553 253.817 86.8142 251.139 89.0401 248.976C89.4938 248.555 89.9807 248.171 90.4961 247.828C91.0421 247.464 91.5881 247.128 92.1201 246.82C94.0083 245.731 96.0426 244.918 98.1611 244.405L100.8 247.702Z" fill="#FFCF23"/>
</g>
<g opacity="0.3">
<path opacity="0.3" d="M95.2981 240.8C93.3653 241.355 91.4731 242.042 89.6351 242.858C88.9981 243.138 88.3471 243.446 87.6681 243.775C87.1794 244.011 86.7111 244.287 86.2681 244.601C83.9371 246.281 82.3201 248.983 81.1931 252.07C80.6278 253.683 80.1809 255.334 79.8561 257.012C79.5831 258.412 79.3801 259.812 79.2191 261.17L77.7071 257.054C77.7071 257.054 77.4691 255.458 77.2941 252.966C77.2941 252.714 77.2941 252.455 77.2451 252.189C77.6597 250.861 78.1649 249.563 78.7571 248.304C79.992 245.511 81.9462 243.095 84.4201 241.304C84.9205 240.964 85.4445 240.66 85.9881 240.394C86.5901 240.093 87.1851 239.82 87.7591 239.561C89.4268 238.806 91.1351 238.145 92.8761 237.58C93.6531 238.623 94.4581 239.694 95.2981 240.8Z" fill="#FFCF23"/>
</g>
<g opacity="0.3">
<path opacity="0.3" d="M90.2162 233.646C88.6182 234.063 87.0763 234.672 85.6242 235.459C84.5072 236.051 83.4398 236.732 82.4322 237.496C80.6065 238.869 78.929 240.429 77.4272 242.151C77.5042 241.311 77.6092 240.464 77.7352 239.624C78.0062 237.505 79.0238 235.551 80.6052 234.115L80.6962 234.059C81.4452 233.521 82.2209 233.021 83.0202 232.561C83.3142 232.386 83.6152 232.225 83.9162 232.064L83.9722 232.176C84.5211 231.976 85.0822 231.813 85.6522 231.686C86.715 231.44 87.8023 231.315 88.8932 231.315C89.2853 232.119 89.7271 232.897 90.2162 233.646Z" fill="#FFCF23"/>
</g>
<g opacity="0.3">
<path opacity="0.3" d="M98.8121 255.78L96.0121 258.286C94.2591 256.323 92.6229 254.26 91.1121 252.105C90.3771 251.076 89.6701 250.005 88.9771 248.962C88.0461 247.52 87.1431 246.057 86.2821 244.587C85.6475 243.495 85.0315 242.403 84.4341 241.311C83.7341 240.03 83.0341 238.749 82.4181 237.496C81.8021 236.243 81.2421 235.158 80.7031 234.038C81.4091 233.438 82.1933 232.936 83.0341 232.547C83.3281 232.372 83.6291 232.211 83.9301 232.05L83.9861 232.162C84.5041 233.233 85.0431 234.339 85.6171 235.466C86.3171 236.81 87.0171 238.189 87.7801 239.575C88.3775 240.667 88.9934 241.759 89.6281 242.851C90.4121 244.181 91.2241 245.502 92.0641 246.813C92.7501 247.877 93.4501 248.918 94.1641 249.935C95.6003 251.971 97.1522 253.922 98.8121 255.78Z" fill="#FFCF23"/>
</g>
<g opacity="0.3">
<path opacity="0.3" d="M95.2001 278.943L91.5951 280C90.5241 276.353 88.3751 271.782 85.7431 266.959C84.8121 265.244 83.8111 263.501 82.7751 261.758C81.8371 260.162 80.8641 258.573 79.8841 257.005C79.0371 255.605 78.1831 254.275 77.3221 252.959C77.3221 252.707 77.3221 252.448 77.2731 252.182C77.1681 250.383 77.1121 248.22 77.1891 245.882L78.7851 248.297C79.5831 249.515 80.4021 250.782 81.2211 252.063C82.2011 253.603 83.1881 255.178 84.1611 256.767C85.0431 258.209 85.9111 259.665 86.7511 261.114C90.5031 267.575 93.7441 274.001 95.2001 278.943Z" fill="#FFCF23"/>
</g>
<path opacity="0.2" d="M94.9062 284.102L91.4902 293.587C87.4512 283.549 77.7352 257.04 77.7352 257.04C76.9717 251.26 76.9717 245.404 77.7352 239.624C78.5542 234.248 82.6352 232.337 85.6732 231.665C85.8526 231.695 86.0303 231.734 86.2052 231.784C86.2052 231.784 78.4072 236.775 79.2612 255.99L86.8562 276.99C86.8562 276.99 87.6542 269.675 90.6922 270.732C92.0012 271.201 93.8632 277.27 94.9062 284.102Z" fill="black" fill-opacity="0.7"/>
<path d="M105.833 253.743C105.833 253.743 91.5181 237.062 88.9001 231.294C88.9001 231.294 79.0441 230.972 77.7001 239.617C76.9366 245.397 76.9366 251.253 77.7001 257.033C77.7001 257.033 87.416 283.549 91.455 293.587L105.833 253.743Z" stroke="#263238" stroke-linecap="round" stroke-linejoin="round"/>
<path d="M136.654 238.847C136.584 239.134 136.297 239.372 135.814 239.547C134.444 239.903 133.021 240.007 131.614 239.855C122.689 239.365 104.58 234.066 100.261 223.524C95.6479 212.275 107.485 197.589 120.155 197.274C127.435 197.099 133.574 205.674 135.051 215.782C135.8 220.654 139.937 224.7 136.654 238.847Z" fill="#BFBFBF" stroke="#263238" stroke-miterlimit="10"/>
<path d="M130.466 222.6C129.982 223.527 129.808 224.584 129.969 225.617" stroke="#263238" stroke-linecap="round" stroke-linejoin="round"/>
<path d="M130.536 228.438C130.536 228.438 131.831 230.188 132.762 229.376" stroke="#263238" stroke-linecap="round" stroke-linejoin="round"/>
<path d="M135.8 239.547C134.43 239.903 133.007 240.007 131.6 239.855C131.782 238.532 132.132 236.999 132.244 236.229C132.608 233.8 131.39 233.044 131.908 232.869C132.426 232.694 132.377 234.857 133.406 235.956C134.363 237.039 135.169 238.247 135.8 239.547Z" fill="#263238"/>
<path d="M132.3 237.699C132.3 237.699 130.711 243.789 130.9 246.876C131.113 249.243 131.542 251.586 132.181 253.876L112.959 254.989C112.959 254.989 115.836 241.15 114.296 236.306C112.756 231.462 126.588 233.226 126.588 233.226" fill="#BFBFBF"/>
<path d="M132.3 237.699C132.3 237.699 130.711 243.789 130.9 246.876C131.113 249.243 131.542 251.586 132.181 253.876L112.959 254.989C112.959 254.989 115.836 241.15 114.296 236.306C112.756 231.462 126.588 233.226 126.588 233.226" stroke="#263238" stroke-miterlimit="10"/>
<path d="M130.102 209.132C130.907 206.514 132.342 206.78 132.342 206.78C132.342 206.78 131.411 194.215 126.042 192.878C122.416 191.968 121.422 197.428 117.642 193.494C115.542 191.289 111.706 190.694 109.137 192.556C107.618 193.676 107.667 195.237 106.652 196.595C105.637 197.953 103.544 197.897 102.004 198.212C99.624 198.695 97.209 200.466 96.712 202.972C96.306 205.016 98.812 206.633 98.322 208.313C97.741 210.322 95.872 211.54 94.717 213.213C93.317 215.215 93.191 217.819 93.73 220.143C94.535 223.601 96.32 224.952 99.099 226.716C100.499 227.598 101.318 229.201 102.179 230.552C105.063 235.088 108.563 238.406 114.079 239.344C125.146 241.234 130.102 231.021 130.102 231.021C130.102 231.021 128.856 220.899 129.759 219.744C130.662 218.589 132.559 222.544 132.559 222.544C134.862 216.384 130.102 209.132 130.102 209.132Z" fill="#263238"/>
<path d="M132.671 224.105C132.335 222.873 132.573 217.805 131.04 218.267C129.696 218.68 130.34 223.909 131.74 227.402C133.14 230.895 134.855 230.902 134.904 229.887C134.953 228.872 133.791 228.235 133.504 226.772" fill="#BFBFBF"/>
<path d="M132.671 224.105C132.335 222.873 132.573 217.805 131.04 218.267C129.696 218.68 130.34 223.909 131.74 227.402C133.14 230.895 134.855 230.902 134.904 229.887C134.953 228.872 133.791 228.235 133.504 226.772" stroke="#263238" stroke-miterlimit="10"/>
<path opacity="0.3" d="M129.311 202.846C129.311 202.846 129.92 197.071 126.021 197.246C122.122 197.421 122.325 202.846 122.325 202.846C122.325 202.846 119.049 201.733 117.929 203.623C116.809 205.513 117.964 209.335 117.964 209.335C117.964 209.335 114.464 210.448 115.325 212.793C116.186 215.138 113.925 215.488 113.925 215.488" stroke="white" stroke-linecap="round" stroke-linejoin="round"/>
<path opacity="0.3" d="M128.422 207.564C128.422 207.564 127.806 212.674 124.159 212.793C124.159 212.793 120.407 224.329 107.66 224.084" stroke="white" stroke-linecap="round" stroke-linejoin="round"/>
<path opacity="0.3" d="M118.657 196.476C118.657 196.476 115.717 193.725 112.182 195.412C108.647 197.099 110.999 201.887 110.999 201.887C110.999 201.887 107.569 201.677 106.442 204.267C105.315 206.857 108.654 208.551 108.654 208.551C108.654 208.551 104.846 210.574 106.442 212.177C108.038 213.78 106.442 217 106.442 217" stroke="white" stroke-linecap="round" stroke-linejoin="round"/>
<path opacity="0.3" d="M103.957 201.887C103.957 201.887 98.6231 203.567 99.7571 207.564C100.891 211.561 101.787 211.547 101.787 211.547C101.787 211.547 97.7901 212.947 97.5451 215.824C97.3001 218.701 100.758 218.582 100.758 218.582C100.758 218.582 99.6451 221.48 102.487 222.572" stroke="white" stroke-linecap="round" stroke-linejoin="round"/>
<path d="M105.833 252C105.833 252 118.706 242.9 142.135 252.462L159.712 248.36C159.712 248.36 171.08 279.237 164.262 310.884C164.262 310.884 149.009 321.825 123.473 321.769C95.7737 321.699 88.9137 310.884 88.9137 310.884L92.8757 300.783C90.4887 289.247 87.4017 270.753 89.7537 261.177C93.3307 246.617 105.833 252 105.833 252Z" fill="#757575"/>
<g opacity="0.3">
<path opacity="0.3" d="M158.438 314.153C157.374 314.671 156.156 315.217 154.812 315.777C154.7 314.44 154.588 313.117 154.49 311.808C154.392 310.499 154.287 309.148 154.196 307.839C153.902 303.877 153.657 300.083 153.447 296.478C153.368 295.106 153.295 293.76 153.23 292.439C152.95 287.035 152.747 282.065 152.621 277.529C152.579 276.059 152.542 274.638 152.509 273.266C152.411 268.45 152.376 264.194 152.404 260.498C152.404 259.042 152.404 257.698 152.446 256.382C152.488 253.946 152.544 251.818 152.614 249.998L156.387 249.116C156.331 250.698 156.268 252.553 156.226 254.681C156.226 255.99 156.177 257.39 156.163 258.881C156.163 262.381 156.163 266.49 156.226 271.145C156.226 272.545 156.256 274.008 156.317 275.534C156.434 280.135 156.63 285.22 156.905 290.787C156.975 292.117 157.038 293.482 157.115 294.868C157.325 298.48 157.558 302.279 157.815 306.264C157.913 307.575 158.013 308.905 158.116 310.254C158.235 311.549 158.333 312.837 158.438 314.153Z" fill="#FFCF23"/>
</g>
<g opacity="0.3">
<path opacity="0.3" d="M147.315 251.237C147.035 253.302 146.741 255.773 146.447 258.615C146.307 259.903 146.167 261.275 146.041 262.717C145.67 266.833 145.341 271.537 145.075 276.717C145.012 278.075 144.949 279.468 144.907 280.917C144.739 285.544 144.655 290.5 144.711 295.729C144.711 297.045 144.711 298.375 144.767 299.719C144.842 303.452 144.991 307.326 145.215 311.339C145.292 312.627 145.369 313.929 145.467 315.245C145.542 316.449 145.633 317.66 145.74 318.878C144.557 319.2 143.325 319.508 142.044 319.788C141.953 318.675 141.862 317.569 141.792 316.47C141.694 315.168 141.61 313.873 141.533 312.592C141.288 308.56 141.134 304.633 141.05 300.825C141.008 299.502 140.987 298.2 140.973 296.905C140.91 291.732 140.973 286.818 141.113 282.205C141.155 280.805 141.207 279.449 141.267 278.138C141.491 272.867 141.82 268.058 142.184 263.809C142.31 262.409 142.429 261.072 142.555 259.798C142.849 256.907 143.143 254.345 143.416 252.161L147.315 251.237Z" fill="#FFCF23"/>
</g>
<g opacity="0.3">
<path opacity="0.3" d="M134.771 249.9C134.393 252.882 133.945 256.9 133.497 261.674C133.376 262.911 133.261 264.199 133.154 265.538C132.79 269.983 132.454 274.981 132.174 280.385C132.111 281.659 132.048 282.947 131.999 284.263C131.81 288.925 131.698 293.853 131.677 298.963C131.677 300.223 131.677 301.497 131.677 302.785C131.677 306.845 131.789 311.017 131.964 315.252C132.013 316.519 132.069 317.786 132.139 319.067C132.139 319.809 132.216 320.544 132.265 321.286C131.047 321.405 129.801 321.51 128.527 321.573C128.492 320.992 128.457 320.411 128.429 319.837C128.359 318.57 128.296 317.31 128.247 316.05C128.058 311.689 127.96 307.398 127.932 303.212C127.932 301.945 127.932 300.692 127.932 299.439C127.932 294.322 128.058 289.394 128.24 284.739C128.289 283.444 128.338 282.177 128.401 280.924C128.66 275.513 128.996 270.487 129.367 266C129.472 264.684 129.584 263.41 129.696 262.192C130.193 256.746 130.704 252.266 131.096 249.039C132.3 249.291 133.504 249.578 134.771 249.9Z" fill="#FFCF23"/>
</g>
<g opacity="0.3">
<path opacity="0.3" d="M121.499 321.72C120.19 321.72 118.923 321.643 117.705 321.559C117.705 321.349 117.656 321.132 117.635 320.908C117.509 319.69 117.404 318.437 117.32 317.142C117.026 312.774 116.935 308.042 116.844 302.953C116.844 302.743 116.844 302.547 116.844 302.337C116.844 301.294 116.809 300.237 116.788 299.145C116.704 294.588 116.578 289.73 116.291 284.599C116.221 283.353 116.144 282.079 116.053 280.798C115.927 278.985 115.78 277.151 115.605 275.282C115.29 271.964 115.129 268.982 115.094 266.224C115.094 264.894 115.094 263.641 115.136 262.458C115.203 257.679 115.909 252.93 117.236 248.339C118.577 248.186 119.925 248.102 121.275 248.087C120.274 250.831 119.126 255.472 118.902 262.661C118.867 263.844 118.853 265.09 118.902 266.413C118.93 268.975 119.089 271.812 119.378 274.925C119.579 277.039 119.749 279.115 119.889 281.155C119.973 282.429 120.05 283.682 120.113 284.921C120.386 290.108 120.505 295.008 120.589 299.621C120.589 300.531 120.589 301.42 120.638 302.302C120.638 302.666 120.638 303.002 120.638 303.387C120.729 308.287 120.82 312.914 121.114 317.114C121.198 318.402 121.303 319.648 121.443 320.852C121.422 321.132 121.464 321.426 121.499 321.72Z" fill="#FFCF23"/>
</g>
<g opacity="0.3">
<path opacity="0.3" d="M108.976 265.391C108.831 267.824 108.814 270.264 108.927 272.699C109.046 275.03 109.095 277.242 109.095 279.377C109.095 280.7 109.095 281.981 109.046 283.255C108.934 287.595 108.654 291.711 108.346 295.953C108.346 296.331 108.297 296.716 108.269 297.101C108.178 298.375 108.094 299.663 108.017 300.972C107.793 304.472 107.618 308.119 107.576 312.046C107.576 313.096 107.576 314.146 107.576 315.098C107.604 316.535 107.658 317.896 107.737 319.179C107.737 319.564 107.779 319.949 107.814 320.32C106.452 320.054 105.178 319.755 103.992 319.424C103.957 318.864 103.929 318.29 103.901 317.695C103.838 316.337 103.81 314.895 103.803 313.418C103.803 312.956 103.803 312.48 103.803 312.018C103.845 307.629 104.055 303.618 104.3 299.761C104.391 298.431 104.475 297.129 104.566 295.834C104.566 295.792 104.566 295.743 104.566 295.694C104.881 291.165 105.182 286.797 105.266 282.142C105.266 280.84 105.266 279.517 105.266 278.159C105.266 276.465 105.203 274.715 105.112 272.895C104.981 270.112 105.007 267.324 105.189 264.544C105.259 263.263 105.364 261.989 105.476 260.722C105.784 257.453 106.225 254.275 106.694 251.426C107.818 250.827 108.988 250.321 110.194 249.914H110.229C110.411 249.844 110.6 249.781 110.796 249.725C110.173 253.225 109.543 257.362 109.158 261.625C109.13 262.864 109.039 264.131 108.976 265.391Z" fill="#FFCF23"/>
</g>
<g opacity="0.3">
<path opacity="0.3" d="M104.3 251.475C104.832 251.608 105.259 251.755 105.518 251.846C102.988 253.462 101.144 255.954 100.338 258.846C99.9812 260.088 99.7813 261.369 99.7432 262.661C99.7058 263.557 99.7268 264.455 99.8062 265.349C100.124 269.003 100.324 272.531 100.408 275.933C100.457 277.333 100.478 278.733 100.478 280.133C100.498 284.682 100.281 289.229 99.8272 293.755C99.7012 295.085 99.5472 296.399 99.3652 297.696C99.2672 298.445 99.1622 299.194 99.0432 299.936C98.6022 302.736 98.1682 306.124 97.8112 309.575C97.6642 311.038 97.5242 312.508 97.4052 313.964C97.3258 314.958 97.2559 315.938 97.1952 316.904C95.9432 316.331 94.7338 315.669 93.5762 314.923C93.6672 313.712 93.7792 312.501 93.8912 311.332C94.0452 309.708 94.2132 308.154 94.3812 306.733C94.8712 302.498 95.3332 299.439 95.3472 299.355C95.5152 298.258 95.6692 297.145 95.8092 296.016C95.9772 294.686 96.1172 293.34 96.2292 291.977C96.6391 287.395 96.8003 282.794 96.7122 278.194C96.7122 276.724 96.6492 275.24 96.5862 273.721C96.4788 271.112 96.3062 268.424 96.0682 265.657C95.92 264.111 95.92 262.555 96.0682 261.009C96.1965 259.713 96.4617 258.434 96.8592 257.194C97.6057 254.847 98.9043 252.713 100.646 250.971C101.881 250.983 103.109 251.152 104.3 251.475Z" fill="#FFCF23"/>
</g>
<g opacity="0.3">
<path opacity="0.3" d="M162.001 255.927C160.398 256.837 158.445 257.866 156.156 258.902C154.994 259.434 153.743 259.966 152.404 260.498C150.458 261.268 148.33 262.017 146.041 262.717C144.804 263.095 143.519 263.452 142.184 263.788C139.207 264.54 136.193 265.134 133.154 265.566C131.922 265.741 130.648 265.888 129.36 266.014C126.616 266.287 123.76 266.434 120.764 266.434C120.218 266.434 119.679 266.434 119.14 266.434H118.846C117.558 266.434 116.298 266.343 115.08 266.245C113.032 266.075 110.994 265.797 108.976 265.412C107.688 265.16 106.449 264.875 105.259 264.558C103.375 264.056 101.523 263.439 99.7149 262.71C98.4362 262.201 97.2205 261.655 96.0679 261.072C94.2517 260.157 92.4979 259.124 90.8179 257.978C91.3004 256.819 91.9386 255.731 92.7149 254.744C94.0475 255.659 95.4311 256.498 96.8589 257.257C97.9369 257.831 99.0919 258.384 100.31 258.895C102.015 259.618 103.764 260.233 105.546 260.736C106.722 261.079 107.954 261.373 109.242 261.632C111.184 262.029 113.147 262.312 115.122 262.479C116.333 262.591 117.579 262.654 118.867 262.682H119.203C119.714 262.682 120.218 262.682 120.722 262.682C123.717 262.682 126.711 262.521 129.689 262.199C130.991 262.059 132.26 261.891 133.497 261.695C136.55 261.226 139.575 260.583 142.555 259.77C143.906 259.406 145.201 259.014 146.447 258.608C148.617 257.908 150.647 257.138 152.446 256.375C153.846 255.808 155.064 255.234 156.219 254.674C158.074 253.778 159.656 252.924 160.944 252.168C161.266 253.232 161.623 254.492 162.001 255.927Z" fill="#FFCF23"/>
</g>
<g opacity="0.3">
<path opacity="0.3" d="M164.899 269.934C162.156 271.978 159.287 273.848 156.31 275.534C155.141 276.234 153.916 276.864 152.621 277.508C150.12 278.775 147.549 279.899 144.921 280.875C143.689 281.337 142.429 281.771 141.127 282.163C138.148 283.08 135.107 283.782 132.027 284.263C130.795 284.452 129.535 284.613 128.261 284.725C126.534 284.884 124.77 284.965 122.969 284.97C122.017 284.97 121.051 284.97 120.085 284.893C118.832 284.83 117.579 284.725 116.305 284.571C116.06 284.571 115.815 284.515 115.57 284.487C113.381 284.199 111.212 283.778 109.074 283.227C107.786 282.891 106.545 282.518 105.35 282.107C103.684 281.538 102.049 280.884 100.45 280.147C99.1341 279.538 97.8811 278.887 96.6841 278.208C93.9615 276.656 91.3844 274.861 88.9841 272.846C88.9141 271.061 88.9001 269.346 88.9841 267.722C91.3154 269.973 93.8642 271.987 96.5931 273.735C97.8018 274.514 99.0758 275.247 100.415 275.933C102.023 276.759 103.678 277.491 105.371 278.124C106.575 278.579 107.835 278.985 109.13 279.349C111.403 279.985 113.719 280.453 116.06 280.749C117.334 280.917 118.594 281.036 119.854 281.106C122.709 281.26 125.572 281.187 128.415 280.889C129.696 280.756 130.963 280.581 132.195 280.364C135.282 279.831 138.325 279.063 141.295 278.068C142.597 277.634 143.871 277.165 145.103 276.668C147.643 275.653 150.125 274.499 152.537 273.21C153.848 272.51 155.085 271.81 156.247 271.11C159.008 269.45 161.668 267.626 164.213 265.65C164.437 267.05 164.675 268.464 164.899 269.934Z" fill="#FFCF23"/>
</g>
<g opacity="0.3">
<path opacity="0.3" d="M166.439 289.401V290.248C163.751 291.711 160.594 293.314 157.108 294.889C155.925 295.428 154.7 295.96 153.447 296.478C150.696 297.626 147.777 298.725 144.767 299.698C143.549 300.09 142.303 300.461 141.05 300.804C137.972 301.674 134.841 302.347 131.677 302.82C130.431 303.002 129.185 303.142 127.932 303.247C126.448 303.373 124.957 303.443 123.48 303.443C122.514 303.443 121.555 303.443 120.596 303.359C119.455 303.289 118.321 303.17 117.187 303.009L116.844 302.953C113.864 302.512 110.919 301.86 108.031 301C106.778 300.622 105.553 300.216 104.342 299.782C102.629 299.157 100.961 298.485 99.3371 297.766C98.1191 297.229 96.9337 296.669 95.7811 296.086C94.3017 295.353 92.8831 294.593 91.5251 293.804C91.2381 292.215 90.9581 290.563 90.6851 288.904C92.4211 289.982 94.2597 291.037 96.2011 292.068C97.3631 292.677 98.5671 293.272 99.7991 293.846C101.353 294.569 102.956 295.246 104.608 295.876C105.805 296.331 107.03 296.765 108.283 297.15C111.059 298.041 113.897 298.724 116.774 299.194C117.089 299.25 117.404 299.299 117.726 299.341C118.65 299.474 119.588 299.572 120.526 299.642C122.989 299.794 125.461 299.754 127.918 299.523C129.171 299.404 130.417 299.25 131.67 299.047C134.811 298.547 137.916 297.846 140.966 296.947C142.226 296.583 143.472 296.191 144.704 295.771C147.665 294.777 150.521 293.671 153.223 292.502C154.483 291.97 155.708 291.417 156.891 290.871C160.517 289.184 163.751 287.483 166.383 286.013C166.425 287.091 166.439 288.239 166.439 289.401Z" fill="#FFCF23"/>
</g>
<g opacity="0.3">
<path opacity="0.3" d="M165.641 302.673C165.557 303.373 165.459 304.073 165.354 304.773C165.249 305.473 165.109 306.355 164.976 307.153C163.086 308.049 160.776 309.113 158.137 310.254C156.982 310.758 155.757 311.269 154.49 311.787C151.69 312.928 148.652 314.097 145.467 315.203C144.256 315.623 143.031 316.036 141.792 316.428C138.628 317.436 135.38 318.346 132.139 319.081C130.9 319.375 129.661 319.627 128.429 319.851C126.148 320.279 123.847 320.592 121.534 320.789H121.401C120.477 320.866 119.553 320.894 118.657 320.894C118.314 320.894 117.957 320.894 117.635 320.894C114.292 320.805 110.98 320.234 107.8 319.2C106.494 318.778 105.214 318.283 103.964 317.716C101.674 316.681 99.4789 315.447 97.405 314.027C96.138 313.173 94.962 312.277 93.905 311.395C92.5808 310.309 91.3122 309.157 90.104 307.944L91.63 304.073C92.407 304.899 93.331 305.823 94.395 306.796C95.459 307.769 96.565 308.679 97.825 309.638C99.7294 311.078 101.755 312.35 103.88 313.439C105.101 314.077 106.361 314.638 107.653 315.119C110.761 316.31 114.038 317 117.362 317.163C118.608 317.218 119.856 317.197 121.1 317.1H121.261C123.611 316.9 125.948 316.57 128.261 316.113C129.493 315.875 130.732 315.609 131.978 315.315C135.184 314.559 138.411 313.621 141.547 312.599C142.793 312.193 144.025 311.773 145.229 311.346C148.407 310.212 151.445 309.022 154.21 307.846C155.491 307.321 156.702 306.796 157.85 306.292C161.091 304.871 163.8 303.59 165.641 302.673Z" fill="#FFCF23"/>
</g>
<path opacity="0.2" d="M142.268 252.406C137.109 255.346 124.705 261.716 115.479 261.009C108.073 260.442 104.979 255.528 104.279 251.475C104.811 251.605 105.333 251.773 105.84 251.979C105.84 251.979 118.713 242.879 142.142 252.441L142.268 252.406Z" fill="black" fill-opacity="0.7"/>
<path opacity="0.2" d="M125.622 321.72C124.922 321.72 124.222 321.72 123.473 321.72C95.7811 321.65 88.9141 310.828 88.9141 310.828L92.8831 300.727C91.1906 292.86 89.9704 284.898 89.2291 276.885C91.3921 281.358 104.853 307.293 124.782 307.181C138.908 307.125 132.146 315.7 125.622 321.72Z" fill="black" fill-opacity="0.7"/>
<path opacity="0.2" d="M166.439 289.401C166.454 294.554 166.092 299.701 165.354 304.801C158.039 295.988 160.342 280.007 160.342 280.007C161.308 286.23 164.542 288.554 166.439 289.401Z" fill="black" fill-opacity="0.7"/>
<path d="M105.833 252C105.833 252 118.706 242.9 142.135 252.462L159.712 248.36C159.712 248.36 171.08 279.237 164.262 310.884C164.262 310.884 149.009 321.825 123.473 321.769C95.7737 321.699 88.9137 310.884 88.9137 310.884L92.8757 300.783C90.4887 289.247 87.4017 270.753 89.7537 261.177C93.3307 246.617 105.833 252 105.833 252Z" stroke="#263238" stroke-linecap="round" stroke-linejoin="round"/>
<path d="M114.562 256.963C122.654 257.278 132.482 257.222 139.538 252.721" stroke="#263238" stroke-linecap="round" stroke-linejoin="round"/>
<path d="M110.033 256.662C110.733 256.738 111.482 256.793 112.21 256.841" stroke="#263238" stroke-linecap="round" stroke-linejoin="round"/>
<path d="M116.277 306.999C116.32 308.303 116.506 309.599 116.83 310.863" stroke="#263238" stroke-linecap="round" stroke-linejoin="round"/>
<path d="M114.149 258.804C112.75 261.963 112.303 265.461 112.861 268.87C115.983 280.77 117.859 291.97 116.249 304.038" stroke="#263238" stroke-linecap="round" stroke-linejoin="round"/>
<path d="M118.559 298.9C122.626 299.905 126.871 299.946 130.956 299.019" stroke="#263238" stroke-linecap="round" stroke-linejoin="round"/>
<path d="M93.1558 273.749C97.5518 284.123 105.49 292.971 115.647 297.955" stroke="#263238" stroke-linecap="round" stroke-linejoin="round"/>
<path d="M91.084 267.869C91.322 268.709 91.581 269.549 91.868 270.382" stroke="#263238" stroke-linecap="round" stroke-linejoin="round"/>
<path d="M159.712 248.339C158.408 258.341 158.552 268.478 160.139 278.439C162.757 295.239 166.859 295.078 166.859 295.078C166.859 295.078 190.274 266.14 196.532 254.443C196.532 254.443 195.048 237.643 188.461 234.073L159.712 248.339Z" fill="#757575"/>
<g opacity="0.3">
<path opacity="0.3" d="M192.332 261.226C191.387 262.626 190.372 264.117 189.294 265.643C188.741 262.318 188.097 259.245 187.397 256.403C187.061 255.003 186.706 253.671 186.333 252.406C185.542 249.606 184.695 247.1 183.841 244.825C183.374 243.542 182.889 242.338 182.385 241.213C181.862 239.995 181.347 238.868 180.838 237.832L184.24 236.138C184.674 237.013 185.108 237.937 185.549 238.938C186.046 240.065 186.543 241.262 187.04 242.55C187.88 244.706 188.701 247.093 189.504 249.711C189.882 250.978 190.26 252.301 190.61 253.687C191.235 256.03 191.809 258.543 192.332 261.226Z" fill="#FFCF23"/>
</g>
<g opacity="0.3">
<path opacity="0.3" d="M183.75 273.28C182.644 274.757 181.545 276.227 180.446 277.662C179.992 272.962 179.291 268.289 178.346 263.662C178.071 262.262 177.777 260.911 177.464 259.609C176.708 256.326 175.868 253.309 175.021 250.551C174.615 249.263 174.209 248.033 173.803 246.862C173.222 245.161 172.641 243.6 172.088 242.179L175.49 240.492C176.008 241.801 176.554 243.229 177.1 244.783C177.515 245.945 177.931 247.175 178.346 248.472C179.165 251.069 179.984 253.918 180.74 257.005C181.062 258.316 181.375 259.667 181.678 261.058C182.497 264.831 183.204 268.905 183.75 273.28Z" fill="#FFCF23"/>
</g>
<g opacity="0.3">
<path opacity="0.3" d="M174.881 284.9C173.733 286.384 172.655 287.749 171.682 288.981C170.828 282.744 169.75 276.584 168.602 270.781C168.336 269.423 168.065 268.088 167.79 266.777C166.985 262.92 166.159 259.28 165.368 255.955C165.06 254.646 164.752 253.393 164.458 252.196C163.961 250.18 163.485 248.325 163.058 246.652L166.488 244.944C166.915 246.568 167.384 248.367 167.888 250.334C168.196 251.538 168.504 252.798 168.826 254.114C169.575 257.264 170.366 260.715 171.15 264.383C171.43 265.692 171.71 267.036 171.99 268.401C173.012 273.7 174.027 279.23 174.881 284.9Z" fill="#FFCF23"/>
</g>
<g opacity="0.3">
<path opacity="0.3" d="M192.36 238.476C190.75 239.757 188.979 241.129 187.04 242.543C186.018 243.294 184.952 244.055 183.841 244.825C182.147 246.02 180.32 247.245 178.36 248.5C177.289 249.2 176.176 249.9 175.035 250.6C173.052 251.804 170.97 253.003 168.791 254.198C167.671 254.814 166.537 255.423 165.368 256.032C163.268 257.117 161.119 258.195 158.879 259.245C158.879 257.691 158.97 256.277 159.054 255.01C160.921 254.114 162.722 253.204 164.458 252.28C165.613 251.657 166.747 251.041 167.853 250.418C169.953 249.256 171.92 248.08 173.817 246.918C174.951 246.223 176.05 245.523 177.114 244.818C178.976 243.614 180.733 242.417 182.385 241.248C183.484 240.471 184.541 239.715 185.549 238.966C187.222 237.727 188.762 236.53 190.176 235.403C190.636 235.878 191.053 236.393 191.422 236.943C191.767 237.433 192.081 237.945 192.36 238.476Z" fill="#FFCF23"/>
</g>
<g opacity="0.3">
<path opacity="0.3" d="M195.769 249.2C194.145 250.642 192.423 252.147 190.61 253.694C189.565 254.59 188.494 255.498 187.397 256.417C185.556 257.95 183.652 259.511 181.692 261.072C180.6 261.94 179.487 262.815 178.36 263.676C176.26 265.286 174.125 266.889 171.955 268.45C170.842 269.255 169.729 270.046 168.602 270.823C165.711 272.818 162.778 274.729 159.859 276.486C159.663 275.086 159.509 273.728 159.376 272.398C162.176 270.655 164.976 268.772 167.776 266.798C168.889 266.014 170.002 265.223 171.101 264.411C173.264 262.836 175.392 261.219 177.464 259.595C178.57 258.727 179.669 257.859 180.74 256.991C182.665 255.451 184.527 253.904 186.34 252.392C187.418 251.475 188.482 250.579 189.511 249.69C191.387 248.059 193.165 246.484 194.824 244.993C195.209 246.463 195.524 247.898 195.769 249.2Z" fill="#FFCF23"/>
</g>
<path opacity="0.2" d="M196.532 254.415C190.267 266.112 166.852 295.05 166.852 295.05C166.852 295.05 163.352 295.197 160.769 282.016C162.68 289.121 167.86 289.849 167.86 289.849L191.716 258.3C189.175 252.896 191.359 237.342 191.422 236.929C195.517 242.9 196.532 254.415 196.532 254.415Z" fill="black" fill-opacity="0.7"/>
<path d="M159.712 248.339C158.408 258.341 158.552 268.478 160.139 278.439C162.757 295.239 166.859 295.078 166.859 295.078C166.859 295.078 190.274 266.14 196.532 254.443C196.532 254.443 195.048 237.643 188.461 234.073L159.712 248.339Z" stroke="#263238" stroke-linecap="round" stroke-linejoin="round"/>
<path d="M142.135 252.441C142.135 252.441 132.44 245.329 119.588 243.831C106.736 242.333 107.1 249.9 107.1 249.9C106.574 250.119 106.154 250.533 105.924 251.054C105.695 251.575 105.675 252.164 105.868 252.7C106.4 254.849 123.802 256.9 142.135 252.441Z" fill="#757575"/>
<g opacity="0.3">
<path opacity="0.3" d="M118.818 243.747C118.469 244.593 118.167 245.457 117.915 246.337C117.6 247.387 117.285 248.633 116.998 250.089C116.711 251.545 116.473 253.155 116.298 254.989C114.898 254.926 113.68 254.821 112.546 254.702C112.721 252.959 112.952 251.398 113.197 249.998C113.442 248.598 113.736 247.324 114.037 246.218C114.289 245.259 114.555 244.419 114.814 243.67C116.148 243.583 117.488 243.609 118.818 243.747Z" fill="#FFCF23"/>
</g>
<g opacity="0.3">
<path opacity="0.3" d="M129.101 246.001C129.101 246.477 129.101 246.988 129.101 247.541C129.052 248.647 128.975 249.907 128.828 251.321C128.723 252.371 128.583 253.505 128.408 254.716C127.085 254.835 125.804 254.919 124.565 254.982C124.81 253.449 124.985 252.042 125.111 250.782C125.251 249.347 125.328 248.087 125.363 247.009C125.363 246.204 125.363 245.504 125.363 244.909C126.651 245.217 127.911 245.595 129.101 246.001Z" fill="#FFCF23"/>
</g>
<g opacity="0.3">
<path opacity="0.3" d="M142.135 252.441C140.735 252.77 139.419 253.071 138.068 253.337C134.813 252.462 131.705 251.804 128.8 251.321C127.519 251.104 126.287 250.922 125.083 250.768C122.122 250.383 119.413 250.187 116.998 250.068C115.598 250.012 114.345 249.998 113.176 250.005C110.896 250.009 108.618 250.131 106.351 250.369C106.553 250.167 106.79 250.003 107.051 249.886C107.075 248.599 107.548 247.361 108.388 246.386C109.907 246.274 111.797 246.197 113.988 246.204C115.192 246.204 116.494 246.204 117.887 246.295C120.134 246.407 122.619 246.61 125.307 246.953C126.511 247.098 127.757 247.28 129.045 247.499C131.334 247.877 133.756 248.353 136.269 248.962C138.31 249.971 140.271 251.134 142.135 252.441Z" fill="#FFCF23"/>
</g>
<path d="M142.135 252.441C142.135 252.441 132.44 245.329 119.588 243.831C106.736 242.333 107.1 249.9 107.1 249.9C106.574 250.119 106.154 250.533 105.924 251.054C105.695 251.575 105.675 252.164 105.868 252.7C106.4 254.849 123.802 256.9 142.135 252.441Z" stroke="#263238" stroke-linecap="round" stroke-linejoin="round"/>
<path d="M121.1 249.088C122.344 249.267 123.573 249.541 124.775 249.907" stroke="#263238" stroke-linecap="round" stroke-linejoin="round"/>
<path d="M107.1 249.9C110.853 248.962 114.726 248.598 118.587 248.822" stroke="#263238" stroke-linecap="round" stroke-linejoin="round"/>
<path d="M84.8398 249.032C84.8398 250.264 84.9448 251.496 85.0779 252.721" stroke="#263238" stroke-linecap="round" stroke-linejoin="round"/>
<path d="M90.4677 234.045C86.5757 236.593 85.1967 242.116 84.8677 246.428" stroke="#263238" stroke-linecap="round" stroke-linejoin="round"/>
<path d="M182.826 266.595C181.837 267.66 180.647 268.519 179.326 269.122" stroke="#263238" stroke-linecap="round" stroke-linejoin="round"/>
<path d="M193.9 242.081C191.555 249.501 189.056 257.628 184.583 264.481" stroke="#263238" stroke-linecap="round" stroke-linejoin="round"/>
<path d="M166.859 295.05C166.859 295.05 163.247 296.807 158.459 286.902" stroke="#263238" stroke-linecap="round" stroke-linejoin="round"/>
<path d="M160.86 304.542C157.36 310.625 152.404 316.281 145.74 318.857" stroke="#263238" stroke-linecap="round" stroke-linejoin="round"/>
<path d="M163.555 298.9C163.191 299.887 162.764 300.846 162.309 301.791" stroke="#263238" stroke-linecap="round" stroke-linejoin="round"/>
</svg>
