<svg width="44" height="50" viewBox="0 0 44 50" fill="none" xmlns="http://www.w3.org/2000/svg">
<path d="M15.625 3.125V6.25H28.125V3.125C28.125 1.39941 29.5215 0 31.25 0C32.9785 0 34.375 1.39941 34.375 3.125V6.25H39.0625C41.6504 6.25 43.75 8.34863 43.75 10.9375V15.625H0V10.9375C0 8.34863 2.09863 6.25 4.6875 6.25H9.375V3.125C9.375 1.39941 10.7715 0 12.5 0C14.2285 0 15.625 1.39941 15.625 3.125ZM0 18.75H43.75V45.3125C43.75 47.9004 41.6504 50 39.0625 50H4.6875C2.09863 50 0 47.9004 0 45.3125V18.75ZM32.041 29.6973C33.0371 28.8672 33.0371 27.3828 32.041 26.4648C31.2109 25.5566 29.7266 25.5566 28.8086 26.4648L19.5312 35.752L14.8535 31.1523C14.0234 30.2441 12.5391 30.2441 11.6211 31.1523C10.7129 32.0703 10.7129 33.5547 11.6211 34.3848L17.8711 40.6348C18.7891 41.6309 20.2734 41.6309 21.1035 40.6348L32.041 29.6973Z" fill="#FFCF23"/>
</svg>
