<svg width="18" height="20" viewBox="0 0 18 20" fill="none" xmlns="http://www.w3.org/2000/svg">
<path d="M6.875 17.5C6.53516 17.5 6.25 17.7852 6.25 18.125V20H7.5V18.125C7.5 17.7852 7.21875 17.5 6.875 17.5ZM10.625 17.5C10.2832 17.5 10 17.7832 10 18.125C10 18.4668 10.2832 18.75 10.625 18.75C10.9668 18.75 11.25 18.4668 11.25 18.125C11.25 17.7832 10.9688 17.5 10.625 17.5ZM6.40625 6.71875L6.72676 7.68047C6.77422 7.82285 6.97578 7.82285 7.02324 7.68047L7.34375 6.71875L8.30547 6.39832C8.44789 6.3507 8.44789 6.1493 8.30547 6.10168L7.34375 5.78125L7.02344 4.82031C6.97598 4.67781 6.77441 4.67781 6.72695 4.82031L6.40625 5.78125L5.44531 6.10156C5.30289 6.14918 5.30289 6.35059 5.44531 6.3982L6.40625 6.71875ZM13.1289 12.3203C11.875 13.2266 10.3555 13.75 8.75 13.75C7.14453 13.75 5.62383 13.2254 4.37109 12.3207C1.81836 13.2891 0 15.7539 0 18.6445C0 19.3945 0.60625 20 1.35391 20H5V17.5C5 16.8066 5.55664 16.25 6.25 16.25H11.25C11.9434 16.25 12.5 16.8066 12.5 17.5V20H16.1461C16.8945 20 17.5 19.3945 17.5 18.6445C17.5 15.7539 15.6836 13.2891 13.1289 12.3203ZM2.5 8.75H3.02734C3.99609 10.957 6.1875 12.5 8.75 12.5C11.3125 12.5 13.5078 10.957 14.4727 8.75H15C15.3418 8.75 15.625 8.4668 15.625 8.125V4.375C15.625 4.03516 15.3438 3.75 15 3.75H14.4727C13.5078 1.54297 11.3125 0 8.75 0C6.1875 0 3.99609 1.54297 3.02734 3.75H2.5C2.1582 3.75 1.875 4.03516 1.875 4.375V8.125C1.875 8.46875 2.1582 8.75 2.5 8.75ZM4.0625 5.3125C4.0625 4.44922 4.90234 3.75 5.9375 3.75H11.5625C12.5977 3.75 13.4375 4.44844 13.4375 5.3125V6.25C13.4375 8.32031 11.7578 10 9.6875 10H7.8125C5.74219 10 4.0625 8.32031 4.0625 6.25V5.3125Z" fill="black"/>
</svg>
