<svg width="20" height="21" viewBox="0 0 20 21" fill="none" xmlns="http://www.w3.org/2000/svg">
<path fill-rule="evenodd" clip-rule="evenodd" d="M20 10.998C20 16.5209 15.5228 20.998 10 20.998C4.47715 20.998 0 16.5209 0 10.998C0 5.4752 4.47715 0.998047 10 0.998047C15.5228 0.998047 20 5.4752 20 10.998ZM7.93478 14.9015L9.46617 13.8076L9.65177 13.675L9.82054 13.8285L12.1656 15.9603C12.3308 16.1105 12.5967 16.0188 12.6342 15.7988L14.2674 6.23299C14.3048 6.01434 14.0871 5.83988 13.8818 5.92386L3.51581 10.1645C3.29327 10.2556 3.27885 10.5652 3.49196 10.6766L6.04656 12.0111L11.0162 8.46128C11.3468 8.22518 11.7375 8.66413 11.4646 8.96504L7.93478 12.8578V14.9015ZM5.44444 12.8151L2.79561 11.1851C2.20593 10.8222 2.27634 9.94376 2.91629 9.67943L13.9557 5.11969C14.5692 4.86627 15.2228 5.38434 15.1161 6.03952L13.4507 16.2701C13.3483 16.8989 12.6149 17.1944 12.1052 16.8121L9.62083 14.9488L7.83129 16.1419C7.37936 16.4432 6.76466 16.2477 6.56968 15.7408L5.44444 12.8151Z" fill="black"/>
</svg>
