<svg width="97" height="27" viewBox="0 0 97 27" fill="none" xmlns="http://www.w3.org/2000/svg">
<path d="M1.10326 16.5003C-0.7243 18.937 -0.230457 22.3939 2.20629 24.2215C4.64304 26.049 8.09994 25.5552 9.9275 23.1185L1.10326 16.5003ZM86.7136 23.9689C88.6301 26.3363 92.1029 26.7019 94.4704 24.7854C96.8378 22.8689 97.2034 19.3961 95.2869 17.0286L86.7136 23.9689ZM73.9311 7.84111L78.52 10.9004L73.9311 7.84111ZM67.0223 18.2043L62.4334 15.1451L67.0223 18.2043ZM58.4479 18.2043L63.0368 15.1451L58.4479 18.2043ZM51.7099 8.09736L56.2988 5.0381L51.7099 8.09736ZM44.1017 7.88618L39.6896 4.57709L44.1017 7.88618ZM28.1373 17.298L23.4081 20.1355L28.1373 17.298ZM22.8783 8.53288L27.6075 5.69536L22.8783 8.53288ZM14.3045 8.09059L9.89234 4.7815L14.3045 8.09059ZM9.9275 23.1185L18.7166 11.3997L9.89234 4.7815L1.10326 16.5003L9.9275 23.1185ZM18.1491 11.3704L23.4081 20.1355L32.8665 14.4604L27.6075 5.69536L18.1491 11.3704ZM41.1233 21.0493L48.5138 11.1953L39.6896 4.57709L32.299 14.4312L41.1233 21.0493ZM47.121 11.1566L53.859 21.2636L63.0368 15.1451L56.2988 5.0381L47.121 11.1566ZM76.2205 11.0068L86.7136 23.9689L95.2869 17.0286L84.7938 4.06656L76.2205 11.0068ZM71.6112 21.2636L78.52 10.9004L69.3422 4.78185L62.4334 15.1451L71.6112 21.2636ZM77.3311 11.5366C76.8999 11.5366 76.4918 11.3419 76.2205 11.0068L84.7938 4.06656C82.9708 1.81465 80.2284 0.506333 77.3311 0.506333V11.5366ZM77.3311 0.506333C74.1208 0.506333 71.1229 2.11074 69.3422 4.78185L78.52 10.9004C78.255 11.2979 77.8088 11.5366 77.3311 11.5366V0.506333ZM62.7351 26.0139C66.3019 26.0139 69.6327 24.2313 71.6112 21.2636L62.4334 15.1451C62.5006 15.0442 62.6139 14.9836 62.7351 14.9836V26.0139ZM53.859 21.2636C55.8375 24.2313 59.1683 26.0139 62.7351 26.0139V14.9836C62.8563 14.9836 62.9695 15.0442 63.0368 15.1451L53.859 21.2636ZM47.8311 11.5366C47.5458 11.5366 47.2793 11.394 47.121 11.1566L56.2988 5.0381C54.4113 2.2069 51.2338 0.506333 47.8311 0.506333V11.5366ZM48.5138 11.1953C48.3527 11.4102 48.0997 11.5366 47.8311 11.5366V0.506333C44.6279 0.506333 41.6115 2.01449 39.6896 4.57709L48.5138 11.1953ZM32.5729 25.3245C35.937 25.3245 39.1048 23.7406 41.1233 21.0493L32.299 14.4312C32.3637 14.345 32.4652 14.2942 32.5729 14.2942V25.3245ZM23.4081 20.1355C25.3397 23.3547 28.8187 25.3245 32.5729 25.3245V14.2942C32.6932 14.2942 32.8047 14.3573 32.8665 14.4604L23.4081 20.1355ZM18.4427 11.5366C18.3224 11.5366 18.211 11.4735 18.1491 11.3704L27.6075 5.69536C25.6759 2.4761 22.1969 0.506333 18.4427 0.506333V11.5366ZM18.7166 11.3997C18.6519 11.4859 18.5504 11.5366 18.4427 11.5366V0.506333C15.0786 0.506333 11.9108 2.09022 9.89234 4.7815L18.7166 11.3997Z" fill="black"/>
</svg>
