<svg width="89" height="18" viewBox="0 0 89 18" fill="none" xmlns="http://www.w3.org/2000/svg">
<path d="M2 15.8094L10.7891 4.09059C11.766 2.78806 13.2991 2.02148 14.9273 2.02148V2.02148C16.7443 2.02148 18.4281 2.97482 19.3629 4.53288L24.6219 13.298C25.5568 14.856 27.2406 15.8094 29.0576 15.8094V15.8094C30.6857 15.8094 32.2189 15.0428 33.1958 13.7403L40.5863 3.88618C41.4667 2.71233 42.8484 2.02148 44.3157 2.02148V2.02148C45.8744 2.02148 47.3299 2.80047 48.1945 4.09736L54.9325 14.2043C55.8881 15.6378 57.4969 16.4988 59.2197 16.4988V16.4988C60.9425 16.4988 62.5513 15.6378 63.5069 14.2043L70.4157 3.84111C71.1736 2.70431 72.4494 2.02148 73.8157 2.02148V2.02148C75.0488 2.02148 76.2159 2.57829 76.9917 3.53669L87.4849 16.4988" stroke="#FFCF23" stroke-width="2.75758" stroke-linecap="round"/>
</svg>
